<svg xmlns="http://www.w3.org/2000/svg" xmlns:xlink="http://www.w3.org/1999/xlink" width="84" height="37" viewBox="0 0 84 37">
    <defs>
        <path id="a" d="M0 35.725h82.917V0H0z"/>
    </defs>
    <g fill="none" fill-rule="evenodd" transform="translate(.444 .536)">
        <path fill="#152B6F" d="M11.116 7.005c0-2.277-1.56-4.73-4.986-4.73H.643A.643.643 0 0 0 0 2.918v13.127c0 .355.288.643.643.643h1.079a.643.643 0 0 0 .643-.643V4.464H6.13c.765 0 1.42.253 1.893.734.473.479.738 1.15.728 1.842v.005c0 1.567-1.01 2.502-2.699 2.502H3.717a.372.372 0 0 0-.281.615l5.492 6.365c.087.102.216.16.35.16h2.012a.367.367 0 0 0 .273-.61l-4.07-4.564c2.683-.496 3.64-2.604 3.623-4.508M14.429 10.451c.359-1.37 1.515-2.234 3.039-2.234 1.672 0 2.72.809 2.922 2.234h-5.961zm3.089-4.343c-2.875-.033-5.282 2.09-5.437 4.96-.186 3.448 2.042 5.796 5.426 5.796 1.57 0 3.087-.559 4.087-1.484.128-.118.122-.114.122-.114a.637.637 0 0 0-.003-.913l-.594-.575a.637.637 0 0 0-.89.004s-.052.051-.175.147c-.662.518-1.7.787-2.507.787-1.616 0-2.833-.891-3.135-2.254h8.022c.077 0 .142-.06.153-.137l.022-.159c.18-1.874-.236-3.429-1.204-4.495-.913-1.004-2.255-1.544-3.887-1.563zM31.484 13.792c-.574.656-1.399 1.002-2.387 1.002-1.826 0-3.15-1.358-3.15-3.23 0-1.89 1.295-3.21 3.15-3.21l.141-.017c2.09.061 3.042 1.699 3.042 3.222 0 .854-.283 1.647-.796 2.233zm.834-6.33c-.815-.825-2.043-1.29-3.322-1.295-1.484 0-2.826.522-3.783 1.472-.978.97-1.494 2.308-1.494 3.867 0 3.19 2.18 5.417 5.3 5.417 1.033 0 2.335-.367 3.27-1.34l.01.483c.008.345.291.622.637.622h.982a.637.637 0 0 0 .636-.637v-9.09a.637.637 0 0 0-.636-.637h-.958a.636.636 0 0 0-.637.63l-.005.509zM41.63 14.676c-1.539 0-3.092-.986-3.092-3.19 0-1.935 1.21-3.186 3.082-3.19 1.81.004 3.122 1.336 3.122 3.17 0 1.86-1.309 3.21-3.112 3.21zm3.171-7.25c-.923-.928-2.276-1.279-3.308-1.279-3.123 0-5.221 2.154-5.221 5.359s2.106 5.358 5.24 5.358c1.325 0 2.52-.5 3.35-1.371l.025.567c.015.34.295.608.636.608h.908a.637.637 0 0 0 .637-.637V2.912a.637.637 0 0 0-.637-.637h-.994a.637.637 0 0 0-.636.637v4.514zM57.187 6.324a.636.636 0 0 0-.636.636v4.9c0 1.626-1.12 2.82-2.66 2.836-1.64 0-2.62-1.009-2.62-2.699V6.96a.636.636 0 0 0-.636-.636h-.995a.636.636 0 0 0-.636.636v5.057c0 2.933 1.787 4.828 4.558 4.828 1.282-.019 2.294-.392 3.068-1.135v.925c0 1.825-1.002 2.915-2.68 2.915-1.304 0-2.066-.385-2.395-1.234-.068-.176-.121-.432-.121-.432a.64.64 0 0 0-.729-.509l-.918.153a.635.635 0 0 0-.52.737s.009.15.082.432c.503 1.933 2.143 3.022 4.621 3.022 2.344 0 4.848-1.326 4.848-5.044V6.96a.636.636 0 0 0-.636-.636h-.995zM75.147.196l-8.183 11.699a4.984 4.984 0 0 0-.9 2.856c0 1.07.867 1.937 1.936 1.937.192 0 .301-.089.512-.39L79.534.566A.36.36 0 0 0 79.24 0h-3.717c-.15 0-.29.073-.376.196"/>
        <path fill="#743B96" d="M82.85 16.12L77.9 9.092a.644.644 0 0 0-1.053 0l-4.95 7.03a.36.36 0 0 0 .294.567h2.956v4.193c0 .356.289.644.644.644h3.165a.644.644 0 0 0 .644-.644v-4.193h2.957a.36.36 0 0 0 .294-.567M9.64 22.936l-5.773 6.008 6.277 6.385v.126H7.626l-5.612-5.738v5.738H0v-12.59h2.014v5.431l5.127-5.432h2.5z"/>
        <mask id="b" fill="#fff">
            <use xlink:href="#a"/>
        </mask>
        <path fill="#743B96" d="M11.259 35.455h1.852V26.55H11.26v8.904zm2.086-11.475c0 1.528-2.302 1.528-2.302 0 0-1.511 2.302-1.511 2.302 0zM16.827 31.012c0 1.78 1.241 2.896 2.806 2.896 1.547 0 2.824-1.151 2.824-2.896 0-1.709-1.277-2.878-2.824-2.878-1.565 0-2.806 1.062-2.806 2.878zm7.609-8.13v12.573H22.69l-.108-1.403c-.702 1.133-1.889 1.583-3.076 1.583-2.572 0-4.533-1.691-4.533-4.623 0-3.022 1.925-4.623 4.497-4.623 1.08 0 2.536.54 3.112 1.584v-5.09h1.853zM32.53 28.764c-.701-.648-1.457-.827-2.338-.827-1.133-.019-1.888.36-1.888 1.06.017.738.79 1.026 1.924 1.134 1.637.144 3.777.504 3.76 2.788-.019 1.655-1.476 2.806-3.778 2.806-1.439 0-2.878-.324-4.047-1.637l.971-1.313c.828.917 2.069 1.295 3.112 1.313.881 0 1.87-.324 1.888-1.151.018-.792-.737-1.097-2.05-1.223-1.673-.162-3.597-.702-3.615-2.662 0-1.961 2.032-2.698 3.687-2.698 1.367 0 2.428.306 3.417 1.187l-1.043 1.223z" mask="url(#b)"/>
    </g>
</svg>
