<svg width="96" height="107" viewBox="0 0 96 107" fill="none" xmlns="http://www.w3.org/2000/svg">
<ellipse cx="48" cy="58.3114" rx="48" ry="48.4528" fill="#F2F4F6"/>
<path d="M59.7139 48.5709L59.7123 48.5829C59.6611 48.5821 59.7139 48.5709 59.7139 48.5709Z" fill="#152B6F"/>
<path d="M63.9745 51.6656C63.9164 50.9289 63.8293 49.815 62.8466 49.1522C62.1184 48.6595 61.2831 48.5933 60.5633 48.5933L30.4091 48.5795L26.622 77.3204C26.5357 77.9716 26.7611 78.676 27.1844 79.131C27.4389 79.4289 28.0051 79.9347 28.9481 79.9801L56.9603 80.9185H57.214L64.1311 78.89C65.3866 78.5374 66.2325 77.3335 66.1385 75.9663L63.9745 51.6656ZM28.5767 77.9085C28.498 77.8231 28.4506 77.6745 28.4651 77.5606L32.0414 50.4262L56.5882 50.4447V79.0601L29.0245 78.1364C28.8075 78.1256 28.6745 78.0217 28.5767 77.9085ZM63.6138 77.1171L57.3325 78.9593V50.4455L59.7235 50.447L60.5633 50.4393C61.0936 50.4393 61.507 50.4801 61.8012 50.6787C62.0289 50.8327 62.074 51.2084 62.1214 51.8104L64.2885 76.1526C64.3183 76.5929 64.0387 76.9978 63.6138 77.1171Z" fill="#152B6F"/>
<path d="M47.462 56.2782C46.992 56.0781 46.4433 56.2944 46.2408 56.7617C45.7052 58.0003 45.7342 59.3382 45.7648 60.7531C45.7938 62.0903 45.8236 63.4721 45.3537 64.8162C45.0969 65.5498 44.3496 66.0733 43.3562 66.215C42.1893 66.3843 41.0286 65.9755 40.473 65.2034C39.7715 64.2288 39.4399 62.6315 39.5859 60.9302C39.6439 60.2505 39.9014 58.6038 41.0347 58.0103C41.4894 57.7724 41.6628 57.2143 41.4236 56.764C41.1845 56.3129 40.6205 56.1404 40.1681 56.3783C38.2937 57.3598 37.8382 59.5538 37.7336 60.7747C37.6457 61.7947 37.5907 64.3736 38.9608 66.2765C39.7876 67.4259 41.2517 68.0987 42.8297 68.0987C43.0918 68.0987 43.3562 68.081 43.6221 68.0425C45.317 67.8 46.6206 66.8208 47.1104 65.4221C47.6904 63.7654 47.6561 62.1442 47.6247 60.7139C47.5972 59.4514 47.5735 58.3613 47.9502 57.4907C48.152 57.0226 47.9342 56.4799 47.462 56.2782Z" fill="#152B6F"/>
<g filter="url(#filter0_d)">
<rect x="55.2453" y="19.8208" width="13.5849" height="13.5849" rx="6.79245" fill="#F8C10A"/>
</g>
<path d="M60.4646 29.6019V28.4934H59.7555V27.9635H60.4646V27.2381H59.7555V26.6186H60.4646V23.7821H61.997C62.7089 23.7821 63.2359 23.9261 63.5783 24.2141C63.9261 24.5021 64.0999 24.9205 64.0999 25.4693C64.0999 26.0236 63.9125 26.4583 63.5375 26.7735C63.1626 27.0832 62.611 27.2381 61.8829 27.2381H61.1982V27.9635H62.5431V28.4934H61.1982V29.6019H60.4646ZM61.1982 26.6186H61.7769C62.2714 26.6186 62.6545 26.5371 62.9262 26.3741C63.2033 26.2111 63.3419 25.9177 63.3419 25.4938C63.3419 25.1243 63.2278 24.8499 62.9996 24.6706C62.7713 24.4912 62.4154 24.4016 61.9318 24.4016H61.1982V26.6186Z" fill="#152B6F"/>
<g filter="url(#filter1_d)">
<rect x="12.6793" y="6.23584" width="26.2642" height="26.2642" rx="13.1321" fill="#F8C10A"/>
</g>
<path d="M22.7699 25.1461V23.0029H21.3989V21.9786H22.7699V20.5761H21.3989V19.3785H22.7699V13.8945H25.7325C27.1088 13.8945 28.1278 14.1729 28.7897 14.7297C29.462 15.2865 29.7982 16.0955 29.7982 17.1565C29.7982 18.2281 29.4358 19.0686 28.7109 19.6779C27.986 20.2767 26.9197 20.5761 25.5119 20.5761H24.1882V21.9786H26.7883V23.0029H24.1882V25.1461H22.7699ZM24.1882 19.3785H25.307C26.263 19.3785 27.0037 19.2209 27.529 18.9057C28.0648 18.5906 28.3327 18.0233 28.3327 17.2038C28.3327 16.4894 28.112 15.9589 27.6708 15.6122C27.2296 15.2655 26.5414 15.0922 25.6064 15.0922H24.1882V19.3785Z" fill="#152B6F"/>
<g clip-path="url(#clip0)">
<g filter="url(#filter2_d)">
<rect x="38.9434" y="38.8396" width="16" height="16" rx="8" fill="#F8C10A"/>
</g>
<path d="M45.0906 50.3596V49.054H44.2554V48.43H45.0906V47.5756H44.2554V46.846H45.0906V43.5052H46.8954C47.7338 43.5052 48.3546 43.6748 48.7578 44.014C49.1674 44.3532 49.3722 44.846 49.3722 45.4924C49.3722 46.1452 49.1514 46.6572 48.7098 47.0284C48.2682 47.3932 47.6186 47.5756 46.761 47.5756H45.9546V48.43H47.5386V49.054H45.9546V50.3596H45.0906ZM45.9546 46.846H46.6362C47.2186 46.846 47.6698 46.75 47.9898 46.558C48.3162 46.366 48.4794 46.0204 48.4794 45.5212C48.4794 45.086 48.345 44.7628 48.0762 44.5516C47.8074 44.3404 47.3882 44.2348 46.8186 44.2348H45.9546V46.846Z" fill="#152B6F"/>
</g>
<defs>
<filter id="filter0_d" x="45.2453" y="13.8208" width="33.5849" height="33.5849" filterUnits="userSpaceOnUse" color-interpolation-filters="sRGB">
<feFlood flood-opacity="0" result="BackgroundImageFix"/>
<feColorMatrix in="SourceAlpha" type="matrix" values="0 0 0 0 0 0 0 0 0 0 0 0 0 0 0 0 0 0 127 0"/>
<feOffset dy="4"/>
<feGaussianBlur stdDeviation="5"/>
<feColorMatrix type="matrix" values="0 0 0 0 0.972549 0 0 0 0 0.756863 0 0 0 0 0.0392157 0 0 0 0.4 0"/>
<feBlend mode="normal" in2="BackgroundImageFix" result="effect1_dropShadow"/>
<feBlend mode="normal" in="SourceGraphic" in2="effect1_dropShadow" result="shape"/>
</filter>
<filter id="filter1_d" x="2.67926" y="0.23584" width="46.2642" height="46.2642" filterUnits="userSpaceOnUse" color-interpolation-filters="sRGB">
<feFlood flood-opacity="0" result="BackgroundImageFix"/>
<feColorMatrix in="SourceAlpha" type="matrix" values="0 0 0 0 0 0 0 0 0 0 0 0 0 0 0 0 0 0 127 0"/>
<feOffset dy="4"/>
<feGaussianBlur stdDeviation="5"/>
<feColorMatrix type="matrix" values="0 0 0 0 0.972549 0 0 0 0 0.756863 0 0 0 0 0.0392157 0 0 0 0.4 0"/>
<feBlend mode="normal" in2="BackgroundImageFix" result="effect1_dropShadow"/>
<feBlend mode="normal" in="SourceGraphic" in2="effect1_dropShadow" result="shape"/>
</filter>
<filter id="filter2_d" x="28.9434" y="32.8396" width="36" height="36" filterUnits="userSpaceOnUse" color-interpolation-filters="sRGB">
<feFlood flood-opacity="0" result="BackgroundImageFix"/>
<feColorMatrix in="SourceAlpha" type="matrix" values="0 0 0 0 0 0 0 0 0 0 0 0 0 0 0 0 0 0 127 0"/>
<feOffset dy="4"/>
<feGaussianBlur stdDeviation="5"/>
<feColorMatrix type="matrix" values="0 0 0 0 0.972549 0 0 0 0 0.756863 0 0 0 0 0.0392157 0 0 0 0.4 0"/>
<feBlend mode="normal" in2="BackgroundImageFix" result="effect1_dropShadow"/>
<feBlend mode="normal" in="SourceGraphic" in2="effect1_dropShadow" result="shape"/>
</filter>
<clipPath id="clip0">
<rect width="14.4906" height="9.96226" fill="white" transform="translate(38.9434 38.8396)"/>
</clipPath>
</defs>
</svg>
