<svg width="651" height="376" viewBox="0 0 651 376" fill="none" xmlns="http://www.w3.org/2000/svg">
<g filter="url(#filter0_d)">
<path fill-rule="evenodd" clip-rule="evenodd" d="M34 336.743V31.7426L35.9061 33.4853L39.7183 30H40.2973L44.1095 33.4853L47.9218 30H48.501L52.3132 33.4853L56.1255 30H56.7045L60.5167 33.4853L64.3289 30H64.9081L68.7204 33.4853L72.5326 30H73.1116L76.9238 33.4853L80.736 30H81.3151L85.1274 33.4853L88.9396 30H89.5187L93.3309 33.4853L97.1431 30H97.7223L101.534 33.4853L105.347 30H105.926L109.738 33.4853L113.55 30H114.129L117.942 33.4853L121.754 30H122.333L126.145 33.4853L129.957 30H130.537L134.349 33.4853L138.161 30H138.74L142.552 33.4853L146.365 30H146.944L150.756 33.4853L154.568 30H155.147L158.959 33.4853L162.772 30H163.351L167.163 33.4853L170.975 30H171.554L175.367 33.4853L179.179 30H179.758L183.57 33.4853L187.382 30H187.961L191.774 33.4853L195.586 30H196.165L199.977 33.4853L203.789 30H204.368L208.181 33.4853L211.993 30H212.572L216.384 33.4853L220.197 30H220.776L224.588 33.4853L228.4 30H228.979L232.792 33.4853L236.604 30H237.183L240.995 33.4853L244.807 30H245.386L249.199 33.4853L253.011 30H253.59L257.402 33.4853L261.214 30H261.793L265.606 33.4853L269.418 30H269.997L273.809 33.4853L277.621 30H278.201L282.013 33.4853L285.825 30H286.404L290.216 33.4853L294.029 30H294.608L298.42 33.4853L302.232 30H302.811L306.624 33.4853L310.436 30H311.015L314.827 33.4853L318.639 30H319.218L323.031 33.4853L326.843 30H327.422L331.234 33.4853L335.046 30H337.006L340.818 33.4853L344.63 30H345.209L349.021 33.4853L352.834 30H353.412L357.225 33.4853L361.037 30H361.616L365.428 33.4853L369.24 30H369.82L373.632 33.4853L377.444 30H378.023L381.836 33.4853L385.648 30H386.227L390.039 33.4853L393.851 30H394.43L398.243 33.4853L402.055 30H402.634L406.446 33.4853L410.258 30H410.838L414.65 33.4853L418.462 30H419.041L422.853 33.4853L426.666 30H427.245L431.057 33.4853L434.869 30H435.448L439.26 33.4853L443.073 30H443.652L447.464 33.4853L451.276 30H451.856L455.668 33.4853L459.48 30H460.059L463.871 33.4853L467.683 30H468.262L472.075 33.4853L475.887 30H476.466L480.278 33.4853L484.09 30H484.67L488.482 33.4853L492.294 30H492.873L496.686 33.4853L500.498 30H501.077L504.889 33.4853L508.701 30H509.28L513.092 33.4853L516.905 30H517.484L521.296 33.4853L525.108 30H525.687L529.499 33.4853L533.312 30H533.891L537.703 33.4853L541.515 30H542.094L545.907 33.4853L549.719 30H550.298L554.11 33.4853L557.922 30H558.502L562.314 33.4853L566.126 30H566.705L570.517 33.4853L574.329 30H574.909L578.721 33.4853L582.533 30H583.112L586.924 33.4853L590.737 30H591.316L595.128 33.4853L598.94 30H599.519L603.332 33.4853L607.144 30H607.723L611.535 33.4853L615.347 30H615.927L617 30.9814V337.504L616.457 338H614.816L611.535 335L608.253 338H606.613L603.332 335L600.05 338H598.409L595.128 335L591.847 338H590.206L586.924 335L583.643 338H582.002L578.721 335L575.44 338H573.799L570.517 335L567.236 338H565.595L562.314 335L559.032 338H557.392L554.11 335L550.829 338H549.188L545.907 335L542.625 338H540.985L537.703 335L534.422 338H532.781L529.499 335L526.218 338H524.577L521.296 335L518.015 338H516.374L513.092 335L509.811 338H508.17L504.889 335L501.607 338H499.967L496.686 335L493.404 338H491.763L488.482 335L485.2 338H483.56L480.278 335L476.997 338H475.356L472.075 335L468.793 338H467.152L463.871 335L460.59 338H458.949L455.668 335L452.386 338H450.745L447.464 335L444.182 338H442.542L439.26 335L435.979 338H434.338L431.057 335L427.775 338H426.135L422.853 335L419.572 338H417.931L414.65 335L411.368 338H409.728L406.446 335L403.165 338H401.524L398.243 335L394.961 338H393.32L390.039 335L386.758 338H385.117L381.836 335L378.554 338H376.914L373.632 335L370.351 338H368.71L365.428 335L362.147 338H360.506L357.225 335L353.943 338H352.303L349.021 335L345.74 338H344.099L340.818 335L337.536 338H334.515L331.234 335L327.952 338H326.312L323.031 335L319.749 338H318.108L314.827 335L311.546 338H309.905L306.624 335L303.342 338H301.701L298.42 335L295.138 338H293.498L290.216 335L286.935 338H285.294L282.013 335L278.731 338H277.091L273.809 335L270.528 338H268.887L265.606 335L262.324 338H260.684L257.402 335L254.121 338H252.48L249.199 335L245.917 338H244.276L240.995 335L237.714 338H236.073L232.792 335L229.51 338H227.869L224.588 335L221.306 338H219.666L216.384 335L213.103 338H211.462L208.181 335L204.899 338H203.259L199.977 335L196.696 338H195.055L191.774 335L188.492 338H186.851L183.57 335L180.289 338H178.648L175.367 335L172.085 338H170.444L167.163 335L163.881 338H162.241L158.959 335L155.678 338H154.037L150.756 335L147.474 338H145.834L142.552 335L139.271 338H137.63L134.349 335L131.067 338H129.426L126.145 335L122.864 338H121.223L117.942 335L114.66 338H113.02L109.738 335L106.457 338H104.816L101.534 335L98.2531 338H96.6124L93.3309 335L90.0495 338H88.4088L85.1274 335L81.8459 338H80.2052L76.9238 335L73.6424 338H72.0018L68.7204 335L65.4389 338H63.7981L60.5167 335L57.2352 338H55.5947L52.3132 335L49.0318 338H47.391L44.1095 335L40.8281 338H39.1875L35.9061 335L34 336.743Z" fill="#152B6F"/>
</g>
<defs>
<filter id="filter0_d" x="0" y="0" width="651" height="376" filterUnits="userSpaceOnUse" color-interpolation-filters="sRGB">
<feFlood flood-opacity="0" result="BackgroundImageFix"/>
<feColorMatrix in="SourceAlpha" type="matrix" values="0 0 0 0 0 0 0 0 0 0 0 0 0 0 0 0 0 0 127 0"/>
<feOffset dy="4"/>
<feGaussianBlur stdDeviation="17"/>
<feColorMatrix type="matrix" values="0 0 0 0 0 0 0 0 0 0 0 0 0 0 0 0 0 0 0.25 0"/>
<feBlend mode="normal" in2="BackgroundImageFix" result="effect1_dropShadow"/>
<feBlend mode="normal" in="SourceGraphic" in2="effect1_dropShadow" result="shape"/>
</filter>
</defs>
</svg>
