<svg width="119" height="99" viewBox="0 0 119 99" fill="none" xmlns="http://www.w3.org/2000/svg">
<ellipse cx="70.4538" cy="49.5" rx="48.5462" ry="49.0042" fill="#F2F4F6"/>
<path d="M53.8951 24.9405V74.8181C53.8951 77.0049 55.6845 78.7943 57.8705 78.7943H82.9658C85.1518 78.7943 86.9412 77.0057 86.9412 74.8198V24.9405C86.9412 22.7538 85.1518 20.9652 82.9658 20.9652H57.8705C55.6837 20.9652 53.8951 22.7538 53.8951 24.9405ZM55.5474 24.9405C55.5474 23.6592 56.59 22.6175 57.8705 22.6175H82.9658C84.2463 22.6175 85.2889 23.6592 85.2889 24.9405V74.8181C85.2889 76.0994 84.2463 77.142 82.9658 77.142H57.8705C56.5908 77.142 55.5474 76.0994 55.5474 74.8181V24.9405Z" fill="#152B6F"/>
<path d="M67.5271 72.5974C67.5271 74.196 68.8208 75.4897 70.4186 75.4897C72.0163 75.4897 73.31 74.196 73.31 72.5974C73.31 71.0022 72.0163 69.7068 70.4186 69.7068C68.8208 69.7068 67.5271 71.0022 67.5271 72.5974ZM69.1794 72.5974C69.1794 71.915 69.7353 71.359 70.4186 71.359C71.1018 71.359 71.6577 71.915 71.6577 72.5974C71.6577 73.2806 71.1018 73.8374 70.4186 73.8374C69.7353 73.8374 69.1794 73.2806 69.1794 72.5974Z" fill="#152B6F"/>
<path d="M57.2005 29.0449V66.585C57.2005 67.393 57.8622 68.0547 58.6702 68.0547H82.1661C82.9749 68.0547 83.6366 67.393 83.6366 66.585V29.0449C83.6366 28.2361 82.9749 27.5743 82.167 27.5743H58.6702C57.8622 27.5743 57.2005 28.2361 57.2005 29.0449ZM58.8528 29.2266H81.9844V66.4024H58.8528V29.2266Z" fill="#152B6F"/>
<path d="M73.7231 25.922H67.2338C66.777 25.922 66.4077 25.5519 66.4077 25.0959C66.4077 24.6399 66.777 24.2698 67.2338 24.2698H73.7231C74.1791 24.2698 74.5492 24.6399 74.5492 25.0959C74.5492 25.5519 74.1791 25.922 73.7231 25.922Z" fill="#152B6F"/>
<path d="M62.9834 25.922C63.4397 25.922 63.8095 25.5522 63.8095 25.0959C63.8095 24.6396 63.4397 24.2698 62.9834 24.2698C62.5272 24.2698 62.1573 24.6396 62.1573 25.0959C62.1573 25.5522 62.5272 25.922 62.9834 25.922Z" fill="black"/>
<g filter="url(#filter0_d)">
<rect x="10" y="37.1345" width="60.4538" height="21.9832" rx="10.9916" fill="#F8C10A"/>
</g>
<path d="M16.501 50.2832V48.9832H18.551V46.7532H19.911V48.9832H21.961V50.2832H19.911V52.5032H18.551V50.2832H16.501ZM24.4771 52.5032V51.0032H25.9971V48.0232L26.0071 47.4732H25.9871C25.9271 47.6065 25.8337 47.7332 25.7071 47.8532L25.2771 48.2432L24.2671 47.1632L26.1971 45.3532H27.7071V51.0032H29.2371V52.5032H24.4771ZM29.4146 51.6832L30.2546 50.3332C30.708 50.7598 31.1913 50.9732 31.7046 50.9732C31.9646 50.9732 32.1946 50.8965 32.3946 50.7432C32.6013 50.5832 32.7046 50.3665 32.7046 50.0932C32.7046 49.8198 32.598 49.6032 32.3846 49.4432C32.1713 49.2832 31.898 49.2032 31.5646 49.2032C31.2446 49.2032 30.9246 49.2832 30.6046 49.4432L29.6746 49.0932L29.9646 45.3532H33.9646V46.8532H31.4846L31.4446 47.5132L31.4046 47.7932H31.4246C31.5513 47.7465 31.7246 47.7232 31.9446 47.7232C32.758 47.7232 33.388 47.9465 33.8346 48.3932C34.2813 48.8332 34.5046 49.3932 34.5046 50.0732C34.5046 50.8132 34.258 51.4232 33.7646 51.9032C33.2713 52.3832 32.6346 52.6232 31.8546 52.6232C30.8813 52.6232 30.068 52.3098 29.4146 51.6832ZM41.0149 52.3432C40.6616 52.5298 40.2383 52.6232 39.7449 52.6232C39.2516 52.6232 38.8249 52.5298 38.4649 52.3432C38.1116 52.1498 37.8349 51.8798 37.6349 51.5332C37.4349 51.1865 37.2883 50.7965 37.1949 50.3632C37.1016 49.9298 37.0549 49.4465 37.0549 48.9132C37.0549 48.3798 37.1016 47.8998 37.1949 47.4732C37.2883 47.0398 37.4349 46.6532 37.6349 46.3132C37.8349 45.9665 38.1116 45.6998 38.4649 45.5132C38.8249 45.3265 39.2516 45.2332 39.7449 45.2332C40.2383 45.2332 40.6616 45.3265 41.0149 45.5132C41.3749 45.6998 41.6549 45.9665 41.8549 46.3132C42.0549 46.6532 42.2016 47.0398 42.2949 47.4732C42.3883 47.8998 42.4349 48.3798 42.4349 48.9132C42.4349 49.4465 42.3883 49.9298 42.2949 50.3632C42.2016 50.7965 42.0549 51.1865 41.8549 51.5332C41.6549 51.8798 41.3749 52.1498 41.0149 52.3432ZM38.8549 48.9132C38.8549 50.3198 39.1516 51.0232 39.7449 51.0232C40.3383 51.0232 40.6349 50.3198 40.6349 48.9132C40.6349 47.5265 40.3383 46.8332 39.7449 46.8332C39.1516 46.8332 38.8549 47.5265 38.8549 48.9132ZM46.9724 52.3432C46.619 52.5298 46.1957 52.6232 45.7024 52.6232C45.209 52.6232 44.7824 52.5298 44.4224 52.3432C44.069 52.1498 43.7924 51.8798 43.5924 51.5332C43.3924 51.1865 43.2457 50.7965 43.1524 50.3632C43.059 49.9298 43.0124 49.4465 43.0124 48.9132C43.0124 48.3798 43.059 47.8998 43.1524 47.4732C43.2457 47.0398 43.3924 46.6532 43.5924 46.3132C43.7924 45.9665 44.069 45.6998 44.4224 45.5132C44.7824 45.3265 45.209 45.2332 45.7024 45.2332C46.1957 45.2332 46.619 45.3265 46.9724 45.5132C47.3324 45.6998 47.6124 45.9665 47.8124 46.3132C48.0124 46.6532 48.159 47.0398 48.2524 47.4732C48.3457 47.8998 48.3924 48.3798 48.3924 48.9132C48.3924 49.4465 48.3457 49.9298 48.2524 50.3632C48.159 50.7965 48.0124 51.1865 47.8124 51.5332C47.6124 51.8798 47.3324 52.1498 46.9724 52.3432ZM44.8124 48.9132C44.8124 50.3198 45.109 51.0232 45.7024 51.0232C46.2957 51.0232 46.5924 50.3198 46.5924 48.9132C46.5924 47.5265 46.2957 46.8332 45.7024 46.8332C45.109 46.8332 44.8124 47.5265 44.8124 48.9132ZM52.9298 52.3432C52.5765 52.5298 52.1531 52.6232 51.6598 52.6232C51.1665 52.6232 50.7398 52.5298 50.3798 52.3432C50.0265 52.1498 49.7498 51.8798 49.5498 51.5332C49.3498 51.1865 49.2031 50.7965 49.1098 50.3632C49.0165 49.9298 48.9698 49.4465 48.9698 48.9132C48.9698 48.3798 49.0165 47.8998 49.1098 47.4732C49.2031 47.0398 49.3498 46.6532 49.5498 46.3132C49.7498 45.9665 50.0265 45.6998 50.3798 45.5132C50.7398 45.3265 51.1665 45.2332 51.6598 45.2332C52.1531 45.2332 52.5765 45.3265 52.9298 45.5132C53.2898 45.6998 53.5698 45.9665 53.7698 46.3132C53.9698 46.6532 54.1165 47.0398 54.2098 47.4732C54.3031 47.8998 54.3498 48.3798 54.3498 48.9132C54.3498 49.4465 54.3031 49.9298 54.2098 50.3632C54.1165 50.7965 53.9698 51.1865 53.7698 51.5332C53.5698 51.8798 53.2898 52.1498 52.9298 52.3432ZM50.7698 48.9132C50.7698 50.3198 51.0665 51.0232 51.6598 51.0232C52.2531 51.0232 52.5498 50.3198 52.5498 48.9132C52.5498 47.5265 52.2531 46.8332 51.6598 46.8332C51.0665 46.8332 50.7698 47.5265 50.7698 48.9132ZM57.4372 52.5032V51.4332H56.6372V50.4632H57.4372V49.6832H56.6372V48.4432H57.4372V45.3632H59.7172C60.6372 45.3632 61.3072 45.5498 61.7272 45.9232C62.1539 46.2965 62.3672 46.8098 62.3672 47.4632C62.3672 47.8498 62.2805 48.2132 62.1072 48.5532C61.9339 48.8932 61.6439 49.1665 61.2372 49.3732C60.8372 49.5798 60.2905 49.6832 59.5972 49.6832H58.9472V50.4632H60.4872V51.4332H58.9472V52.5032H57.4372ZM58.9472 48.4432H59.4472C59.8739 48.4432 60.2105 48.3698 60.4572 48.2232C60.7105 48.0765 60.8372 47.8398 60.8372 47.5132C60.8372 46.9065 60.4372 46.6032 59.6372 46.6032H58.9472V48.4432Z" fill="#152B6F"/>
<path fill-rule="evenodd" clip-rule="evenodd" d="M70.4986 49.0421C70.4986 49.0421 70.3355 53.5167 70.6828 55.637C70.8396 56.5942 71.3979 57.3977 71.9632 57.9911C72.3123 58.3577 72.0633 59.0415 71.5634 58.9617C70.2112 58.746 68.306 58.2426 66.6299 57.0692C63.6366 54.9735 70.4986 49.0421 70.4986 49.0421Z" fill="#F8C10A"/>
<defs>
<filter id="filter0_d" x="0" y="31.1345" width="80.4538" height="41.9832" filterUnits="userSpaceOnUse" color-interpolation-filters="sRGB">
<feFlood flood-opacity="0" result="BackgroundImageFix"/>
<feColorMatrix in="SourceAlpha" type="matrix" values="0 0 0 0 0 0 0 0 0 0 0 0 0 0 0 0 0 0 127 0"/>
<feOffset dy="4"/>
<feGaussianBlur stdDeviation="5"/>
<feColorMatrix type="matrix" values="0 0 0 0 0.972549 0 0 0 0 0.756863 0 0 0 0 0.0392157 0 0 0 0.4 0"/>
<feBlend mode="normal" in2="BackgroundImageFix" result="effect1_dropShadow"/>
<feBlend mode="normal" in="SourceGraphic" in2="effect1_dropShadow" result="shape"/>
</filter>
</defs>
</svg>
