<svg width="105" height="93" viewBox="0 0 105 93" fill="none" xmlns="http://www.w3.org/2000/svg">
<circle cx="58.1983" cy="46.9346" r="46.0654" fill="#F2F4F6"/>
<mask id="path-2-inside-1" fill="white">
<path fill-rule="evenodd" clip-rule="evenodd" d="M81.4281 38.9597L79.2515 42.4423C77.8283 35.3346 72.6586 29.4128 65.9224 26.7751C58.7196 23.9531 50.386 25.4915 44.5076 30.402C38.6191 35.3125 35.9295 43.1775 37.2641 50.6757C38.5784 58.1026 44.0084 64.3171 51.0482 66.9048C58.9641 69.8185 68.1433 67.5466 73.9096 61.4238C74.4801 60.8227 74.5107 59.8651 73.9096 59.264C73.3391 58.6935 72.3203 58.6629 71.7498 59.264C71.0978 59.9669 70.3948 60.6189 69.6409 61.22C69.6103 61.2455 69.5798 61.2684 69.5492 61.2913L69.5492 61.2914C69.5186 61.3143 69.4881 61.3372 69.4575 61.3627C69.3556 61.4442 69.2436 61.5257 69.1417 61.597C68.9787 61.7192 68.8055 61.8415 68.6323 61.9535C68.235 62.2184 67.8377 62.4629 67.4302 62.6973C66.9819 62.9621 66.5133 63.2066 66.0344 63.4308L65.8872 63.5002C65.4992 63.6834 65.4091 63.7259 64.9342 63.8994C64.0071 64.2458 63.0494 64.5311 62.0714 64.7348C61.0322 64.9589 60.421 65.0404 59.3512 65.0914C58.4547 65.1321 57.5582 65.1219 56.6719 65.0506C56.5548 65.0405 56.4403 65.0277 56.3257 65.015L56.3255 65.015L56.3252 65.0149C56.2107 65.0022 56.0962 64.9895 55.9791 64.9793L55.9528 64.9767C55.9019 64.9685 55.8527 64.9619 55.8044 64.9555L55.8042 64.9555C55.7426 64.9473 55.6825 64.9393 55.6225 64.9284C55.215 64.8571 54.8075 64.7858 54.4102 64.6941C53.5951 64.5107 52.7801 64.2764 51.9957 63.9911C51.8131 63.9276 51.6367 63.8579 51.4568 63.7868L51.4567 63.7868C51.4058 63.7667 51.3546 63.7464 51.3029 63.7262C51.2849 63.7185 51.254 63.705 51.2222 63.691C51.1846 63.6726 51.1469 63.6561 51.1093 63.6396C51.0686 63.6218 51.0278 63.604 50.9871 63.5836C50.6203 63.4206 50.2536 63.2372 49.897 63.0538C49.1635 62.6769 48.4605 62.249 47.7779 61.7804C47.6812 61.7091 47.5818 61.6378 47.4825 61.5665L47.4821 61.5661C47.3829 61.4949 47.2837 61.4237 47.187 61.3525C47.1463 61.3219 46.9527 61.1793 47.1768 61.3525C47.1412 61.327 47.1055 61.299 47.0698 61.2709C47.0342 61.2429 46.9986 61.2149 46.9629 61.1895C46.6471 60.945 46.3414 60.6801 46.046 60.4152C45.4245 59.8549 44.8337 59.2436 44.2835 58.6018L43.8556 58.0822C43.8556 58.0888 43.7443 57.9456 43.7021 57.8912C43.6546 57.8286 43.596 57.7513 43.6009 57.7562C43.3666 57.4302 43.1323 57.094 42.9184 56.7578C42.4803 56.0752 42.083 55.3722 41.7264 54.6387C41.6409 54.4677 41.5613 54.2907 41.4831 54.1168C41.4588 54.0629 41.4347 54.0092 41.4106 53.9561C41.38 53.895 41.2679 53.6098 41.38 53.8848C41.3647 53.8441 41.3469 53.8008 41.3291 53.7575C41.3112 53.7142 41.2934 53.6709 41.2781 53.6301C41.1253 53.243 40.9827 52.8559 40.8604 52.4687C40.5955 51.6333 40.3714 50.7776 40.2186 49.9116C40.1968 49.7916 40.1779 49.6686 40.1588 49.5443L40.1587 49.5442L40.1587 49.5441C40.1448 49.4535 40.1308 49.3621 40.1154 49.2706C40.1363 49.3883 40.1107 49.1958 40.089 49.0317L40.0888 49.0304C40.0784 48.9516 40.0688 48.8797 40.0658 48.8521C40.025 48.4547 39.9945 48.0472 39.9741 47.6397C39.9333 46.7432 39.9537 45.8467 40.0352 44.9603C40.0521 44.7662 40.069 44.5791 40.0917 44.3873C40.0977 44.3432 40.1114 44.239 40.1167 44.1962C40.1269 44.0842 40.1473 43.9721 40.1677 43.8601C40.239 43.4525 40.3205 43.045 40.4122 42.6477C40.6057 41.8327 40.84 41.0278 41.1355 40.2434L41.1357 40.2428C41.2273 40.0087 41.319 39.7746 41.4106 39.5506C41.2883 39.8257 41.4819 39.3876 41.5226 39.2959C41.6856 38.9292 41.8588 38.5726 42.0524 38.216C42.4497 37.4723 42.898 36.749 43.387 36.0562L43.387 36.0562C43.5195 35.8728 43.6519 35.6894 43.7843 35.5163C43.6009 35.7608 43.9473 35.3227 43.9983 35.2514C44.253 34.9356 44.5077 34.6401 44.7827 34.3447C45.343 33.7436 45.9339 33.1731 46.5656 32.6433C46.7489 32.4803 46.9425 32.3275 47.136 32.1747L47.1361 32.1747C47.18 32.1381 47.1923 32.1266 47.1885 32.1284C47.2588 32.0693 47.335 32.0115 47.4112 31.9607C47.7372 31.7162 48.0734 31.4921 48.4096 31.2781C49.1125 30.8299 49.846 30.4326 50.5999 30.076C50.8194 29.9762 51.0389 29.8764 51.268 29.7767C51.3568 29.7411 51.4999 29.6843 51.5474 29.6685C51.9244 29.5258 52.3115 29.3832 52.7088 29.261C53.5442 28.9961 54.4102 28.7923 55.2761 28.6395C55.4188 28.6089 55.5512 28.5886 55.6938 28.5682C55.6978 28.5682 55.7028 28.568 55.7087 28.5675L55.7087 28.5675C55.7438 28.565 55.8079 28.5558 55.8312 28.5519C55.8375 28.5508 55.8408 28.5501 55.8397 28.5501C56.0084 28.529 56.1771 28.513 56.3458 28.4969H56.3459C56.7737 28.4561 57.2016 28.4256 57.6295 28.4154C58.4955 28.3848 59.3614 28.4154 60.2274 28.4969C60.2987 28.502 60.3675 28.5096 60.4363 28.5173C60.505 28.5249 60.5738 28.5325 60.6451 28.5376L60.6719 28.5407C60.6824 28.5425 60.697 28.5448 60.7164 28.5478C60.8183 28.5631 60.9202 28.5809 61.022 28.5988C61.1239 28.6166 61.2258 28.6344 61.3277 28.6497C61.7352 28.721 62.1427 28.8127 62.54 28.9044C63.355 29.1081 64.1497 29.3527 64.9342 29.6481C65.0564 29.6889 65.1888 29.7398 65.3111 29.7907C65.3434 29.8046 65.4177 29.8373 65.4635 29.8575C65.518 29.8823 65.5724 29.9078 65.6269 29.9334C65.7084 29.9716 65.7899 30.0098 65.8714 30.0454C66.2382 30.2186 66.5948 30.3918 66.9513 30.5854C67.695 30.9827 68.4082 31.4412 69.101 31.9302C69.1613 31.9754 69.4502 32.1879 69.4974 32.2212C69.6505 32.3402 69.8036 32.4662 69.9566 32.5923L69.9567 32.5924C70.2624 32.8471 70.5578 33.1119 70.8533 33.387C71.4441 33.9372 71.9943 34.528 72.5037 35.1393C72.5444 35.1902 72.5877 35.2411 72.631 35.2921L72.631 35.2921C72.6743 35.3431 72.7176 35.394 72.7584 35.4449C72.7584 35.4383 72.8699 35.5819 72.912 35.6361C72.9595 35.6987 73.0179 35.7758 73.0131 35.771L73.1659 35.9849C73.4002 36.3109 73.6243 36.6471 73.8383 36.9833C74.2967 37.7168 74.7042 38.4707 75.0608 39.245C75.091 39.3234 75.1247 39.3982 75.1577 39.4716L75.1577 39.4716L75.1578 39.4716C75.1805 39.5222 75.203 39.5721 75.2238 39.6219C75.2442 39.6729 75.3257 39.8868 75.2238 39.6321C75.2505 39.7008 75.2786 39.7709 75.3071 39.8419L75.3071 39.8419L75.3072 39.842C75.3548 39.9605 75.4033 40.0816 75.4479 40.2026C75.5906 40.5898 75.723 40.9769 75.8453 41.3742C76.096 42.1764 76.2874 43.0083 76.4294 43.8405L71.9942 41.0686C71.2913 40.6305 70.3031 40.9158 69.9058 41.6187C69.4779 42.3421 69.7529 43.2691 70.4559 43.7072L77.5466 48.1389C78.2597 48.5872 79.2072 48.2713 79.6351 47.5888L84.0668 40.4981C84.5048 39.7951 84.2094 38.8171 83.5166 38.4096C82.7933 37.9817 81.8662 38.2568 81.4281 38.9597ZM55.8324 64.9637C55.8125 64.962 55.8308 64.9644 55.9457 64.976C55.9079 64.971 55.8519 64.9654 55.8324 64.9637ZM65.3824 29.8213L65.4416 29.8476C65.4219 29.8387 65.4022 29.8299 65.3824 29.8213ZM59.7689 45.653V34.314C59.7689 33.4582 59.066 32.8164 58.2509 32.7655C57.4257 32.7247 56.7228 33.499 56.7228 34.2936V35.8422V46.1318L55.9689 46.8857L47.6658 55.1888C47.0851 55.7695 47.0851 56.7679 47.6658 57.3486C48.2465 57.9293 49.2449 57.9293 49.8257 57.3486L53.534 53.6402L58.3834 48.7908C58.489 48.6852 58.5958 48.5818 58.7022 48.4788C58.9139 48.2739 59.1241 48.0705 59.3207 47.8536C59.8012 47.3206 59.7872 46.6453 59.7735 45.9819C59.7712 45.8717 59.7689 45.7618 59.7689 45.653Z"/>
</mask>
<path fill-rule="evenodd" clip-rule="evenodd" d="M81.4281 38.9597L79.2515 42.4423C77.8283 35.3346 72.6586 29.4128 65.9224 26.7751C58.7196 23.9531 50.386 25.4915 44.5076 30.402C38.6191 35.3125 35.9295 43.1775 37.2641 50.6757C38.5784 58.1026 44.0084 64.3171 51.0482 66.9048C58.9641 69.8185 68.1433 67.5466 73.9096 61.4238C74.4801 60.8227 74.5107 59.8651 73.9096 59.264C73.3391 58.6935 72.3203 58.6629 71.7498 59.264C71.0978 59.9669 70.3948 60.6189 69.6409 61.22C69.6103 61.2455 69.5798 61.2684 69.5492 61.2913L69.5492 61.2914C69.5186 61.3143 69.4881 61.3372 69.4575 61.3627C69.3556 61.4442 69.2436 61.5257 69.1417 61.597C68.9787 61.7192 68.8055 61.8415 68.6323 61.9535C68.235 62.2184 67.8377 62.4629 67.4302 62.6973C66.9819 62.9621 66.5133 63.2066 66.0344 63.4308L65.8872 63.5002C65.4992 63.6834 65.4091 63.7259 64.9342 63.8994C64.0071 64.2458 63.0494 64.5311 62.0714 64.7348C61.0322 64.9589 60.421 65.0404 59.3512 65.0914C58.4547 65.1321 57.5582 65.1219 56.6719 65.0506C56.5548 65.0405 56.4403 65.0277 56.3257 65.015L56.3255 65.015L56.3252 65.0149C56.2107 65.0022 56.0962 64.9895 55.9791 64.9793L55.9528 64.9767C55.9019 64.9685 55.8527 64.9619 55.8044 64.9555L55.8042 64.9555C55.7426 64.9473 55.6825 64.9393 55.6225 64.9284C55.215 64.8571 54.8075 64.7858 54.4102 64.6941C53.5951 64.5107 52.7801 64.2764 51.9957 63.9911C51.8131 63.9276 51.6367 63.8579 51.4568 63.7868L51.4567 63.7868C51.4058 63.7667 51.3546 63.7464 51.3029 63.7262C51.2849 63.7185 51.254 63.705 51.2222 63.691C51.1846 63.6726 51.1469 63.6561 51.1093 63.6396C51.0686 63.6218 51.0278 63.604 50.9871 63.5836C50.6203 63.4206 50.2536 63.2372 49.897 63.0538C49.1635 62.6769 48.4605 62.249 47.7779 61.7804C47.6812 61.7091 47.5818 61.6378 47.4825 61.5665L47.4821 61.5661C47.3829 61.4949 47.2837 61.4237 47.187 61.3525C47.1463 61.3219 46.9527 61.1793 47.1768 61.3525C47.1412 61.327 47.1055 61.299 47.0698 61.2709C47.0342 61.2429 46.9986 61.2149 46.9629 61.1895C46.6471 60.945 46.3414 60.6801 46.046 60.4152C45.4245 59.8549 44.8337 59.2436 44.2835 58.6018L43.8556 58.0822C43.8556 58.0888 43.7443 57.9456 43.7021 57.8912C43.6546 57.8286 43.596 57.7513 43.6009 57.7562C43.3666 57.4302 43.1323 57.094 42.9184 56.7578C42.4803 56.0752 42.083 55.3722 41.7264 54.6387C41.6409 54.4677 41.5613 54.2907 41.4831 54.1168C41.4588 54.0629 41.4347 54.0092 41.4106 53.9561C41.38 53.895 41.2679 53.6098 41.38 53.8848C41.3647 53.8441 41.3469 53.8008 41.3291 53.7575C41.3112 53.7142 41.2934 53.6709 41.2781 53.6301C41.1253 53.243 40.9827 52.8559 40.8604 52.4687C40.5955 51.6333 40.3714 50.7776 40.2186 49.9116C40.1968 49.7916 40.1779 49.6686 40.1588 49.5443L40.1587 49.5442L40.1587 49.5441C40.1448 49.4535 40.1308 49.3621 40.1154 49.2706C40.1363 49.3883 40.1107 49.1958 40.089 49.0317L40.0888 49.0304C40.0784 48.9516 40.0688 48.8797 40.0658 48.8521C40.025 48.4547 39.9945 48.0472 39.9741 47.6397C39.9333 46.7432 39.9537 45.8467 40.0352 44.9603C40.0521 44.7662 40.069 44.5791 40.0917 44.3873C40.0977 44.3432 40.1114 44.239 40.1167 44.1962C40.1269 44.0842 40.1473 43.9721 40.1677 43.8601C40.239 43.4525 40.3205 43.045 40.4122 42.6477C40.6057 41.8327 40.84 41.0278 41.1355 40.2434L41.1357 40.2428C41.2273 40.0087 41.319 39.7746 41.4106 39.5506C41.2883 39.8257 41.4819 39.3876 41.5226 39.2959C41.6856 38.9292 41.8588 38.5726 42.0524 38.216C42.4497 37.4723 42.898 36.749 43.387 36.0562L43.387 36.0562C43.5195 35.8728 43.6519 35.6894 43.7843 35.5163C43.6009 35.7608 43.9473 35.3227 43.9983 35.2514C44.253 34.9356 44.5077 34.6401 44.7827 34.3447C45.343 33.7436 45.9339 33.1731 46.5656 32.6433C46.7489 32.4803 46.9425 32.3275 47.136 32.1747L47.1361 32.1747C47.18 32.1381 47.1923 32.1266 47.1885 32.1284C47.2588 32.0693 47.335 32.0115 47.4112 31.9607C47.7372 31.7162 48.0734 31.4921 48.4096 31.2781C49.1125 30.8299 49.846 30.4326 50.5999 30.076C50.8194 29.9762 51.0389 29.8764 51.268 29.7767C51.3568 29.7411 51.4999 29.6843 51.5474 29.6685C51.9244 29.5258 52.3115 29.3832 52.7088 29.261C53.5442 28.9961 54.4102 28.7923 55.2761 28.6395C55.4188 28.6089 55.5512 28.5886 55.6938 28.5682C55.6978 28.5682 55.7028 28.568 55.7087 28.5675L55.7087 28.5675C55.7438 28.565 55.8079 28.5558 55.8312 28.5519C55.8375 28.5508 55.8408 28.5501 55.8397 28.5501C56.0084 28.529 56.1771 28.513 56.3458 28.4969H56.3459C56.7737 28.4561 57.2016 28.4256 57.6295 28.4154C58.4955 28.3848 59.3614 28.4154 60.2274 28.4969C60.2987 28.502 60.3675 28.5096 60.4363 28.5173C60.505 28.5249 60.5738 28.5325 60.6451 28.5376L60.6719 28.5407C60.6824 28.5425 60.697 28.5448 60.7164 28.5478C60.8183 28.5631 60.9202 28.5809 61.022 28.5988C61.1239 28.6166 61.2258 28.6344 61.3277 28.6497C61.7352 28.721 62.1427 28.8127 62.54 28.9044C63.355 29.1081 64.1497 29.3527 64.9342 29.6481C65.0564 29.6889 65.1888 29.7398 65.3111 29.7907C65.3434 29.8046 65.4177 29.8373 65.4635 29.8575C65.518 29.8823 65.5724 29.9078 65.6269 29.9334C65.7084 29.9716 65.7899 30.0098 65.8714 30.0454C66.2382 30.2186 66.5948 30.3918 66.9513 30.5854C67.695 30.9827 68.4082 31.4412 69.101 31.9302C69.1613 31.9754 69.4502 32.1879 69.4974 32.2212C69.6505 32.3402 69.8036 32.4662 69.9566 32.5923L69.9567 32.5924C70.2624 32.8471 70.5578 33.1119 70.8533 33.387C71.4441 33.9372 71.9943 34.528 72.5037 35.1393C72.5444 35.1902 72.5877 35.2411 72.631 35.2921L72.631 35.2921C72.6743 35.3431 72.7176 35.394 72.7584 35.4449C72.7584 35.4383 72.8699 35.5819 72.912 35.6361C72.9595 35.6987 73.0179 35.7758 73.0131 35.771L73.1659 35.9849C73.4002 36.3109 73.6243 36.6471 73.8383 36.9833C74.2967 37.7168 74.7042 38.4707 75.0608 39.245C75.091 39.3234 75.1247 39.3982 75.1577 39.4716L75.1577 39.4716L75.1578 39.4716C75.1805 39.5222 75.203 39.5721 75.2238 39.6219C75.2442 39.6729 75.3257 39.8868 75.2238 39.6321C75.2505 39.7008 75.2786 39.7709 75.3071 39.8419L75.3071 39.8419L75.3072 39.842C75.3548 39.9605 75.4033 40.0816 75.4479 40.2026C75.5906 40.5898 75.723 40.9769 75.8453 41.3742C76.096 42.1764 76.2874 43.0083 76.4294 43.8405L71.9942 41.0686C71.2913 40.6305 70.3031 40.9158 69.9058 41.6187C69.4779 42.3421 69.7529 43.2691 70.4559 43.7072L77.5466 48.1389C78.2597 48.5872 79.2072 48.2713 79.6351 47.5888L84.0668 40.4981C84.5048 39.7951 84.2094 38.8171 83.5166 38.4096C82.7933 37.9817 81.8662 38.2568 81.4281 38.9597ZM55.8324 64.9637C55.8125 64.962 55.8308 64.9644 55.9457 64.976C55.9079 64.971 55.8519 64.9654 55.8324 64.9637ZM65.3824 29.8213L65.4416 29.8476C65.4219 29.8387 65.4022 29.8299 65.3824 29.8213ZM59.7689 45.653V34.314C59.7689 33.4582 59.066 32.8164 58.2509 32.7655C57.4257 32.7247 56.7228 33.499 56.7228 34.2936V35.8422V46.1318L55.9689 46.8857L47.6658 55.1888C47.0851 55.7695 47.0851 56.7679 47.6658 57.3486C48.2465 57.9293 49.2449 57.9293 49.8257 57.3486L53.534 53.6402L58.3834 48.7908C58.489 48.6852 58.5958 48.5818 58.7022 48.4788C58.9139 48.2739 59.1241 48.0705 59.3207 47.8536C59.8012 47.3206 59.7872 46.6453 59.7735 45.9819C59.7712 45.8717 59.7689 45.7618 59.7689 45.653Z" fill="#152B6F"/>
<path d="M79.2515 42.4423L79.6755 42.7073L79.0084 43.7748L78.7612 42.5405L79.2515 42.4423ZM81.4281 38.9597L81.8525 39.2242L81.8521 39.2247L81.4281 38.9597ZM65.9224 26.7751L65.7401 27.2407L65.74 27.2407L65.9224 26.7751ZM44.5076 30.402L44.8282 30.7857L44.8279 30.786L44.5076 30.402ZM37.2641 50.6757L37.7564 50.5881L37.7565 50.5886L37.2641 50.6757ZM51.0482 66.9048L51.2207 66.4355L51.2209 66.4356L51.0482 66.9048ZM73.9096 61.4238L73.5456 61.081L73.5469 61.0796L73.9096 61.4238ZM73.9096 59.264L73.556 59.6175H73.556L73.9096 59.264ZM71.7498 59.264L71.3832 58.9239L71.3871 58.9198L71.7498 59.264ZM69.6409 61.22L69.3207 60.8358L69.3292 60.8291L69.6409 61.22ZM69.5492 61.2913L69.2422 60.8966L69.2492 60.8913L69.5492 61.2913ZM69.5492 61.2914L69.8562 61.6861L69.8492 61.6914L69.5492 61.2914ZM69.4575 61.3627L69.7777 61.7469L69.7699 61.7531L69.4575 61.3627ZM69.1417 61.597L68.8417 61.197L68.8483 61.1921L68.855 61.1874L69.1417 61.597ZM68.6323 61.9535L68.3549 61.5375L68.3607 61.5338L68.6323 61.9535ZM67.4302 62.6973L67.1758 62.2668L67.1809 62.2638L67.4302 62.6973ZM66.0344 63.4308L65.8212 62.9785L65.8225 62.9779L66.0344 63.4308ZM65.8872 63.5002L65.6738 63.048L65.674 63.0479L65.8872 63.5002ZM64.9342 63.8994L64.7591 63.431L64.7626 63.4298L64.9342 63.8994ZM62.0714 64.7348L61.966 64.246L61.9694 64.2453L62.0714 64.7348ZM59.3512 65.0914L59.375 65.5908L59.3739 65.5909L59.3512 65.0914ZM56.6719 65.0506L56.6318 65.549L56.6285 65.5488L56.6719 65.0506ZM56.3257 65.015L56.2705 65.5119H56.2705L56.3257 65.015ZM56.3252 65.0149L56.3804 64.518H56.3804L56.3252 65.0149ZM55.9791 64.9793L55.9358 65.4775L55.9292 65.4768L55.9791 64.9793ZM55.9528 64.9767L55.9029 65.4742L55.8881 65.4727L55.8734 65.4703L55.9528 64.9767ZM55.8044 64.9555L55.8678 64.4595L55.8704 64.4599L55.8044 64.9555ZM55.8042 64.9555L55.7409 65.4515L55.7382 65.4511L55.8042 64.9555ZM55.6225 64.9284L55.7087 64.4359L55.712 64.4364L55.6225 64.9284ZM54.4102 64.6941L54.5199 64.2062L54.5226 64.2069L54.4102 64.6941ZM51.9957 63.9911L52.1599 63.5188L52.1665 63.5212L51.9957 63.9911ZM51.4568 63.7868L51.2731 64.2519L51.2711 64.2511L51.4568 63.7868ZM51.4567 63.7868L51.6404 63.3218L51.6424 63.3226L51.4567 63.7868ZM51.3029 63.7262L51.1207 64.1918L51.1133 64.1889L51.1059 64.1858L51.3029 63.7262ZM51.2222 63.691L51.0211 64.1488L51.0114 64.1445L51.0019 64.1399L51.2222 63.691ZM51.1093 63.6396L51.3097 63.1815L51.3097 63.1815L51.1093 63.6396ZM50.9871 63.5836L51.1901 63.1267L51.2005 63.1313L51.2107 63.1364L50.9871 63.5836ZM49.897 63.0538L50.1255 62.6091L50.1257 62.6092L49.897 63.0538ZM47.7779 61.7804L47.4949 62.1926L47.488 62.1878L47.4813 62.1829L47.7779 61.7804ZM47.4825 61.5665L47.1909 61.9726L47.4825 61.5665ZM47.4821 61.5661L47.1905 61.9723L47.1905 61.9723L47.4821 61.5661ZM47.187 61.3525L46.8904 61.755L46.887 61.7525L47.187 61.3525ZM47.1768 61.3525L47.4826 60.9568L46.8862 61.7593L47.1768 61.3525ZM47.0698 61.2709L47.3788 60.8778L47.0698 61.2709ZM46.9629 61.1895L46.6723 61.5963L46.6644 61.5907L46.6568 61.5848L46.9629 61.1895ZM46.046 60.4152L45.7122 60.7875L45.7112 60.7865L46.046 60.4152ZM44.2835 58.6018L43.9038 58.9272L43.8976 58.9196L44.2835 58.6018ZM43.8556 58.0822H43.3556V56.6885L44.2416 57.7643L43.8556 58.0822ZM43.7021 57.8912L43.3071 58.1978L43.304 58.1936L43.7021 57.8912ZM43.6009 57.7562L44.0069 57.4644L43.2473 58.1096L43.6009 57.7562ZM42.9184 56.7578L43.3392 56.4877L43.3402 56.4893L42.9184 56.7578ZM41.7264 54.6387L42.1736 54.4151L42.1761 54.4201L41.7264 54.6387ZM41.4831 54.1168L41.0271 54.3219L41.4831 54.1168ZM41.4106 53.9561L41.8578 53.7325L41.8619 53.7408L41.8657 53.7492L41.4106 53.9561ZM41.38 53.8848L41.8482 53.7093L40.917 54.0735L41.38 53.8848ZM41.3291 53.7575L40.8667 53.9478L40.8667 53.9478L41.3291 53.7575ZM41.2781 53.6301L41.7433 53.4465L41.7463 53.4546L41.2781 53.6301ZM40.8604 52.4687L41.337 52.3176L41.3372 52.3182L40.8604 52.4687ZM40.2186 49.9116L40.7105 49.8221L40.711 49.8247L40.2186 49.9116ZM40.1588 49.5443L40.651 49.4558L40.653 49.4684L40.1588 49.5443ZM40.1587 49.5442L39.6666 49.6327L39.6653 49.6254L39.6642 49.6181L40.1587 49.5442ZM40.1587 49.5441L40.6529 49.4681L40.6532 49.4702L40.1587 49.5441ZM40.1154 49.2706L39.6223 49.3535L40.6077 49.1833L40.1154 49.2706ZM40.089 49.0317L40.5845 48.9644L40.5847 48.966L40.089 49.0317ZM40.0888 49.0304L39.5934 49.0977L39.5931 49.096L40.0888 49.0304ZM40.0658 48.8521L39.5688 48.9073L39.5684 48.9031L40.0658 48.8521ZM39.9741 47.6397L39.4747 47.6647L39.4746 47.6624L39.9741 47.6397ZM40.0352 44.9603L40.5333 45.0037L40.5331 45.0061L40.0352 44.9603ZM40.0917 44.3873L39.595 44.3286L39.5962 44.32L40.0917 44.3873ZM40.1167 44.1962L40.6147 44.2415L40.6139 44.2499L40.6129 44.2583L40.1167 44.1962ZM40.1677 43.8601L40.6602 43.9462L40.6596 43.9495L40.1677 43.8601ZM40.4122 42.6477L39.925 42.5353L39.9257 42.5322L40.4122 42.6477ZM41.1355 40.2434L40.6675 40.0671L40.6708 40.0588L41.1355 40.2434ZM41.1357 40.2428L41.6014 40.425L41.6004 40.4273L41.1357 40.2428ZM41.4106 39.5506L40.9537 39.3476L41.8733 39.7399L41.4106 39.5506ZM41.5226 39.2959L41.9795 39.499L41.9795 39.499L41.5226 39.2959ZM42.0524 38.216L42.4934 38.4516L42.4918 38.4546L42.0524 38.216ZM43.387 36.0562L43.8032 36.3337L43.7955 36.3446L43.387 36.0562ZM43.387 36.0562L42.971 35.7788L42.9762 35.771L42.9817 35.7634L43.387 36.0562ZM43.7843 35.5163L43.3871 35.2125L44.1843 35.8163L43.7843 35.5163ZM43.9983 35.2514L43.5914 34.9608L43.5999 34.9489L43.6091 34.9375L43.9983 35.2514ZM44.7827 34.3447L44.4168 34.004L44.417 34.0037L44.7827 34.3447ZM46.5656 32.6433L46.8978 33.017L46.8924 33.0218L46.8869 33.0264L46.5656 32.6433ZM47.136 32.1747L46.8261 31.7822L46.836 31.7747L47.136 32.1747ZM47.1361 32.1747L47.4562 32.5588L47.4463 32.567L47.4361 32.5747L47.1361 32.1747ZM47.1885 32.1284L47.3907 32.5856L46.8671 31.7453L47.1885 32.1284ZM47.4112 31.9607L47.7112 32.3607L47.7001 32.3691L47.6885 32.3768L47.4112 31.9607ZM48.4096 31.2781L48.6784 31.6997L48.678 31.7L48.4096 31.2781ZM50.5999 30.076L50.3861 29.6239L50.393 29.6208L50.5999 30.076ZM51.268 29.7767L51.0683 29.3183L51.0752 29.3153L51.0822 29.3125L51.268 29.7767ZM51.5474 29.6685L51.7243 30.1361L51.715 30.1397L51.7055 30.1428L51.5474 29.6685ZM52.7088 29.261L52.8599 29.7376L52.8559 29.7389L52.7088 29.261ZM55.2761 28.6395L55.3809 29.1284L55.372 29.1303L55.363 29.1319L55.2761 28.6395ZM55.6938 28.5682L55.6231 28.0732L55.6583 28.0682H55.6938V28.5682ZM55.7087 28.5675L55.7707 29.0637L55.7579 29.0653L55.7449 29.0662L55.7087 28.5675ZM55.7087 28.5675L55.6467 28.0714L55.6596 28.0698L55.6725 28.0688L55.7087 28.5675ZM55.8312 28.5519L55.7478 28.0589L55.7479 28.0589L55.8312 28.5519ZM55.8397 28.5501L55.8171 29.0496L55.7777 28.0539L55.8397 28.5501ZM56.3458 28.4969L56.2984 27.9991L56.3221 27.9969H56.3458V28.4969ZM56.3459 28.4969L56.3933 28.9946L56.3696 28.9969H56.3459V28.4969ZM57.6295 28.4154L57.6472 28.9151L57.6414 28.9152L57.6295 28.4154ZM60.2274 28.4969L60.1918 28.9957L60.1805 28.9947L60.2274 28.4969ZM60.4363 28.5173L60.4915 28.0203L60.4915 28.0203L60.4363 28.5173ZM60.6451 28.5376L60.6807 28.0389L60.6917 28.0397L60.7026 28.041L60.6451 28.5376ZM60.6719 28.5407L60.7294 28.0441L60.7421 28.0455L60.7547 28.0476L60.6719 28.5407ZM60.7164 28.5478L60.6422 29.0423L60.6404 29.042L60.7164 28.5478ZM61.022 28.5988L61.1082 28.1062L61.1082 28.1062L61.022 28.5988ZM61.3277 28.6497L61.4019 28.1551L61.4139 28.1572L61.3277 28.6497ZM62.54 28.9044L62.6525 28.4171L62.6613 28.4193L62.54 28.9044ZM64.9342 29.6481L64.776 30.1224L64.7669 30.1194L64.7579 30.116L64.9342 29.6481ZM65.3111 29.7907L65.5034 29.3292L65.5081 29.3312L65.3111 29.7907ZM65.4635 29.8575L65.6653 29.4L65.6705 29.4024L65.4635 29.8575ZM65.6269 29.9334L65.8391 29.4806L65.8391 29.4806L65.6269 29.9334ZM65.8714 30.0454L66.0718 29.5873L66.0784 29.5902L66.0849 29.5933L65.8714 30.0454ZM66.9513 30.5854L66.7157 31.0264L66.7128 31.0248L66.9513 30.5854ZM69.101 31.9302L69.3893 31.5217L69.3952 31.5258L69.401 31.5302L69.101 31.9302ZM69.4974 32.2212L69.7852 31.8123L69.795 31.8191L69.8044 31.8264L69.4974 32.2212ZM69.9566 32.5923L70.2745 32.2063L70.2779 32.2092L69.9566 32.5923ZM69.9567 32.5924L69.6366 32.9765L69.6354 32.9755L69.9567 32.5924ZM70.8533 33.387L71.194 33.0211L71.194 33.0211L70.8533 33.387ZM72.5037 35.1393L72.8879 34.8192L72.8941 34.827L72.5037 35.1393ZM72.631 35.2921L73.012 34.9682L73.0169 34.9742L72.631 35.2921ZM72.631 35.2921L72.25 35.616L72.245 35.61L72.631 35.2921ZM72.7584 35.4449H73.2584V36.8703L72.3679 35.7573L72.7584 35.4449ZM72.912 35.6361L73.307 35.3295L73.3102 35.3337L72.912 35.6361ZM73.0131 35.771L72.6062 36.0616L73.3666 35.4174L73.0131 35.771ZM73.1659 35.9849L72.7599 36.2767L72.759 36.2755L73.1659 35.9849ZM73.8383 36.9833L74.2601 36.7149L74.2623 36.7183L73.8383 36.9833ZM75.0608 39.245L75.515 39.0358L75.5217 39.0505L75.5275 39.0655L75.0608 39.245ZM75.1577 39.4716L74.7053 39.6845L74.7019 39.677L75.1577 39.4716ZM75.1577 39.4716L74.7188 39.711L74.7117 39.6979L74.7053 39.6845L75.1577 39.4716ZM75.1578 39.4716L75.5967 39.2322L75.6058 39.2488L75.6136 39.2662L75.1578 39.4716ZM75.2238 39.6219L75.6854 39.4296L75.688 39.4362L75.2238 39.6219ZM75.2238 39.6321L74.7578 39.8133L75.688 39.4464L75.2238 39.6321ZM75.3071 39.8419L75.7712 39.6557L75.7714 39.6562L75.3071 39.8419ZM75.3071 39.8419L75.7714 39.6562L75.7744 39.6639L75.3071 39.8419ZM75.3072 39.842L74.8431 40.0282L74.8399 40.02L75.3072 39.842ZM75.4479 40.2026L74.9788 40.3755V40.3755L75.4479 40.2026ZM75.8453 41.3742L75.368 41.5234L75.3674 41.5213L75.8453 41.3742ZM76.4294 43.8405L76.9223 43.7565L77.1097 44.8554L76.1644 44.2645L76.4294 43.8405ZM71.9942 41.0686L72.2587 40.6442L72.2592 40.6446L71.9942 41.0686ZM69.9058 41.6187L70.3411 41.8648L70.3361 41.8733L69.9058 41.6187ZM70.4559 43.7072L70.7203 43.2829L70.7209 43.2832L70.4559 43.7072ZM77.5466 48.1389L77.8116 47.7149L77.8127 47.7156L77.5466 48.1389ZM79.6351 47.5888L80.0591 47.8538L80.0587 47.8543L79.6351 47.5888ZM84.0668 40.4981L84.4911 40.7625L84.4908 40.7631L84.0668 40.4981ZM83.5166 38.4096L83.2631 38.8405L83.2621 38.8399L83.5166 38.4096ZM55.8324 64.9637L55.8756 64.4655H55.8756L55.8324 64.9637ZM55.9457 64.976L56.0105 64.4802L55.8955 65.4734L55.9457 64.976ZM65.3824 29.8213L65.1793 30.2782L65.5828 29.3632L65.3824 29.8213ZM65.4416 29.8476L65.6471 29.3918L65.2386 30.3045L65.4416 29.8476ZM58.2509 32.7655L58.2756 32.266L58.2821 32.2664L58.2509 32.7655ZM56.7228 46.1318H57.2228V46.3389L57.0763 46.4854L56.7228 46.1318ZM55.9689 46.8857L55.6153 46.5322L55.9689 46.8857ZM47.6658 55.1888L47.3123 54.8352L47.6658 55.1888ZM47.6658 57.3486L48.0194 56.995L47.6658 57.3486ZM58.3834 48.7908L58.0298 48.4373L58.3834 48.7908ZM58.7022 48.4788L59.05 48.8381L59.05 48.8381L58.7022 48.4788ZM59.3207 47.8536L59.692 48.1884L59.6912 48.1893L59.3207 47.8536ZM59.7735 45.9819L60.2734 45.9715V45.9715L59.7735 45.9819ZM78.8275 42.1773L81.0041 38.6947L81.8521 39.2247L79.6755 42.7073L78.8275 42.1773ZM66.1047 26.3096C72.9917 29.0062 78.2835 35.0615 79.7418 42.3442L78.7612 42.5405C77.3731 35.6076 72.3256 29.8193 65.7401 27.2407L66.1047 26.3096ZM44.1871 30.0183C50.1992 24.996 58.7244 23.418 66.1048 26.3096L65.74 27.2407C58.7148 24.4883 50.5728 25.9869 44.8282 30.7857L44.1871 30.0183ZM36.7719 50.7633C35.4073 43.0964 38.1549 35.0485 44.1874 30.018L44.8279 30.786C39.0833 35.5765 36.4518 43.2586 37.7564 50.5881L36.7719 50.7633ZM50.8757 67.3741C43.6771 64.728 38.1185 58.3733 36.7718 50.7628L37.7565 50.5886C39.0382 57.8318 44.3398 63.9062 51.2207 66.4355L50.8757 67.3741ZM74.2736 61.7666C68.3732 68.0318 58.984 70.3586 50.8755 67.374L51.2209 66.4356C58.9442 69.2784 67.9134 67.0615 73.5456 61.081L74.2736 61.7666ZM74.2631 58.9104C75.0707 59.718 75.0146 60.9859 74.2722 61.768L73.5469 61.0796C73.9456 60.6595 73.9506 60.0121 73.556 59.6175L74.2631 58.9104ZM71.3871 58.9198C72.166 58.0992 73.5092 58.1565 74.2631 58.9104L73.556 59.6175C73.1689 59.2304 72.4746 59.2266 72.1124 59.6082L71.3871 58.9198ZM69.3292 60.8291C70.0637 60.2435 70.7483 59.6085 71.3832 58.924L72.1164 59.604C71.4473 60.3254 70.7259 60.9944 69.9526 61.611L69.3292 60.8291ZM69.2492 60.8913C69.2812 60.8674 69.3016 60.8519 69.3208 60.8359L69.961 61.6041C69.9191 61.6391 69.8784 61.6695 69.8492 61.6913L69.2492 60.8913ZM69.2422 60.8967L69.2422 60.8967L69.8562 61.686L69.8562 61.686L69.2422 60.8967ZM69.1374 60.9785C69.1794 60.9436 69.22 60.9132 69.2492 60.8914L69.8492 61.6914C69.8172 61.7153 69.7968 61.7308 69.7776 61.7468L69.1374 60.9785ZM68.855 61.1874C68.9523 61.1192 69.0548 61.0445 69.1452 60.9722L69.7699 61.7531C69.6565 61.8438 69.5349 61.9321 69.4284 62.0066L68.855 61.1874ZM68.3607 61.5338C68.5227 61.4289 68.6864 61.3135 68.8417 61.197L69.4417 61.997C69.271 62.125 69.0883 62.254 68.9039 62.3733L68.3607 61.5338ZM67.1809 62.2638C67.5798 62.0345 67.9676 61.7957 68.355 61.5375L68.9097 62.3696C68.5024 62.6411 68.0956 62.8914 67.6794 63.1307L67.1809 62.2638ZM65.8225 62.9779C66.2884 62.7598 66.7428 62.5227 67.1758 62.2668L67.6845 63.1277C67.221 63.4016 66.7381 63.6535 66.2464 63.8836L65.8225 62.9779ZM65.674 63.0479L65.8212 62.9785L66.2477 63.883L66.1004 63.9524L65.674 63.0479ZM64.7626 63.4298C65.2204 63.2625 65.2963 63.2262 65.6738 63.048L66.1006 63.9524C65.7021 64.1405 65.5978 64.1892 65.1057 64.369L64.7626 63.4298ZM61.9694 64.2453C62.9201 64.0473 63.8534 63.7695 64.7592 63.431L65.1091 64.3678C64.1608 64.7221 63.1787 65.0149 62.1734 65.2243L61.9694 64.2453ZM59.3275 64.5919C60.3692 64.5423 60.9532 64.4645 61.966 64.246L62.1768 65.2236C61.1113 65.4534 60.4727 65.5385 59.375 65.5908L59.3275 64.5919ZM56.712 64.5522C57.5753 64.6217 58.4508 64.6318 59.3285 64.5919L59.3739 65.5909C58.4587 65.6325 57.5411 65.6222 56.6318 65.549L56.712 64.5522ZM56.3809 64.5181C56.4964 64.5309 56.605 64.5429 56.7152 64.5525L56.6285 65.5488C56.5046 65.538 56.3841 65.5246 56.2705 65.5119L56.3809 64.5181ZM56.3807 64.518L56.3809 64.5181L56.2705 65.5119L56.2703 65.5119L56.3807 64.518ZM56.3804 64.518L56.3807 64.518L56.2703 65.5119L56.27 65.5119L56.3804 64.518ZM56.0224 64.4812C56.1464 64.492 56.2668 64.5054 56.3804 64.518L56.27 65.5119C56.1546 65.4991 56.0459 65.487 55.9358 65.4774L56.0224 64.4812ZM56.0027 64.4792L56.029 64.4818L55.9292 65.4768L55.9029 65.4742L56.0027 64.4792ZM55.8704 64.4599C55.9178 64.4662 55.9735 64.4736 56.0321 64.483L55.8734 65.4703C55.8302 65.4634 55.7876 65.4577 55.7385 65.4511L55.8704 64.4599ZM55.8675 64.4595L55.8678 64.4595L55.7411 65.4515L55.7409 65.4515L55.8675 64.4595ZM55.712 64.4364C55.7584 64.4449 55.8066 64.4514 55.8702 64.4599L55.7382 65.4511C55.6786 65.4432 55.6067 65.4337 55.5331 65.4203L55.712 64.4364ZM54.5226 64.2069C54.9047 64.295 55.2989 64.3641 55.7087 64.4359L55.5363 65.4209C55.1312 65.35 54.7103 65.2765 54.2977 65.1813L54.5226 64.2069ZM52.1665 63.5212C52.9294 63.7986 53.7239 64.0272 54.5199 64.2063L54.3004 65.1819C53.4664 64.9942 52.6308 64.7541 51.8248 64.461L52.1665 63.5212ZM51.6405 63.3218C51.8219 63.3935 51.9888 63.4593 52.1599 63.5189L51.8314 64.4634C51.6374 64.3959 51.4514 64.3223 51.2731 64.2519L51.6405 63.3218ZM51.6424 63.3226L51.6425 63.3226L51.2711 64.2511L51.271 64.251L51.6424 63.3226ZM51.4851 63.2606C51.5377 63.2812 51.5896 63.3017 51.6404 63.3218L51.273 64.2518C51.2219 64.2316 51.1715 64.2117 51.1207 64.1918L51.4851 63.2606ZM51.4234 63.2333C51.4555 63.2474 51.4843 63.26 51.4999 63.2667L51.1059 64.1858C51.0855 64.1771 51.0526 64.1626 51.0211 64.1488L51.4234 63.2333ZM51.3097 63.1815C51.3458 63.1973 51.3935 63.2181 51.4426 63.2422L51.0019 64.1399C50.9757 64.127 50.9481 64.1148 50.9089 64.0977L51.3097 63.1815ZM51.2107 63.1364C51.2381 63.1501 51.2672 63.1629 51.3097 63.1815L50.9089 64.0977C50.8699 64.0806 50.8175 64.0578 50.7635 64.0308L51.2107 63.1364ZM50.1257 62.6092C50.4797 62.7913 50.8365 62.9695 51.1901 63.1267L50.784 64.0405C50.4041 63.8717 50.0274 63.6832 49.6683 63.4985L50.1257 62.6092ZM48.0609 61.3682C48.7285 61.8265 49.4133 62.2431 50.1255 62.6091L49.6685 63.4985C48.9136 63.1106 48.1925 62.6715 47.4949 62.1926L48.0609 61.3682ZM47.7741 61.1603C47.873 61.2313 47.9748 61.3044 48.0745 61.3778L47.4813 62.1829C47.3875 62.1137 47.2907 62.0442 47.1909 61.9726L47.7741 61.1603ZM47.7737 61.16L47.7741 61.1603L47.1909 61.9726L47.1905 61.9723L47.7737 61.16ZM47.4836 60.9499C47.5774 61.019 47.674 61.0884 47.7737 61.16L47.1905 61.9723C47.0917 61.9014 46.99 61.8284 46.8904 61.755L47.4836 60.9499ZM46.8711 61.7481C46.8166 61.706 46.78 61.6773 46.76 61.6608C46.7566 61.6581 46.7437 61.6474 46.7299 61.6345C46.7259 61.6307 46.7182 61.6234 46.7091 61.6139C46.705 61.6096 46.6792 61.583 46.6534 61.544C46.6448 61.531 46.6048 61.4713 46.584 61.3834C46.5729 61.3366 46.5586 61.2462 46.5879 61.1379C46.6214 61.0136 46.7016 60.9071 46.8116 60.8405C46.9829 60.7369 47.1495 60.7744 47.1612 60.7765C47.2067 60.7849 47.2407 60.7978 47.2537 60.8029C47.2829 60.8144 47.3046 60.8262 47.3107 60.8295C47.32 60.8346 47.3273 60.839 47.3316 60.8416C47.3401 60.8467 47.3469 60.8512 47.3504 60.8535C47.3579 60.8585 47.3648 60.8633 47.3693 60.8664C47.4021 60.8894 47.4663 60.9369 47.487 60.9525L46.887 61.7525C46.867 61.7375 46.8141 61.6984 46.7959 61.6857C46.794 61.6844 46.7956 61.6855 46.7991 61.6878C46.8006 61.6888 46.8057 61.6922 46.8129 61.6966C46.8165 61.6987 46.8233 61.7028 46.8321 61.7076C46.8377 61.7107 46.859 61.7223 46.888 61.7337C46.9008 61.7387 46.9347 61.7516 46.9802 61.76C47.0032 61.7642 47.044 61.7701 47.095 61.7677C47.1429 61.7653 47.2336 61.754 47.3295 61.696C47.4395 61.6294 47.5197 61.523 47.5532 61.3987C47.5825 61.2904 47.5682 61.2 47.5571 61.1532C47.5363 61.0654 47.4963 61.0057 47.4878 60.9928C47.4622 60.9541 47.4366 60.9278 47.4329 60.9239C47.4241 60.9147 47.4169 60.9079 47.4135 60.9046C47.4063 60.8979 47.4008 60.8932 47.3995 60.8921C47.3984 60.8911 47.3976 60.8904 47.3971 60.8901C47.3967 60.8897 47.3964 60.8895 47.3963 60.8894C47.3963 60.8894 47.3968 60.8898 47.398 60.8907C47.3991 60.8917 47.4007 60.8929 47.4028 60.8946C47.4069 60.8979 47.4126 60.9024 47.4199 60.9081C47.4347 60.9197 47.4551 60.9356 47.4826 60.9568L46.8711 61.7481ZM47.3788 60.8778C47.4161 60.9072 47.4427 60.9279 47.4675 60.9456L46.8862 61.7593C46.8396 61.7261 46.7949 61.6908 46.7609 61.6641L47.3788 60.8778ZM47.2535 60.7826C47.3001 60.8159 47.3448 60.8511 47.3788 60.8778L46.7609 61.6641C46.7236 61.6347 46.697 61.614 46.6723 61.5963L47.2535 60.7826ZM46.3798 60.0429C46.6717 60.3046 46.9671 60.5604 47.269 60.7941L46.6568 61.5848C46.3271 61.3296 46.0112 61.0555 45.7122 60.7875L46.3798 60.0429ZM44.6631 58.2764C45.2004 58.9032 45.7764 59.4989 46.3808 60.0438L45.7112 60.7865C45.0727 60.2108 44.4669 59.584 43.9039 58.9272L44.6631 58.2764ZM44.2416 57.7643L44.6695 58.2839L43.8976 58.9196L43.4697 58.4L44.2416 57.7643ZM44.0971 57.5846C44.1183 57.6119 44.1552 57.6595 44.1866 57.699C44.2027 57.7194 44.2149 57.7346 44.2221 57.7432C44.2268 57.7489 44.2245 57.7458 44.2184 57.7392C44.2164 57.737 44.2125 57.7329 44.2074 57.7277C44.2033 57.7236 44.1926 57.7129 44.1776 57.7003C44.1701 57.6939 44.1566 57.6828 44.1386 57.6704C44.1251 57.6611 44.0861 57.6348 44.0299 57.6139C44.0005 57.6029 43.8103 57.5313 43.6057 57.6493C43.3693 57.7857 43.3556 58.024 43.3556 58.0822H44.3556C44.3556 58.1406 44.342 58.3791 44.1054 58.5155C43.9007 58.6336 43.7104 58.562 43.6807 58.5509C43.6243 58.5299 43.585 58.5034 43.5712 58.4939C43.5529 58.4813 43.539 58.4699 43.5311 58.4632C43.5049 58.441 43.4858 58.4199 43.4832 58.417C43.4708 58.4036 43.4594 58.39 43.4531 58.3824C43.438 58.3643 43.4198 58.3415 43.4028 58.3201C43.3679 58.2761 43.3281 58.2248 43.3071 58.1978L44.0971 57.5846ZM43.2473 58.1096C43.2514 58.1138 43.2666 58.1289 43.2879 58.146C43.2974 58.1536 43.3221 58.1731 43.3571 58.1926C43.3747 58.2025 43.4067 58.219 43.4493 58.2325C43.4872 58.2445 43.5701 58.2662 43.6753 58.2504C43.7998 58.2316 43.9285 58.1629 44.0139 58.0374C44.0871 57.93 44.0985 57.8246 44.1003 57.7737C44.1037 57.6779 44.0777 57.6057 44.0736 57.5939C44.0589 57.551 44.0413 57.5197 44.0391 57.5157C44.0292 57.4977 44.0203 57.4843 44.0192 57.4825C44.0162 57.4781 44.0139 57.4747 44.0129 57.4732C44.0098 57.4687 44.0081 57.4666 44.0108 57.4703C44.0147 57.4754 44.0216 57.4847 44.0314 57.4978C44.0506 57.5233 44.0765 57.5575 44.1002 57.5887L43.304 58.1936C43.2801 58.1623 43.253 58.1265 43.2323 58.0989C43.2222 58.0855 43.2124 58.0725 43.2051 58.0626C43.2023 58.0587 43.1966 58.0509 43.191 58.0428C43.1893 58.0405 43.1865 58.0363 43.1832 58.0312C43.1816 58.0289 43.1725 58.0151 43.1624 57.9967C43.1601 57.9926 43.1424 57.9611 43.1277 57.9182C43.1236 57.9063 43.0976 57.834 43.101 57.7382C43.1028 57.6873 43.1142 57.582 43.1874 57.4745C43.2728 57.349 43.4015 57.2804 43.526 57.2616C43.6313 57.2457 43.7142 57.2674 43.752 57.2794C43.7947 57.293 43.8266 57.3095 43.8443 57.3193C43.8793 57.3389 43.9041 57.3584 43.9136 57.366C43.935 57.3832 43.9503 57.3984 43.9546 57.4027L43.2473 58.1096ZM43.3402 56.4893C43.5469 56.8141 43.7751 57.1417 44.0069 57.4644L43.1949 58.048C42.9582 57.7186 42.7177 57.3738 42.4965 57.0262L43.3402 56.4893ZM42.1761 54.4201C42.5236 55.1351 42.9112 55.8209 43.3391 56.4877L42.4976 57.0278C42.0494 56.3295 41.6423 55.6094 41.2767 54.8573L42.1761 54.4201ZM41.9391 53.9118C42.018 54.0872 42.0934 54.2548 42.1736 54.4151L41.2792 54.8623C41.1883 54.6805 41.1045 54.4941 41.0271 54.3219L41.9391 53.9118ZM41.8657 53.7492C41.8904 53.8034 41.9149 53.858 41.9391 53.9118L41.0271 54.3219C41.0027 54.2678 40.979 54.2151 40.9554 54.1631L41.8657 53.7492ZM40.917 54.0735C40.9031 54.0395 40.8929 54.0147 40.8857 53.9973C40.8821 53.9885 40.8794 53.982 40.8774 53.9772C40.8753 53.9721 40.8745 53.9703 40.8747 53.9707C40.8748 53.9709 40.8751 53.9716 40.8755 53.9727C40.876 53.9736 40.8769 53.9757 40.8782 53.9785C40.879 53.9802 40.8822 53.9873 40.8869 53.9963C40.8888 54.0001 40.8944 54.0108 40.9024 54.0241C40.9062 54.0305 40.9142 54.0436 40.9255 54.0593C40.9301 54.0657 40.9625 54.1123 41.018 54.1568C41.0543 54.1835 41.165 54.2387 41.2411 54.259C41.3682 54.2658 41.6129 54.1803 41.7125 54.0907C41.7633 54.0188 41.8156 53.8913 41.8256 53.8424C41.8292 53.8125 41.8312 53.7631 41.8307 53.7437C41.829 53.7076 41.8237 53.6799 41.8219 53.6708C41.8194 53.6581 41.8169 53.648 41.8154 53.6423C41.8105 53.6233 41.8054 53.6085 41.8051 53.6076C41.8036 53.6032 41.8024 53.5999 41.8019 53.5985C41.8013 53.5969 41.8008 53.5956 41.8006 53.5951C41.8001 53.5936 41.8015 53.5974 41.806 53.6087C41.814 53.6286 41.8262 53.6587 41.838 53.6867C41.8521 53.7202 41.8587 53.7343 41.8578 53.7325L40.9634 54.1797C40.9368 54.1266 40.8929 54.0184 40.8776 53.9801C40.8732 53.9691 40.8679 53.9559 40.8641 53.9457C40.8634 53.9437 40.8607 53.9367 40.8579 53.9282C40.8574 53.9268 40.8522 53.9117 40.8472 53.8924C40.8457 53.8866 40.8432 53.8764 40.8407 53.8637C40.8388 53.8545 40.8335 53.8268 40.8318 53.7907C40.8313 53.7713 40.8333 53.7218 40.8369 53.692C40.8469 53.643 40.8992 53.5155 40.95 53.4436C41.0497 53.354 41.2943 53.2685 41.4214 53.2754C41.4976 53.2956 41.6082 53.3509 41.6446 53.3775C41.7 53.4221 41.7325 53.4686 41.7371 53.4751C41.7485 53.4909 41.7565 53.504 41.7603 53.5104C41.7683 53.5238 41.774 53.5347 41.776 53.5387C41.7809 53.548 41.7844 53.5556 41.7855 53.558C41.7883 53.5642 41.7907 53.5695 41.7917 53.572C41.7993 53.5895 41.8158 53.6293 41.843 53.6962L40.917 54.0735ZM41.7914 53.5671C41.8086 53.6088 41.8296 53.6597 41.8482 53.7093L40.9118 54.0604C40.8999 54.0285 40.8852 53.9928 40.8667 53.9478L41.7914 53.5671ZM41.7463 53.4546C41.7583 53.4865 41.7729 53.5222 41.7914 53.5671L40.8667 53.9478C40.8496 53.9062 40.8286 53.8553 40.81 53.8057L41.7463 53.4546ZM41.3372 52.3182C41.4548 52.6905 41.593 53.066 41.7432 53.4466L40.813 53.8137C40.6576 53.42 40.5106 53.0212 40.3836 52.6193L41.3372 52.3182ZM40.711 49.8247C40.8591 50.6642 41.0772 51.4981 41.337 52.3176L40.3838 52.6198C40.1139 51.7685 39.8837 50.8909 39.7262 49.9985L40.711 49.8247ZM40.653 49.4684C40.6723 49.5939 40.6901 49.71 40.7105 49.8221L39.7267 50.001C39.7034 49.8731 39.6835 49.7433 39.6646 49.6203L40.653 49.4684ZM40.6509 49.4557L40.6509 49.4559L39.6667 49.6328L39.6666 49.6327L40.6509 49.4557ZM40.6532 49.4702L40.6532 49.4703L39.6642 49.6181L39.6642 49.6181L40.6532 49.4702ZM40.6085 49.1878C40.6245 49.2833 40.6391 49.3781 40.6529 49.4681L39.6645 49.6201C39.6505 49.5289 39.637 49.441 39.6223 49.3535L40.6085 49.1878ZM40.5847 48.966C40.5953 49.0466 40.6077 49.1394 40.6146 49.1971C40.6163 49.2116 40.618 49.2264 40.6194 49.2393C40.62 49.2456 40.6208 49.2541 40.6215 49.2632C40.6218 49.2677 40.6223 49.2747 40.6227 49.283C40.6229 49.2884 40.6237 49.3073 40.6225 49.3311C40.622 49.3407 40.6204 49.3705 40.6127 49.4078C40.609 49.4256 40.6003 49.4636 40.5804 49.5088C40.5659 49.5415 40.514 49.6532 40.3852 49.7326C40.2111 49.8398 40.0198 49.8181 39.8889 49.7487C39.7894 49.6961 39.7354 49.6242 39.7187 49.6013C39.6796 49.5477 39.6608 49.4983 39.6576 49.4903C39.6459 49.4605 39.6395 49.4357 39.6383 49.4312C39.6359 49.4218 39.634 49.4139 39.633 49.4091C39.6292 49.392 39.6257 49.3728 39.6231 49.358L40.6077 49.1833C40.6103 49.1979 40.6106 49.1984 40.6093 49.1927C40.6089 49.1907 40.6076 49.1851 40.6056 49.1776C40.6049 49.1749 40.5989 49.1513 40.5875 49.1224C40.5845 49.1148 40.5658 49.0657 40.5268 49.0123C40.5102 48.9895 40.4563 48.9177 40.3569 48.865C40.226 48.7957 40.0347 48.774 39.8607 48.8812C39.7319 48.9605 39.6801 49.0721 39.6656 49.1048C39.6457 49.1499 39.6371 49.1878 39.6334 49.2055C39.6258 49.2424 39.6242 49.2718 39.6238 49.281C39.6215 49.3263 39.6272 49.3668 39.6245 49.3407C39.6241 49.3368 39.6233 49.329 39.6218 49.3166C39.6157 49.2664 39.6044 49.1809 39.5933 49.0974L40.5847 48.966ZM40.5843 48.9631L40.5844 48.9644L39.5936 49.099L39.5934 49.0977L40.5843 48.9631ZM40.5627 48.7969C40.565 48.8177 40.5735 48.8818 40.5845 48.9647L39.5931 49.096C39.5833 49.0214 39.5727 48.9417 39.5688 48.9073L40.5627 48.7969ZM40.4735 47.6148C40.4934 48.0141 40.5234 48.4129 40.5632 48.801L39.5684 48.9031C39.5267 48.4966 39.4955 48.0804 39.4747 47.6647L40.4735 47.6148ZM40.5331 45.0061C40.4537 45.8695 40.4338 46.7431 40.4736 47.617L39.4746 47.6624C39.4328 46.7433 39.4537 45.8239 39.5373 44.9146L40.5331 45.0061ZM40.5882 44.446C40.5665 44.6294 40.5502 44.8098 40.5333 45.0037L39.5371 44.917C39.554 44.7226 39.5714 44.5287 39.5951 44.3286L40.5882 44.446ZM40.6129 44.2583C40.6072 44.3033 40.5933 44.4094 40.5871 44.4547L39.5962 44.32C39.6021 44.277 39.6155 44.1746 39.6206 44.1342L40.6129 44.2583ZM40.6596 43.9495C40.6385 44.0654 40.6225 44.1554 40.6147 44.2415L39.6188 44.151C39.6313 44.0129 39.6561 43.8788 39.6757 43.7706L40.6596 43.9495ZM40.8994 42.7601C40.8099 43.1479 40.7301 43.5466 40.6602 43.9462L39.6751 43.7739C39.7478 43.3585 39.8311 42.9422 39.925 42.5353L40.8994 42.7601ZM41.6034 40.4196C41.3169 41.1803 41.0884 41.9643 40.8986 42.7632L39.9257 42.5322C40.1231 41.7011 40.3632 40.8754 40.6676 40.0672L41.6034 40.4196ZM41.6004 40.4273L41.6002 40.4279L40.6708 40.0588L40.671 40.0582L41.6004 40.4273ZM41.8733 39.7399C41.7834 39.9597 41.6932 40.1902 41.6014 40.425L40.6701 40.0606C40.7615 39.8272 40.8545 39.5894 40.9478 39.3613L41.8733 39.7399ZM41.9795 39.499C41.9594 39.5442 41.9011 39.6762 41.8629 39.7626C41.8417 39.8107 41.8313 39.8346 41.8323 39.8321C41.8326 39.8313 41.8341 39.8278 41.8359 39.8233C41.8366 39.8215 41.8389 39.8155 41.8417 39.8077C41.8433 39.8033 41.8472 39.7914 41.8495 39.7838C41.8538 39.7687 41.866 39.7083 41.8701 39.6624C41.7783 39.3507 41.2416 39.1571 41.0073 39.2966C40.9809 39.327 40.9489 39.3715 40.9413 39.3839C40.9317 39.3999 40.925 39.4134 40.9247 39.4139C40.9214 39.4205 40.9189 39.4257 40.9187 39.4262C40.9168 39.4303 40.9154 39.4333 40.9164 39.4311C40.9172 39.4295 40.9189 39.4256 40.9221 39.4185C40.9282 39.4048 40.9384 39.3819 40.9537 39.3476L41.8675 39.7537C41.8522 39.7881 41.8417 39.8117 41.8351 39.8263C41.832 39.8334 41.8294 39.8392 41.8276 39.8431C41.8273 39.8438 41.8252 39.8486 41.8228 39.8535C41.8225 39.8542 41.82 39.8596 41.8166 39.8663C41.8163 39.8669 41.8096 39.8803 41.8 39.8964C41.7923 39.9088 41.7604 39.9533 41.7339 39.9837C41.4996 40.1232 40.9629 39.9296 40.8711 39.6179C40.8753 39.572 40.8874 39.5115 40.8917 39.4964C40.894 39.4889 40.898 39.477 40.8996 39.4725C40.9023 39.4647 40.9047 39.4586 40.9054 39.4568C40.9073 39.4521 40.9088 39.4484 40.9092 39.4474C40.9135 39.4373 40.931 39.3975 40.948 39.359C40.9863 39.2723 41.0451 39.1393 41.0657 39.0929L41.9795 39.499ZM42.4918 38.4546C42.3054 38.798 42.1379 39.1426 41.9795 39.499L41.0657 39.0929C41.2333 38.7157 41.4123 38.3472 41.613 37.9775L42.4918 38.4546ZM43.7955 36.3446C43.3179 37.0211 42.8806 37.7268 42.4934 38.4516L41.6114 37.9804C42.0188 37.2178 42.478 36.4769 42.9785 35.7679L43.7955 36.3446ZM43.8031 36.3335L43.803 36.3336L42.971 35.7789L42.971 35.7788L43.8031 36.3335ZM44.1815 35.82C44.054 35.9868 43.9256 36.1645 43.7924 36.3489L42.9817 35.7634C43.1133 35.5811 43.2498 35.3921 43.3871 35.2125L44.1815 35.82ZM44.4051 35.542C44.3705 35.5905 44.2623 35.7288 44.1944 35.8139C44.1692 35.8455 44.122 35.9051 44.0941 35.9342C44.0901 35.9383 44.0807 35.948 44.0682 35.9594C44.062 35.965 44.0504 35.9752 44.0351 35.987C44.0256 35.9942 43.9878 36.0232 43.9324 36.0475C43.9059 36.0592 43.8439 36.0841 43.76 36.0889C43.6685 36.0942 43.5161 36.0753 43.3865 35.9519C43.2654 35.8366 43.239 35.7001 43.2332 35.6336C43.2271 35.5651 43.2367 35.5113 43.242 35.4865C43.2527 35.4354 43.2693 35.3978 43.2741 35.3869C43.2813 35.3707 43.2879 35.3581 43.2916 35.3512C43.3042 35.3279 43.3166 35.3097 43.3183 35.307C43.3229 35.3002 43.3273 35.294 43.3306 35.2893C43.343 35.2717 43.3614 35.2468 43.3843 35.2163L44.1843 35.8163C44.1614 35.8468 44.1505 35.8617 44.147 35.8667C44.1379 35.8796 44.1552 35.8567 44.1716 35.8263C44.1751 35.8197 44.1816 35.8075 44.1886 35.7915C44.1933 35.7809 44.2098 35.7436 44.2205 35.6926C44.2257 35.6679 44.2353 35.6142 44.2293 35.5457C44.2234 35.4793 44.1971 35.3428 44.076 35.2276C43.9464 35.1042 43.794 35.0853 43.7026 35.0906C43.6188 35.0954 43.5568 35.1203 43.5303 35.1319C43.4751 35.1562 43.4375 35.1851 43.4283 35.1921C43.4131 35.2037 43.4018 35.2137 43.3959 35.219C43.384 35.2299 43.3754 35.2388 43.3724 35.2419C43.3594 35.2555 43.3676 35.2468 43.4124 35.1906C43.4461 35.1483 43.4872 35.0961 43.5229 35.0503C43.5407 35.0274 43.5567 35.0066 43.5695 34.9899C43.5759 34.9815 43.5811 34.9746 43.5852 34.9691C43.5872 34.9664 43.5888 34.9643 43.5899 34.9627C43.5912 34.9611 43.5916 34.9605 43.5914 34.9608L44.4051 35.542ZM45.1487 34.6854C44.8823 34.9715 44.6353 35.2579 44.3875 35.5653L43.6091 34.9375C43.8706 34.6132 44.133 34.3087 44.4168 34.004L45.1487 34.6854ZM46.8869 33.0264C46.273 33.5413 45.6969 34.0973 45.1485 34.6856L44.417 34.0037C44.9892 33.3899 45.5949 32.8049 46.2443 32.2602L46.8869 33.0264ZM47.4459 32.5672C47.2504 32.7215 47.0684 32.8653 46.8978 33.017L46.2334 32.2696C46.4295 32.0953 46.6346 31.9335 46.8262 31.7823L47.4459 32.5672ZM47.4361 32.5747L47.436 32.5747L46.836 31.7747L46.8361 31.7747L47.4361 32.5747ZM46.9862 31.6711C46.9971 31.6663 47.0164 31.6582 47.0413 31.6505C47.0603 31.6446 47.1133 31.629 47.1834 31.6282C47.2404 31.6276 47.4343 31.6362 47.5779 31.8139C47.723 31.9934 47.6892 32.1868 47.6754 32.2446C47.6588 32.314 47.6311 32.363 47.621 32.3804C47.6077 32.4032 47.5953 32.4203 47.588 32.4299C47.5735 32.4491 47.5607 32.4632 47.5552 32.4692C47.5356 32.4903 47.5164 32.5073 47.5132 32.5102C47.4983 32.5235 47.4786 32.5401 47.4562 32.5588L46.816 31.7906C46.8261 31.7822 46.8336 31.7758 46.8391 31.7711C46.845 31.7661 46.8472 31.7641 46.8472 31.7642C46.8472 31.7642 46.8453 31.7659 46.8423 31.7687C46.8406 31.7703 46.8319 31.7785 46.821 31.7902C46.8161 31.7955 46.8038 31.809 46.7896 31.8278C46.7826 31.8372 46.7703 31.8541 46.7571 31.8767C46.7471 31.8939 46.7194 31.9428 46.7028 32.0121C46.689 32.0697 46.6552 32.2631 46.8003 32.4426C46.9439 32.6202 47.1377 32.6288 47.1946 32.6282C47.2645 32.6274 47.3174 32.6118 47.3363 32.606C47.361 32.5983 47.3801 32.5903 47.3907 32.5856L46.9862 31.6711ZM47.6885 32.3768C47.6293 32.4162 47.5678 32.4628 47.5098 32.5114L46.8671 31.7453C46.9498 31.6759 47.0406 31.6068 47.1338 31.5447L47.6885 32.3768ZM48.678 31.7C48.3474 31.9104 48.023 32.1269 47.7112 32.3607L47.1112 31.5607C47.4514 31.3056 47.7994 31.0738 48.1411 30.8563L48.678 31.7ZM50.8137 30.528C50.0762 30.8768 49.3614 31.2642 48.6784 31.6997L48.1407 30.8566C48.8637 30.3956 49.6159 29.9883 50.3862 29.624L50.8137 30.528ZM51.4677 30.2351C51.2428 30.333 51.0268 30.4312 50.8068 30.5312L50.393 29.6208C50.612 29.5213 50.8351 29.4199 51.0683 29.3183L51.4677 30.2351ZM51.7055 30.1428C51.7056 30.1428 51.7028 30.1437 51.6962 30.1461C51.6901 30.1484 51.6822 30.1513 51.6728 30.1549C51.6537 30.162 51.6306 30.171 51.6051 30.1809C51.5542 30.2008 51.4977 30.2233 51.4539 30.2408L51.0822 29.3125C51.1624 29.2804 51.3239 29.2159 51.3893 29.1941L51.7055 30.1428ZM52.8559 29.7389C52.4745 29.8562 52.0997 29.9941 51.7243 30.1361L51.3705 29.2008C51.749 29.0576 52.1485 28.9102 52.5618 28.7831L52.8559 29.7389ZM55.363 29.1319C54.5154 29.2815 53.6712 29.4803 52.8599 29.7376L52.5577 28.7844C53.4172 28.5118 54.3049 28.3032 55.1892 28.1471L55.363 29.1319ZM55.7645 29.0632C55.6246 29.0832 55.5061 29.1016 55.3809 29.1284L55.1714 28.1506C55.3315 28.1163 55.4778 28.094 55.6231 28.0732L55.7645 29.0632ZM55.7449 29.0662C55.7339 29.067 55.7152 29.0682 55.6938 29.0682V28.0682C55.6861 28.0682 55.6805 28.0684 55.6778 28.0685C55.6748 28.0687 55.673 28.0688 55.6725 28.0688L55.7449 29.0662ZM55.7707 29.0637L55.7707 29.0637L55.6467 28.0714L55.6467 28.0714L55.7707 29.0637ZM55.9145 29.0449C55.8846 29.05 55.8028 29.062 55.7449 29.0662L55.6725 28.0688C55.672 28.0689 55.6753 28.0686 55.6833 28.0677C55.6906 28.0669 55.6993 28.0658 55.7086 28.0646C55.7178 28.0634 55.7267 28.0621 55.7342 28.061C55.7379 28.0604 55.7411 28.06 55.7436 28.0596C55.7449 28.0594 55.7459 28.0592 55.7466 28.0591C55.747 28.059 55.7473 28.059 55.7475 28.059C55.7476 28.0589 55.7477 28.0589 55.7477 28.0589C55.7478 28.0589 55.7478 28.0589 55.7478 28.0589C55.7478 28.0589 55.7478 28.0589 55.7478 28.0589L55.9145 29.0449ZM55.8622 28.0506C55.8711 28.051 55.9028 28.0524 55.9424 28.0607C55.9607 28.0646 56.0046 28.0746 56.0561 28.0993C56.0921 28.1166 56.2328 28.1874 56.3036 28.3632C56.3924 28.5834 56.301 28.7687 56.2399 28.8501C56.1857 28.9225 56.1254 28.9613 56.106 28.9735C56.0598 29.0025 56.0192 29.017 56.0114 29.0199C55.9854 29.0294 55.9641 29.0346 55.9601 29.0355C55.9522 29.0375 55.9457 29.039 55.9421 29.0397C55.9296 29.0424 55.9184 29.0443 55.9144 29.0449L55.7479 28.0589C55.7479 28.0589 55.7477 28.0589 55.7474 28.059C55.7471 28.059 55.7465 28.0591 55.7456 28.0593C55.7446 28.0595 55.7403 28.0603 55.7344 28.0615C55.7316 28.0621 55.7257 28.0634 55.7182 28.0653C55.7147 28.0661 55.6938 28.0712 55.6681 28.0806C55.6604 28.0835 55.6199 28.0979 55.5737 28.1269C55.5544 28.1391 55.4941 28.1779 55.4398 28.2502C55.3788 28.3316 55.2874 28.5169 55.3762 28.7371C55.447 28.9129 55.5877 28.9837 55.6236 29.0009C55.6751 29.0256 55.719 29.0357 55.7372 29.0395C55.7768 29.0478 55.8084 29.0492 55.8171 29.0496L55.8622 28.0506ZM56.3932 28.9946C56.2233 29.0108 56.0619 29.0262 55.9016 29.0462L55.7777 28.0539C55.9549 28.0318 56.1309 28.0151 56.2984 27.9991L56.3932 28.9946ZM56.3459 28.9969H56.3458V27.9969H56.3459V28.9969ZM57.6414 28.9152C57.229 28.9251 56.8137 28.9546 56.3933 28.9946L56.2984 27.9991C56.7338 27.9577 57.1742 27.9261 57.6176 27.9155L57.6414 28.9152ZM60.1805 28.9947C59.3339 28.915 58.4896 28.8853 57.6471 28.9151L57.6119 27.9157C58.5013 27.8843 59.3889 27.9158 60.2742 27.9991L60.1805 28.9947ZM60.3811 29.0142C60.3109 29.0064 60.2517 28.9999 60.1918 28.9956L60.263 27.9982C60.3457 28.0041 60.4241 28.0128 60.4915 28.0203L60.3811 29.0142ZM60.6095 29.0364C60.5268 29.0305 60.4484 29.0217 60.381 29.0142L60.4915 28.0203C60.5616 28.0281 60.6208 28.0346 60.6807 28.0389L60.6095 29.0364ZM60.6144 29.0374L60.5876 29.0343L60.7026 28.041L60.7294 28.0441L60.6144 29.0374ZM60.6404 29.042C60.6199 29.0389 60.6028 29.0361 60.5891 29.0338L60.7547 28.0476C60.7621 28.0489 60.7741 28.0508 60.7925 28.0536L60.6404 29.042ZM60.9359 29.0913C60.833 29.0733 60.7371 29.0565 60.6422 29.0423L60.7906 28.0534C60.8995 28.0697 61.0074 28.0886 61.1082 28.1062L60.9359 29.0913ZM61.2535 29.1442C61.1446 29.1278 61.0367 29.1089 60.9358 29.0913L61.1082 28.1062C61.2111 28.1243 61.307 28.141 61.4018 28.1552L61.2535 29.1442ZM62.4276 29.3916C62.0307 29.3 61.6346 29.211 61.2415 29.1422L61.4139 28.1572C61.8358 28.231 62.2547 28.3254 62.6525 28.4172L62.4276 29.3916ZM64.7579 30.116C63.9927 29.8278 63.2165 29.5889 62.4188 29.3895L62.6613 28.4193C63.4936 28.6274 64.3067 28.8775 65.1104 29.1802L64.7579 30.116ZM65.1188 30.2523C65.0046 30.2047 64.8839 30.1584 64.776 30.1224L65.0923 29.1738C65.2289 29.2193 65.3731 29.2749 65.5034 29.3292L65.1188 30.2523ZM65.2617 30.315C65.2146 30.2942 65.1434 30.2629 65.1141 30.2503L65.5081 29.3312C65.5434 29.3463 65.6207 29.3804 65.6653 29.4L65.2617 30.315ZM65.4147 30.3861C65.3598 30.3603 65.3079 30.336 65.2565 30.3127L65.6705 29.4024C65.728 29.4285 65.7851 29.4553 65.8391 29.4806L65.4147 30.3861ZM65.671 30.5035C65.5826 30.4648 65.4952 30.4238 65.4147 30.3861L65.8391 29.4806C65.9217 29.5193 65.9973 29.5547 66.0718 29.5873L65.671 30.5035ZM66.7128 31.0248C66.3687 30.838 66.0221 30.6695 65.6579 30.4976L66.0849 29.5933C66.4543 29.7677 66.8209 29.9456 67.1899 30.146L66.7128 31.0248ZM68.8126 32.3386C68.1312 31.8576 67.4361 31.4112 66.7157 31.0264L67.1869 30.1444C67.954 30.5542 68.6852 31.0247 69.3893 31.5217L68.8126 32.3386ZM69.2096 32.63C69.156 32.5923 68.8621 32.376 68.801 32.3302L69.401 31.5302C69.4605 31.5748 69.7445 31.7836 69.7852 31.8123L69.2096 32.63ZM69.6388 32.9783C69.4847 32.8514 69.3371 32.7299 69.1905 32.6159L69.8044 31.8264C69.9639 31.9505 70.1224 32.0811 70.2745 32.2063L69.6388 32.9783ZM69.6354 32.9755L69.6353 32.9754L70.2779 32.2092L70.278 32.2093L69.6354 32.9755ZM70.5125 33.753C70.2215 33.482 69.9331 33.2236 69.6366 32.9765L70.2768 32.2083C70.5916 32.4706 70.8941 32.7419 71.194 33.0211L70.5125 33.753ZM72.1196 35.4594C71.6219 34.8623 71.0862 34.287 70.5125 33.753L71.194 33.0211C71.8021 33.5873 72.3666 34.1938 72.8878 34.8192L72.1196 35.4594ZM72.25 35.6159C72.2076 35.566 72.1594 35.5094 72.1132 35.4517L72.8941 34.827C72.9294 34.8711 72.9678 34.9163 73.0119 34.9682L72.25 35.6159ZM72.245 35.61L72.245 35.6099L73.0169 34.9742L73.017 34.9743L72.245 35.61ZM72.3679 35.7573C72.3326 35.7132 72.2942 35.6679 72.25 35.6159L73.012 34.9683C73.0544 35.0182 73.1026 35.0748 73.1488 35.1326L72.3679 35.7573ZM72.517 35.9427C72.4959 35.9154 72.4589 35.8678 72.4275 35.8282C72.4113 35.8078 72.3991 35.7926 72.3919 35.784C72.3872 35.7783 72.3895 35.7813 72.3956 35.7879C72.3976 35.7901 72.4014 35.7942 72.4066 35.7994C72.4106 35.8035 72.4213 35.8141 72.4363 35.8268C72.4437 35.8331 72.4572 35.8442 72.4752 35.8566C72.4887 35.8659 72.5276 35.8922 72.5837 35.9131C72.6129 35.9241 72.8029 35.9959 73.0076 35.8782C73.2447 35.742 73.2584 35.5032 73.2584 35.4449H72.2584C72.2584 35.3865 72.2721 35.1476 72.5093 35.0113C72.7141 34.8935 72.9043 34.9654 72.9337 34.9764C72.99 34.9974 73.0292 35.0239 73.043 35.0334C73.0613 35.046 73.0751 35.0574 73.083 35.064C73.1092 35.0862 73.1282 35.1073 73.1309 35.1102C73.1432 35.1236 73.1546 35.1371 73.161 35.1448C73.176 35.1629 73.1943 35.1857 73.2113 35.2072C73.2462 35.2513 73.286 35.3026 73.307 35.3296L72.517 35.9427ZM73.3666 35.4174C73.3624 35.4132 73.3473 35.3981 73.326 35.381C73.3165 35.3734 73.2918 35.354 73.2568 35.3345C73.2392 35.3247 73.2074 35.3082 73.165 35.2947C73.1273 35.2827 73.0449 35.2611 72.9403 35.2765C72.8167 35.2948 72.688 35.3623 72.6018 35.4873C72.5278 35.5946 72.5157 35.7002 72.5137 35.7516C72.51 35.848 72.5361 35.9207 72.5401 35.9326C72.5549 35.9757 72.5726 36.0072 72.5748 36.0112C72.5847 36.0293 72.5936 36.0428 72.5948 36.0445C72.5977 36.049 72.6001 36.0524 72.6011 36.0539C72.6042 36.0584 72.6059 36.0606 72.6032 36.0569C72.5994 36.0517 72.5924 36.0424 72.5826 36.0294C72.5634 36.0039 72.5376 35.9698 72.5139 35.9386L73.3102 35.3337C73.334 35.365 73.3611 35.4007 73.3818 35.4283C73.3919 35.4417 73.4016 35.4547 73.4089 35.4646C73.4117 35.4684 73.4175 35.4763 73.4231 35.4844C73.4247 35.4867 73.4275 35.4909 73.4309 35.496C73.4324 35.4983 73.4416 35.5122 73.4517 35.5306C73.454 35.5348 73.4718 35.5664 73.4865 35.6096C73.4906 35.6215 73.5167 35.6943 73.513 35.7907C73.511 35.8421 73.4989 35.9478 73.4249 36.0551C73.3387 36.1801 73.21 36.2476 73.0864 36.2658C72.9818 36.2813 72.8994 36.2596 72.8617 36.2476C72.8192 36.2341 72.7874 36.2177 72.7698 36.2079C72.7348 36.1883 72.71 36.1689 72.7005 36.1613C72.6791 36.1441 72.6638 36.1288 72.6595 36.1245L73.3666 35.4174ZM72.759 36.2755L72.6062 36.0616L73.4199 35.4803L73.5727 35.6943L72.759 36.2755ZM73.4164 37.2517C73.2062 36.9214 72.9874 36.5933 72.7599 36.2767L73.5719 35.6931C73.813 36.0285 74.0424 36.3728 74.2601 36.7149L73.4164 37.2517ZM74.6066 39.4541C74.2591 38.6994 73.8617 37.9641 73.4143 37.2483L74.2623 36.7183C74.7318 37.4695 75.1494 38.2421 75.515 39.0358L74.6066 39.4541ZM74.7019 39.677C74.6697 39.6055 74.6301 39.5181 74.5941 39.4245L75.5275 39.0655C75.5518 39.1287 75.5797 39.1909 75.6136 39.2661L74.7019 39.677ZM74.7053 39.6845L74.7053 39.6845L75.6101 39.2587L75.6102 39.2587L74.7053 39.6845ZM74.7188 39.711L74.7188 39.711L75.5967 39.2322L75.5967 39.2322L74.7188 39.711ZM74.7623 39.8142C74.7447 39.7721 74.7252 39.7288 74.7019 39.677L75.6136 39.2662C75.6359 39.3156 75.6613 39.372 75.6853 39.4296L74.7623 39.8142ZM75.688 39.4464C75.7139 39.5112 75.7259 39.5403 75.7297 39.5494C75.7312 39.5528 75.7288 39.5471 75.7248 39.5385C75.7235 39.5359 75.7209 39.5305 75.7174 39.5236C75.7155 39.5201 75.7061 39.5017 75.6916 39.4796C75.6864 39.4718 75.6659 39.4404 75.6325 39.4061C75.6174 39.3904 75.5781 39.3515 75.5169 39.3175C75.4625 39.2872 75.3066 39.2152 75.1129 39.2811C74.9113 39.3497 74.8311 39.511 74.8054 39.5798C74.7788 39.6512 74.7753 39.7114 74.7744 39.7341C74.7723 39.7847 74.7788 39.824 74.7802 39.8332C74.7845 39.8602 74.7902 39.8807 74.7912 39.8845C74.7933 39.8921 74.7951 39.898 74.796 39.9009C74.7978 39.9068 74.7993 39.911 74.7996 39.9119C74.8004 39.9143 74.8006 39.9149 74.7998 39.9125C74.7917 39.8904 74.7682 39.8292 74.7596 39.8076L75.688 39.4362C75.6998 39.4656 75.7272 39.5368 75.7396 39.5708C75.7412 39.5754 75.7435 39.5818 75.7458 39.5885C75.7469 39.5916 75.7489 39.5976 75.7512 39.6048C75.7523 39.6084 75.7542 39.6148 75.7564 39.6229C75.7576 39.6272 75.7633 39.6481 75.7677 39.6753C75.7692 39.6846 75.7756 39.724 75.7736 39.7747C75.7726 39.7975 75.7691 39.8576 75.7425 39.929C75.7168 39.9979 75.6366 40.1592 75.435 40.2278C75.2412 40.2937 75.0854 40.2217 75.0309 40.1914C74.9697 40.1574 74.9304 40.1185 74.9152 40.1028C74.8818 40.0684 74.8612 40.0369 74.856 40.029C74.8413 40.0067 74.8317 39.988 74.8296 39.984C74.8258 39.9766 74.8229 39.9706 74.8213 39.9673C74.8159 39.9557 74.8113 39.945 74.8096 39.9409C74.8007 39.92 74.7846 39.8804 74.7596 39.8178L75.688 39.4464ZM74.8431 40.0281C74.8148 39.9576 74.7857 39.885 74.7578 39.8133L75.6898 39.4509C75.7154 39.5166 75.7425 39.5842 75.7712 39.6557L74.8431 40.0281ZM74.8429 40.0276L74.8429 40.0276L75.7714 39.6562L75.7714 39.6562L74.8429 40.0276ZM74.8399 40.02L74.8399 40.0199L75.7744 39.6639L75.7744 39.664L74.8399 40.02ZM74.9788 40.3755C74.9371 40.2623 74.8912 40.1479 74.8431 40.0282L75.7712 39.6557C75.8183 39.7732 75.8696 39.9009 75.9171 40.0298L74.9788 40.3755ZM75.3674 41.5213C75.2481 41.1338 75.1187 40.7553 74.9788 40.3755L75.9171 40.0298C76.0624 40.4242 76.1979 40.82 76.3232 41.2272L75.3674 41.5213ZM75.9365 43.9246C75.7977 43.111 75.6111 42.3012 75.368 41.5234L76.3225 41.2251C76.5808 42.0517 76.7771 42.9056 76.9223 43.7565L75.9365 43.9246ZM72.2592 40.6446L76.6944 43.4165L76.1644 44.2645L71.7292 41.4926L72.2592 40.6446ZM69.4705 41.3727C70.0004 40.4352 71.3016 40.0478 72.2587 40.6442L71.7298 41.4929C71.281 41.2132 70.6058 41.3963 70.341 41.8647L69.4705 41.3727ZM70.1914 44.1316C69.28 43.5635 68.8964 42.343 69.4754 41.3642L70.3361 41.8733C70.0594 42.3411 70.2259 42.9747 70.7203 43.2829L70.1914 44.1316ZM77.2816 48.5629L70.1909 44.1312L70.7209 43.2832L77.8116 47.7149L77.2816 48.5629ZM80.0587 47.8543C79.5113 48.7276 78.2688 49.1835 77.2805 48.5622L77.8127 47.7156C78.2506 47.9909 78.9031 47.8151 79.2114 47.3232L80.0587 47.8543ZM84.4908 40.7631L80.0591 47.8538L79.2111 47.3238L83.6428 40.2331L84.4908 40.7631ZM83.7701 37.9786C84.6817 38.5148 85.0919 39.7984 84.4911 40.7625L83.6424 40.2336C83.9178 39.7918 83.7371 39.1193 83.2631 38.8405L83.7701 37.9786ZM81.0038 38.6953C81.5718 37.7838 82.7924 37.4002 83.7712 37.9792L83.2621 38.8399C82.7942 38.5632 82.1606 38.7297 81.8525 39.2242L81.0038 38.6953ZM55.7892 65.4618C55.7872 65.4616 55.79 65.4619 55.7947 65.4622C55.7961 65.4623 55.799 65.4625 55.8028 65.4627C55.805 65.4627 55.8145 65.4632 55.8268 65.4632C55.8316 65.4632 55.8476 65.4631 55.868 65.4614C55.8772 65.4606 55.8997 65.4585 55.928 65.4526C55.9422 65.4496 55.967 65.4438 55.9968 65.4329C56.0209 65.4241 56.0817 65.4003 56.145 65.3477C56.2121 65.292 56.3257 65.1637 56.3254 64.9627C56.3252 64.7775 56.2269 64.659 56.1843 64.6151C56.1058 64.5342 56.0189 64.5021 56.0155 64.5007C55.9755 64.4843 55.9418 64.4769 55.9393 64.4763C55.9217 64.4722 55.9077 64.47 55.9061 64.4698C55.9015 64.469 55.8979 64.4685 55.8963 64.4683C55.8929 64.4678 55.8906 64.4675 55.8905 64.4675C55.8898 64.4674 55.8907 64.4675 55.8941 64.4679C55.9076 64.4694 55.9385 64.4727 55.9958 64.4785L55.8955 65.4734C55.8379 65.4676 55.8023 65.4639 55.7829 65.4617C55.7781 65.4612 55.7728 65.4606 55.7679 65.46C55.7657 65.4597 55.7617 65.4592 55.7571 65.4586C55.7549 65.4582 55.7508 65.4577 55.7458 65.4569C55.7438 65.4565 55.7295 65.4543 55.7118 65.4501C55.7092 65.4495 55.6754 65.4421 55.6354 65.4257C55.632 65.4243 55.545 65.3923 55.4665 65.3113C55.424 65.2674 55.3256 65.1489 55.3254 64.9637C55.3252 64.7627 55.4388 64.6344 55.5058 64.5787C55.5692 64.526 55.63 64.5023 55.6541 64.4935C55.6839 64.4826 55.7087 64.4768 55.7229 64.4738C55.7512 64.4679 55.7738 64.4658 55.783 64.465C55.8035 64.4632 55.8196 64.4632 55.8245 64.4632C55.837 64.4632 55.8468 64.4636 55.8494 64.4637C55.8536 64.4639 55.857 64.4641 55.859 64.4643C55.8661 64.4647 55.8726 64.4653 55.8756 64.4655L55.7892 65.4618ZM55.8808 65.4717C55.8678 65.47 55.8489 65.4679 55.8294 65.4658C55.8099 65.4637 55.7945 65.4623 55.7892 65.4618L55.8756 64.4655C55.9004 64.4677 55.9639 64.4741 56.0105 64.4802L55.8808 65.4717ZM65.5855 29.3644L65.6447 29.3907L65.2386 30.3045L65.1793 30.2782L65.5855 29.3644ZM65.2362 30.3034C65.2178 30.2952 65.1998 30.2872 65.182 30.2794L65.5828 29.3632C65.6045 29.3727 65.626 29.3822 65.6471 29.3918L65.2362 30.3034ZM60.2689 34.314V45.653H59.2689V34.314H60.2689ZM58.2821 32.2664C59.3252 32.3316 60.2689 33.16 60.2689 34.314H59.2689C59.2689 33.7564 58.8068 33.3012 58.2198 33.2645L58.2821 32.2664ZM56.2228 34.2936C56.2228 33.253 57.1267 32.2093 58.2756 32.2661L58.2263 33.2648C57.7248 33.2401 57.2228 33.745 57.2228 34.2936H56.2228ZM56.2228 35.8422V34.2936H57.2228V35.8422H56.2228ZM56.2228 46.1318V35.8422H57.2228V46.1318H56.2228ZM55.6153 46.5322L56.3692 45.7783L57.0763 46.4854L56.3224 47.2393L55.6153 46.5322ZM47.3123 54.8352L55.6153 46.5322L56.3224 47.2393L48.0194 55.5423L47.3123 54.8352ZM47.3123 57.7021C46.5363 56.9262 46.5363 55.6112 47.3123 54.8352L48.0194 55.5423C47.634 55.9278 47.634 56.6096 48.0194 56.995L47.3123 57.7021ZM50.1792 57.7021C49.4032 58.4781 48.0883 58.4781 47.3123 57.7021L48.0194 56.995C48.4048 57.3805 49.0867 57.3805 49.4721 56.995L50.1792 57.7021ZM53.8876 53.9938L50.1792 57.7021L49.4721 56.995L53.1805 53.2867L53.8876 53.9938ZM58.7369 49.1444L53.8876 53.9938L53.1805 53.2867L58.0298 48.4373L58.7369 49.1444ZM59.05 48.8381C58.9431 48.9415 58.8392 49.0421 58.7369 49.1444L58.0298 48.4373C58.1388 48.3283 58.2486 48.2221 58.3545 48.1196L59.05 48.8381ZM59.6912 48.1893C59.4817 48.4204 59.2597 48.6351 59.05 48.8381L58.3545 48.1196C58.5681 47.9127 58.7664 47.7206 58.9502 47.5178L59.6912 48.1893ZM60.2734 45.9715C60.2864 46.5985 60.3256 47.4857 59.692 48.1884L58.9493 47.5187C59.2768 47.1556 59.2881 46.6921 59.2736 45.9922L60.2734 45.9715ZM60.2689 45.653C60.2689 45.7558 60.2711 45.8604 60.2734 45.9715L59.2736 45.9922C59.2713 45.8829 59.2689 45.7679 59.2689 45.653H60.2689Z" fill="#F2F4F6" mask="url(#path-2-inside-1)"/>
<g filter="url(#filter0_d)">
<path fill-rule="evenodd" clip-rule="evenodd" d="M37.3238 9.72153C40.3643 10.8152 42.5534 13.7317 42.5534 17.1342C42.5534 21.3874 38.9048 24.9114 34.6481 24.9114H11.9053C7.52697 24.9114 4 21.3874 4 17.1342C4 13.7317 6.18915 10.8152 9.22964 9.60001C9.22964 4.37469 13.6079 0 18.9592 0C22.3646 0 25.2834 1.70127 26.9861 4.37469C31.1212 2.79494 36.3508 4.98229 37.3238 9.72153Z" fill="#F8C10A"/>
</g>
<path fill-rule="evenodd" clip-rule="evenodd" d="M15.8671 14.6161L21.3019 6.84826C21.359 6.76677 21.452 6.71814 21.5515 6.71814H24.0197C24.213 6.71814 24.3265 6.93579 24.2154 7.09417L16.8954 17.5398C16.7553 17.7398 16.6832 17.7985 16.5556 17.7985C15.8453 17.7985 15.2695 17.2228 15.2695 16.5126C15.2695 15.8343 15.4782 15.172 15.8671 14.6161ZM23.1301 12.7544L26.4178 17.4219C26.5292 17.5801 26.416 17.7984 26.2225 17.7984H24.2591V20.5828C24.2591 20.819 24.0676 21.0104 23.8314 21.0104H21.7296C21.4933 21.0104 21.3019 20.819 21.3019 20.5828V17.7984H19.3384C19.1448 17.7984 19.0315 17.5801 19.1431 17.4219L22.4307 12.7544C22.6012 12.5127 22.9597 12.5127 23.1301 12.7544Z" fill="#152B6F"/>
<defs>
<filter id="filter0_d" x="0" y="0" width="46.5534" height="32.9114" filterUnits="userSpaceOnUse" color-interpolation-filters="sRGB">
<feFlood flood-opacity="0" result="BackgroundImageFix"/>
<feColorMatrix in="SourceAlpha" type="matrix" values="0 0 0 0 0 0 0 0 0 0 0 0 0 0 0 0 0 0 127 0"/>
<feOffset dy="4"/>
<feGaussianBlur stdDeviation="2"/>
<feColorMatrix type="matrix" values="0 0 0 0 0.972549 0 0 0 0 0.756863 0 0 0 0 0.0392157 0 0 0 0.3 0"/>
<feBlend mode="normal" in2="BackgroundImageFix" result="effect1_dropShadow"/>
<feBlend mode="normal" in="SourceGraphic" in2="effect1_dropShadow" result="shape"/>
</filter>
</defs>
</svg>
