<?xml version="1.0" encoding="UTF-8"?>
<svg width="102px" height="103px" viewBox="0 0 102 103" version="1.1" xmlns="http://www.w3.org/2000/svg" xmlns:xlink="http://www.w3.org/1999/xlink">
    <!-- Generator: Sketch 52.1 (67048) - http://www.bohemiancoding.com/sketch -->
    <title>Group</title>
    <desc>Created with Sketch.</desc>
    <g id="Compare" stroke="none" stroke-width="1" fill="none" fill-rule="evenodd">
        <g id="Compare-(empty)" transform="translate(-622.000000, -340.000000)">
            <g id="Group" transform="translate(623.000000, 341.000000)">
                <circle id="Oval" stroke="#152B6F" stroke-width="2" opacity="0.130524554" fill-rule="nonzero" cx="50" cy="50.6796875" r="50"></circle>
                <path d="M65.5965042,53.865687 L59.9009404,35.4057278 C59.7524658,34.9285903 59.310867,34.6035208 58.8111622,34.6035208 C58.3114574,34.6035208 57.8698586,34.9285903 57.721384,35.4057278 L57.0623627,37.5484674 L52.8910157,38.5241134 C52.0100176,36.941652 50.1854255,36.1365394 48.4226475,36.5524181 C46.6598694,36.9682968 45.3875381,38.5040428 45.3067485,40.3134114 L41.4115277,41.2301505 L40.9918158,39.8679277 C40.8433412,39.3907903 40.4017424,39.0657208 39.9020376,39.0657208 C39.4023328,39.0657208 38.960734,39.3907903 38.8122594,39.8679277 L33.1166956,58.3315686 C32.4485295,60.4915075 32.8139502,62.8388939 34.1070684,64.693517 C35.3270047,66.4845272 37.3081219,67.6090186 39.4712807,67.738269 C39.6160936,67.738269 39.7596792,67.738269 39.9020376,67.738269 C40.0443961,67.738269 40.1879817,67.738269 40.3327946,67.738269 C42.4939703,67.6115772 44.474708,66.4913796 45.6970069,64.7045621 C46.9922427,62.8507894 47.3578217,60.502386 46.6873796,58.3426137 L42.0668673,43.3508 L45.8221841,42.4635143 C46.7031822,44.0459757 48.5277743,44.8510884 50.2905523,44.4352096 C52.0533304,44.0193309 53.3256617,42.4835849 53.4064513,40.6742163 L56.3186627,39.9894233 L52.0258202,53.865687 C51.3553781,56.0254593 51.7209571,58.3738627 53.0161929,60.2276354 C54.2384918,62.0144529 56.2192295,63.1346505 58.3804052,63.2613423 C58.5227637,63.2613423 58.6663493,63.2613423 58.8111622,63.2613423 C58.955975,63.2613423 59.0995607,63.2613423 59.2419191,63.2613423 C61.4030948,63.1346505 63.3838325,62.0144529 64.6061314,60.2276354 C65.8992496,58.3730122 66.2646703,56.0256258 65.5965042,53.865687 Z M40.2076173,65.5292591 C40.0052753,65.5403014 39.8024817,65.5403014 39.6001396,65.5292591 C38.1163535,65.4394428 36.7573715,64.6689 35.9184565,63.4417448 C35.5133798,62.8511166 35.2350848,62.1829579 35.1011229,61.4794077 L44.7029524,61.4794077 C44.5685553,62.1811738 44.2888988,62.8470822 43.8819371,63.4343814 C43.0465393,64.6627838 41.6902423,65.4360634 40.2076173,65.5292591 Z M44.6477272,59.2703978 L35.1600298,59.2703978 C35.1821199,59.174674 35.2005283,59.0789503 35.2299818,58.9832265 L39.9020376,43.8331005 L44.5704118,58.9832265 C44.603547,59.0789503 44.6219554,59.174674 44.6477272,59.2703978 Z M49.3565999,42.3346554 C48.3399312,42.3346554 47.5157583,41.5104826 47.5157583,40.4938139 C47.5157583,39.4771452 48.3399312,38.6529723 49.3565999,38.6529723 C50.3732686,38.6529723 51.1974415,39.4771452 51.1974415,40.4938139 C51.1974415,41.5104826 50.3732686,42.3346554 49.3565999,42.3346554 Z M58.8001171,39.3893089 L63.483218,54.5173449 C63.5126715,54.6130687 63.5310799,54.7087924 63.55317,54.8045162 L54.0654726,54.8045162 C54.0912444,54.7087924 54.1096528,54.6130687 54.1391063,54.5173449 L58.8001171,39.3893089 Z M59.1167419,61.0449691 C58.9131718,61.0560142 58.7091526,61.0560142 58.5055825,61.0449691 C57.0206543,60.9590152 55.6600862,60.187573 54.8238993,58.9574547 C54.416361,58.370472 54.1366515,57.7044372 54.002884,57.002481 L63.612077,57.002481 C63.4768491,57.7039959 63.1972624,58.3697383 62.7910616,58.9574547 C61.9587988,60.1897884 60.6010175,60.9652747 59.1167419,61.0560141 L59.1167419,61.0449691 Z" id="Shape" fill="#152b6f"></path>
            </g>
        </g>
    </g>
</svg>