<?xml version="1.0" encoding="UTF-8"?>
<svg width="18px" height="18px" viewBox="0 0 18 18" version="1.1" xmlns="http://www.w3.org/2000/svg" xmlns:xlink="http://www.w3.org/1999/xlink">
    <!-- Generator: Sketch 52.1 (67048) - http://www.bohemiancoding.com/sketch -->
    <title>Icons/Compare</title>
    <desc>Created with Sketch.</desc>
    <g id="UI-Kit" stroke="none" stroke-width="1" fill="none" fill-rule="evenodd">
        <g id="Desktop-HD" transform="translate(-437.000000, -254.000000)" fill="#333333" fill-rule="nonzero">
            <g id="Icons/Compare" transform="translate(437.134440, 254.129883)">
                <path d="M16.8318889,9.88266667 L13.9097778,0.411777778 C13.8336028,0.166982211 13.6070404,0.000205192866 13.3506667,0.000205192866 C13.0942929,0.000205192866 12.8677305,0.166982211 12.7915556,0.411777778 L12.4534444,1.51111111 L10.3133333,2.01166667 C9.86133695,1.19978427 8.92522929,0.786720938 8.02083535,1.00008766 C7.11644141,1.21345439 6.46367138,2.00136945 6.42222222,2.92966667 L4.42377778,3.4 L4.20844444,2.70111111 C4.1322695,2.45631554 3.90570707,2.28953853 3.64933333,2.28953853 C3.3929596,2.28953853 3.16639717,2.45631554 3.09022222,2.70111111 L0.168111111,12.1738889 C-0.174691769,13.2820463 0.0127874483,14.4863738 0.676222222,15.4378889 C1.30211097,16.3567673 2.31852389,16.933688 3.42833333,17 C3.50262963,17 3.5762963,17 3.64933333,17 C3.72237037,17 3.79603704,17 3.87033333,17 C4.97912534,16.9350007 5.99534357,16.3602829 6.62244444,15.4435556 C7.28696566,14.4924768 7.47452611,13.2876276 7.13055556,12.1795556 L4.76,4.488 L6.68666667,4.03277778 C7.13866305,4.84466018 8.07477071,5.25772351 8.97916465,5.04435678 C9.88355859,4.83099005 10.5363286,4.043075 10.5777778,3.11477778 L12.0718889,2.76344444 L9.86944444,9.88266667 C9.52547389,10.9907387 9.71303434,12.1955879 10.3775556,13.1466667 C11.0046564,14.0633941 12.0208747,14.6381118 13.1296667,14.7031111 C13.2027037,14.7031111 13.2763704,14.7031111 13.3506667,14.7031111 C13.424963,14.7031111 13.4986296,14.7031111 13.5716667,14.7031111 C14.6804587,14.6381118 15.6966769,14.0633941 16.3237778,13.1466667 C16.9872126,12.1951516 17.1746918,10.9908241 16.8318889,9.88266667 Z M3.80611111,15.8666667 C3.70229946,15.8723319 3.5982561,15.8723319 3.49444444,15.8666667 C2.7331874,15.8205864 2.03596119,15.4252591 1.60555556,14.7956667 C1.39773082,14.4926447 1.25495146,14.1498456 1.18622222,13.7888889 L6.11244444,13.7888889 C6.04349194,14.1489303 5.9000141,14.4905748 5.69122222,14.7918889 C5.26262106,15.4221212 4.56677237,15.8188526 3.80611111,15.8666667 Z M6.08411111,12.6555556 L1.21644444,12.6555556 C1.22777778,12.6064444 1.23722222,12.5573333 1.25233333,12.5082222 L3.64933333,4.73544444 L6.04444444,12.5082222 C6.06144444,12.5573333 6.07088889,12.6064444 6.08411111,12.6555556 Z M8.5,3.96666667 C7.97839774,3.96666667 7.55555556,3.54382449 7.55555556,3.02222222 C7.55555556,2.50061996 7.97839774,2.07777778 8.5,2.07777778 C9.02160226,2.07777778 9.44444444,2.50061996 9.44444444,3.02222222 C9.44444444,3.54382449 9.02160226,3.96666667 8.5,3.96666667 Z M13.345,2.45555556 L15.7476667,10.217 C15.7627778,10.2661111 15.7722222,10.3152222 15.7835556,10.3643333 L10.9158889,10.3643333 C10.9291111,10.3152222 10.9385556,10.2661111 10.9536667,10.217 L13.345,2.45555556 Z M13.5074444,13.566 C13.4030027,13.5716667 13.2983306,13.5716667 13.1938889,13.566 C12.432046,13.5219013 11.734006,13.1261127 11.305,12.495 C11.0959123,12.1938483 10.9524072,11.8521389 10.8837778,11.492 L15.8137778,11.492 C15.7443991,11.8519125 15.600957,12.1934719 15.3925556,12.495 C14.9655628,13.1272492 14.2689526,13.5251128 13.5074444,13.5716667 L13.5074444,13.566 Z" id="Shape"></path>
            </g>
        </g>
    </g>
</svg>