<?xml version="1.0" encoding="UTF-8"?>
<svg width="17px" height="17px" viewBox="0 0 17 17" version="1.1" xmlns="http://www.w3.org/2000/svg" xmlns:xlink="http://www.w3.org/1999/xlink">
    <!-- Generator: Sketch 52.1 (67048) - http://www.bohemiancoding.com/sketch -->
    <title>Icons/Edit</title>
    <desc>Created with Sketch.</desc>
    <g id="UI-Kit" stroke="none" stroke-width="1" fill="none" fill-rule="evenodd">
        <g id="Desktop-HD" transform="translate(-474.000000, -255.000000)" fill="#333333" fill-rule="nonzero">
            <g id="Icons/Edit" transform="translate(474.436523, 254.937097)">
                <g id="noun_edit_766135" transform="translate(3.697917, 0.192785)">
                    <g id="Group">
                        <path fill="#152b6f" d="M1.57077511,8.47340878 L0.835610247,10.9133956 C0.79124685,11.1383814 0.987713321,11.3380167 1.21586793,11.2936533 L3.65585475,10.5584884 C3.81112664,10.5268003 3.95372328,10.4507488 4.06780058,10.3398403 L11.8630832,2.54455769 C12.1767957,2.23084509 12.1767957,1.72066603 11.8630832,1.40695344 L10.7223101,0.266180381 C10.4085975,-0.0475322108 9.89841844,-0.0475322108 9.58470585,0.266180381 L1.78942328,8.06146295 C1.67851479,8.17554026 1.59929443,8.31813689 1.57077511,8.47340878 Z" id="Path"></path>
                    </g>
                </g>
                <path d="M6.78662109,1.97882628 L6.78662109,1.97882628 C6.78662109,2.53111103 6.33890584,2.97882628 5.78662109,2.97882628 L3.03417969,2.97882628 C2.48189494,2.97882628 2.03417969,3.42654153 2.03417969,3.97882628 L2.03417969,14.0211737 C2.03417969,14.5734585 2.48189494,15.0211737 3.03417969,15.0211737 L12.9658203,15.0211737 C13.5181051,15.0211737 13.9658203,14.5734585 13.9658203,14.0211737 L13.9658203,9.8918457 C13.9658203,9.33956095 14.4135356,8.8918457 14.9658203,8.8918457 L14.9658203,8.8918457 C15.5181051,8.8918457 15.9658203,9.33956095 15.9658203,9.8918457 L15.9658203,14.0211737 C15.9658203,15.678028 14.6226746,17.0211737 12.9658203,17.0211737 L3.03417969,17.0211737 C1.37732544,17.0211737 0.0341796875,15.678028 0.0341796875,14.0211737 L0.0341796875,3.97882628 C0.0341796875,2.32197203 1.37732544,0.978826277 3.03417969,0.978826277 L5.78662109,0.978826277 C6.33890584,0.978826277 6.78662109,1.42654153 6.78662109,1.97882628 Z" id="Rectangle"></path>
            </g>
        </g>
    </g>
</svg>