<?xml version="1.0" encoding="UTF-8"?>
<svg width="17px" height="15px" viewBox="0 0 17 15" version="1.1" xmlns="http://www.w3.org/2000/svg" xmlns:xlink="http://www.w3.org/1999/xlink">
    <!-- Generator: Sketch 52.1 (67048) - http://www.bohemiancoding.com/sketch -->
    <title>Icons/Filter</title>
    <desc>Created with Sketch.</desc>
    <g id="UI-Kit" stroke="none" stroke-width="1" fill="none" fill-rule="evenodd">
        <g id="Desktop-HD" transform="translate(-513.000000, -255.000000)" fill="white" fill-rule="nonzero">
            <g id="Icons/Filter" transform="translate(512.436523, 254.558996)">
                <g id="Icons/List-Copy" transform="translate(0.530273, 0.192785)">
                    <path d="M14.3001836,12.8072146 C13.8892792,13.9741283 12.7771767,14.8105105 11.4697266,14.8105105 C10.1622765,14.8105105 9.05017389,13.9741283 8.63926951,12.8072146 L1.46972656,12.8072146 C0.917441813,12.8072146 0.469726562,12.3594993 0.469726562,11.8072146 C0.469726562,11.2549298 0.917441813,10.8072146 1.46972656,10.8072146 L8.64159938,10.8072146 C9.05436494,9.64374419 10.1647397,8.81051048 11.4697266,8.81051048 C12.7747135,8.81051048 13.8850882,9.64374419 14.2978537,10.8072146 L15.5683594,10.8072146 C16.0661707,10.8072146 16.4697266,11.2107704 16.4697266,11.7085818 C16.4697266,12.3153399 15.9778519,12.8072146 15.3710938,12.8072146 L14.3001836,12.8072146 Z M2.64043227,2.78975853 C3.05226868,1.62456616 4.16350774,0.78975853 5.46972656,0.78975853 C6.77594539,0.78975853 7.88718445,1.62456616 8.29902085,2.78975853 L15.4697266,2.78975853 C16.0220113,2.78975853 16.4697266,3.23747378 16.4697266,3.78975853 C16.4697266,4.34204328 16.0220113,4.78975853 15.4697266,4.78975853 L8.29902085,4.78975853 C7.88718445,5.9549509 6.77594539,6.78975853 5.46972656,6.78975853 C4.16350774,6.78975853 3.05226868,5.9549509 2.64043227,4.78975853 L1.37109375,4.78975853 C0.873282398,4.78975853 0.469726563,4.38620269 0.469726562,3.88839134 C0.469726562,3.28163319 0.961601227,2.78975853 1.56835937,2.78975853 L2.64043227,2.78975853 Z M5.46972656,4.78975853 C6.02201131,4.78975853 6.46972656,4.34204328 6.46972656,3.78975853 C6.46972656,3.23747378 6.02201131,2.78975853 5.46972656,2.78975853 C4.91744181,2.78975853 4.46972656,3.23747378 4.46972656,3.78975853 C4.46972656,4.34204328 4.91744181,4.78975853 5.46972656,4.78975853 Z M11.4697266,12.8105105 C12.0220113,12.8105105 12.4697266,12.3627952 12.4697266,11.8105105 C12.4697266,11.2582257 12.0220113,10.8105105 11.4697266,10.8105105 C10.9174418,10.8105105 10.4697266,11.2582257 10.4697266,11.8105105 C10.4697266,12.3627952 10.9174418,12.8105105 11.4697266,12.8105105 Z" id="Combined-Shape"></path>
                </g>
            </g>
        </g>
    </g>
</svg>