<svg height="512pt" viewBox="-106 0 512 512" width="512pt" xmlns="http://www.w3.org/2000/svg"><path d="m170 253c0-8.480469 4.488281-14.261719 11.570312-19.820312h-63.140624c7.082031 5.558593 11.570312 11.339843 11.570312 19.820312 0 40-100 26-100 206h240c0-180-100-166-100-206zm0 0" fill="#ececf1"/><path d="m270 459c11.050781 0 20 8.949219 20 20v23h-280v-23c0-11.050781 8.949219-20 20-20zm0 0" fill="#4c5280"/><path d="m290 10v23c0 11.050781-8.949219 20-20 20h-240c-11.050781 0-20-8.949219-20-20v-23zm0 0" fill="#4c5280"/><path d="m30 53h240c0 44.03125-5.980469 76.101562-15.03125 100l-22.230469-6.839844c-10.726562-3.308594-21.796875-4.941406-32.839843-4.941406-17.167969 0-34.269532 3.960938-49.898438 11.78125-25.671875 12.839844-55.308594 15.289062-82.738281 6.839844l-22.230469-6.839844c-9.050781-23.898438-15.03125-55.96875-15.03125-100zm0 0" fill="#ececf1"/><path d="m232.738281 146.160156 22.230469 6.839844c-20.078125 53.089844-55.230469 65.910156-73.390625 80.171875 0 0 0 .007813-.007813.007813-18.011718 12.082031-31.570312 21.371093-31.570312 34.820312 0-13.449219-13.558594-22.738281-31.570312-34.820312-.007813 0-.007813-.007813-.007813-.007813-18.160156-14.261719-53.3125-27.082031-73.390625-80.171875l22.230469 6.839844c27.429687 8.449218 57.066406 6 82.738281-6.839844 25.140625-12.578125 54.8125-15.453125 82.738281-6.839844zm0 0" fill="#ffaa24"/><path d="m246.25 457.75v1.25h-196.25c40 0 46.148438-60.351562 100-60s60 58.75 96.25 58.75zm0 0" fill="#ffaa24"/><path d="m90 103c5.519531 0 10-4.480469 10-10s-4.480469-10-10-10-10 4.480469-10 10 4.480469 10 10 10zm0 0"/><path d="m130 103h80c5.523438 0 10-4.476562 10-10s-4.476562-10-10-10h-80c-5.523438 0-10 4.476562-10 10s4.476562 10 10 10zm0 0"/><path d="m150 369c5.523438 0 10-4.476562 10-10v-23c0-5.523438-4.476562-10-10-10s-10 4.476562-10 10v23c0 5.523438 4.476562 10 10 10zm0 0"/><path d="m100.003906 274.8125c-14.984375 10.617188-35.507812 25.15625-51.84375 53.117188-17.996094 30.800781-27.203125 71.027343-28.082031 122.765624-11.679687 4.105469-20.078125 15.238282-20.078125 28.304688v23c0 5.523438 4.476562 10 10 10h280c5.523438 0 10-4.476562 10-10v-23c0-13.066406-8.398438-24.199219-20.074219-28.304688-.882812-51.738281-10.089843-91.964843-28.085937-122.765624-16.335938-27.960938-36.859375-42.5-51.84375-53.117188-13.503906-9.570312-19.996094-14.492188-19.996094-21.8125 0-19.847656 56.679688-23.378906 84.320312-96.460938 9.699219-25.605468 14.933594-57.617187 15.601563-95.234374 11.679687-4.105469 20.078125-15.238282 20.078125-28.304688v-23c0-5.523438-4.476562-10-10-10h-280c-5.523438 0-10 4.476562-10 10v23c0 13.066406 8.398438 24.199219 20.078125 28.304688.667969 37.617187 5.902344 69.628906 15.597656 95.234374 27.632813 73.058594 84.324219 76.644532 84.324219 96.460938 0 7.320312-6.492188 12.242188-19.996094 21.8125zm179.996094 217.1875h-260v-13c0-5.515625 4.484375-10 10-10h240c5.515625 0 10 4.484375 10 10zm-189.792969-43c17.34375-18.074219 29.699219-40.003906 59.335938-40.003906.128906 0 .261719.003906.390625.003906 30.519531.199219 42.492187 21.992188 59.515625 40zm-37.464843-304.089844c-7.671876-22.242187-11.898438-49.75-12.617188-81.921875h219.75c-.675781 30.125-4.425781 56.160157-11.203125 77.613281l-12.984375-3.996093c-30.308594-9.351563-62.679688-6.296875-90.160156 7.453125-23.480469 11.742187-50.230469 13.953125-75.328125 6.222656zm-32.742188-124.910156h260v13c0 5.515625-4.484375 10-10 10h-240c-5.515625 0-10-4.484375-10-10zm43.53125 149.15625.785156.242188c29.945313 9.222656 61.96875 6.644531 90.160156-7.453126 22.953126-11.488281 49.996094-14.039062 75.324219-6.226562l11.6875 3.597656c-19 41.210938-47.792969 51.8125-65.699219 65.699219-9.957031 6.679687-19.191406 12.898437-25.789062 19.96875-6.597656-7.070313-15.832031-13.289063-25.789062-19.96875-16.398438-12.71875-41.90625-22.671875-60.679688-55.859375zm74.945312 93.605469c1 1.761719 1.523438 3.492187 1.523438 5.238281v28c0 5.523438 4.476562 10 10 10s10-4.476562 10-10v-28c0-1.746094.523438-3.476562 1.523438-5.238281 3.972656 12.109375 15.175781 20.054687 26.910156 28.371093 27.671875 19.605469 69.070312 48.945313 71.457031 157.867188h-8.800781c-1.4375-.796875-3.082032-1.25-4.839844-1.25-28.347656 0-38.375-58.375-96.183594-58.75-.179687 0-.351562-.003906-.53125-.003906-57.640625 0-67.246094 60.003906-99.535156 60.003906h-9.886719c2.382813-108.921875 43.785157-138.261719 71.453125-157.867188 11.734375-8.316406 22.9375-16.261718 26.910156-28.371093zm0 0"/></svg>