<?xml version="1.0" encoding="UTF-8"?>
<svg width="16px" height="16px" viewBox="0 0 16 16" version="1.1" xmlns="http://www.w3.org/2000/svg" xmlns:xlink="http://www.w3.org/1999/xlink">
    <!-- Generator: Sketch 52.1 (67048) - http://www.bohemiancoding.com/sketch -->
    <title>Icons/List</title>
    <desc>Created with Sketch.</desc>
    <g id="UI-Kit" stroke="none" stroke-width="1" fill="none" fill-rule="evenodd">
        <g id="Desktop-HD" transform="translate(-281.000000, -255.000000)" fill="#152b6f" fill-rule="nonzero">
            <g id="Icons/List" transform="translate(281.436523, 255.129883)">
                <path d="M-2.27373675e-13,0 L3,0 L3,3 L-2.27373675e-13,3 L-2.27373675e-13,0 Z M6,0 L9,0 L9,3 L6,3 L6,0 Z M12,0 L15,0 L15,3 L12,3 L12,0 Z M-2.27373675e-13,6 L3,6 L3,9 L-2.27373675e-13,9 L-2.27373675e-13,6 Z M6,6 L9,6 L9,9 L6,9 L6,6 Z M12,6 L15,6 L15,9 L12,9 L12,6 Z M-2.27373675e-13,12 L3,12 L3,15 L-2.27373675e-13,15 L-2.27373675e-13,12 Z M6,12 L9,12 L9,15 L6,15 L6,12 Z M12,12 L15,12 L15,15 L12,15 L12,12 Z" id="icons-list"></path>
            </g>
        </g>
    </g>
</svg>