<?xml version="1.0" encoding="UTF-8"?>
<svg width="36px" height="32px" viewBox="0 0 36 32" version="1.1" xmlns="http://www.w3.org/2000/svg" xmlns:xlink="http://www.w3.org/1999/xlink">
    <!-- Generator: Sketch 52.1 (67048) - http://www.bohemiancoding.com/sketch -->
    <title>noun_Warning_331336</title>
    <desc>Created with Sketch.</desc>
    <g id="Symbols" stroke="none" stroke-width="1" fill="none" fill-rule="evenodd">
        <g id="Icon/Warning-big">
            <g id="noun_Warning_331336" transform="translate(0.237426, 0.045551)">
                <g id="Group">
                    <path d="M18.5081081,11.7189189 L17.0810811,11.7189189 C17.0810811,11.7189189 16.3891892,11.7189189 16.3891892,12.4108108 C16.3891892,13.1027027 16.3891892,21.4918919 16.3891892,21.4918919 L19.1567568,21.4918919 C19.1567568,21.4918919 19.1567568,13.0594595 19.1567568,12.4108108 C19.1567568,11.7621622 18.5081081,11.7189189 18.5081081,11.7189189 Z" id="Path" fill="#F8C10A"></path>
                    <path d="M16.3891892,24.9945946 C16.3891892,24.9945946 16.3891892,25.6864865 17.0810811,25.6864865 C17.5567568,25.6864865 17.772973,25.6864865 18.5081081,25.6864865 C19.2,25.6864865 19.2,24.9945946 19.2,24.9945946 L19.2,22.9189189 L16.4324324,22.9189189 L16.3891892,24.9945946 Z" id="Path" fill="#F8C10A"></path>
                    <path d="M35.2864865,27.3297297 C34.2918919,25.5567568 21.0594595,2.76756757 20.3675676,1.64324324 C19.8486486,0.735135135 18.8972973,0.172972973 17.8162162,0.172972973 C16.7783784,0.172972973 15.8702703,0.691891892 15.3081081,1.64324324 C14.4432432,3.15675676 1.08108108,26.0756757 0.432432432,27.2432432 C-0.0864864865,28.1513514 -0.172972973,29.3189189 0.389189189,30.1837838 C0.908108108,31.0486486 1.9027027,31.6540541 2.94054054,31.6540541 L32.7783784,31.6540541 C33.8162162,31.6540541 34.7675676,31.1351351 35.2864865,30.227027 C35.7621622,29.3621622 35.7621622,28.2378378 35.2864865,27.3297297 Z M33.427027,29.2324324 C33.3405405,29.3621622 33.1243243,29.5783784 32.7351351,29.5783784 L2.8972973,29.5783784 C2.59459459,29.5783784 2.29189189,29.4486486 2.16216216,29.1891892 C2.03243243,28.9297297 2.03243243,28.6702703 2.20540541,28.3675676 C2.8972973,27.2 16.172973,4.23783784 17.0810811,2.72432432 C17.2972973,2.37837838 17.5567568,2.29189189 17.772973,2.29189189 C17.9027027,2.29189189 18.2486486,2.33513514 18.5081081,2.72432432 C19.1567568,3.89189189 32.4324324,26.5945946 33.427027,28.3243243 C33.5567568,28.627027 33.5567568,28.972973 33.427027,29.2324324 Z" id="Shape" fill="#EDEDED" fill-rule="nonzero"></path>
                </g>
            </g>
        </g>
    </g>
</svg>