<?xml version="1.0" encoding="UTF-8"?>
<svg width="15px" height="18px" viewBox="0 0 15 18" version="1.1" xmlns="http://www.w3.org/2000/svg" xmlns:xlink="http://www.w3.org/1999/xlink">
    <!-- Generator: Sketch 52.1 (67048) - http://www.bohemiancoding.com/sketch -->
    <title>Group</title>
    <desc>Created with Sketch.</desc>
    <g id="UI-Kit" stroke="none" stroke-width="1" fill="none" fill-rule="evenodd">
        <g id="Desktop-HD" transform="translate(-667.000000, -252.000000)">
            <g id="Group" transform="translate(668.125000, 252.718750)">
                <path d="M5.29019165,5.07049521 L5.29019165,5.75183411 C5.29019165,6.30699914 5.66588226,6.53411211 6.11201485,6.25652959 L7.37997066,5.47425159 C7.82610325,5.19666908 8.55400381,4.74244314 9.0001364,4.46486063 L10.2680922,3.68258263 C10.7142248,3.40500012 10.7142248,2.95077418 10.2680922,2.67319167 L9.0001364,1.89091367 C8.55400381,1.61333116 7.82610325,1.15910522 7.37997066,0.881522706 L6.11201485,0.124479483 C5.66588226,-0.153103032 5.29019165,0.0487751607 5.29019165,0.578705417 C5.29019165,0.931992254 5.29019165,4.81814747 5.29019165,5.07049521 Z" id="Path" fill="#333333"></path>
                <path d="M6.375,3.1875 C2.85418472,3.1875 0,6.04168472 0,9.5625 C0,13.0833153 2.85418472,15.9375 6.375,15.9375 C9.89581528,15.9375 12.75,13.0833153 12.75,9.5625 C12.75,8.42742363 12.453349,7.36163381 11.9333472,6.43843059" id="Oval" stroke="#333333" stroke-width="2"></path>
            </g>
        </g>
    </g>
</svg>