<?xml version="1.0" encoding="UTF-8"?>
<svg width="56px" height="29px" viewBox="0 0 56 29" version="1.1" xmlns="http://www.w3.org/2000/svg" xmlns:xlink="http://www.w3.org/1999/xlink">
    <!-- Generator: Sketch 52.1 (67048) - http://www.bohemiancoding.com/sketch -->
    <title>noun_Mail_840873</title>
    <desc>Created with Sketch.</desc>
    <g id="List" stroke="none" stroke-width="1" fill="none" fill-rule="evenodd">
        <g id="Search-results" transform="translate(-83.000000, -790.000000)">
            <g id="noun_Mail_840873" transform="translate(83.000000, 789.921045)">
                <g id="Group">
                    <path d="M51.0542308,0.508846154 L16.7353846,0.508846154 C16.4526923,0.508846154 16.2265385,0.735 16.2265385,1.01769231 C16.2265385,1.18730769 16.2830769,1.30038462 16.3961538,1.41346154 L32.7923077,15.435 C33.7534615,16.3396154 35.2234615,16.2830769 36.1846154,15.3784615 L53.1461538,3.44884615 C53.3157692,3.78807692 53.4288462,4.18384615 53.4288462,4.57961538 L50.9976923,24.8203846 C50.9976923,26.1773077 49.9234615,27.2515385 48.5665385,27.2515385 L14.8130769,27.2515385 C14.5869231,27.2515385 14.4173077,27.4211538 14.3607692,27.5907692 L14.1911538,28.3257692 C14.1346154,28.5519231 14.3042308,28.8346154 14.5303846,28.8911538 C14.5869231,28.8911538 14.5869231,28.8911538 14.6434615,28.8911538 L48.5665385,28.8911538 C50.8280769,28.8911538 52.6373077,27.0819231 52.6373077,24.8203846 L55.0684615,4.57961538 C55.125,2.31807692 53.3157692,0.508846154 51.0542308,0.508846154 Z M35.2234615,14.0780769 L35.1103846,14.1911538 C34.7711538,14.5303846 34.2623077,14.5303846 33.9230769,14.1911538 C33.9230769,14.1911538 33.9230769,14.1911538 33.9230769,14.1911538 L19.7884615,2.14846154 L50.9976923,2.14846154 C51.3369231,2.14846154 51.6196154,2.205 51.9023077,2.31807692 L35.2234615,14.0780769 Z" id="Shape" fill="#152B6F" fill-rule="nonzero"></path>
                    <path d="M27.5342308,21.2584615 C27.5342308,20.8061538 27.195,20.4669231 26.7426923,20.4669231 L8.82,20.4669231 C8.36769231,20.4669231 8.02846154,20.8061538 8.02846154,21.2584615 C8.02846154,21.7107692 8.36769231,22.05 8.82,22.05 L26.7426923,22.05 C27.1384615,22.05 27.5342308,21.7107692 27.5342308,21.2584615 Z" id="Path" fill="#F8C10A"></path>
                    <path d="M23.6330769,15.5480769 C23.6330769,15.0957692 23.2938462,14.7565385 22.8415385,14.7 C22.8415385,14.7 22.8415385,14.7 22.8415385,14.7 L1.13076923,14.7 C0.678461538,14.7 0.339230769,15.0392308 0.339230769,15.4915385 C0.339230769,15.9438462 0.678461538,16.2830769 1.13076923,16.2830769 C1.13076923,16.2830769 1.13076923,16.2830769 1.13076923,16.2830769 L22.8415385,16.2830769 C23.2938462,16.3396154 23.6330769,16.0003846 23.6330769,15.5480769 Z" id="Path" fill="#F8C10A"></path>
                    <path d="M6.55846154,10.6857692 L17.0746154,10.6857692 C17.5269231,10.6857692 17.8661538,10.3465385 17.8661538,9.89423077 C17.8661538,9.44192308 17.5269231,9.10269231 17.0746154,9.10269231 L6.55846154,9.10269231 C6.10615385,9.10269231 5.76692308,9.44192308 5.76692308,9.89423077 C5.76692308,10.3465385 6.10615385,10.6857692 6.55846154,10.6857692 Z" id="Path" fill="#F8C10A"></path>
                </g>
            </g>
        </g>
    </g>
</svg>