<?xml version="1.0" encoding="UTF-8"?>
<svg width="16px" height="17px" viewBox="0 0 16 17" version="1.1" xmlns="http://www.w3.org/2000/svg" xmlns:xlink="http://www.w3.org/1999/xlink">
    <!-- Generator: Sketch 52.1 (67048) - http://www.bohemiancoding.com/sketch -->
    <title>Group 8</title>
    <desc>Created with Sketch.</desc>
    <g id="Symbols" stroke="none" stroke-width="1" fill="none" fill-rule="evenodd" >
        <g id="Elements/320-footer" transform="translate(-175.000000, -144.000000)" fill="#333333">
            <g id="Group-10-Copy" transform="translate(1.000000, 10.263707)">
                <g id="Group-8" transform="translate(174.386889, 134.460938)">
                    <path d="M7.46743235,0 C5.439394,0 5.18509955,0.00874212646 4.38863322,0.0459882745 C3.59377076,0.0831339383 3.05094424,0.212289646 2.57600378,0.40116647 C2.08492646,0.596440789 1.66847797,0.857733236 1.25333876,1.28254699 C0.838199552,1.70736074 0.582857678,2.13354778 0.392063192,2.63603583 C0.20738958,3.12211146 0.0811752143,3.67758819 0.0449409553,4.4909409 C0.00857576861,5.30596834 0,5.56615546 0,7.6414559 C0,9.71682332 0.00857576861,9.97701044 0.0449409553,10.7920379 C0.0811752143,11.6053906 0.20738958,12.1608673 0.392063192,12.646943 C0.582857678,13.149431 0.838199552,13.575618 1.25333876,14.0004318 C1.66847797,14.4252456 2.08492646,14.686538 2.57600378,14.8818123 C3.05094424,15.0706891 3.59377076,15.1998448 4.38863322,15.2369905 C5.18509955,15.2741697 5.439394,15.2829788 7.46743235,15.2829788 C9.49547069,15.2829788 9.74979788,15.2741697 10.5462642,15.2369905 C11.3410939,15.1998448 11.8839204,15.0706891 12.3588936,14.8818123 C12.849971,14.686538 13.2663867,14.4252456 13.6815259,14.0004318 C14.0966651,13.575618 14.352007,13.149431 14.5428342,12.646943 C14.7274751,12.1608673 14.8536895,11.6053906 14.8899565,10.7920379 C14.9263217,9.97701044 14.9348647,9.71682332 14.9348647,7.6414559 C14.9348647,5.56615546 14.9263217,5.30596834 14.8899565,4.4909409 C14.8536895,3.67758819 14.7274751,3.12211146 14.5428342,2.63603583 C14.352007,2.13354778 14.0966651,1.70736074 13.6815259,1.28254699 C13.2663867,0.857733236 12.849971,0.596440789 12.3588936,0.40116647 C11.8839204,0.212289646 11.3410939,0.0831339383 10.5462642,0.0459882745 C9.74979788,0.00874212646 9.49547069,0 7.46743235,0 M7.46743235,1.37683468 C9.46133128,1.37683468 9.6974595,1.38460546 10.4849245,1.42134918 C11.2129811,1.45534634 11.608383,1.57987977 11.871515,1.68448384 C12.2201102,1.82311856 12.468873,1.98871654 12.7301393,2.25610503 C12.9915039,2.52352701 13.1533306,2.77805352 13.2887426,3.13473898 C13.3909645,3.40400317 13.5126618,3.8086531 13.5458848,4.55364305 C13.5817917,5.35945944 13.5894182,5.60109047 13.5894182,7.6414559 C13.5894182,9.68188831 13.5817917,9.92351935 13.5458848,10.7292688 C13.5126618,11.4743257 13.3909645,11.8789756 13.2887426,12.1482398 C13.1533306,12.5048918 12.9915039,12.7594518 12.7301393,13.0268738 C12.468873,13.2942622 12.2201102,13.4598602 11.871515,13.5984615 C11.608383,13.703099 11.2129811,13.8276324 10.4849245,13.8615626 C9.69759043,13.8983733 9.46149494,13.9061106 7.46743235,13.9061106 C5.47336975,13.9061106 5.23727426,13.8983733 4.44994015,13.8615626 C3.72191631,13.8276324 3.32648173,13.703099 3.06334965,13.5984615 C2.71478721,13.4598602 2.46602445,13.2942622 2.20472537,13.0268738 C1.94345901,12.7594518 1.78163229,12.5048918 1.64615479,12.1482398 C1.5439002,11.8789756 1.42223558,11.4743257 1.38897993,10.7292688 C1.35310572,9.92351935 1.34547918,9.68188831 1.34547918,7.6414559 C1.34547918,5.60109047 1.35310572,5.35945944 1.38897993,4.55364305 C1.42223558,3.8086531 1.5439002,3.40400317 1.64615479,3.13473898 C1.78163229,2.77805352 1.94345901,2.52352701 2.20472537,2.25610503 C2.46602445,1.98871654 2.71478721,1.82311856 3.06334965,1.68448384 C3.32648173,1.57987977 3.72191631,1.45534634 4.44994015,1.42134918 C5.23740519,1.38460546 5.47353341,1.37683468 7.46743235,1.37683468" id="Fill-1"></path>
                    <path d="M7.46743235,10.1886302 C6.09272354,10.1886302 4.97826641,9.04823487 4.97826641,7.6414559 C4.97826641,6.23471042 6.09272354,5.0943151 7.46743235,5.0943151 C8.84217388,5.0943151 9.95659828,6.23471042 9.95659828,7.6414559 C9.95659828,9.04823487 8.84217388,10.1886302 7.46743235,10.1886302 M7.46743235,3.71748042 C5.34964301,3.71748042 3.63281996,5.47434639 3.63281996,7.6414559 C3.63281996,9.80866589 5.34964301,11.5654649 7.46743235,11.5654649 C9.58522168,11.5654649 11.3020447,9.80866589 11.3020447,7.6414559 C11.3020447,5.47434639 9.58522168,3.71748042 7.46743235,3.71748042" id="Fill-4"></path>
                    <path d="M12.349696,3.56243328 C12.349696,4.06884022 11.9485006,4.47941871 11.4535936,4.47941871 C10.9587194,4.47941871 10.5574913,4.06884022 10.5574913,3.56243328 C10.5574913,3.05599285 10.9587194,2.64544786 11.4535936,2.64544786 C11.9485006,2.64544786 12.349696,3.05599285 12.349696,3.56243328" id="Fill-5"></path>
                </g>
            </g>
        </g>
    </g>
</svg>