<?xml version="1.0" encoding="UTF-8"?>
<svg width="20px" height="12px" viewBox="0 0 20 12" version="1.1" xmlns="http://www.w3.org/2000/svg" xmlns:xlink="http://www.w3.org/1999/xlink">
    <!-- Generator: Sketch 52.1 (67048) - http://www.bohemiancoding.com/sketch -->
    <title>Shape</title>
    <desc>Created with Sketch.</desc>
    <g id="Symbols" stroke="none" stroke-width="1" fill="none" fill-rule="evenodd" >
        <g id="Elements/320-footer" transform="translate(-237.000000, -147.000000)" fill="#333333" fill-rule="nonzero">
            <g id="Group-10-Copy" transform="translate(1.000000, 10.263707)">
                <path d="M254.927309,137.856362 C255.059429,137.405509 254.927309,137.074219 254.298501,137.074219 L252.219183,137.074219 C251.69048,137.074219 251.446741,137.360405 251.314547,137.675983 C251.314547,137.675983 250.257143,140.313443 248.75919,142.026646 C248.274565,142.522565 248.054254,142.680355 247.789903,142.680355 C247.657745,142.680355 247.466419,142.522565 247.466419,142.07175 L247.466419,137.856362 C247.466419,137.315339 247.312986,137.074219 246.872364,137.074219 L243.604864,137.074219 C243.274471,137.074219 243.07577,137.32532 243.07577,137.563298 C243.07577,138.076178 243.824709,138.194454 243.901909,139.637183 L243.901909,142.770563 C243.901909,143.457545 243.780669,143.582097 243.516318,143.582097 C242.811419,143.582097 241.096748,140.932855 240.079791,137.901428 C239.880491,137.312224 239.680597,137.074219 239.149181,137.074219 L237.069863,137.074219 C236.475772,137.074219 236.356947,137.360405 236.356947,137.675983 C236.356947,138.239558 237.061883,141.034808 239.639242,144.731725 C241.357469,147.256425 243.778338,148.625 245.981228,148.625 C247.302946,148.625 247.466455,148.321032 247.466455,147.797448 L247.466455,145.889289 C247.466455,145.281353 247.591667,145.160026 248.010213,145.160026 C248.318605,145.160026 248.847307,145.317815 250.080945,146.535098 C251.490781,147.977789 251.723211,148.625 252.516228,148.625 L254.595546,148.625 C255.189637,148.625 255.486683,148.321032 255.315322,147.721168 C255.127802,147.123309 254.454681,146.255894 253.561513,145.227644 C253.076851,144.641554 252.349913,144.010398 252.129602,143.694745 C251.821211,143.289034 251.909328,143.108655 252.129602,142.748011 C252.129602,142.748011 254.662958,139.09616 254.927309,137.856362 Z" id="Shape"></path>
            </g>
        </g>
    </g>
</svg>