<?xml version="1.0" encoding="UTF-8"?>
<svg width="18px" height="16px" viewBox="0 0 18 16" version="1.1" xmlns="http://www.w3.org/2000/svg" xmlns:xlink="http://www.w3.org/1999/xlink">
    <!-- Generator: Sketch 52.1 (67048) - http://www.bohemiancoding.com/sketch -->
    <title>noun_more_216353_000000</title>
    <desc>Created with Sketch.</desc>
    <g id="Symbols" stroke="none" stroke-width="1" fill="none" fill-rule="evenodd">
        <g id="Icon/Expand" transform="translate(1.000000, 0.000000)">
            <g id="noun_more_216353_000000" transform="translate(8.066406, 7.796906) scale(1, -1) translate(-8.066406, -7.796906) translate(-0.933594, -0.203094)">
                <rect id="Rectangle" x="0.414786967" y="0.414786967" width="14.9323308" height="14.9323308"></rect>
                <path d="M13.7800716,15.7969057 L4.38835437,15.7969057 C2.45476552,15.7969057 0.88372459,14.2837284 0.88372459,12.4213564 L0.88372459,3.37554932 C0.88372459,1.51317728 2.45476552,1.42108547e-14 4.38835437,1.42108547e-14 C4.8372232,1.42108547e-14 5.19977111,0.349194758 5.19977111,0.781531124 C5.19977111,1.21386749 4.8372232,1.56306225 4.38835437,1.56306225 C3.3525032,1.56306225 2.52382227,2.36122169 2.52382227,3.358921 L2.52382227,12.4047281 C2.52382227,13.4024274 3.3525032,14.2005868 4.38835437,14.2005868 L13.7800716,14.2005868 C14.8159228,14.2005868 15.6446037,13.4024274 15.6446037,12.4047281 C15.6446037,11.9723917 16.0071516,11.6231969 16.4560204,11.6231969 C16.9048893,11.6231969 17.2674372,11.9723917 17.2674372,12.4047281 C17.2847014,14.2837284 15.7136604,15.7969057 13.7800716,15.7969057 Z" id="Path" fill="#333333"></path>
                <path d="M16.1216936,5.7969057 L7.74549394,5.7969057 C7.29635767,5.7969057 6.93359375,5.35009719 6.93359375,4.7969057 C6.93359375,4.24371421 7.29635767,3.7969057 7.74549394,3.7969057 L16.1216936,3.7969057 C16.5708298,3.7969057 16.9335937,4.24371421 16.9335937,4.7969057 C16.9335937,5.35009719 16.5881043,5.7969057 16.1216936,5.7969057 Z" id="Path" fill="#333333"></path>
                <path d="M11.9335937,10.1361538 C11.3804023,10.1361538 10.9335937,9.77408485 10.9335937,9.32580899 L10.9335937,0.946498647 C10.9335937,0.498222785 11.3804023,0.13615382 11.9335937,0.13615382 C12.4867852,0.13615382 12.9335937,0.498222785 12.9335937,0.946498647 L12.9335937,9.30856761 C12.9335937,9.77408485 12.4867852,10.1361538 11.9335937,10.1361538 Z" id="Path" fill="#333333"></path>
            </g>
        </g>
    </g>
</svg>