<?xml version="1.0" encoding="UTF-8"?>
<svg width="8px" height="17px" viewBox="0 0 8 17" version="1.1" xmlns="http://www.w3.org/2000/svg" xmlns:xlink="http://www.w3.org/1999/xlink">
    <!-- Generator: Sketch 52.1 (67048) - http://www.bohemiancoding.com/sketch -->
    <title>Fill 4</title>
    <desc>Created with Sketch.</desc>
    <g id="Symbols" stroke="none" stroke-width="1" fill="none" fill-rule="evenodd">
        <g id="Elements/320-footer" transform="translate(-209.000000, -143.000000)" fill="#333333">
            <g id="Group-10-Copy" transform="translate(1.000000, 10.263707)">
                <path d="M209.761819,144.96185 C209.761819,143.70924 209.757124,142.4567 209.766237,141.204301 C209.767894,140.993198 209.709627,140.927122 209.503554,140.935753 C209.12268,140.9516 208.74077,140.934126 208.359413,140.943111 C208.204979,140.947143 208.148093,140.903281 208.149819,140.735686 C208.157482,139.954237 208.156723,139.172293 208.150578,138.390632 C208.149198,138.240299 208.193381,138.190848 208.34174,138.194244 C208.731658,138.203441 209.122404,138.183066 209.511631,138.202804 C209.737242,138.214123 209.78391,138.131988 209.779216,137.917489 C209.765616,137.322736 209.765616,136.727063 209.778318,136.13224 C209.793852,135.405759 209.984116,134.727457 210.406411,134.136807 C210.940753,133.388678 211.700498,133.046697 212.576984,133.006656 C213.47715,132.965694 214.379593,132.988403 215.280864,132.978499 C215.40651,132.977013 215.443996,133.023068 215.443444,133.148216 C215.43944,133.93865 215.438612,134.729367 215.443996,135.5198 C215.445239,135.660441 215.400435,135.703454 215.265745,135.701261 C214.832265,135.694328 214.398717,135.697724 213.965513,135.698927 C213.388576,135.700766 213.043256,136.004899 213.007081,136.590101 C212.978086,137.059282 212.99928,137.531292 212.988648,138.001817 C212.984713,138.169483 213.081917,138.157951 213.190166,138.15781 C213.848842,138.15682 214.507794,138.164531 215.16647,138.152999 C215.359841,138.149533 215.423631,138.195163 215.401539,138.40372 C215.318626,139.18913 215.247381,139.976027 215.181727,140.763348 C215.166746,140.940988 215.087631,140.974875 214.931885,140.972187 C214.412248,140.96398 213.892059,140.966527 213.371938,140.969923 C212.998452,140.972187 213.034696,140.913893 213.034696,141.304193 C213.03297,143.75586 213.029725,146.207599 213.040011,148.659195 C213.041047,148.918122 212.976498,148.982358 212.726517,148.977831 C211.833877,148.960993 210.940753,148.960144 210.048113,148.978255 C209.796544,148.983349 209.755122,148.895908 209.757124,148.665987 C209.766651,147.431275 209.761819,146.196633 209.761819,144.96185" id="Fill-4"></path>
            </g>
        </g>
    </g>
</svg>