<?xml version="1.0" encoding="utf-8"?>
<!-- Generator: Adobe Illustrator 19.2.0, SVG Export Plug-In . SVG Version: 6.00 Build 0)  -->
<svg version="1.1" xmlns="http://www.w3.org/2000/svg" xmlns:xlink="http://www.w3.org/1999/xlink" x="0px" y="0px"
	 viewBox="0 0 140 56" style="enable-background:new 0 0 140 56;" xml:space="preserve">
<style type="text/css">
	.st0{clip-path:url(#SVGID_2_);fill:#093071;}
	.st1{fill:#093071;}
	.st2{fill:#9A248A;}
	.st3{fill:#CB1174;}
	.st4{fill:#34358F;}
	.st5{fill:#374476;}
	.st6{fill:#2B2A29;}
	.st7{fill:#BAD405;}
	.st8{fill:#1C6F41;}
	.st9{fill:#2C6C40;}
	.st10{fill:#003A7A;}
	.st11{fill:#C1B600;}
	.st12{fill:#616265;}
	.st13{fill:#002663;}
	.st14{fill:#FFFFFF;}
	.st15{fill:#170D00;}
	.st16{fill:#C2C8CC;}
	.st17{fill:#FFE428;}
	.st18{fill:#CF0A2C;}
	.st19{fill:#FF2D22;}
	.st20{fill:#3FAFE3;}
	.st21{fill:#004792;}
	.st22{fill:#2D338E;}
	.st23{fill:#C4C1BA;}
	.st24{fill:#541753;}
	.st25{fill:#A8B300;}
	.st26{fill:#1D488B;}
	.st27{fill:#1C1C1C;}
	.st28{fill:#777777;}
	.st29{fill:#B568CE;}
	.st30{fill:#808284;}
	.st31{fill:#818285;}
	.st32{fill:#00BCE4;}
	.st33{fill:#006FBA;}
	.st34{fill:#52B9E9;}
	.st35{fill-rule:evenodd;clip-rule:evenodd;fill:#004A8B;}
	.st36{fill-rule:evenodd;clip-rule:evenodd;fill:#FF0F46;}
	.st37{fill:#6DB360;}
	.st38{fill:#48443E;}
	.st39{filter:url(#Adobe_OpacityMaskFilter);}
	.st40{mask:url(#mask-2_2_);fill:#3CB3E7;}
	.st41{fill:#3CB3E7;}
	.st42{filter:url(#Adobe_OpacityMaskFilter_1_);}
	.st43{mask:url(#mask-4_2_);fill:#3CB3E7;}
	.st44{fill:#1D4382;}
	.st45{fill:#009945;}
	.st46{fill:#141C1E;}
	.st47{fill:#D76C43;}
	.st48{fill:#274578;}
</style>
<g id="Layer_1">
</g>
<g id="Layer_2">
</g>
<g id="Layer_3_1_">
</g>
<g id="Layer_4">
</g>
<g id="Layer_5">
</g>
<g id="Layer_6">
</g>
<g id="Layer_7">
</g>
<g id="Layer_8">
</g>
<g id="Layer_9">
</g>
<g id="Layer_10">
</g>
<g id="Layer_11">
</g>
<g id="Layer_12">
</g>
<g id="Layer_13">
	<g id="Page-1_11_">
		<g id="Artboard-1-Copy-4">
			<path id="Page-1_12_" class="st26" d="M55.5,43.4c-0.8,0-0.5-1.2,0.5-2.6c1-1.5,2.3-2.6,3.1-2.6c0.8,0,0.5,1.4-0.6,2.9
				C57.5,42.5,56.3,43.4,55.5,43.4L55.5,43.4z M66.1,43.4c-0.8,0-0.6-1.2,0.4-2.7c0.9-1.5,2.2-2.7,3-2.7c0.8,0,0.5,1.4-0.5,2.9
				C68,42.4,66.9,43.4,66.1,43.4L66.1,43.4z M106.4,43.4c-0.8,0-0.6-1.2,0.4-2.7c0.9-1.5,2.2-2.7,3-2.7c0.8,0,0.5,1.4-0.5,2.9
				C108.3,42.4,107.1,43.4,106.4,43.4L106.4,43.4z M93.9,35.7l0.8-1.1l1.9-0.1L93.9,35.7z M56.5,45.3c0,0-1.8,3.3-3.1,4.5
				c-1,0.9-2.1,0.6-1.4-0.6c0.7-1.2,2-2.2,2.7-2.7C55.4,46,56.5,45.3,56.5,45.3L56.5,45.3z M76.4,41.4c0,0-0.2,1-1.1,1.6
				c-0.6,0.5-1.5,0.4-1.1-0.2C74.5,42.3,76.4,41.4,76.4,41.4L76.4,41.4z M83.3,41.4c0,0-0.2,1-1.1,1.6c-0.6,0.5-1.5,0.4-1.1-0.2
				C81.5,42.3,83.3,41.4,83.3,41.4L83.3,41.4z M121.6,38.3c0.4,0.2,0.4,0.6-0.3,1.3c-0.7,0.7-2.2,1.1-2.4,0.8
				c-0.2-0.2,0.1-0.7,0.7-1.3C120.2,38.6,121.2,38.1,121.6,38.3L121.6,38.3z M120.8,36.7c0.3-0.3,1.4-1.9,2.9-3.4c1-1,2-2,2.6-2.1
				c0.6,0-0.1,1.2-2.1,3C122,36,120.8,36.7,120.8,36.7L120.8,36.7z M131.7,36.7c0.3-0.3,1.4-1.9,2.9-3.4c1-1,2-2,2.6-2.1
				c0.6,0-0.1,1.2-2.1,3C133,36,131.7,36.7,131.7,36.7L131.7,36.7z M51,13.3c0.5-3.4,0.3-6-1.7-6.4c-3.4-0.6-7.1,1.6-9.9,4.2h-1.4
				c2.1-2.2,5-4.7,8.4-5.7c6.1-1.8,6.9,1.3,6.6,6.2L51,13.3z M41.8,38.5c0,0,3.1-0.6,3.4-0.2c0.2,0.3-0.6,1.3-1.5,2.5
				c-1,1.3-2.1,2.9-2.4,3.3h2c1.4-1.8,3.2-3.6,4.8-5.2c1-1,1.7-0.9,0.7,0.3c-1,1.2-2.3,2.5-1.8,4.3c0.4,1.8,3.5-0.7,4.7-1.4
				c1.3-0.7,2.1-1.3,2.1-1.3s-1,2.6,0.7,3.2c1.7,0.6,3.1-1.1,3-0.9l-0.6,1c0,0-4.4,2-5.9,4.6c-1.6,2.6,1.5,3.1,3.2,1.4
				c1.7-1.6,3.9-5.1,3.9-5.1s2.1-1.8,3.4-2.6c1.2-0.8,3-1.8,3-1.8s-0.9,2.2,0.6,3.2c1.4,1,3.8-0.6,4.4-1.4c0.6-0.8,6.9-4.3,6.9-4.3
				c0.1,0.8,0.2,1.5,0.1,2.3c0,0-3.5,1.2-3.6,2.6c-0.1,1.4,1.2,1.5,2.7,1c2.5-0.8,1.9-3.2,2.1-3.3l5.7-2.7c0,0,0.1,0.7,0.1,1.3
				c0,0.7-0.1,1.1-0.1,1.1s-3.8,1.1-3.5,2.7c0.3,1.6,2.4,1,3.3,0.5c0.9-0.5,1.2-1.3,1.3-1.8c0.1-0.5,0.1-1,0.1-1l5.8-2.9
				c0,0-2,2.6-2.6,3.9c-0.6,1.3,0.2,3.1,2.4,1.8c2.2-1.3,4.7-3.2,6.1-4.1c0.5-0.4,1-0.8,1.5-1.1c0.7-0.4,1.2-0.4,0.6,0.5
				c-1.1,1.4-3.9,5.3-3.9,5.3l2.2-0.1c0,0,1.5-2,2-2.5c0.5-0.5,1.1-1,1.1-1s-0.4,1.4,1,1.5c1.3,0.1,4.1-1.9,4.1-1.9s-1,1.3,0,3
				c1,1.7,3,0.2,3.4-0.2c0.4-0.4,0.6-0.6,0.6-0.6s-0.6,3.1,2.8,0.9c3.4-2.1,5.4-3.6,5.4-3.6l-2.9,4.3h1.8l1.8-2.5
				c0,0-0.3,1.6,1.1,2.2c1.3,0.7,3.7-0.8,5.8-2.1c2.2-1.3,3.4-1.8,3.4-1.8l-3.1,4.2h1.9c0,0,1.3-1.8,2.8-3.4
				c1.5-1.5,3.8-3.3,2.9-1.7c-0.9,1.6-2.1,1.6-2.1,3.7c0.1,2.1,1.8,1.8,3.3,0.3c1.5-1.4,2.4-2.4,2.4-2.4l-1.1,0.1c0,0-1.5,1.6-2,2
				c-0.5,0.4-1.9,1-1-0.4c0.9-1.3,1.5-1.6,1.9-2.3c0.4-0.7,0.5-2.9-1.3-2.4c-0.9,0.3-2.1,1.4-2.1,1.4l0.6-0.9c0,0,4.7-2.6,6.7-5
				c2.1-2.5,2.5-4.2-0.2-3.7c-2.7,0.4-6.2,4.9-7.5,6.9c-1.3,2-1.5,2.4-1.5,2.4l-7.6,4.3c-1.6,0.9-1.8-0.5-1.8-1.4
				c1-0.2,2.1-0.1,3.4-1.4c1.3-1.4,0.1-2.5-0.2-2.8c-0.3-0.2-0.6-0.3-0.6-0.3s3.9-2.5,5.5-4.5c1.7-2,2.2-4-0.8-3.3
				c-3.1,0.8-6.5,5.5-7.5,7.2c-1,1.8-1.3,2-1.3,2s-5.9,4-6.5,4.3c-0.6,0.3-1.7,1-0.8-0.6c0.9-1.5,3-4.6,3-4.6h-1.8l-0.5,0.8
				c0,0-0.7-1.8-3-0.7c-2.3,1.1-2.6,1.4-2.6,1.4s-2.2,1.2-3.2,1.8c-0.9,0.6-2.1,1.2-1.8-0.2c0.2-0.8,1.7-1.4,2.4-2
				c0.4-0.4,0.2-1-0.5-1.1c-1.3-0.1-2.1,1.2-2.4,2.2l-0.8,0.4c-0.3,0.1,1.5-2.5-0.4-2.6c-1.1-0.1-2.3,1-3.7,1.9
				c-1.7,1.2-3.5,2.4-4.6,3.2c0,0-1.1,0.9-1.4,0.6c-0.3-0.3,1.1-2.3,2.1-3.8c1-1.5,2-2.7,2-2.7l6.2-3l-0.2-0.3l-3.9-0.1l3-4.2h-2.1
				l-2.7,4l-21.3,0.2v1.5l20.3-0.1l-1.4,1.8l-6.8,3.5l-0.2-1.9c0,0,1.1,0,0.9-0.9c-0.2-0.9-0.7-0.8-1.6-0.4
				c-0.9,0.4-6.2,3.1-6.2,3.1l-0.1-1.9c0,0,1.2-0.1,1-0.9c-0.2-0.8-0.8-0.8-1.9-0.1c-1.1,0.7-5.9,3.6-5.9,3.6s1.1-2-0.5-3
				c-1.6-1-3.6,0.5-4.4,1.1c-0.8,0.6-6.3,4.3-6.3,4.3l3.3-5.5h-1.9l-0.6,0.9c0,0-0.2-1.4-2.4-0.9c-2.1,0.6-3.3,1.8-3.3,1.8
				s-4.4,2.9-5.2,3.4c-0.8,0.5-2,0.8-0.9-0.6c0.6-0.8,1.5-2,1.8-2.5c0.3-0.5,0.5-2.1-0.8-2.1c-1.4,0-2.1,1.2-3.3,2.2
				c-0.2,0.2,1-2.1-0.5-2.4c-1.4-0.3-3.4,0.2-3.5,0.1c0-0.1,1.2-1.3,2.9-3.9c1.6-2.6,2.7-5.3,2.7-5.3s-0.5,0.3-1.2,0.7
				c-0.8,0.3-1.1,0.3-1.1,0.3s-0.4,1.2-2.5,4.3c-2.1,3.1-3.1,3.9-3.1,3.9s-3.7,0.2-5.6-2.3c-1.9-2.5-2-4.3-2.1-5.1
				c-0.1-0.8-0.1-1.3-0.1-1.3l-1-0.1c0,0,0.1,4.4,2.3,6.8c2.2,2.4,5.8,2.8,5.8,2.8s-4.1,5.2-9.7,5.2c-5.7,0-6.6-4.6-6.6-4.6
				s1.5,1,3.5,0.9c2-0.1,3.9-1,3.7-1.2c-0.3-0.2-2.2,0.2-4.4-0.1s-4.6-1.1-4.6-1.1s0.7,4.6,4.3,6.5c3.6,1.9,7.9,0.8,10.2-0.5
				s3.5-2.3,4.2-3C40.6,39.6,41.8,38.5,41.8,38.5L41.8,38.5z M5.2,22.9L9,12.2v0v0h4.5v2h-1v11.3h1v2H8v-2h1V17L5.4,27.6H0.8v-2h1
				V14.3h-1v-2h5.4v2h-1V22.9L5.2,22.9z M33.1,14.3v11.3h1.5v2h-5.8v-2h1V14.3h-1v-2H38v4.3h-1.5c0-1.6-0.9-2.2-1.9-2.2L33.1,14.3
				L33.1,14.3z M105.1,22.9h-3.4l-0.7,2.6h0.6v2h-3.3v-2H99l3.1-11.3h-0.3v-2h3.9v0.6h0.1l3.5,12.7h0.6v2h-4.7v-2h0.6L105.1,22.9z
				 M102.2,21.2h2.4l-1.2-4.4L102.2,21.2z M121,14.3h-0.9l-2.5,4.4l3.5,6.8h1.1v2h-5.4v-2h0.8l-1.8-3.6l-2,3.6h0.6v2h-3v-2h0.6
				l3-5.3l-3-6h-1.2v-2h5.4v2h-0.7l1.4,2.7l1.5-2.7h-0.3v-2h3L121,14.3L121,14.3z M44.8,13.8c-1.7,0-3,2.8-3,6.2s1.4,6.2,3,6.2
				c1.7,0,3-2.8,3-6.2S46.5,13.8,44.8,13.8L44.8,13.8z M44.8,11.7c3.5,0,6.4,3.7,6.4,8.2s-2.9,8.2-6.4,8.2s-6.4-3.7-6.4-8.2
				S41.3,11.7,44.8,11.7L44.8,11.7z M58.5,11.7c1.5,0,3.6,0.6,4.7,1.7v3h-1.6c-0.6-1.6-1.1-2.7-2.9-2.7c-1.7,0-3.2,2.8-3.2,6.2
				s1.6,6.2,3.3,6.2c1.3,0,2.9-1.6,3.3-3.9h1.1v4.1c-1.1,1.1-3.2,1.7-4.7,1.7c-3.5,0-6.4-3.7-6.4-8.2S55,11.7,58.5,11.7L58.5,11.7z
				 M70.4,11.7c1.5,0,3.6,0.6,4.7,1.7v3h-1.6c-0.5-1.6-1-2.7-2.9-2.7c-1.7,0-3.2,2.8-3.2,6.2s1.6,6.2,3.3,6.2c1.3,0,2.9-1.6,3.3-3.9
				H75v4.1c-1.1,1.1-3.2,1.7-4.7,1.7c-3.5,0-6.4-3.7-6.4-8.2S66.9,11.7,70.4,11.7L70.4,11.7z M87.1,12.2H76.3v4.3h1.5
				c0.2-1.2,1.1-2.2,2.1-2.5v11.6h-1v2h5.4v-2h-1V13.9c1.1,0.3,2.1,1.3,2.3,2.5h1.5L87.1,12.2L87.1,12.2z M92.6,14.3h0.8
				c1.4,0,2.5,1.1,2.5,2.5v0.7c0,1.4-1.1,2.5-2.5,2.5h-0.8h0V14.3z M94.8,12.2h-6.5v2h1v11.3h-1v2h5.4v-2h-1v-3.6h2.2
				c2.8,0,4.3-2.5,4.3-5C99.1,14.5,97.6,12.2,94.8,12.2L94.8,12.2z M14.8,12.2h5.4v2h-1v4.6H23v-4.6h-1v-2h5.4v2h-1v11.3h1v2H22v-2
				h1v-5h-3.8v5h1v2h-5.4v-2h1V14.3h-1V12.2z"/>
		</g>
	</g>
</g>
<g id="Layer_14">
</g>
<g id="Layer_15">
</g>
<g id="Layer_16">
</g>
<g id="Layer_20">
</g>
<g id="Layer_19">
</g>
<g id="Layer_17">
</g>
<g id="Layer_18">
</g>
</svg>
