<?xml version="1.0" encoding="UTF-8"?>
<svg width="100" height="12" viewBox="0 0 100 12" fill="none" xmlns="http://www.w3.org/2000/svg">
<path fill-rule="evenodd" clip-rule="evenodd" d="M3.12418 11.9865H0.769043V0.836517H8.15081V8.62721H3.12418V11.9865ZM19.3289 11.9865H26.6755V8.52H24.3204V9.59212H21.6489V3.23091H24.3204V4.30302H26.6755V0.836517H19.3289V11.9865ZM30.9289 11.9865H28.5737V0.836517H35.0767V3.23091H30.9289V11.9865ZM44.1809 11.9865H36.8343V0.836517H44.1809V11.9865ZM53.4959 11.9865H46.1493V0.836517H53.4959V4.30302H51.1408V3.23091H48.4693V9.59212H51.1408V8.52H53.4959V11.9865ZM39.1894 3.23091H41.8609V9.59212H39.1894V3.23091ZM62.7056 11.9865H55.3942V0.836517H62.7408V4.30302H60.3856V3.23091H57.7141V9.59212H60.3505V8.52H62.7056V11.9865ZM73.4268 11.9865H75.7467V8.62721H80.7734V0.836517H73.4268V11.9865ZM78.4181 3.23091H75.7466V6.26856H78.4181V3.23091ZM99.7198 0.836517H97.2241L95.9235 5.16071H95.2908L94.0253 0.836517H91.5296L93.3926 6.37577L91.389 11.9865H93.8847L95.326 7.5551H95.9587L97.3999 11.9865H99.8956L97.892 6.37577L99.7198 0.836517ZM3.12421 3.23091H5.79571V6.26856H3.12421V3.23091ZM82.2848 11.9865L83.3394 0.836517H88.9987L90.0533 11.9865H87.6981L87.452 9.34196H84.886L84.6399 11.9865H82.2848ZM85.0618 6.94756L85.4133 3.19517H86.8897L87.2412 6.94756H85.0618ZM17.3956 11.9865H10.049V0.836517H17.3956V11.9865ZM12.3689 3.23091H15.0404V9.59212H12.3689V3.23091ZM66.8535 3.23091H64.3577V0.836517H71.7044V3.23091H69.2086V11.9865H66.8535V3.23091Z" fill="#9E0918"/>
</svg>
