<svg xmlns="http://www.w3.org/2000/svg" viewBox="0 0 500 92"><path fill="#484D4C" d="M105.1 20c0-1.8-.2-2.5-.9-3.5h10.7c7.7 0 12 3.4 12 9.6 0 6.3-4.5 10.2-12 10.2h-3.7v5.4c0 1.8.2 2.5.9 3.5h-8c.7-1 .9-1.7.9-3.5V20zm8.9-.1h-2.7v12.9h2.7c4.3 0 6.7-2.4 6.7-6.5-.1-4.1-2.3-6.4-6.7-6.4m25.5 24.8l-8.9-20.1c-.9-2-1.7-3.2-2.6-4.1h8.7c-.6 1.2-.4 2.7.1 3.9l5.5 13.1 4.9-13.2c.4-1.2.7-2.6.2-3.9h6.2c-1 1-1.5 1.9-2.1 3.7l-6.9 18.2c-1.9 5-4.2 9.3-10 9.3-2.7 0-4.7-.8-6.7-2.5l1.7-3.5c1.1 1.6 2.6 3 5 3 2.2 0 3.8-1.3 4.9-3.9m25.9 1c-6.5 0-11.7-4.2-11.7-12.7 0-7.4 5.2-12.9 13.2-12.9 3.2 0 5.1.8 6.7.8.8 0 1.4-.1 2.2-.6l-2.3 5.5c-1.2-1.3-3.1-2.7-6.2-2.7-4.8 0-7.5 3.9-7.5 10 0 5.7 2.1 9.4 7 9.4 3.4 0 6.1-1.6 7.9-3.8l1.1 2.8c-2.7 2.7-5.5 4.2-10.4 4.2m23.4 0c-6.5 0-11.7-4.2-11.7-12.7 0-7.4 5.2-12.9 13.2-12.9 3.2 0 5.1.8 6.7.8.8 0 1.4-.1 2.2-.6l-2.3 5.5c-1.2-1.3-3.1-2.7-6.2-2.7-4.8 0-7.5 3.9-7.5 10 0 5.7 2.1 9.4 7 9.4 3.4 0 6.1-1.6 7.9-3.8l1.1 2.8c-2.7 2.7-5.5 4.2-10.4 4.2m20.1-13.1l8.5-8.8c1.5-1.5 1.7-2.1 1.6-3.3h7.6c-1.8 1.2-3 2.3-4.3 3.7l-7.3 7.4 8 9.8c1.8 2.2 2.6 2.9 4.3 3.9h-9.7c0-1.1-.1-1.8-1.1-3l-7.6-9.3v8.8c0 1.8.2 2.5.9 3.5h-7.7c.7-1 .9-1.7.9-3.5V24c0-1.8-.2-2.5-.9-3.5h7.7c-.7 1-.9 1.7-.9 3.5v8.6zm37.5-8.6c0-1.8-.2-2.5-.9-3.5h7.7c-.7 1-.9 1.7-.9 3.5v17.7c0 1.8.2 2.5.9 3.5h-7.7c.7-1 .9-1.7.9-3.5v-12L235.9 41v.7c0 1.8.2 2.5.9 3.5h-7.7c.7-1 .9-1.7.9-3.5V24c0-1.8-.2-2.5-.9-3.5h7.7c-.7 1-.9 1.7-.9 3.5v12l10.5-11.3V24zm28.7 0c0-1.8-.2-2.5-.9-3.5h7.7c-.7 1-.9 1.7-.9 3.5v17.7c0 1.8.2 2.5.9 3.5h-7.7c.7-1 .9-1.7.9-3.5v-12L264.6 41v.7c0 1.8.2 2.5.9 3.5h-7.7c.7-1 .9-1.7.9-3.5V24c0-1.8-.2-2.5-.9-3.5h7.7c-.7 1-.9 1.7-.9 3.5v12l10.5-11.3V24zm-6.6-10.9c-.5.8-.7 1.4-.7 1.9 0 .7.6 1.5 2.1 1.5 1.6 0 2.2-.8 2.2-1.5 0-.6-.3-1.2-.7-1.9h2.3c.4.5 1 1.5 1 2.4 0 1.9-1.8 3.1-4.8 3.1s-4.8-1.2-4.8-3.1c0-.9.6-1.8 1-2.4h2.4zm51.2 9.5c-2-2.2-4.5-3.3-7.3-3.3-5.8 0-9.1 4.6-9.1 11.6 0 6.8 2.6 11.4 9.3 11.4 3.3 0 6.1-1.7 8.4-4l1.6 2.8c-3.1 2.7-5.9 4.6-11.6 4.6-8.7 0-14.3-5.3-14.3-14.5 0-8.3 6.1-14.8 15.2-14.8 4 0 5.7.8 8.1.8 1.1 0 1.9-.2 3-.9l-3.3 6.3zm7.8 1.1c-2.5 0-3.7.3-5.5 1.2l2-4.4h22.3l-2 4.4c-.8-.8-1.5-1.2-3.4-1.2h-4v18c0 1.8.2 2.5.9 3.5h-7.7c.7-1 .9-1.7.9-3.5v-18h-3.5zm33 16.2h-10.7l-.6 1.4c-.7 1.9-.9 2.6-.2 3.9h-6c1-1 1.7-2.2 2.4-3.8l8-18.5c-.6-1-.9-1.4-1.8-2.4h7.1l8.9 20.9c.7 1.6 1.3 2.7 2.4 3.8h-8.7c.7-1.5.4-2.2-.3-3.9l-.5-1.4zm-9.4-3.1h8.3l-4-10.4-4.3 10.4zm38.3-2.7H379v7.7c0 1.8.2 2.5.9 3.5h-7.7c.7-1 .9-1.7.9-3.5V24c0-1.8-.2-2.5-.9-3.5h7.7c-.7 1-.9 1.7-.9 3.5v6.8h10.5V24c0-1.8-.2-2.5-.9-3.5h7.7c-.7 1-.9 1.7-.9 3.5v17.7c0 1.8.2 2.5.9 3.5h-7.7c.7-1 .9-1.7.9-3.5v-7.6zm31.6 5.3c0 2 .8 3.4 3.1 4v4.3c-2.5-1.9-4-2.5-6.6-2.5h-12.7c-2.4 0-4.2.8-6.5 2.5v-4.3c4.6-1.7 5.2-5.1 5.2-9.7V24c0-1.8-.2-2.5-.9-3.5H422c-.7 1-.9 1.7-.9 3.5v15.4zm-13.6-5.3c0 3.6-.4 6-1.8 7.9h8.3c.9 0 1.2-.6 1.2-1.3V23.5h-6.5c-.9 0-1.2.6-1.2 1.2v9.4zm35.7 5.8h-10.7l-.6 1.4c-.7 1.9-.9 2.6-.2 3.9h-6c1-1 1.7-2.2 2.4-3.8l8-18.5c-.6-1-.9-1.4-1.8-2.4h7.1l8.9 20.9c.7 1.6 1.3 2.7 2.4 3.8h-8.7c.7-1.5.4-2.2-.3-3.9l-.5-1.4zm-9.5-3.1h8.3l-4-10.4-4.3 10.4zm30.5-16.3c7.4 0 11.1 2.8 11.1 8.3 0 5.4-4.3 8.8-11.1 8.8h-3v4.1c0 1.8.2 2.5.9 3.5h-7.7c.7-1 .9-1.7.9-3.5V24c0-1.8-.2-2.5-.9-3.5h9.8zm-3 3v11.4h2.2c4 0 6-2 6-5.9 0-3.8-1.9-5.5-6-5.5h-2.2zm20.1.2c-2.5 0-3.7.3-5.5 1.2l2-4.4H500l-2 4.4c-.8-.8-1.5-1.2-3.4-1.2h-4v18c0 1.8.2 2.5.9 3.5h-7.7c.7-1 .9-1.7.9-3.5v-18h-3.5zM45.9 87.2C23.2 87.2 4.8 68.7 4.8 46c0-22.7 18.4-41.2 41.1-41.2S87 23.3 87 46c0 22.7-18.4 41.2-41.1 41.2m0-87.2C20.6 0 0 20.6 0 46s20.6 46 45.9 46 45.9-20.6 45.9-46S71.3 0 45.9 0M56 62.2c3.7 4.1 3.2 11.8 2 15.3-.1.2-.2.5-.6.7-2.1.8-4.6 1.3-6 1.5 5.8-5.3 6.7-12.9 4.6-17.5m21.5-4.8c-5.1-4.4-11.3-7.4-17-8.5 6 2.6 11.7 8.8 14.6 14.7.6-1 1.8-3.1 2.7-5.5.1-.3-.1-.5-.3-.7M80 46.1c0-.4-.2-.5-.3-.5-3.5-1.5-5.8-1.9-5.8-1.9 1-.4 1.6-1.5 1.8-2.1-2.2 1.2-4.9 1.5-6.5 1.4 3.3 1.3 7.7 3.6 10.7 6.2.1-1.3.1-2.4.1-3.1M61.4 58.3c1.3.3 3.1.6 4.2 0-5.6-1.4-8.7-9.3-21.5-10.4-.6-.1-1.9.1-1.1-1.1.8-1.2 5.8-4.7 5.8-4.7-1 0-5.2.4-6.5.6-1.3.2-1.6-.2-1.6-1.1 0 0-2.6 2.4-1.4 3.7.2.2.7.2 1.4-.1.6-.3 1.7-.6 2.3-.8.1 0 .2 0 .1.1-.3.5-1 1.7-1.2 2.3-.2.7-.3 1.1.9 1.5 1.1.4 7 2.2 10.6 4.7C57 55.4 65.5 62.1 65 74.4c2.1-1.4 3.8-2.9 4.8-3.9.3-.2.2-.6.1-.8-1.2-3.7-4.7-9-8.5-11.4m13.3-25.8c-.5 1.9-1.8 2.8-2.5 3-1.2.3-2.2-.1-2.2-.1-.3.3-.6.7-.9.9-.5.4-.7.1-.6-.1 0-.3.1-.6-.1-.9-.3-.5-.7 0-1.2.2s-.6-.5-.6-.5c-2.8-.6-4.1.9-4.1.9 2 .3 3 1.6 3.1 2.2.1.5 1.4.5 1.9.1.1-.1.5-.3.5.2 0 .2-.1.5-.2.9.9.5 1.2.6.9 1.1-1.1 1.9-2 1.6-2.3 1.5-4-1.4-7.7-2.1-10.1-2.2.3-.4 1.3-1.3 1.3-1.3-16.1 0-18.8 2-19.7 3-.6.7-.1 1.8-.1 1.8-1.9.4-6.7 1.2-8.9 3.2-2 1.7-2.1 5.6-2.2 7.1.9-.9 2-1.6 3-2.1 2.2-1 4.7-.8 8-.7 1.4 0 2.1.6 2.5 1.4.4.8-.6.7-1.1.4-2.8-1.8-3.8 1.5-6.7.6.9 1.1 2.2 1.1 2.9.9 3-1.1 3.7.1 3.9.4-1.9-.1-4.9 1.1-6.4 1.4-1.8.4-3.6.5-3.6.5 1.2 1.5 2.9 1.5 4.2 1.5 1.3 0 5.4-.3 7.9-.1 6.3.6 6.7 6.5 3 10.1 3-.8 4.2-3.7 4.2-3.7 2.2 9.9-6.9 15.1-14.3 13.6-3.6-.7-6.4-2.3-8.5-3.8-1.6-1.1-2.9-2.3-3.3-2.7 4.9 1.3 12.2 1.3 17.3-1-9.7.1-16.3-2.4-20.8-4.8-1.8-1-2.3-1.4-2.9-2.5-1.4-2.6-2.4-4.9-3.3-8.3 3.7 3.3 11.8 7.7 15.7 8C18.4 56.5 13.5 47.9 13 47c-.4-.8-1.2-1.6-1.1-3.5.1-2.5.9-6.2 1.8-8.7 1.2 3.4 4.2 9.6 7.7 12.6-3.6-7.6-4.1-17.3-4-19 0-.8.2-1.4.8-2.3.9-1.3 2.9-3.7 5-5.6-.5 2.7-1.1 8.2-.1 13.4 1.4-8.2 4.5-14.6 6.7-17.4.4-.6.7-1 1.6-1.4 1-.5 3.7-1.7 6.9-2.4-2.8 1.9-5.1 5.7-5.8 7.7C42 11.3 51 11.4 56.4 9c1-.5 1.6.4 1.6 1.1-.1.9-.5 2.3-.5 2.3 3.3.8 4.6 2.4 4.6 2.4-.1-.4 0-1.2 0-1.2 4.5 4 5.9 7 5.8 9.5-.1 2.2 1.6 3.5 2.5 4 .9.5 4.5 2.8 5.2 3.3.5.5-.3 1.5-.9 2.1M54.5 11.9c-1.3.8-2.7 2.1-3.6 4.1-.2.3.1.7.6.4 1.1-.6 2.4-.9 2.4-.9-.3-1 .9-2.8 1.5-3.5.3-.3.1-.7-.9-.1m11 9.6c-.3 2.4-.8 2.3-1.4 2.1-1-.4-2.9-.6-3.6-.3 2 1.7 3.3 4.3 3.3 4.3.2-.9-.3-2.2-.5-2.6-.2-.3 0-.3.4-.2.3.1.8.2 1.1.3.7.3.8-.1.9-.6.2-.6.3-1.6-.2-3m-23.2 11c.5-.2 1.7-.8 2.5-1 0 0-.7 2.4-.6 6.4 1.4-.2 2.8-.4 4.4-.4-2.4-.9-2.3-5.5-.7-7.9.5-.7-.1-.8-.7-.6-.8.3-1.3.4-2.1.7 0 0 .4-6.1 5.7-11-5 2.3-8.8 9.5-8.5 13.8m77.5 42.1c-2.1 2.1-4.3 3.3-7.9 3.3-5 0-8.8-3.1-8.8-9.4 0-5.5 3.9-9.6 9.8-9.6 2.4 0 3.8.6 5 .6.6 0 1-.1 1.6-.4l-1.7 4.2c-.9-1-2.3-2-4.6-2-3.3 0-5.4 2.7-5.4 7.2 0 4.1 1.6 6.8 5.2 6.8 2.5 0 4.6-1.2 5.8-2.8l1 2.1zm4.8-12.8c-1.9 0-2.7.2-4.1.9l1.5-3.4h16.5l-1.5 3.4c-.6-.6-1.1-.9-2.5-.9h-2.9V75c0 1.3.2 1.8.7 2.6h-5.9c.5-.8.7-1.3.7-2.6V61.8h-2.5zm22.6-2.5c5.5 0 8.3 2.1 8.3 6.2 0 4-3.2 6.6-8.3 6.6H145V75c0 1.3.2 1.8.7 2.6h-5.9c.5-.8.7-1.3.7-2.6V61.8c0-1.3-.2-1.8-.7-2.6h7.4zm-2.2 2.3v8.2h1.4c3 0 4.5-1.4 4.5-4.3 0-2.8-1.4-3.9-4.5-3.9H145zm21.9 12.1h-8l-.4 1c-.5 1.4-.6 1.9-.2 2.9h-4.5c.7-.8 1.2-1.6 1.8-2.8l5.9-13.6c-.4-.8-.7-1.2-1.4-1.9h5.5l6.6 15.5c.5 1.2 1 2 1.8 2.8h-6.6c.5-1.1.3-1.6-.2-2.9l-.3-1zm-7-2.3h6.1l-3-7.7-3.1 7.7zm24.8-6.6l2.3-3.1c.8-1.1 1-1.6.7-2.5h5.4c-1.2.9-1.9 1.7-2.7 2.7l-4 5.3 5.2 7.4c1.1 1.6 1.7 2.1 3 2.9h-7.3c.1-.8-.1-1.3-.7-2.2l-3.1-4.6-3 4.3c-.8 1.1-.9 1.6-.7 2.5h-5.4c1.1-.9 1.9-1.7 2.6-2.7l4.7-6.4-4.3-6.3c-1.1-1.6-1.7-2.1-2.9-2.9h7.3c-.1.8 0 1.3.6 2.2l2.3 3.4zm8.8 3.6c0-5 3.6-9.5 9.4-9.5 5.8 0 9.4 4.4 9.4 9.5s-3.6 9.5-9.4 9.5c-5.8 0-9.4-4.4-9.4-9.5m4.6 0c0 5.5 2.3 7 4.7 7 2.4 0 4.7-1.6 4.7-7 0-5.7-2.5-7-4.7-7-2.4 0-4.7 1.6-4.7 7m16.5 9.2c.5-.8.7-1.3.7-2.6V61.8c0-1.3-.2-1.8-.7-2.6h8.4c4.7 0 6.1 2.7 6.1 4.6 0 1.7-.9 3-2.2 3.8 2.1.8 3.1 2.4 3.1 4.5 0 3.1-2.3 5.5-7.3 5.5h-8.1zm5.1-10.7h2c2.5 0 3.2-1.6 3.2-3 0-1.6-1-2.4-3.1-2.4h-2.1v5.4zm2.3 8.4c2.4 0 3.5-1 3.5-3.1 0-2.2-1.5-3.1-3.8-3.1h-2.1v6.2h2.4zm21.3-1.6h-8l-.4 1c-.5 1.4-.6 1.9-.2 2.9h-4.5c.7-.8 1.2-1.6 1.8-2.8l5.9-13.6c-.4-.8-.7-1.2-1.4-1.9h5.5l6.6 15.5c.5 1.2 1 2 1.8 2.8h-6.6c.5-1.1.3-1.6-.2-2.9l-.3-1zm-7-2.3h6.2l-3-7.7-3.2 7.7zm28.9-2h-8V75c0 1.3.2 1.8.7 2.6H252c.5-.8.7-1.3.7-2.6V61.8c0-1.3-.2-1.8-.7-2.6h5.9c-.5.8-.7 1.3-.7 2.6v5.1h8v-5.1c0-1.3-.2-1.8-.7-2.6h5.9c-.5.8-.7 1.3-.7 2.6V75c0 1.3.2 1.8.7 2.6h-5.9c.5-.8.7-1.3.7-2.6v-5.6zm21.7-7.6c0-1.3-.2-1.8-.7-2.6h5.9c-.5.8-.7 1.3-.7 2.6V75c0 1.3.2 1.8.7 2.6h-5.9c.5-.8.7-1.3.7-2.6v-8.9l-7.8 8.4v.5c0 1.3.2 1.8.7 2.6H274c.5-.8.7-1.3.7-2.6V61.8c0-1.3-.2-1.8-.7-2.6h5.9c-.5.8-.7 1.3-.7 2.6v8.9l7.8-8.4v-.5zm14 7.4V75h5.5c1.7 0 2.4-.4 3.4-1.3l-1.4 3.9h-12.7c.5-.8.7-1.3.7-2.6V61.8c0-1.3-.2-1.8-.7-2.6h13.6l-1.5 3.4c-.6-.6-1.1-.9-2.5-.9h-4.5v4.9h6.5l-1.5 3.4c-.6-.6-1.1-.9-2.5-.9h-2.4z"/></svg>