<?xml version="1.0" encoding="utf-8"?>
<!-- Generator: Adobe Illustrator 22.0.1, SVG Export Plug-In . SVG Version: 6.00 Build 0)  -->
<svg version="1.1"
	 id="svg4800" inkscape:version="0.48.5 r10040" sodipodi:docname="New document 4" xmlns:cc="http://creativecommons.org/ns#" xmlns:dc="http://purl.org/dc/elements/1.1/" xmlns:inkscape="http://www.inkscape.org/namespaces/inkscape" xmlns:rdf="http://www.w3.org/1999/02/22-rdf-syntax-ns#" xmlns:sodipodi="http://sodipodi.sourceforge.net/DTD/sodipodi-0.dtd" xmlns:svg="http://www.w3.org/2000/svg"
	 xmlns="http://www.w3.org/2000/svg" xmlns:xlink="http://www.w3.org/1999/xlink" x="0px" y="0px" viewBox="0 0 957.5 469.8"
	 style="enable-background:new 0 0 957.5 469.8;" xml:space="preserve">
<style type="text/css">
	.st0{fill:#4F4F57;}
	.st1{fill:#173A79;}
	.st2{fill:#FFFFFF;}
</style>
<sodipodi:namedview  bordercolor="#666666" borderopacity="1.0" fit-margin-bottom="0.5" fit-margin-left="0.5" fit-margin-right="0.5" fit-margin-top="0.5" id="base" inkscape:current-layer="layer1" inkscape:cx="765.36314" inkscape:cy="141.23005" inkscape:document-units="px" inkscape:pageopacity="0.0" inkscape:pageshadow="2" inkscape:window-height="1038" inkscape:window-maximized="0" inkscape:window-width="1053" inkscape:window-x="863" inkscape:window-y="-21" inkscape:zoom="0.57490234" pagecolor="#ffffff" showgrid="false">
	</sodipodi:namedview>
<g>
	<path id="path4182" inkscape:connector-curvature="0" class="st0" d="M429.3,244.1c0,9.6,4,12.6,18.5,12.6
		c14.5,0,21.1-4.4,30.5-23.9h3.4l-3.4,30.5h-89.7v-3.4c13.5-3.4,14.8-6.4,14.8-19.1v-75.1c0-10.4-2.6-13.4-14.8-16.5v-3.4h55.6v3.4
		c-11.6,3-14.9,5.4-14.9,15.7V244.1z"/>
	<path id="path4186" inkscape:connector-curvature="0" class="st0" d="M508.2,137.7c7.2,0,13,5.8,13,13c0,7.2-5.8,13.3-13,13.3
		s-13.3-6-13.3-13.3C494.9,143.5,501,137.7,508.2,137.7 M519.4,247.1c0,7.6,3.8,11.8,12.2,12.8v3.4h-47.6v-3.4
		c10.2-2,12.6-4.8,12.6-14.4v-40.4c0-9.2-2.6-11.8-13.7-14.1v-3.4l32.9-2.8h3.4V247.1z"/>
	<path id="path4190" inkscape:connector-curvature="0" class="st0" d="M568.8,137.7h-3.4l-30.7,2.2v3.4c7,1.2,11.4,4.8,11.4,11.3
		v108.8c11.4,2.2,22.7,3,36.9,3c37,0,51-19.2,51-42.5c0-22.1-15.7-39.1-36.1-39.1c-10.8,0-20.1,4.4-29.1,13.9V137.7z M568.8,203.9
		c7.6-7,11.6-9,17.7-9c13.4,0,22.5,12.9,22.5,31.3c0,24.7-11.3,34.7-28.1,34.7c-9.1,0-12-4-12-12.6
		C568.8,248.3,568.8,203.9,568.8,203.9z"/>
	<path id="path4194" inkscape:connector-curvature="0" class="st0" d="M724.8,218.8c-2.8-20.9-18.2-34.1-39.7-34.1
		c-23.9,0-42.1,17.9-42.1,41.4c0,23.1,17.6,40.3,41.4,40.3c18.3,0,33.7-10,40.5-26.3h-3.4c-7.2,11-16.1,16.5-27.1,16.5
		c-14.1,0-28.1-12.9-26.9-37.7H724.8z M667.4,214.1c0.6-14.5,6.8-24.1,16.1-24.1c9.2,0,16,10,16.8,24.1H667.4z"/>
	<path id="path4198" inkscape:connector-curvature="0" class="st0" d="M797.5,213.9c-6.6-6.4-11.9-9.8-17.1-9.8
		c-6.8,0-11,2.8-16.9,10.8v30.9c0,9,1.8,11.8,12.8,14v3.4h-48.2v-3.4c10.1-2.4,12.6-5.4,12.6-14v-40c0-9.6-4.2-14-13.8-14.8v-3.4
		l33.1-3h3.4v24.1h0.4c7.4-16.5,15.6-24.1,25.1-24.1c5,0,9.8,2.2,13.4,6.4L797.5,213.9z"/>
	<path id="path4202" inkscape:connector-curvature="0" class="st0" d="M925.3,187.6v3.4c9.6,2,11.8,8,5,24.1l-10.4,24.3l-16.1-33.1
		c-4.6-9.6-4.6-14.1,4-15.2v-3.4h-43.8h-1.4h-21.9v-29.3H837c-10.7,13.6-23.1,25.7-32.5,31.5v3.8h13.6v48.6
		c0,17.3,11.4,24.1,25.7,24.1c11.3,0,18.7-4,24.3-13.4l-2.4-2.2c-3.6,4.2-7,6-11,6c-10.7,0-13.9-7.2-13.9-19.5v-43.5h20.3
		c11,0,14.3,4,19.1,14.2l27.7,58.4c-9.2,24.9-17.2,34.9-31.3,34.9c-3.1,0-5.5-0.2-10.3-1.8l-4.6,22.9c2.8,0.4,4.4,0.4,6.4,0.4
		c15.7,0,24.3-6.6,32.3-25.1l38.1-87.1c6.2-14,8.6-16.8,18.3-19.5v-3.4H925.3z"/>
	<path id="path4238" inkscape:connector-curvature="0" class="st1" d="M352.9,198.5c-1.1-1.5-4-0.3-4-0.3L303.7,215
		c-3.5-8.6-7.6-16.6-12.2-24.1l14.7-40c0,0,1.8-4,0.2-5c-1.7-1-4.5,1.7-4.5,1.7l-26.6,21.8c-10.4-11.1-22.6-20.1-36.6-26.5
		c-5.2-2.3-10.6-4.3-16.3-5.9l-8.3-31.7c0,0-0.7-3.2-2.9-3.2c-2.1,0-2.7,3-2.7,3l-5.3,28c-5.8-0.7-11.8-1.2-17.9-1.2
		c-19.9,0-37.5,3.8-53,10.7c-6.6,3-12.8,6.5-18.7,10.6c-1,0.7-1.9,1.4-2.8,2.1c-5.5-14.2-9.8-25.7-10.6-29.2
		c3.1-2.8,9.5-12.9,11-19.7c2.2-9.5,1.5-14-0.8-21.2c-1.6-5.3-5-10.2-4.8-13.5c0.2-2.5,1.5-4.3,2.6-5.4c-0.6-3.5-2.9-5-5.6-5.4
		c-2.5-0.3-4.4,0.4-6.7,0.5c-0.6-1-1.7-0.8-0.8-4.4c1.3-5.5,11.8-8,20.3-11.4c10.9-4.2,16.9-12,17.3-24.6
		c0.3-9.1-4.8-15.9-11.2-18.9c-1.3,3.7-6.6,8.6-10.3,10.7c-3.6,2-8.7,2.8-12.3,1.9C99.8,8,96.7,2.3,91.8,0
		c-1.6,2.9-7.5,6.8-16.3,6.5C66.6,6.3,66,4.2,53.6,4.2c-17.7,0-32.4,10.7-34.2,26.4c-1.2,10.2,2.8,18.8,5.7,23.2
		c-2.2,1.7-7.4,6.7-8.3,8.1c-1.3-1.5-4.8-3.5-9-0.7c0.9,2.2,1.1,4.9,0.4,7.5C7.3,71.4,0.8,84,0.1,94.1c-1.3,17.2,8.7,28.8,17,32.1
		c-1.8,2.8-2.2,5.7-0.9,8.1c0.9,1.6,2.6,3.2,6.1,3.2c-2,2.2-2.8,5.5-1.5,8.8c1.5,3.7,5.7,9.1,9.4,9.1c-0.2,3.1,1.3,10.5,2,13.5
		c-1.3,2.4-2.6,4.2-2.4,8.7c0.2,4.6,3.2,8.3,6.8,9.1c0.9,2.2,1.6,4.7,2.9,6.1c1.3,1.5,2.4,3.3,5.2,5.1c2.8,1.8,5.9,3.3,9.6,3.3
		c3.7,0,6.9,0.2,8.6-0.4c0.1,1,0.4,10.8,0.9,21.7c-9.3,25.9-13.9,55.8-13.9,88v0c0,57.6,16.4,109,47.8,142.1c0,0,1.8,2.2,6.9,5.5
		c0,0,9.8-16.8,24.8-35.9c3.8-4.9,8.1-9.5,12.9-14c7.4-6.4,14.5-12.1,21.4-17.1C183,378,205.4,368,226,363.7
		c-23.7,12.2-37.1,18.8-59.4,37.8c-14.1,12.1-36.6,33.4-51.9,62.7c3.2,2.5,7.5,5.1,12.6,5.7c3.2-3.8,20-34.4,45.6-59
		c51.9-48.6,112.9-59.8,144.9-59.2c1.8-13.2,2.7-26.9,2.7-41.1c0-23.2-2.4-45.2-7.3-65.4l38.2-42.5
		C351.4,202.6,354.1,200,352.9,198.5"/>
	<path id="path4250" inkscape:connector-curvature="0" class="st2" d="M69,179.3c-2.2-1.3-8.3-4.2-13.1-4.1c-5,0.2-9.2,1.2-13.1,3.7
		c-1.7-1.1-2.2-3.3-1.1-5.9c1.1-2.6,2.6-3,2.6-3l-1.4-24.2c0,0,6.8-4.9,8.6-5.4c1.8-0.6,2.7-2,2.7-3.8c3,2,7.5,6.6,9.8,10
		c2.2,3.1,3.5,6.6,3.7,10.5c0.2,3.9,0.2,8.5-0.6,13.3c1.5,1.3,3,2.4,3.1,4.4C70.5,176.9,69.7,177.6,69,179.3"/>
	<path id="path4254" inkscape:connector-curvature="0" class="st2" d="M289.6,254.6c-0.3-4.7-5.7-17.5-9.1-20.2l57.5-25.5
		L289.6,254.6z"/>
	<path id="path4258" inkscape:connector-curvature="0" class="st2" d="M131.9,159.4l48.6,44.1c-4.7,2.6-11.7,9.7-13.7,15.5
		L131.9,159.4z"/>
	<path id="path4262" inkscape:connector-curvature="0" class="st2" d="M160.4,246.9c-1.7,2.6-2.3,4.1-2.8,7.3
		c-0.6,3.2-0.1,4.9,0.2,7.5l-14.9-10.3c0.2-3.5-0.8-9.2-1-12.2c0-0.3-0.1-0.9-0.2-1.3L160.4,246.9z"/>
	<path id="path4266" inkscape:connector-curvature="0" class="st2" d="M78.2,251.1c-0.9-1.7-5.2-91.4-5.3-94.6l4.8-3.5v-0.9
		c-3.5-0.2-7.6-1.5-8.9-3.5l-1.3-27.5c-4.8-0.4-9.8-1.9-11.6-3.7c-2.3-2.3-4.1-5.1-1.5-10.1c2.4,1.7,9.4,3.7,15.5,3.7
		c1.3,0,4,2.9,5.5,3.5c1.8,0.7,4.7,2.3,6.1,2.9c1.2,0.5,2,3.5,2.4,4.6c0.4,1.1,44.9,116.6,45.6,117.9c0.8,1.3,3.3,20.7,3.5,22.1
		c0.2,1.5,6.8,17,8.1,18.5c-5.9-0.2-15.6,3.2-23.5,11c-7.8,7.6-14.6,24.2-16.2,31.9C100.9,319.3,79.2,252.8,78.2,251.1"/>
	<path id="path4270" inkscape:connector-curvature="0" class="st2" d="M134.8,361.6c-1.9,17.8-6.2,33.1-12.7,44.1
		c-4.2,7.1-15.9,21.4-20,26.9c4.4-8.9,7.9-30.3,7.6-46.9c-0.2-10.8-3.5-34.6-0.6-50.4c3.1-16.9,7.9-26.5,19.2-36.9
		c5.8-5.3,17.6-12.1,34.5-7.5l13.7,25.7c-7.3-1.4-17-0.1-23.4,4.8C140.9,330.7,136.8,343.2,134.8,361.6"/>
	<path id="path4274" inkscape:connector-curvature="0" class="st2" d="M136.1,396.6c3.3-7.5,7.7-28.8,8.9-36
		c1.6-9.2,3.1-22.5,13.9-31.5c5.4-4.4,14.2-5,17.7-4l15.5,31.5c1.4,3.3,5.9,4.5,9,4.3C186.6,365.6,150,383,136.1,396.6"/>
	<path id="path4278" inkscape:connector-curvature="0" class="st2" d="M267.7,296c-2.5,3.9-1.6,7.6-0.2,10.2
		c1.6,2.9,9.8,18.1,9.8,18.1c2.6,6.9,4.6,10.3,7,14.7c4.4,0,9.2-0.1,14.3,0c-5.4-12.1-17.8-35.5-17.8-35.5l-0.9-18.9
		C276.4,286.7,270.2,292.1,267.7,296"/>
	<path id="path4282" inkscape:connector-curvature="0" class="st2" d="M201.8,195.7c6.1-1.1,19.9,0.2,24.3,2.4l-14-79.4L201.8,195.7
		z"/>
	<path id="path4286" inkscape:connector-curvature="0" class="st2" d="M84,122c-0.4-1.1-1.1-4.1-2.4-4.6c-1.4-0.6-4.4-2.3-6.1-3
		c-1.5-0.6-4.3-3.5-5.5-3.5c-6.1,0-13.1-2-15.5-3.7c-2.6,5-0.8,7.8,1.5,10.1c1.9,1.8,6.8,3.4,11.6,3.7l1.3,27.5
		c1.3,2.1,5.3,3.3,8.9,3.5v0.9l-4.8,3.5c0.2,3.1,4.4,92.9,5.4,94.6c0.9,1.7,22.7,68.2,23.3,72.2c1.6-7.7,8.4-24.4,16.2-31.9
		c7.9-7.8,17.6-11.1,23.5-11c-1.3-1.5-7.9-17-8.1-18.5c-0.2-1.5-2.7-20.9-3.5-22.2C128.9,238.6,84.4,123.1,84,122"/>
	<path id="path4290" inkscape:connector-curvature="0" class="st2" d="M55.6,100c12.6,0,18.5,5.3,21.5,8c0.4-4.3-0.3-8-4.3-11.2
		c-3.3-2.7-9-5-17.9-5c-5.9,0-11.9,1.7-15.6,4.9c-3.4,2.9-3.9,6.1-3.2,10.9C37.2,104.1,45.2,100,55.6,100"/>
	<path id="path4294" inkscape:connector-curvature="0" class="st2" d="M33.1,34.1c-0.3,4.8,1,9.8,3.2,12.8c1.3,1.7,4.3,4.9,6.5,4.8
		c3.1-0.2,6.1-6.2,13.5-5.9c4.8,0.2,7.9,7,12,7.2c3.1,0.2,4.8-2.9,8-3.3c2.7-0.3,3.7,1.1,5.3,2.7c1.1-2.6,2.7-4.3,6.8-7.4
		c5-3.7,22-7.2,29.2-13.7c3.6-3.2,4.4-9.2,3.3-13.2c-2.7,3.8-10.3,7.9-17.7,8.2c-3.7,0.2-12.6-1.4-15.7-3.1c1.6-2.7,2.1-5.8,0.8-8.7
		c-2.4,1.8-12.8,2.8-16.9,2.8c-4.1,0-12-1.6-18.1-1.3C39.8,16.8,33.5,26.3,33.1,34.1"/>
	<path id="path4298" inkscape:connector-curvature="0" class="st2" d="M56.4,76c29.2,0.6,42.4,14,42.7,25.1
		c1.5-3.3,1.3-6.4,1.1-10.2c-0.2-2.9-4.6-11.3-4.8-14c-0.2-2.8,0.6-4.6,1.1-7.2c-1.8,0.4-8.3,2.9-11.1,0.7c-3-2.4-0.9-8.3-4.8-9.8
		c-3.9-1.5-10,3.1-13.9,2.6c-3.9-0.6-7.2-5.9-11.3-5.9c-4.1,0-6.1,5-11.1,6.1c-3.8,0.9-8.5-1.5-10.8-1.3c-2.5,0.2-4,2.1-5.1,4.6
		c-1.1,2.4-2,3.4-5,4.1c-2.3,0.6-5.7-1.5-7.4-1.1c1.3,1.3,1.9,6.5,0.8,9.6c-1.5,3.9-4.6,7.9-5,12.8c-0.3,4.3,1.1,6.2,2.2,9.4
		C13.4,85.8,30.9,75.5,56.4,76"/>
	<path id="path4302" inkscape:connector-curvature="0" class="st2" d="M38,132c-2,0.4-6.3,3.7-8.3,7.2c0.6,2.2,3,7.4,5.3,8.9
		c0.6-2.4,3.2-6.4,4.5-7.3c1.8-1.3,3.7-2.2,5.1-2.9c1.5-0.8,2-1.5,2-3.2c0-1.7-0.2-2.5-1-4.1c1.5-0.2,4.2,0.1,5.1-1.3
		c0.9-1.3,1.4-2.9,1.4-4.6c0-1.7-0.8-2.1-2.4-2.2c-1.7-0.2-6.5-0.3-8.9-0.1c0,0,3.7-1.9,4.8-2.5c1.1-0.6,1.5-1.7,1.7-2.6
		c0.2-0.9,0.2-3-0.4-5.5c-5.5,0.2-15.3,5.2-17.9,7.4l2,5l-3.7-0.2c-0.6,2.5-0.2,6.4,0.9,8.6C31.7,132,35.6,131.8,38,132"/>
	<path id="path4306" inkscape:connector-curvature="0" class="st2" d="M250,243.9c-6.1-3.9-18-9.7-21.6-10.9l5.2-13.6
		c4.5,2.2,20.8,12.2,23.3,14.7L250,243.9z M221.2,230.8c-4.4-3.1-19.1-2.5-25.2-1.1l-4.4-12.8c3.3-2.5,9.7-4.2,15.5-4.2
		c5.8,0,12.2,1.4,16.6,3.6L221.2,230.8z M177.4,240.2c-2.5-8.4,4.2-16.6,7.2-19.7l4.7,10.8C185.8,233.3,180.2,237.5,177.4,240.2
		 M191.9,262.1c0,0,6.1-3.5,11.8-4.7c8.5-1.8,17.8,3.3,24.5,8.5l-1.3,2l-9.5,2.2c-1.8-1.6-5.4-2.4-9.2-2.2c-3.4,0.1-6.1,1.4-6.1,1.4
		l1.9,3l-4.4,1.1c-1.9-2.5-5-5.5-7.7-6.4C191.9,267.1,191.9,262.1,191.9,262.1z M276.9,247.7c-0.7-3.6-9.7-14.3-25-25.9
		c-12-9.1-29.5-18.1-44-18c-24.4,0.1-34.5,16.9-36.3,25.6c-1.1,5.3-0.8,11,0.3,14.1c-3.9,3.3-5.3,6-6.1,9.8c-0.5,2.7,0,6.7,2.5,9
		c-0.3-3.6,2.2-7.8,4.2-10.5c2.2-3.1,5.9-4.2,9.3-6.3l0.6,6.7c-3.2,1.8-7.1,5.7-7.3,7.7l0.3,11l8.4-5l1.6,3.4l-3.1,19.4l4.7-0.8
		l8.6,3.5l-8.3,7v2.8c0,0,1.2-1.7,4.2-1.6c2.9,0.2,10.5,3.5,10.5,3.5l-0.3,1.7h-3.3h-11.4c-0.6,1.9,1.2,3.4,2.3,4.2
		c1.9-0.6,3.9-1.5,5-1.5c1.1,0,3.7,0.7,5.9,0.9l-2.7,3.6c0,0-1.4,1-3.9,0.5c-1.4-0.3-2.8,1.7-2.8,3.2c0,1.7,1.1,5.8,1.1,5.8
		c1.4,6.2,7.7,5,8.6,4.9c4-0.4,17.2-5.1,17.2-5.1l-12.7,17.8l5.5,19c8.4-3.4,33.4-12.3,60.5-16.8c-3-4.9-3.4-6.9-7.1-14.2L250,295.4
		l1.9-4.7c3.1,1.1,7.8-1.1,10.8-3.6c3-2.5,6.6-6.9,8-9.7c-1.9-1.1-3.6-0.9-5.3,0.3c-1.7,1.1-2.9,3.2-5.2,2.2c-2.5-1.1-1.3-3.8-1-6.3
		c0.3-2.5-2.9-2.5-5.1-0.6c-2.2,2-6.9,1.1-10-1.9c-3-3-17.7-15.3-23-18.3c-7.6-4.3-17.7-5.4-25.2-4.1c-4.4,0.8-7.5,2.7-9.1,1.9
		l-5.5-8.5l0.9-0.5c1.9,0.8,3.8,2.4,6.3,1.5c2.5-0.8,10.5-2.7,17.7-2.8c11.1-0.2,24.6,3.9,30.5,6.4c0.3,7.2,14.8,16.3,21.3,17.1
		c5.5,0.7,8.9-0.8,12.2-2.8l-14.1-12.4l7.5-9.5c0,0,11.9,11.3,13.6,13.6C277.7,251.4,277.2,249.2,276.9,247.7"/>
	<path id="path4310" inkscape:connector-curvature="0" class="st2" d="M248.1,207.8c5.5,2,17.1,11.7,19.8,13.9l29.4-62.6
		L248.1,207.8z"/>
	<rect x="388.5" y="307.8" class="st0" width="463" height="2"/>
	<rect x="912" y="307.8" class="st0" width="45.5" height="2"/>
	<path class="st0" d="M425.7,389.6c-4.1,0-8-0.7-11.6-2c-3.6-1.3-6.7-3.3-9.4-5.8c-2.6-2.5-4.7-5.6-6.2-9.2s-2.3-7.7-2.3-12.1
		c0-4.4,0.8-8.4,2.3-12.1c1.5-3.7,3.6-6.9,6.4-9.6c2.7-2.7,5.9-4.7,9.7-6.2s7.8-2.2,12.1-2.2c3.1,0,5.9,0.4,8.5,1.1
		c2.6,0.8,4.7,1.6,6.5,2.6l2.5-2.2h3.4l0.4,20.5h-3.5c-2-6.3-4.3-10.9-7.1-13.8c-2.8-2.9-6.1-4.4-10.1-4.4c-5,0-8.7,2.2-11.3,6.6
		s-3.9,10.5-3.9,18.4c0,4.5,0.4,8.3,1.3,11.4s2,5.7,3.5,7.6c1.5,2,3.3,3.5,5.4,4.4s4.4,1.4,6.9,1.4c3.7,0,7-1,9.9-3
		c2.9-2,5.5-5,7.9-9.1l3.4,2.1c-1.1,2.3-2.4,4.4-3.9,6.2c-1.5,1.8-3.1,3.4-5,4.7c-2.1,1.5-4.4,2.6-6.9,3.4
		C432.1,389.2,429.1,389.6,425.7,389.6z"/>
	<path class="st0" d="M495.1,362.7h-2.6c-0.2-0.7-0.6-1.5-1-2.6c-0.5-1.1-1.1-2.1-1.8-3.3c-0.7-1.1-1.5-2-2.3-2.9
		c-0.9-0.8-1.7-1.3-2.7-1.4c-0.7-0.1-1.5-0.1-2.1-0.2s-1.5,0-2.5,0v28.4c0,0.9,0.2,1.7,0.5,2.4c0.3,0.6,0.9,1.1,1.7,1.3
		c0.6,0.2,1.2,0.3,1.8,0.4c0.6,0.1,1.3,0.2,2.2,0.2v2.9h-25.4v-2.9c0.7-0.1,1.4-0.1,2.1-0.2c0.8-0.1,1.4-0.2,1.9-0.4
		c0.8-0.3,1.4-0.7,1.7-1.3s0.5-1.4,0.5-2.4v-28.4c-1.2,0-2.1,0-2.7,0s-1.3,0.1-2,0.2c-0.9,0.1-1.8,0.6-2.7,1.4
		c-0.9,0.9-1.6,1.8-2.3,2.9c-0.7,1.1-1.3,2.2-1.8,3.4c-0.5,1.1-0.8,2-1,2.5H452v-13.9h43.1V362.7z"/>
	<path class="st0" d="M546.2,368.8c0,5.6-1.9,10.3-5.6,14.3c-3.7,4-8.4,6-14.1,6c-2.5,0-4.6-0.3-6.2-0.8c-1.6-0.5-2.9-1.1-3.9-1.9
		h-0.3v11.1c0,0.9,0.2,1.7,0.6,2.4c0.4,0.7,1,1.2,1.7,1.5c0.7,0.3,1.7,0.6,3,0.8s2.4,0.4,3.3,0.4v2.9h-28.6v-2.9
		c0.7-0.1,1.5-0.2,2.5-0.3c1-0.1,1.8-0.3,2.3-0.5c0.8-0.3,1.4-0.8,1.7-1.5c0.3-0.7,0.5-1.5,0.5-2.4v-40.5c-0.1-0.9-0.3-1.6-0.6-2.3
		c-0.3-0.7-0.9-1.2-1.6-1.7c-0.5-0.3-1.2-0.6-2.1-0.9c-0.9-0.2-1.7-0.4-2.6-0.5v-2.9l19.3-1l0.6,0.5v4.4l0.3,0.1
		c1.7-1.8,3.7-3.1,5.8-4.1c2.1-1,4.2-1.5,6.3-1.5c5.5,0,9.8,1.9,12.9,5.8C544.6,357.4,546.2,362.5,546.2,368.8z M532,368.9
		c0-2-0.1-3.9-0.4-5.7s-0.8-3.4-1.5-4.8c-0.7-1.4-1.7-2.6-2.8-3.4c-1.2-0.8-2.6-1.3-4.3-1.3c-1.7,0-3.1,0.3-4.1,0.9
		c-1,0.6-1.9,1.4-2.7,2.3v22.4c0.2,0.5,0.5,1.2,0.9,2c0.4,0.8,0.9,1.5,1.3,2c0.7,0.7,1.4,1.2,2.3,1.6c0.8,0.3,1.8,0.5,2.8,0.5
		c2.6,0,4.7-1.4,6.3-4.2C531.2,378.5,532,374.4,532,368.9z"/>
	<path class="st0" d="M596.5,387.2c-1.2,0.5-2.5,1-4.1,1.4c-1.6,0.4-3.3,0.6-5,0.6c-3.2,0-5.6-0.5-7.1-1.4c-1.5-1-2.6-2.3-3.1-4.1
		h-0.2c-0.9,0.9-1.8,1.7-2.6,2.3c-0.8,0.6-1.7,1.2-2.7,1.6c-1.2,0.6-2.4,1-3.6,1.3c-1.1,0.3-2.8,0.4-4.8,0.4c-3.1,0-5.7-0.9-7.8-2.7
		c-2.2-1.8-3.2-4.2-3.2-7.2c0-1.7,0.2-3.2,0.7-4.4c0.5-1.2,1.1-2.3,2-3.2c0.8-0.8,1.7-1.5,2.8-2.1c1-0.6,2.2-1.1,3.4-1.5
		c2.4-0.9,5.2-1.8,8.6-2.7c3.3-0.9,5.8-1.8,7.3-2.5v-3.8c0-0.7-0.1-1.5-0.2-2.6c-0.1-1.1-0.3-2-0.7-2.7c-0.4-0.8-1-1.6-1.7-2.1
		c-0.8-0.6-1.8-0.9-3.1-0.9c-1.2,0-2.1,0.2-2.9,0.5c-0.8,0.3-1.4,0.7-1.9,1c0.1,0.5,0.3,1.3,0.7,2.4c0.4,1.1,0.6,2.1,0.6,3.1
		c0,0.4-0.1,1-0.4,1.7c-0.2,0.7-0.6,1.2-1,1.6c-0.6,0.5-1.3,0.9-2,1.2c-0.8,0.3-1.9,0.4-3.5,0.4c-2.2,0-3.9-0.5-5-1.6
		s-1.7-2.5-1.7-4.2c0-1.5,0.6-2.8,1.8-4c1.2-1.2,2.6-2.1,4.3-2.9c1.7-0.8,3.6-1.4,5.7-1.8c2.2-0.4,4.2-0.7,6-0.7
		c2.6,0,4.9,0.2,7,0.5c2.1,0.3,4.1,0.9,5.8,1.9c1.6,0.9,2.9,2.3,3.9,4c1,1.8,1.4,4,1.4,6.9c0,3-0.1,6.5-0.2,10.6
		c-0.1,4.1-0.2,6.8-0.2,8.1c0,1.2,0.2,2.1,0.5,2.8c0.4,0.7,0.9,1.2,1.6,1.5c0.4,0.2,1.2,0.3,2.1,0.4c1,0,1.8,0.1,2.6,0.1V387.2z
		 M576.9,366.6c-1.5,0.5-3,1.1-4.4,1.7s-2.6,1.3-3.6,2c-1,0.7-1.7,1.7-2.3,2.8c-0.6,1.2-0.8,2.5-0.8,4.1c0,2.1,0.5,3.6,1.4,4.5
		c0.9,0.9,2.1,1.4,3.5,1.4c1.5,0,2.7-0.3,3.6-0.9s1.8-1.3,2.5-2.2L576.9,366.6z"/>
	<path class="st0" d="M644.7,388h-24.7v-2.9c1.3-0.1,2.4-0.2,3.3-0.3c0.9-0.1,1.3-0.4,1.3-0.9c0-0.2-0.1-0.5-0.3-1
		c-0.2-0.4-0.5-1-0.9-1.5c-0.5-0.8-1.4-2.1-2.6-3.9c-1.2-1.8-2.4-3.4-3.5-4.9c-1.5,1.8-2.8,3.3-3.8,4.6c-1,1.3-2.1,2.6-3.2,4.1
		c-0.4,0.5-0.7,0.9-0.8,1.3s-0.2,0.6-0.2,0.7c0,0.6,0.4,1.1,1.3,1.4s1.9,0.5,3.1,0.5v2.9h-16.1v-2.9c2.1-0.4,3.8-1.2,5.1-2.1
		c1.3-1,2.1-1.7,2.6-2.3c1.9-2.1,3.6-3.8,4.9-5.1s3.1-3.3,5.4-5.7c-1.5-2.1-3.3-4.6-5.5-7.6c-2.1-3-3.9-5.5-5.3-7.4
		c-0.7-0.9-1.6-1.7-2.6-2.2c-1-0.5-2.4-0.9-4-1v-2.9h24.2v2.9c-0.9,0-1.7,0.1-2.6,0.2c-0.8,0.1-1.3,0.3-1.3,0.6
		c0,0.2,0.1,0.5,0.2,0.8c0.1,0.3,0.3,0.6,0.5,1c0.5,0.8,1.3,2.1,2.4,3.7c1.1,1.6,2.2,3.3,3.5,5.1c1.2-1.5,2.2-2.6,3-3.6
		c0.8-0.9,1.8-2.2,3.1-3.9c0.5-0.6,0.8-1.1,0.9-1.4c0.1-0.3,0.2-0.5,0.2-0.6c0-0.4-0.3-0.9-0.8-1.2c-0.6-0.4-1.7-0.6-3.3-0.7v-2.9
		h15.7v2.9c-1.3,0.2-2.5,0.6-3.8,1.3c-1.2,0.7-2.5,1.7-3.8,3.1c-2.1,2.1-3.5,3.7-4.5,4.7c-0.9,1-2.5,2.6-4.6,4.9
		c1.2,1.7,3,4.2,5.3,7.5c2.3,3.3,4.3,6,5.9,8.3c0.7,1,1.5,1.8,2.4,2.5s2.3,1.1,4.2,1.3V388z"/>
	<path class="st0" d="M687.6,353.5c2,1.8,3.4,4,4.5,6.5s1.5,5.3,1.5,8.2c0,2.9-0.5,5.7-1.5,8.3c-1,2.6-2.5,4.8-4.5,6.7
		c-2.1,2-4.6,3.5-7.5,4.5c-2.9,1.1-6.2,1.6-9.9,1.6c-3.2,0-6.2-0.5-8.9-1.4c-2.7-0.9-5.1-2.3-7.2-4.2c-2-1.8-3.6-3.9-4.7-6.5
		c-1.2-2.6-1.7-5.5-1.7-8.7c0-3.2,0.5-6,1.5-8.4c1-2.5,2.5-4.7,4.6-6.6c2-1.8,4.4-3.3,7.2-4.3c2.9-1,6.1-1.5,9.6-1.5
		c3.7,0,6.9,0.5,9.8,1.5C683.2,350.2,685.6,351.6,687.6,353.5z M677.5,380.9c0.6-1.5,1-3.3,1.3-5.4s0.4-4.6,0.4-7.4
		c0-1.8-0.1-4-0.4-6.3s-0.7-4.2-1.2-5.6c-0.6-1.7-1.5-3-2.6-3.9c-1.1-0.9-2.5-1.4-4.3-1.4c-1.9,0-3.4,0.5-4.5,1.5
		c-1.1,1-2,2.4-2.6,4c-0.6,1.5-0.9,3.3-1.1,5.3s-0.3,4.1-0.3,6.3c0,2.9,0.1,5.3,0.3,7.1c0.2,1.9,0.6,3.8,1.3,5.7
		c0.6,1.6,1.5,2.9,2.6,3.9c1.1,1,2.6,1.4,4.3,1.4c1.6,0,2.9-0.4,4.1-1.3S676.8,382.6,677.5,380.9z"/>
	<path class="st0" d="M743.8,377.2c0,2-0.5,3.7-1.4,5.1c-0.9,1.4-2.2,2.6-3.8,3.4c-1.8,0.9-3.7,1.6-5.8,2c-2.1,0.4-4.5,0.6-7.3,0.6
		c-6.7,0-11.8,0-15.5-0.1c-3.6-0.1-7.3-0.1-11.1-0.1v-2.9c0.7-0.1,1.3-0.1,2-0.2s1.2-0.2,1.7-0.4c0.8-0.3,1.4-0.7,1.7-1.3
		c0.3-0.6,0.5-1.4,0.5-2.4V356c0-0.9-0.2-1.7-0.5-2.4c-0.3-0.6-0.9-1.1-1.7-1.4c-0.7-0.2-1.3-0.3-1.9-0.4c-0.6-0.1-1.2-0.1-1.8-0.2
		v-2.9c5.5,0,10.3,0,14.3-0.1c4-0.1,8-0.1,11.9-0.1c2.2,0,4.3,0.2,6.4,0.5c2,0.3,3.8,0.8,5.3,1.5c1.5,0.7,2.7,1.6,3.6,2.8
		c0.9,1.2,1.4,2.7,1.4,4.4c0,2.6-0.9,4.7-2.6,6.2c-1.7,1.5-4.1,2.6-7.1,3.1v0.6c1.5,0.2,3,0.5,4.4,0.9c1.4,0.4,2.7,1,3.7,1.7
		c1.1,0.8,2,1.7,2.7,2.8C743.5,374.3,743.8,375.6,743.8,377.2z M728.2,358.1c0-1.3-0.2-2.4-0.6-3.3c-0.4-0.8-0.9-1.5-1.5-1.9
		c-0.7-0.5-1.4-0.8-2.3-0.9c-0.8-0.2-1.6-0.2-2.4-0.2c-0.6,0-1.2,0-1.8,0.1c-0.6,0-1.2,0.1-1.9,0.1V366h3.2c1.4,0,2.6-0.2,3.6-0.6
		c1-0.4,1.8-1,2.3-1.7c0.5-0.7,0.9-1.5,1.1-2.4C728.1,360.3,728.2,359.3,728.2,358.1z M729.7,376.6c0-2.1-0.6-3.9-1.9-5.2
		c-1.3-1.4-3.3-2.1-6-2.1c-1.1,0-1.9,0-2.5,0.1c-0.6,0.1-1.1,0.1-1.6,0.1v12.6c0,1.1,0.3,1.9,1,2.4s1.7,0.9,3.2,0.9
		c1.5,0,2.8-0.3,3.9-0.8c1.1-0.5,1.9-1.2,2.5-2.1c0.6-0.8,0.9-1.8,1.2-2.8C729.6,378.8,729.7,377.7,729.7,376.6z"/>
	<path class="st0" d="M794.1,387.2c-1.2,0.5-2.5,1-4.1,1.4c-1.6,0.4-3.3,0.6-5,0.6c-3.2,0-5.6-0.5-7.1-1.4c-1.5-1-2.6-2.3-3.1-4.1
		h-0.2c-0.9,0.9-1.8,1.7-2.6,2.3c-0.8,0.6-1.7,1.2-2.7,1.6c-1.2,0.6-2.4,1-3.6,1.3c-1.1,0.3-2.8,0.4-4.8,0.4c-3.1,0-5.7-0.9-7.8-2.7
		c-2.2-1.8-3.2-4.2-3.2-7.2c0-1.7,0.2-3.2,0.7-4.4c0.5-1.2,1.1-2.3,2-3.2c0.8-0.8,1.7-1.5,2.8-2.1c1-0.6,2.2-1.1,3.4-1.5
		c2.4-0.9,5.2-1.8,8.6-2.7c3.3-0.9,5.8-1.8,7.3-2.5v-3.8c0-0.7-0.1-1.5-0.2-2.6c-0.1-1.1-0.3-2-0.7-2.7c-0.4-0.8-1-1.6-1.7-2.1
		c-0.8-0.6-1.8-0.9-3.1-0.9c-1.2,0-2.1,0.2-2.9,0.5c-0.8,0.3-1.4,0.7-1.9,1c0.1,0.5,0.3,1.3,0.7,2.4c0.4,1.1,0.6,2.1,0.6,3.1
		c0,0.4-0.1,1-0.4,1.7c-0.2,0.7-0.6,1.2-1,1.6c-0.6,0.5-1.3,0.9-2,1.2c-0.8,0.3-1.9,0.4-3.5,0.4c-2.2,0-3.9-0.5-5-1.6
		s-1.7-2.5-1.7-4.2c0-1.5,0.6-2.8,1.8-4c1.2-1.2,2.6-2.1,4.3-2.9c1.7-0.8,3.6-1.4,5.7-1.8c2.2-0.4,4.2-0.7,6-0.7
		c2.6,0,4.9,0.2,7,0.5c2.1,0.3,4.1,0.9,5.8,1.9c1.6,0.9,2.9,2.3,3.9,4c1,1.8,1.4,4,1.4,6.9c0,3-0.1,6.5-0.2,10.6
		c-0.1,4.1-0.2,6.8-0.2,8.1c0,1.2,0.2,2.1,0.5,2.8c0.4,0.7,0.9,1.2,1.6,1.5c0.4,0.2,1.2,0.3,2.1,0.4c1,0,1.8,0.1,2.6,0.1V387.2z
		 M774.5,366.6c-1.5,0.5-3,1.1-4.4,1.7s-2.6,1.3-3.6,2c-1,0.7-1.7,1.7-2.3,2.8c-0.6,1.2-0.8,2.5-0.8,4.1c0,2.1,0.5,3.6,1.4,4.5
		c0.9,0.9,2.1,1.4,3.5,1.4c1.5,0,2.7-0.3,3.6-0.9s1.8-1.3,2.5-2.2L774.5,366.6z"/>
	<path class="st0" d="M849.9,388h-24.1v-2.9c0.4-0.1,1-0.2,1.7-0.3c0.7-0.1,1.3-0.3,1.8-0.7c0.6-0.4,1.1-0.8,1.3-1.4
		c0.3-0.5,0.4-1.3,0.4-2.4v-11.4h-14.8v11.4c0,0.9,0.1,1.7,0.4,2.3s0.7,1.1,1.3,1.4c0.4,0.2,0.9,0.4,1.6,0.6
		c0.6,0.2,1.2,0.3,1.9,0.4v2.9h-24.1v-2.9c0.7-0.1,1.3-0.1,2-0.2s1.2-0.2,1.7-0.4c0.8-0.3,1.4-0.7,1.7-1.3c0.3-0.6,0.5-1.4,0.5-2.4
		V356c0-0.9-0.2-1.7-0.5-2.4c-0.3-0.6-0.9-1.1-1.7-1.4c-0.7-0.2-1.3-0.3-1.9-0.4c-0.6-0.1-1.2-0.1-1.8-0.2v-2.9h24.1v2.9
		c-0.6,0.1-1.2,0.2-1.8,0.3c-0.5,0.1-1.1,0.3-1.7,0.7c-0.6,0.3-1.1,0.8-1.3,1.5c-0.3,0.6-0.4,1.4-0.4,2.3v9.1H831v-9.1
		c0-0.9-0.1-1.6-0.4-2.2c-0.2-0.6-0.7-1.1-1.3-1.5c-0.5-0.3-1.1-0.5-1.7-0.6c-0.6-0.1-1.2-0.2-1.7-0.3v-2.9h24.1v2.9
		c-0.8,0.1-1.5,0.1-2,0.2s-1.1,0.2-1.7,0.4c-0.8,0.2-1.3,0.7-1.7,1.3c-0.4,0.6-0.5,1.4-0.5,2.4v24.8c0,1,0.2,1.7,0.5,2.4
		s0.9,1.1,1.7,1.3c0.6,0.2,1.2,0.3,1.7,0.4s1.2,0.1,2,0.2V388z"/>
	<path class="st0" d="M908,388h-23.9v-2.9c0.4-0.1,1-0.2,1.7-0.3c0.7-0.1,1.3-0.3,1.8-0.7c0.6-0.4,1.1-0.8,1.3-1.4
		c0.3-0.5,0.4-1.3,0.4-2.4v-18.6l-15.8,18.7v0.1c0,1,0.1,1.7,0.4,2.3c0.3,0.6,0.7,1,1.3,1.4c0.4,0.2,1,0.4,1.6,0.5
		c0.6,0.1,1.3,0.2,2,0.3v2.9h-23.9v-2.9c0.7-0.1,1.3-0.1,2-0.2s1.2-0.2,1.7-0.4c0.8-0.3,1.4-0.7,1.7-1.3c0.3-0.6,0.5-1.4,0.5-2.4
		V356c0-0.9-0.2-1.7-0.5-2.4c-0.3-0.6-0.9-1.1-1.7-1.4c-0.7-0.2-1.3-0.3-1.9-0.4c-0.6-0.1-1.2-0.1-1.8-0.2v-2.9h23.9v2.9
		c-0.6,0.1-1.2,0.2-1.8,0.3c-0.5,0.1-1.1,0.3-1.7,0.7c-0.6,0.3-1.1,0.8-1.3,1.5c-0.3,0.6-0.4,1.4-0.4,2.3V375l15.8-18.7v-0.1
		c0-0.9-0.1-1.7-0.4-2.3s-0.7-1-1.3-1.4c-0.5-0.3-1.1-0.5-1.8-0.6c-0.7-0.1-1.3-0.2-1.8-0.3v-2.9H908v2.9c-0.8,0.1-1.5,0.1-2,0.2
		c-0.5,0.1-1.1,0.2-1.7,0.4c-0.8,0.2-1.3,0.7-1.7,1.3c-0.4,0.6-0.5,1.4-0.5,2.4v24.8c0,1,0.2,1.7,0.5,2.4c0.3,0.6,0.9,1.1,1.7,1.3
		c0.6,0.2,1.2,0.3,1.7,0.4s1.2,0.1,2,0.2V388z"/>
	<path class="st0" d="M955.3,378.6c-0.9,1.5-2,2.9-3.3,4.3c-1.3,1.3-2.8,2.5-4.5,3.4c-1.8,1-3.6,1.8-5.4,2.3
		c-1.8,0.5-3.9,0.8-6.2,0.8c-3.9,0-7.3-0.6-10.1-1.7c-2.8-1.1-5.2-2.6-7-4.5c-1.8-1.9-3.2-4.1-4.1-6.6c-0.9-2.5-1.4-5.3-1.4-8.3
		c0-2.7,0.5-5.3,1.5-7.7c1-2.5,2.4-4.7,4.2-6.6c1.8-1.9,4.1-3.4,6.8-4.5c2.7-1.2,5.8-1.7,9.2-1.7c3.7,0,6.7,0.4,9.1,1.3
		c2.4,0.9,4.3,2.1,5.9,3.7c1.5,1.5,2.6,3.3,3.3,5.3s1,4.2,1,6.4v2.6h-26.7c0,5.4,1,9.5,3.1,12.3c2.1,2.8,5.4,4.2,9.9,4.2
		c2.5,0,4.7-0.7,6.7-2c2-1.4,3.7-3.1,5.1-5.2L955.3,378.6z M940.2,363.6c0-1.6-0.1-3.2-0.2-4.9c-0.2-1.7-0.4-3-0.8-4.1
		c-0.4-1.2-1.1-2.2-1.8-2.8s-1.8-0.9-2.9-0.9c-2,0-3.7,1-4.9,3.1c-1.2,2.1-1.9,5.3-2,9.8L940.2,363.6z"/>
</g>
</svg>
