<?xml version="1.0" encoding="utf-8"?>
<svg id="logo-ingos-colored" version="1.1"  xmlns="http://www.w3.org/2000/svg" xmlns:xlink="http://www.w3.org/1999/xlink"  viewBox="0 0 381.1 130.4" width="100%" height="100%">
        <g>
            <g>
                <path style="fill:#516AAE;" d="M128.6,4.3c6.2,0.4,7.7,7,6.6,16.4c1.5,1.7,2.9,3.7,3.9,5.8c3.2-16,0.6-25.4-9-26.4
			c-8.1-0.9-20.6,3.7-31.6,14.8h6.1C113,8,121.8,3.9,128.6,4.3"></path>
                <path style="fill:#516AAE;" d="M119.1,18.3c-11.3,0-18.3,10.3-18.3,23.1c0,14.1,7.4,23.1,18.3,23.1c11.4,0,18.3-10.3,18.3-23.1
			C137.4,27.7,130.3,18.3,119.1,18.3 M119.1,59.1c-5.6,0-8.6-8.7-8.6-17.8c0-9.1,3.1-17.8,8.6-17.8c5.4,0,8.6,8.7,8.6,17.8
			C127.7,50.4,124.8,59.1,119.1,59.1"></path>
                <polygon style="fill:#516AAE;" points="9.1,46.5 9.1,19.3 0,19.3 0,63.5 5.2,63.5 20.9,36.6 20.9,63.5 30,63.5 30,19.3 24.6,19.3
					"></polygon>
                <polygon style="fill:#516AAE;" points="60.8,38.2 49.1,38.2 49.1,19.2 40,19.2 40,63.5 49.1,63.5 49.1,43.4 60.8,43.4 60.8,63.5
			69.8,63.5 69.8,19.2 60.8,19.2 		"></polygon>
                <path style="fill:#516AAE;" d="M221,19.2h-7.5h-5.8h-5.1v6.4l1.3,0.6c2.1-1.1,5.7-2.9,8.5-2.9h0v40.2h9.7V23.3h0
			c2.9,0,6.5,1.7,8.5,3l1.2-0.6v-6.4h-5.1H221z"></path>
                <path style="fill:#516AAE;" d="M101.6,19.2h-5.1H83.2l0,0h-3.4v44.3h9.1V23.3h1.8c4.2,0,7.3,1.4,9.7,3.3l1.2-0.6V19.2z"></path>
                <path style="fill:#516AAE;" d="M274.1,19.2l-0.8,1l2.5,4.9l-12.2,38.4h6.1l3.9-12.7h10.7l3.9,12.7h10.1l-14.1-44.3H274.1z
			 M275.2,45.6l3.7-12.1l3.8,12.1H275.2z"></path>
                <path style="fill:#516AAE;" d="M248.8,18.9c-5.3,0-7.4,0.3-12.2,0.3v44.3h9.1V48.4h2.2c9,0,16.4-6,16.4-14.9
			C264.4,24.5,258,18.9,248.8,18.9 M247.2,43.6h-1.5V24h2.6c3.9,0,7,3,7,9.7C255.4,40.3,251.8,43.6,247.2,43.6"></path>
                <polygon style="fill:#516AAE;" points="330.9,63.5 319.2,40.1 330.7,19.2 324.2,19.2 316.1,34 308.7,19.2 299.1,19.2 310.6,42.1
			298.8,63.5 305.2,63.5 313.7,48.2 321.4,63.5 		"></polygon>
                <path style="fill:#516AAE;" d="M161.4,23.9c2.4,0,4.9,2.1,6,5.4h1.2l1.1-9.4c-2.1-0.8-5.6-1.6-8.8-1.6
			c-12.1,0-20.3,10.3-20.3,23.1c0,13.2,6.9,23.1,19.9,23.1c3.3,0,6.9-0.9,9.3-3.1v-9.7h-1.1c-2.1,4.3-4.7,6.3-7.6,6.3
			c-6.5,0-10.5-7.9-10.5-16.6C150.5,32.6,155.1,23.9,161.4,23.9"></path>
                <path style="fill:#516AAE;" d="M191.4,23.9c2.4,0,4.9,1.9,6,5.4h1.2l1.1-9.4c-2.1-0.8-5.6-1.6-8.9-1.6
			c-12.1,0-20.3,10.3-20.3,23.1c0,13.2,6.9,23.1,19.9,23.1c3.3,0,6.9-0.9,9.3-3.1v-9.7h-1.1c-2,4.1-4.7,6.3-7.6,6.3
			c-6.5,0-10.5-7.9-10.5-16.6C180.5,32.6,185.1,23.9,191.4,23.9"></path>
                <path style="fill:#516AAE;" d="M380.3,68.3c-3.6-3.3-11.4,1.7-16.8,7.5c-4,4.3-8.9,11.6-13,18c-5.5,4.2-12.9,9.7-15.2,11.3
			c-3,2-5,3.1-6.2,2.5c-1.4-0.7-1.9-3.6-2.1-6c1.8-0.2,3.4-0.4,5.6-1.6c3.3-1.7,5-4.9,3-7.3c-1.6-1.9-4.9-1.2-8,0.9l1.8-2.8
			c0,0,0.6-0.4,0.8-0.5c6.1-4.1,11.7-7.9,15-10.7c4.2-3.6,8.9-8.4,6.3-11.1c-3.3-3.5-11.6,1.8-17,7.5c-3.9,4.2-8.6,11.3-12.5,17.6
			c-6.2,4.2-18.1,12.3-19.7,13.5c-1.6,1.2-2.4,0.2-1.3-1.6c0.6-0.9,1.4-2.2,2.1-3.5c0,0,2.9-4.6,4.7-7.3v0l0.9-1.4
			c0.1-0.1,0.2-0.3,0.2-0.4l0.7-1.1h-5.8l-1.3,2.1h0c-0.2,0.2-0.3,0.4-0.3,0.4c-0.4-0.8-0.9-1.5-1.6-2c-2.5-1.8-7.9-1-12.1,2.6
			c-4.3,3.2-15,11.2-17,12.3c-2.3,1.3-4.4-0.4-2.3-3.6c0.6-0.9,4.9-4.7,8.1-7.3c0,0-1.5-1.9-1.5-1.9c-3.7,2-6.9,0.9-7.6-1.6
			c0.1-0.1,1.6-1.4,1.6-1.4s-2.4-3.4-2.4-3.4c-2.9,1.2-3.3,3.7-3.2,5.1c-5.7,4.6-16,12.5-17.8,13.8c-1.3,0.9-2.2,0.2-1.2-1.3
			c0.2-0.4,13.1-20.9,14-22.1h14.9l2.2-3.7l-14.9,0c2.6-4.2,7.3-11.6,7.3-11.6h-5.8c0,0-3.8,6.1-7.3,11.6l-56.1,0l-2.2,3.7h56
			c-1.6,2.6-3.3,5.3-4.9,7.7l-17,8c0-1.5,0.1-2.6,0.6-4c0.3-0.8,0.8-1.4,1.3-1.9l1.3-1.1l-3.8-3L211.5,99c0-1.5,0.2-2.6,0.6-4
			c0.3-0.8,0.7-1.4,1.2-1.9l1.3-1.1l-3.8-3.1c0,0-15,9.3-21.5,13.4c3.1-5.3,2.6-9.2,1-10.7c-2.3-2-7-1-11,2.3l-18.5,11.7l8.7-14
			h-5.7c0,0-1.2,2-1.5,2.5c-0.2-0.7-0.6-1.4-1.2-1.8c-3-2.3-8.3-1.5-12.5,2.1c-2.6,1.9-15.3,11.2-17.4,12.7
			c-2.1,1.6-3.1,0.4-1.7-1.7c1.5-2.2,3.8-5.9,4.9-7.7c1.4-2.3,1.1-5.2-0.6-6.1c-1.8-0.8-4.7-0.8-8.8,2.1c-0.7,0.4-1,0.7-1.6,1.2
			c0.3-0.6,2.3-4.4,2.3-4.4l-2.2,0.3c-0.1,0-0.2,0-0.2,0c-4.1,0.6-7.3,1.1-12.2,1.2c-0.3,0-0.6,0-1,0c5.1-6.3,9.9-13.9,14.2-22.7
			c-1.9,0.5-3.9,0.7-6.1,0.7c-0.1,0-0.1,0-0.1,0c-4.5,8.5-9.6,15.8-14.8,21.7c-8.5-1-18.8-5.5-20.5-23.7h-5
			c0.9,14.9,8.6,24.4,22.9,26.4c-11.6,11.7-17.9,14.1-26.5,14.1c-8.6,0-13.9-6.9-13.9-18h-6.2c0,13,6.7,21.5,19.8,21.7
			c11,0,23.2-5.5,33.7-17.4c0.5,0,0.9,0,1.4,0c3-0.1,5.9-0.3,9.1-0.7c-0.5,1-1.3,2.1-2.5,4.1c-1.5,2.3-7.8,12.2-7.8,12.2l5.8,0
			c0,0,2.7-4.3,4.3-6.8c1.9-2.9,4.2-5,5.7-6.3c3-2.6,5.5-3.7,6.2-3.5c0.5,0.1,1,1.1-0.1,2.6c-1.1,1.6-4.2,5.7-5.6,8.4
			c-1.3,2.3-1.1,5.4,1.9,6c2.4,0.5,4.6-0.9,7.3-2.8c1.5-1.1,6.7-4.9,10.9-8.1c-1.7,3.9-1.4,7.9,1,9.7c2.2,1.6,5,1,8.3-1.2
			c-0.3,0.6-0.6,1.3-1,2c-5.2,3.1-8.3,4.7-13.4,9c-3.8,3.2-5.4,7.3-3.1,9.6c3.5,3.5,9.8-1.2,14.5-7.9c1.8-2.6,7.6-11.6,7.6-11.6
			l16.7-10.4c-2,4.1-1.8,8.3,0.7,10.4c2.6,2.1,6,1.1,9.3-1.9l22.1-14c-0.1,0.4-0.2,0.6-0.2,1.1c0,2.1,0.3,3.6,0.4,6.1
			c0,0-4,2.1-5.3,2.7c-1.8,0.8-3.6,2.4-3.4,4.6c0.2,2.1,1.9,3.5,4.5,3.5c3.9,0,8.4-2.7,8.7-10.2v-0.5l15.7-8
			c-0.2,0.4-0.4,0.9-0.4,1.8c-0.1,2.1,0.2,3.6,0.3,6.1c0,0-4,2.1-5.3,2.7c-1.8,0.8-3.6,2.4-3.4,4.6c0.1,2.1,1.9,3.5,4.5,3.5
			c3.8,0,8.4-2.7,8.7-10.2v-0.5l15-7.1c-2.6,4.1-4.5,7-4.5,7c-0.2,0.3-0.6,1-0.9,1.4c-2.8,5-2.1,8.3,1,8.3c2.5,0,4.3-1.3,7-3.3
			c1.8-1.3,10.3-8.3,15.7-12.7c1.2,2,3.7,2.8,7,2.2c-4.3,3-5.9,4.1-7.9,6.5c-0.9,1-1.4,2-1.4,3.1c0,2.6,1.5,4.2,4.4,4.2
			c2.5,0,4.3-1.2,7-3.1c1.5-1.1,6.3-4.6,10.5-7.7c-1.6,3.8-1.3,7.7,1.1,9.7c2.4,1.9,7.4-0.3,9.9-3.3c-0.4,2.5,0.3,4.4,2.4,4.4
			c2.4,0,4.3-1.3,7-3.3c1.5-1.1,8.5-5.9,14.3-9.8c-1.1,1.7-7.2,11.3-7.5,11.8c0,0-0.1,0.1-0.1,0.1l-0.5,0.7h0.8c0,0,0,0,0.1,0h4.1
			c0,0,0,0,0,0h0.7l0.9-1.5c1.2-1.9,4.5-7,4.5-7c0.4,3.5,1.4,8.6,4.3,9.1c3.2,0.6,5.8-1.3,8.8-3.3c2.2-1.5,7.2-5.3,11.8-8.9
			c-1.9,3-6.4,10-6.7,10.5c-0.1,0.1-0.1,0.2-0.2,0.2l-0.5,0.8h0.9c0,0,0,0,0,0h3.8c0,0,0,0,0,0h0.9l0.6-0.9c0,0,0.1-0.1,0.1-0.1
			c0.1-0.2,0.6-1,1.3-2.1l0.1-0.2l0,0c1.4-2.3,3.4-5.5,3.4-5.5c1.5-1.6,2.9-3.1,4.1-4.2c2.7-2.6,4.7-3.7,5.4-3.6
			c0.5,0.1,0.3,1.1-0.7,2.6c-1.1,1.6-4.2,5.7-5.7,8.4c-1.3,2.3-1.7,5.1,1.3,5.9c2.4,0.5,5.2-1,7.9-2.8c1.3-0.8,3.9-2.7,4.9-3.7
			c0,0-1.4-1.7-1.4-1.7c-1.8,1.6-4.5,3.4-5.8,4.2c-2.3,1.3-3,0.7-1.6-1.5c1.4-2.2,3.8-5.9,4.9-7.7c1.4-2.3,1.9-5.2,0.1-6.1
			c-1.7-0.8-4.9,0.1-8.6,3.1c-0.2,0.2-0.6,0.5-0.8,0.7l2.9-4.5c0.2-0.1,0.3-0.2,0.5-0.3c5.9-4.1,12.2-8.1,15.4-11
			C377.2,76.5,383.3,71,380.3,68.3 M337.7,78.9c3.6-4.5,9.8-11.1,12-9c1.2,1.1-0.4,3.5-6.6,8.5c-3.7,3-8,6.2-11.7,8.4
			C333.3,84.5,336.1,80.9,337.7,78.9 M147.7,120c-2.3,4-6.5,8.7-9,7.3c-1.4-0.8-0.2-3.7,4.2-7.6c2.4-2,7.8-5.4,7.8-5.4
			C149.6,116.4,148.5,118.5,147.7,120 M157,101.5c-3.3,5.6-7.2,7.5-8.5,6.5c-1.4-1-0.2-4.8,2.8-8.9c3-4.1,6.1-6.1,7.6-5.4
			C161,94.6,159.6,97.1,157,101.5 M185.9,102.7c-3.1,4.1-6.1,6.1-7.5,5c-1.3-1,0.1-4.6,3.2-8.7c3.1-4.1,5.5-6.1,6.9-5.1
			C189.9,94.9,189,98.6,185.9,102.7 M202.7,109.7c-1.3,0-2-0.7-2-1.6c-0.1-1,0.4-1.6,1.3-2.1c0.6-0.3,4.9-2.6,4.9-2.6
			C206.6,108.3,204.5,109.7,202.7,109.7 M222.8,109.7c-1.2,0-1.9-0.7-2-1.6c-0.1-1,0.4-1.6,1.3-2.1c0.6-0.3,4.9-2.6,4.9-2.6
			C226.7,108.3,224.7,109.7,222.8,109.7 M297.3,101.6c-2.8,4.9-6.8,7-8.2,6c-1.3-1-0.6-4.1,2.4-8.3c2.9-4.3,5.7-6.3,7.6-5.5
			C301.1,94.6,300.5,96.3,297.3,101.6 M323.9,99.5c0.6-1.2,2.1-2.7,3.6-3.9c1.5-1.2,4.4-2.6,5.1-1.3c0.8,1.4-0.3,3.7-3.1,4.7
			C327.7,99.7,325.5,99.8,323.9,99.5 M371.7,78.5c-3.7,3-8.2,6-10.9,7.8c2.1-2.9,4-5.4,5.7-7.4c3.6-4.5,10-11,12.1-8.9
			C379.5,70.9,377.9,73.5,371.7,78.5"></path>
            </g>
        </g>
    </svg>