<?xml version="1.0" encoding="utf-8"?>
<!-- Generator: Adobe Illustrator 22.0.0, SVG Export Plug-In . SVG Version: 6.00 Build 0)  -->
<svg version="1.1" xmlns="http://www.w3.org/2000/svg" xmlns:xlink="http://www.w3.org/1999/xlink" x="0px" y="0px"
	 viewBox="0 0 247.1 72.5" style="enable-background:new 0 0 247.1 72.5;" xml:space="preserve">
<style type="text/css">
	.st0{fill-rule:evenodd;clip-rule:evenodd;fill:#D3DADE;}
	.st1{fill:#FFFFFF;}
	.st2{fill-rule:evenodd;clip-rule:evenodd;fill:#FFE710;}
	.st3{fill-rule:evenodd;clip-rule:evenodd;}
</style>
<g id="Layer_1">
</g>
<g id="Layer_2">
	<g>
		<g>
			<g>
				<path d="M119,30c0.3-0.4,0.5-0.8,0.8-1.3h0.2v9.4h4.2V22.3H120l-4.8,7.2c-0.3,0.4-0.5,0.8-0.8,1.2c-0.3,0.4-0.5,0.8-0.8,1.2
					h-0.2v-9.7h-4.2v15.9h4.2c0.8-1.1,1.6-2.2,2.3-3.4c0.8-1.2,1.5-2.3,2.3-3.4C118.5,30.9,118.7,30.5,119,30"/>
				<polygon points="132.5,31.6 138.8,31.6 138.8,38.1 143.1,38.1 143.1,22.3 138.8,22.3 138.8,28.3 132.5,28.3 132.5,22.3 
					128.3,22.3 128.3,38.1 132.5,38.1 				"/>
				<path d="M160.6,33.1c0-1.6-0.6-2.9-1.7-3.8c-1.1-0.9-2.6-1.3-4.5-1.3h-3.1v-5.6h-4.2v15.9h7.5c1.8,0,3.3-0.4,4.4-1.2
					C160.1,36.1,160.6,34.8,160.6,33.1 M155.7,34.5c-0.4,0.3-1,0.5-1.7,0.5h-2.7v-3.9h2.7c0.7,0,1.3,0.2,1.7,0.5
					c0.4,0.3,0.6,0.8,0.6,1.5C156.4,33.7,156.2,34.2,155.7,34.5"/>
				<path d="M215.3,36.1c0.7-0.7,1.3-1.6,1.8-2.6c0.4-1,0.7-2.1,0.7-3.4c0-1.2-0.2-2.3-0.6-3.2c-0.4-1-1-1.8-1.7-2.5
					c-0.7-0.7-1.6-1.3-2.7-1.7c-1-0.4-2.1-0.6-3.3-0.7v-6l-4,1.5V22c-1.2,0.1-2.3,0.3-3.3,0.7c-1,0.4-1.9,1-2.7,1.7
					c-0.8,0.7-1.4,1.5-1.8,2.5c-0.4,1-0.7,2-0.7,3.2c0,1.3,0.2,2.4,0.6,3.4c0.4,1,1,1.9,1.7,2.6c0.7,0.7,1.6,1.3,2.7,1.7
					c1,0.4,2.2,0.6,3.5,0.7v6.7l4-1.5v-5.2c1.2-0.1,2.3-0.3,3.3-0.7C213.7,37.4,214.5,36.8,215.3,36.1 M205.3,35.4
					c-0.6,0-1.2-0.2-1.7-0.4c-0.5-0.2-1-0.6-1.4-1c-0.4-0.4-0.7-1-1-1.6c-0.2-0.6-0.4-1.3-0.4-2.2c0-1.4,0.4-2.5,1.2-3.5
					c0.8-0.9,1.9-1.5,3.3-1.6V35.4z M210.9,35c-0.5,0.2-1.1,0.4-1.6,0.4V25.1c1.4,0.1,2.5,0.6,3.2,1.6c0.8,0.9,1.1,2.1,1.1,3.5
					c0,0.8-0.1,1.6-0.4,2.2c-0.2,0.6-0.6,1.2-1,1.6C211.9,34.4,211.5,34.7,210.9,35"/>
				<path d="M240.1,33.5c0.4-1,0.6-2.1,0.6-3.4c0-1.2-0.2-2.3-0.6-3.2c-0.4-1-1-1.8-1.8-2.5c-0.7-0.7-1.6-1.3-2.7-1.7
					c-1-0.4-2.2-0.6-3.3-0.7v-6l-4,1.5V22c-1.2,0.1-2.3,0.3-3.3,0.7c-1,0.4-1.9,1-2.7,1.7c-0.8,0.7-1.4,1.5-1.8,2.5
					c-0.4,1-0.7,2-0.7,3.2c0,1.3,0.2,2.4,0.6,3.4c0.4,1,1,1.9,1.7,2.6c0.7,0.7,1.6,1.3,2.7,1.7c1,0.4,2.2,0.6,3.5,0.7v6.7l4-1.5
					v-5.2c1.2-0.1,2.3-0.3,3.3-0.7c1-0.4,1.9-1,2.6-1.7C239.1,35.4,239.7,34.5,240.1,33.5 M228.4,35.4c-0.6,0-1.2-0.2-1.7-0.4
					c-0.5-0.2-1-0.6-1.4-1c-0.4-0.4-0.7-1-1-1.6c-0.2-0.6-0.4-1.3-0.4-2.2c0-1.4,0.4-2.5,1.2-3.5c0.8-0.9,1.9-1.5,3.3-1.6V35.4z
					 M236.4,32.4c-0.2,0.6-0.6,1.2-1,1.6c-0.4,0.4-0.9,0.8-1.4,1c-0.5,0.2-1.1,0.4-1.6,0.4V25.1c1.4,0.1,2.5,0.6,3.2,1.6
					c0.8,0.9,1.1,2.1,1.1,3.5C236.7,31,236.6,31.7,236.4,32.4"/>
				<polygon points="92,19.2 98.2,19.2 98.2,38.2 102.6,38.2 102.6,19.2 108.6,19.2 108.6,15.5 92,15.5 				"/>
				<polygon points="178.3,22.4 173.5,22.4 167.8,29.1 167.8,22.3 163.6,22.3 163.6,38.2 167.8,38.2 167.8,30.4 173.3,38.2 
					178.3,38.2 172.1,29.7 				"/>
				<path d="M192.5,24.2c-0.7-0.7-1.5-1.3-2.5-1.6c-1-0.4-2-0.6-3.1-0.6c-1.1,0-2.2,0.2-3.1,0.6c-1,0.4-1.8,0.9-2.5,1.6
					c-0.7,0.7-1.2,1.6-1.6,2.6c-0.4,1-0.6,2.2-0.6,3.5c0,1.3,0.2,2.4,0.6,3.4c0.4,1,0.9,1.9,1.6,2.6c0.7,0.7,1.5,1.3,2.4,1.7
					c0.9,0.4,2,0.6,3.2,0.6c1.1,0,2.2-0.2,3.1-0.6c1-0.4,1.8-0.9,2.5-1.6c0.7-0.7,1.2-1.6,1.6-2.6c0.4-1,0.6-2.2,0.6-3.5
					c0-1.3-0.2-2.4-0.6-3.4C193.7,25.8,193.1,24.9,192.5,24.2 M190.1,32.2c-0.2,0.6-0.4,1.1-0.7,1.5c-0.3,0.4-0.7,0.8-1.1,1
					c-0.4,0.2-0.9,0.4-1.5,0.4c-1.1,0-2-0.4-2.6-1.3c-0.6-0.9-0.9-2.1-0.9-3.6c0-1.4,0.3-2.5,0.9-3.4c0.6-0.9,1.4-1.4,2.6-1.4
					c1.2,0,2.1,0.5,2.7,1.3c0.6,0.9,0.9,2.1,0.9,3.5C190.4,30.9,190.3,31.6,190.1,32.2"/>
			</g>
			<g>
				<path d="M102.9,46.5c1,0,2,0.2,2.8,0.5c0.8,0.3,1.5,0.9,2.1,1.6l-1.3,1.3c-0.5-0.6-1.1-1-1.7-1.3c-0.6-0.3-1.2-0.4-2-0.4
					c-0.7,0-1.4,0.2-2,0.5c-0.6,0.3-1.1,0.7-1.4,1.3c-0.4,0.6-0.7,1.2-0.9,2c-0.2,0.8-0.3,1.6-0.3,2.5c0,0.9,0.1,1.7,0.3,2.5
					c0.2,0.8,0.5,1.5,0.9,2c0.4,0.6,0.9,1,1.5,1.3c0.6,0.3,1.3,0.5,2,0.5c1.4,0,2.6-0.6,3.7-1.8l1.3,1.2c-0.6,0.7-1.3,1.3-2.1,1.7
					c-0.8,0.4-1.7,0.6-2.9,0.6c-0.9,0-1.8-0.2-2.6-0.5c-0.8-0.4-1.5-0.9-2.1-1.6c-0.6-0.7-1-1.5-1.3-2.5c-0.3-1-0.5-2.1-0.5-3.3
					c0-1.2,0.2-2.3,0.5-3.3c0.3-1,0.8-1.8,1.3-2.5c0.6-0.7,1.3-1.2,2.1-1.6C101,46.7,101.9,46.5,102.9,46.5z"/>
				<path d="M114.1,52.1v10.2h-1.7V52.1h-3.7v-1.4h9.1v1.4H114.1z"/>
				<path d="M128.9,56.3c0,1.1-0.1,2-0.4,2.8c-0.3,0.8-0.6,1.4-1.1,1.9c-0.5,0.5-1,0.8-1.5,1.1c-0.6,0.2-1.1,0.3-1.7,0.3
					c-0.6,0-1.1-0.1-1.6-0.3c-0.5-0.2-1-0.5-1.5-1h0V66l-1.7,0.8V50.6h1.7v1.2h0c0.5-0.5,1.1-0.9,1.7-1.1c0.6-0.2,1.1-0.3,1.7-0.3
					c0.6,0,1.1,0.1,1.6,0.3c0.5,0.2,1,0.6,1.4,1.1c0.4,0.5,0.7,1.1,1,1.8C128.7,54.4,128.9,55.3,128.9,56.3z M127.2,56.3
					c0-1.4-0.3-2.5-0.9-3.3c-0.6-0.8-1.3-1.2-2.2-1.2c-0.7,0-1.2,0.2-1.8,0.5c-0.5,0.3-0.9,0.7-1.3,1.1v5.9c0.3,0.4,0.7,0.8,1.3,1.1
					s1.1,0.5,1.6,0.5c1,0,1.8-0.4,2.4-1.2C126.9,59,127.2,57.8,127.2,56.3z"/>
				<path d="M135.8,50.4c1.3,0,2.4,0.3,3.1,0.9c0.7,0.6,1.1,1.6,1.1,2.8v8h-1.7v-1.1h0c-0.6,0.6-1.2,0.9-1.8,1.1
					c-0.6,0.2-1.2,0.3-1.7,0.3c-0.5,0-0.9-0.1-1.4-0.2c-0.5-0.1-0.9-0.3-1.2-0.6c-0.4-0.3-0.7-0.7-0.9-1.1c-0.2-0.5-0.3-1-0.3-1.7
					c0-0.6,0.1-1.1,0.3-1.5c0.2-0.5,0.5-0.8,0.9-1.2c0.4-0.3,0.8-0.6,1.4-0.7c0.5-0.2,1.1-0.3,1.7-0.3c0.5,0,1,0.1,1.5,0.2
					c0.5,0.1,1.1,0.3,1.6,0.6v-1.4c0-0.9-0.2-1.5-0.7-2c-0.4-0.4-1.1-0.6-2-0.6c-0.6,0-1.1,0.1-1.6,0.2c-0.5,0.1-1,0.3-1.5,0.6
					l-0.6-1.3c0.6-0.3,1.1-0.5,1.8-0.6C134.3,50.5,135,50.4,135.8,50.4z M138.3,57.3c-0.5-0.3-0.9-0.5-1.4-0.6
					c-0.5-0.2-1-0.2-1.7-0.2c-0.8,0-1.4,0.2-1.9,0.6c-0.5,0.4-0.8,1-0.8,1.7c0,0.8,0.2,1.3,0.7,1.7c0.4,0.4,1.1,0.6,1.9,0.6
					c0.6,0,1.2-0.2,1.8-0.5c0.6-0.3,1.1-0.7,1.5-1.1V57.3z"/>
				<path d="M148.8,62.2l-2.6-4.6l-2.6,4.6h-1.9l3.6-6l-3.3-5.6h1.9l2.4,4.2l2.4-4.2h1.9l-3.4,5.5l3.6,6.1H148.8z"/>
				<path d="M162.1,56.4c0,1-0.1,1.8-0.4,2.6c-0.3,0.8-0.6,1.4-1.1,1.9c-0.5,0.5-1,0.9-1.6,1.2c-0.6,0.3-1.3,0.4-2,0.4
					c-0.7,0-1.4-0.1-2-0.4c-0.6-0.3-1.1-0.7-1.6-1.2c-0.4-0.5-0.8-1.2-1-1.9c-0.2-0.7-0.4-1.6-0.4-2.5c0-1,0.1-1.8,0.4-2.6
					c0.3-0.8,0.6-1.4,1.1-1.9c0.5-0.5,1-0.9,1.6-1.2c0.6-0.3,1.3-0.4,2-0.4s1.4,0.1,2,0.4c0.6,0.3,1.2,0.7,1.6,1.2
					c0.5,0.5,0.8,1.1,1.1,1.9C161.9,54.6,162.1,55.5,162.1,56.4z M160.4,56.4c0-0.6-0.1-1.2-0.2-1.8c-0.1-0.6-0.4-1-0.6-1.4
					c-0.3-0.4-0.6-0.7-1.1-0.9c-0.4-0.2-0.9-0.3-1.5-0.3c-0.5,0-1,0.1-1.4,0.4c-0.4,0.2-0.8,0.6-1,1c-0.3,0.4-0.5,0.9-0.6,1.4
					c-0.1,0.5-0.2,1.1-0.2,1.7c0,1.4,0.3,2.5,0.9,3.3c0.6,0.8,1.4,1.2,2.5,1.2c0.6,0,1-0.1,1.5-0.4c0.4-0.2,0.8-0.6,1-1
					c0.3-0.4,0.5-0.9,0.6-1.4C160.3,57.6,160.4,57.1,160.4,56.4z"/>
				<path d="M171.4,56c0.6,0.2,1.1,0.5,1.5,1c0.4,0.5,0.6,1.1,0.6,1.8c0,1.1-0.4,2-1.1,2.6c-0.7,0.6-1.8,0.9-3,0.9h-5V50.6h5.1
					c1,0,1.9,0.2,2.5,0.7c0.7,0.5,1,1.2,1,2.2c0,0.5-0.1,1-0.4,1.4C172.3,55.4,171.9,55.7,171.4,56L171.4,56z M166.1,52.1v3.3h3.2
					c0.6,0,1.1-0.2,1.5-0.5c0.3-0.3,0.5-0.7,0.5-1.2c0-0.5-0.2-0.9-0.5-1.2c-0.3-0.3-0.8-0.4-1.4-0.4H166.1z M166.1,56.8v4h3.3
					c0.9,0,1.5-0.2,1.9-0.5c0.4-0.4,0.6-0.9,0.6-1.5c0-0.6-0.2-1.1-0.7-1.5c-0.5-0.3-1-0.5-1.7-0.5H166.1z"/>
				<path d="M180.2,50.4c1.3,0,2.4,0.3,3.1,0.9c0.7,0.6,1.1,1.6,1.1,2.8v8h-1.7v-1.1h0c-0.6,0.6-1.2,0.9-1.8,1.1
					c-0.6,0.2-1.2,0.3-1.7,0.3c-0.5,0-0.9-0.1-1.4-0.2c-0.5-0.1-0.9-0.3-1.2-0.6c-0.4-0.3-0.7-0.7-0.9-1.1c-0.2-0.5-0.3-1-0.3-1.7
					c0-0.6,0.1-1.1,0.3-1.5c0.2-0.5,0.5-0.8,0.9-1.2c0.4-0.3,0.8-0.6,1.4-0.7c0.5-0.2,1.1-0.3,1.7-0.3c0.5,0,1,0.1,1.5,0.2
					c0.5,0.1,1.1,0.3,1.6,0.6v-1.4c0-0.9-0.2-1.5-0.7-2c-0.4-0.4-1.1-0.6-2-0.6c-0.6,0-1.1,0.1-1.6,0.2c-0.5,0.1-1,0.3-1.5,0.6
					l-0.6-1.3c0.6-0.3,1.1-0.5,1.8-0.6C178.7,50.5,179.4,50.4,180.2,50.4z M182.7,57.3c-0.5-0.3-0.9-0.5-1.4-0.6
					c-0.5-0.2-1-0.2-1.7-0.2c-0.8,0-1.4,0.2-1.9,0.6c-0.5,0.4-0.8,1-0.8,1.7c0,0.8,0.2,1.3,0.7,1.7c0.4,0.4,1.1,0.6,1.9,0.6
					c0.6,0,1.2-0.2,1.8-0.5c0.6-0.3,1.1-0.7,1.5-1.1V57.3z"/>
				<path d="M194.7,62.2v-5.3h-6.1v5.3H187V50.6h1.7v4.8h6.1v-4.8h1.7v11.6H194.7z"/>
				<path d="M206.5,53.4l-1.6,2.4l-4.3,6.4H199V50.6h1.7v8.9h0.1l1.7-2.6l4.2-6.3h1.7v11.6h-1.7L206.5,53.4L206.5,53.4z"/>
				<path d="M215.6,50.4c0.8,0,1.5,0.1,2.1,0.4c0.6,0.3,1.1,0.7,1.5,1.2c0.4,0.5,0.7,1.1,0.9,1.9c0.2,0.7,0.3,1.5,0.3,2.4v0.8h-8
					c0.1,1.3,0.4,2.3,1.1,2.9c0.6,0.7,1.4,1,2.3,1c0.5,0,1-0.1,1.5-0.3c0.5-0.2,0.9-0.5,1.3-0.8l1,1.1c-1.1,1-2.4,1.5-3.9,1.5
					c-0.6,0-1.3-0.1-1.9-0.4c-0.6-0.3-1.1-0.6-1.6-1.1c-0.5-0.5-0.8-1.1-1.1-1.9c-0.3-0.8-0.4-1.6-0.4-2.6c0-0.9,0.1-1.8,0.4-2.5
					c0.3-0.7,0.6-1.4,1-1.9c0.4-0.5,1-0.9,1.5-1.2C214.2,50.6,214.9,50.4,215.6,50.4z M218.7,55.7c0-0.5-0.1-1-0.2-1.5
					c-0.1-0.5-0.3-0.9-0.6-1.2c-0.3-0.3-0.6-0.6-1-0.8c-0.4-0.2-0.9-0.3-1.4-0.3c-0.4,0-0.8,0.1-1.2,0.3c-0.4,0.2-0.7,0.4-1,0.8
					c-0.3,0.3-0.5,0.7-0.7,1.2c-0.2,0.5-0.3,1-0.3,1.6H218.7z"/>
			</g>
		</g>
		<g>
			<g>
				<g>
					<g>
						<path class="st0" d="M27.6,52.7c1-0.8,1.9-1.2,1.8-3.2c-1.5,0.8-5.9,0.7-7.7-1.8c-0.5-0.7,0-1.1,0.5-0.5
							c1.2,1.4,3.6,0.8,4.4,0.4c-0.1-0.5-0.5-1.1-0.8-1.4c0.3-0.3,1.2-0.8,1.4-1.6c-0.5-0.3-2.3-0.4-2.3-0.4
							c0.3-0.3,0.7-0.7,0.4-1.7c-1.9,0.6-4.2-0.2-4.8-0.9c-0.5-0.7,0-1.3,0.4-0.9c0.9,1,5.6,2.1,7.3,0.4c-0.6-0.2-1.3-0.8-1.5-1.1
							c1.6-0.2,2.9-1.1,3-2.3c-0.9,0-2.6-0.1-3.1-0.5c0.8-0.3,1.2-0.6,1.5-1.4C25.3,35.6,25,33.4,25,33c1.9,1.1,5.3,0.6,4.4-2.1
							c-1.6-0.1-3.2-2.6,1.2-5c4-2.1,8.5-4.5,8.1-8.3c-0.3-2.4-4.3-4.1-4.8-5.3c-1.7,0.8-2,1.7-1.3,3.3c0,0-3.7,0.4-4-1.9
							c-0.1-1,0.6-2,1.3-2.7c-0.4,0-3.2-0.8-4.1,1.5c-1.6-1.1-2.9-1-4,0.1c1.7,1,2.7,4.4,5.5,5.5c-2,1.1-5.2,0.6-7.1-2.7
							c-1.8,2.7-2.8,5.3,1,8.2c-6.9,3.2-6.9,9.2-12.9,12.1c0.6,1.6,1.9,1.6,3.5,1.4c-2.6,3.4-0.4,6.9-4.5,8.4
							c0.4,1.4,1.2,2.5,2.7,2.1c-0.4,0.7-0.7,0.7-1.4,1.4c2.3,1.4,4.9,0.4,5.5-4.2c0.1-0.8,1.2-0.3,0.8,0.5
							c-2.6,5.3,3.9,9.3,1.6,13.2c2-0.1,3.6-0.2,4.4-0.9c0.4,0.8,0.7,1.6,0.6,2.4c1.1-0.2,1.5-0.9,1.6-1.6c0.7,2.1,3.4,4.4,7.6,4.4
							C28.7,59.5,30.7,56.3,27.6,52.7 M23.4,56.6l-0.9,1.5c-0.3-1-0.9-2-1.3-2.8c-0.7,1.5-1.9,1.5-3,1.5c0.2-3.6-4.2-7.1-2.3-11.2
							c0.4-0.8,0.1-1.8-0.7-2.2c-3-1.5-1.6,4.8-4.6,5c0.6-0.7,0.8-2.2,0.9-2.3c-0.6,0.2-2.2,1.1-2.9-0.1c1.8-1,2.3-2.4,2.5-3.8
							c0.3-1.8,0.5-2.7,0.9-3.4c0.4-0.8,1-1.5,2.2-3.1c-0.3,0-3.7,0.8-4.4,0.4c5.8-3.6,4.5-8.1,13.4-12.2c-2.3-1.7-4.7-3.1-3-6.4
							c2.4,2.9,7.1,1.9,9.6,0.6c-2.5-0.5-5.7-2.7-6.4-5.1c0.9-0.1,2.1,0.9,2.8,1.3c0.3-0.9,0.5-1.9,1.6-2.2
							c-1.4,3.1,1.4,4.7,4.1,4.7c0.4,0,2.2-0.2,2.2-0.2c-0.3-0.6-1.4-2.2-0.6-2.8c0.7,0.6,1.5,1.1,2.2,1.7c5.3,4.1-2.5,7.9-5.7,9.6
							c-5,2.7-3.7,5.9-1.6,6.8c0,0.4-0.2,0.5-0.6,0.6c-1.5,0.5-2.8-0.6-4-1.2c0.1,2-0.1,4,2.2,5.1l-1.5,0.6c1.3,1,1.7,1.5,3.3,1.7
							C27.1,39,26.2,39,25.4,39c0.2,0.6,0.4,1.3,0.8,1.8c-3.3,0.4-4.6-1.5-5.6-1.4c-2.2,0.2-2,4.2,3.3,4.2l-0.5,0.9
							c0,0,1,0.6,1.9,0.7c-0.4,0.3-0.7,0.7-1,1l0.8,0.7c-2.2,0.4-2.8-1.9-4.2-0.8c-2.1,1.7,2.6,5.3,7.1,4.7
							c-0.4,0.5-1.4,1.2-1.9,1.6c3.7,3.5,1.9,6.8,3.4,9.2C26.3,61.5,24,59.1,23.4,56.6"/>
						<path class="st0" d="M17.6,43.9c0.8,0.8,1.7,0.9,3.5,0.8c-1.9-0.2-3-0.7-3.7-2c-0.1-0.7-0.2-1.4-0.2-2.1c-0.1-2,0.6-4.5,2-7.1
							c0,1.7,1.3,4.3,4.3,4.7c-2.6-1.2-4.2-3.8-3.4-6.3c0.6-0.9,1.2-1.8,1.9-2.7c0.4-0.4,0.7-0.9,1-1.3c-0.4,1.3,1.2,2.6,2.2,2.8
							c-0.6-0.6-1.8-2.3,1-5.3c-0.8,0.4-1.6,0.9-2.3,1.4c5.1-5.5,9.3-5.6,11.2-8.4c-2.8,1.9-10.1,2.9-13.5,2
							c1.8,1.2,6.2,1.1,7.3,0.9c-3.6,3.5-11.4,7.1-12.8,10.3c1.9-2.1,3.1-2.5,4.8-3c-1.3,1.9-2.5,3.7-3.3,5.6
							c-2.1,4.5-4.9,4.6-5.1,8.3c1-2.9,2.9-3.6,4.2-5.5c-0.2,1.2-0.3,2.6-0.3,4.1c0,1.7,0.4,3.2,0.9,4.5c-0.1,1.8,0,5,2.1,7.1
							c-1.4-1.8-1.7-4.8-1.6-5.9c1.7,3.2,6.4,7.6,8.7,10.6C24.4,53.5,18.8,49,17.6,43.9"/>
						<path class="st0" d="M69.9,28.5c1.6,0.5,2.9,0.9,4.8,3c-1.4-3.2-9.2-6.8-12.8-10.3c1.1,0.2,5.5,0.3,7.3-0.9
							c-3.3,0.9-10.7-0.1-13.5-2c1.9,2.8,6.1,2.9,11.2,8.4c-0.7-0.5-1.5-1-2.3-1.4c2.8,3,1.6,4.8,1,5.3c1-0.2,2.6-1.6,2.2-2.8
							c0.3,0.4,0.7,0.8,1,1.3c0.7,0.9,1.3,1.8,1.9,2.7c0.8,2.5-0.7,5.1-3.4,6.3c2.9-0.4,4.3-3.1,4.3-4.7c1.4,2.7,2.1,5.1,2,7.1
							c0,0.8-0.1,1.5-0.2,2.1c-0.7,1.3-1.8,1.8-3.7,2c1.8,0.1,2.7,0,3.5-0.8c-1.2,5.1-6.8,9.6-9.1,13.4c2.3-3,7-7.4,8.7-10.6
							c0.1,1.2-0.2,4.1-1.6,5.9c2.1-2.1,2.3-5.2,2.1-7.1c0.5-1.3,0.9-2.8,0.9-4.5c0.1-1.6-0.1-2.9-0.3-4.1c1.3,1.9,3.3,2.6,4.2,5.5
							c-0.2-3.7-3-3.8-5.1-8.3C72.4,32.2,71.2,30.5,69.9,28.5"/>
						<path class="st0" d="M79,37c1.6,0.3,2.9,0.3,3.5-1.4c-6-2.9-6-8.9-12.9-12.1c3.8-2.8,2.8-5.5,1-8.2c-1.9,3.3-5.1,3.8-7.1,2.7
							c2.8-1,3.8-4.5,5.5-5.5c-1.1-1.1-2.4-1.2-4-0.1C64.2,10.2,61.4,11,61,11c0.7,0.7,1.4,1.7,1.3,2.7c-0.3,2.3-4,1.9-4,1.9
							c0.8-1.5,0.4-2.5-1.3-3.3c-0.5,1.2-4.5,2.9-4.8,5.3c-0.4,3.8,4.1,6.1,8.1,8.3c4.4,2.4,2.8,4.9,1.2,5c-0.9,2.7,2.5,3.2,4.4,2.1
							c0,0.4-0.2,2.5-3.2,2.7c0.2,0.9,0.7,1.1,1.5,1.4c-0.6,0.4-2.2,0.5-3.1,0.5c0.1,1.2,1.4,2.1,3,2.3c-0.1,0.4-0.8,0.9-1.5,1.1
							c1.7,1.7,6.4,0.6,7.3-0.4c0.4-0.5,1,0.2,0.4,0.9c-0.5,0.7-2.9,1.5-4.8,0.9c-0.2,1.1,0.1,1.5,0.4,1.7c0,0-1.8,0.2-2.3,0.4
							c0.2,0.8,1.1,1.3,1.4,1.6c-0.3,0.3-0.7,0.9-0.8,1.4c0.8,0.4,3.2,1,4.4-0.4c0.5-0.6,1.1-0.2,0.5,0.5c-1.8,2.5-6.2,2.5-7.7,1.8
							c0,2,0.8,2.4,1.8,3.2c-3.1,3.6-1.1,6.9-3.3,10c4.2,0,6.8-2.3,7.6-4.4c0.1,0.8,0.5,1.4,1.6,1.6c-0.1-0.8,0.2-1.6,0.6-2.4
							c0.9,0.7,2.4,0.8,4.4,0.9c-2.3-3.9,4.2-7.9,1.6-13.2c-0.4-0.8,0.7-1.3,0.8-0.5c0.6,4.6,3.3,5.6,5.5,4.2
							c-0.7-0.7-1-0.7-1.4-1.4c1.5,0.4,2.3-0.7,2.7-2.1C79.4,43.9,81.6,40.4,79,37 M79.3,46.1c0.1,0.1,0.3,1.6,0.9,2.3
							c-3-0.2-1.6-6.5-4.6-5c-0.8,0.4-1.1,1.4-0.7,2.2c2,4.1-2.5,7.6-2.3,11.2c-1.1,0-2.3,0-3-1.5c-0.4,0.7-1,1.8-1.3,2.8l-0.9-1.5
							c-0.6,2.5-2.9,4.9-6.1,5.1c1.5-2.4-0.3-5.7,3.4-9.2c-0.5-0.4-1.5-1.1-1.9-1.6c4.5,0.5,9.3-3,7.1-4.7c-1.4-1.1-2,1.2-4.2,0.8
							l0.8-0.7c-0.3-0.3-0.6-0.7-1-1c0.9-0.1,1.9-0.7,1.9-0.7L67,43.7c5.3,0,5.4-4.1,3.3-4.2c-1-0.1-2.3,1.8-5.6,1.4
							c0.4-0.5,0.6-1.3,0.8-1.8C64.7,39,63.8,39,63,38.6c1.6-0.2,2-0.7,3.3-1.7l-1.5-0.6c2.2-1.1,2.1-3.1,2.2-5.1
							c-1.2,0.7-2.5,1.7-4,1.2c-0.3-0.1-0.6-0.3-0.6-0.6c2.1-0.8,3.4-4.1-1.6-6.8c-3.2-1.7-11-5.5-5.7-9.6c0.7-0.6,1.5-1.1,2.2-1.7
							c0.8,0.6-0.3,2.2-0.6,2.8c0,0,1.8,0.2,2.2,0.2c2.7,0,5.6-1.6,4.1-4.7c1.1,0.2,1.2,1.3,1.5,2.2c0.7-0.5,1.9-1.5,2.8-1.3
							c-0.8,2.4-3.9,4.6-6.4,5.1c2.5,1.4,7.1,2.4,9.6-0.6c1.7,3.3-0.7,4.7-3,6.4c8.9,4.1,7.6,8.6,13.4,12.2
							c-0.8,0.4-4.1-0.4-4.4-0.4c1.3,1.6,1.9,2.3,2.2,3.1c0.4,0.8,0.5,1.6,0.9,3.4c0.3,1.4,0.8,2.9,2.5,3.8
							C81.5,47.2,79.9,46.2,79.3,46.1"/>
						<path class="st0" d="M36.9,56l1.3-1.1L38,54.6c-0.1-0.3-0.1-0.3,0.1-0.4l0.7-0.5c0.2-0.1,0.3-0.1,0.5-0.1l2,0.5h-2.1
							c-0.5,0-0.6,0.2-0.8,0.6l-0.1,0.3l-0.5,1.1c-0.2,0.4-0.3,0.9,0.2,1.5l0.4,0.5l-0.8,1.6h0.7l0.5-1.1c0,0,0.8-0.8,1-1.5
							c-0.2-0.2-0.4-0.3-0.3-0.6l0.2-0.5c0.1-0.2,0.1-0.2,0.3-0.2l2.1,0.5c0.3,0.1,0.6,0.2,0.9-0.2c0.3-0.4,0.3-0.4,1-0.3l1.1,0.1
							c1.5,0.1,2.9-0.2,3.5-0.7c0.2,0.5,0.6,0.8,0.8,1.2c0.1,0.1,0,0.3-0.1,0.5l-1.2,2.9h1.9l1.1-2.6c0.1-0.2,0.2-0.5,0.4-0.5
							l-0.6,3.2h1.8l0.5-3.2c0.1-0.7,0-0.9-0.3-1.2c-0.8-0.6-0.7-2-1-2.8c0.1-0.1,0.3-0.1,0.5-0.1c0.4,0,0.7,1,1.2,1.7
							c0.9,1.3,2.2,2.7,3.6,0.7c-0.1-0.2-0.3-0.4-0.5-0.6l-0.4-0.5c-0.2-0.3-1.4-1.5-1.8-2c-1.1-1.1-2.7-0.9-3.3-0.4
							c-1.5-0.8-3,0-3.4,0L45,51.1c-0.1,0-0.3,0-0.4-0.2l0.5-0.2c-0.4-1.8-1.5-3.4-3.5-3.6c0,0-0.1-0.6-0.4-0.7l-0.6,0.7
							c-0.2,0-0.3,0.1-0.5,0.1l-2.5-0.9l1.9,1.9c0,0-1,1.4-1.2,1.6c-0.2,0.3-0.2,0.5,0,0.7l0.4,0.5c0.2,0.2,0.4,0.2,0.7,0.1l0.4-0.2
							c0.2-0.1,0.8,0.1,1-0.1c-0.2,0.5-0.2,1-0.3,1.5L38.9,52c-0.4,0-0.5,0-0.8,0.2l-1.4,1.1c-0.5,0.4-0.6,1-0.3,1.6L36.9,56z
							 M50.7,56.3l-1.1,2.8h-0.7l1.1-2.7c0.1-0.3-0.1-0.5-0.4-0.9c0.4,0.2,0.7,0.4,1.2,0.6C50.8,56.2,50.7,56.2,50.7,56.3
							 M39.8,50.3l-0.3,0.2c-0.2,0.1-0.3,0.2-0.5-0.1l-0.1-0.2c-0.1-0.1-0.1-0.3,0.1-0.4l1.4-1.6l-1.3-1l1.6,0.6l0.6-0.7
							c0.2,0.2,0.1,0.6,0.1,0.6c0.7,0,2.6,0.9,2.6,3.3c0,0,0.4,0.6,1,0.7l2.8,0.2c0.5,0,1.6-0.9,3.1,0c0.4-0.2,0.8-0.4,1.2-0.5
							c1.3-0.1,2.3,0.8,3,1.7c0.5,0.7,1.3,1.7,1.3,1.7c-0.3,0.4-0.6,0.5-0.9,0.4c-0.4-0.2-0.5-0.5-0.6-0.9c-0.2-0.7-1-1.3-1-1.3
							c0.3,0.5,0.3,1,0.4,1.5c-1.1-1.1-1.3-2.4-2.1-2.6c-0.3-0.1-0.7,0.1-1.1,0.5c0.4,0.9,0.4,1.9,0.8,2.6c0.3,0.5,0.4,0.6,0.5,0.7
							c0.3,0.2,0.1,0.7,0.1,1l-0.4,2.6h-0.7l0.5-2.6c0.1-0.8-2-0.8-3.2-2.3c-1,1.1-3.6,0.8-4.8,0.7c-0.5-0.1-0.9,0-1.2,0.4
							c-0.1,0.3-0.4,0.2-0.6,0.1L40,55.1c-0.4-0.1-0.5,0-0.7,0.3l-0.4,0.9c-0.1,0.2-0.1,0.4,0.1,0.5l0.2,0.2
							c-0.1,0.4-0.5,0.7-0.5,0.7l-0.5-0.5c-0.2-0.3-0.2-0.6-0.1-1l0.7-1.4c0.1-0.2,0.2-0.3,0.5-0.3l2.6,0l-0.8-1.3
							c-0.6-1,0.4-2.7,0.2-3.5C41.4,50.7,40,50.2,39.8,50.3 M37,53.6l1.2-0.9c0.2-0.2,0.4-0.3,0.6-0.2l1.7,0.2
							c0.1,0.4,0.4,0.8,0.4,0.8l-1.9-0.4c-0.3,0-0.3,0-0.6,0.2l-0.9,0.7c-0.2,0.1-0.2,0.4-0.1,0.6l0.1,0.3l-0.6,0.5l-0.2-0.4
							C36.6,54.3,36.6,53.9,37,53.6"/>
						<path class="st0" d="M42.4,20.1c0.7,0.5,1.9,1,1.9,1v-0.8l-2.6-1C41.6,19.2,41.6,19.6,42.4,20.1"/>
						<path class="st0" d="M44.2,19.1v-0.8l-3-1.1c0,0,0.4,0.4,1.1,0.9C43,18.6,44.2,19.1,44.2,19.1"/>
						<path class="st0" d="M44.2,17.3v-0.8L41,15.3c0,0,0.6,0.5,1.4,1C43,16.8,44.2,17.3,44.2,17.3"/>
						<path class="st0" d="M53.4,28.2h3.4c-0.1-0.5-0.7-1-1.6-1C54.2,27.2,53.7,27.7,53.4,28.2"/>
						<path class="st0" d="M49.9,15.3l-3.3,1.2v0.8c0,0,1.2-0.5,1.9-1C49.3,15.8,49.9,15.3,49.9,15.3"/>
						<path class="st0" d="M49.3,19.2l-2.6,1V21c0,0,1.2-0.5,1.9-1C49.3,19.6,49.3,19.2,49.3,19.2"/>
						<path class="st0" d="M49.7,17.2l-3,1.1v0.8c0,0,1.2-0.5,1.9-1C49.3,17.6,49.7,17.2,49.7,17.2"/>
						<path class="st0" d="M35.7,27.2c-1,0-1.5,0.5-1.6,1h3.4C37.2,27.7,36.7,27.2,35.7,27.2"/>
						<path class="st0" d="M52.1,13.2c0-1.9-3.2-3.6-6.7-3.6c-3.5,0-6.7,1.7-6.7,3.6l0.1,0.5l1.4,8l-6.6,3.8
							c-0.7,0.4-1.6,1.6-1.7,2.7h1.2c0.2-1.1,1.1-2.4,2.8-2.3c1.5,0.1,2.4,1,3.3,2.3l0.2,0.4l0.3,0.5h-9.7c0.7,1.4,1.4,3,1.4,4.6
							v20.2c0,5.2,4,7.7,8.3,7.7c3.3,0,3.8-0.1,5.6,1.7c1.8-1.8,2.3-1.7,5.6-1.7c4.3,0,8.3-2.5,8.3-7.7V33.6c0-1.6,0.7-3.2,1.4-4.6
							h-9.7l0.3-0.5l0.2-0.4c0.9-1.3,1.8-2.3,3.3-2.3c1.7-0.1,2.6,1.2,2.8,2.3h1.2c-0.1-1.1-1-2.3-1.7-2.7l-6.6-3.8l1.4-8L52.1,13.2
							z M40.1,14.1l4.9,1.7v7.7l-3.6-1.9L40.1,14.1z M41.3,30.4c0.6,0.9,1.7,1.5,2.9,1.8c0.1,0.5,0.4,1,0.9,1.4
							c-0.2,1.4,0.4,2.7,1.9,3c0.2,0.7,0.6,1.2,1.3,1.5l-1,1.2c-0.4,0.5-0.9,0.6-1.3,0.5l-4.6-0.5c0.2-0.5-0.3-1.1-1.8-0.9l1.8-5.1
							l-1.1-2.3l-2.1,1.8L38,38.2l-0.9-0.4c-1.2-0.5-1.5,1.6-0.4,1.6l0.4,0c0,0.2,0,0.5,0.2,0.5c-0.2,0.1-0.3,0.5,0,0.6
							c-0.3,0.1-0.3,0.5-0.1,0.7c-0.2,0.4-0.3,1.2,0.5,1.4c0.7,0.2,1.1-0.5,1.2-1l7.2,2.2c1,0.3,1.7,0.1,2.6-0.6l1.9-1.6
							c-0.2,1.1,0.2,2,1,2.3c0,0-0.1,1-0.1,1.4H32.9V33.6c0-1.1-0.3-2.2-0.7-3.2H41.3z M49,34.9c-0.4,0.8-0.4,1.6,0.1,2.4l-0.3,0.3
							c-1.3-0.2-1.9-2.2-1.9-2.2c0,0.2,0,0.4,0,0.5c-0.8-0.3-1.3-1-1.2-1.9c0.3,0.2,0.6,0.3,1,0.3l0.1-0.6c-0.9-0.2-1.5-0.8-1.7-1.4
							c0,0-0.1,0-0.1,0c0.2,0,0.3,0,0.5,0c0.6,0,1.1-0.1,1.6-0.2c0.4,0.6,1.1,1,1.8,1C48.7,33.6,48.8,34.2,49,34.9 M51,40.2
							c-0.1,0.2-0.2,0.4-0.3,0.6L50,41.5c0.2-1.1-0.6-2.4-1.3-2.9l0.8-0.8l0.2,0.2C49.4,38.7,49.9,40,51,40.2 M47.4,39.9l0.6-0.6
							c0.6,0.5,1.5,1.8,1.2,2.9l-0.7,0.6c-0.1,0.1-0.3,0.2-0.4,0.3C48.5,42.1,48,40.5,47.4,39.9 M46.1,40.4L46.1,40.4
							c0.2,0,0.5,0,0.7-0.1c0.5,0.7,0.8,2.2,0.3,3.2c-0.3,0-0.6-0.1-0.9-0.1l-0.2-0.1C46.4,42.5,46.3,41.2,46.1,40.4 M44.5,40.2
							l0.9,0.1c0.1,0.7,0,2-0.4,2.7l-1-0.3C44.4,42.1,44.6,40.8,44.5,40.2 M42.7,40l1.1,0.1c0.1,0.6-0.1,1.8-0.5,2.4l-1.1-0.3
							C42.6,41.6,42.8,40.6,42.7,40 M38.5,39.7c-0.5,0.2-0.7-0.2-0.7-0.5c1-0.4,1.4-0.1,1.7,0.1c0.3,0.2,0.5,0.6,0.8,0.9
							c-0.1,0.4-0.2,1-0.3,1.3c-1-0.3-1-1.1-0.7-1.7C39.1,39.6,38.9,39.5,38.5,39.7 M37.8,41.6c0,0,0.3,0.1,0.7,0.2
							c0,0.2-0.2,0.4-0.5,0.3C37.8,42,37.7,41.8,37.8,41.6 M36.8,38.8c-0.2-0.2-0.1-0.5,0.1-0.5c0.3,0,0.7,0.3,1.1,0.5
							C38,38.8,37,38.9,36.8,38.8 M37.8,40.8C38,41,38.6,41,38.6,41l0,0.1C38.4,41.5,37.6,41.3,37.8,40.8 M38.7,40.4
							c-0.5,0.2-0.9-0.1-0.8-0.4c0.2,0.2,0.8,0.1,0.8,0.1L38.7,40.4z M39.3,35.1l-0.9,3.2l0.3-5.1l1.4-1.2l0.7,1.5l-1.7,5l0.5-3.4
							C39.6,34.9,39.4,34.9,39.3,35.1 M39.4,39c0,0,1,0,1.2,0.1c0.2,0.1,0.1,0.4-0.2,0.4C40.2,39.4,39.4,39,39.4,39 M40.9,39.7
							l1.1,0.1c0.1,0.6-0.1,1.6-0.5,2.1l-1-0.3C40.8,41,40.8,40.4,40.9,39.7 M58,53.8c0,2.5-1.1,4.3-3,5.4l0.7-1.4H55l-0.9,1.8
							c-0.9,0.3-1.9,0.5-3,0.5c-3.4,0-4.4,0.1-5.6,1.4c-1.3-1.3-2.2-1.4-5.6-1.4c-1.1,0-2.1-0.2-3-0.5h0l0.9-1.8H37l-0.8,1.5
							c-0.2-0.1-0.4-0.2-0.5-0.3l0.6-1.3h-0.6l-0.5,0.9c-1.5-1.1-2.3-2.8-2.3-4.9v-7.7H58V53.8z M58.7,30.4c-0.4,1-0.7,2.1-0.7,3.2
							v11.8h-1.4c-0.6-0.6-1.1-2.6-1.1-2.6c-0.3,0.7,0,2.2,0.4,2.6h-1.8c-0.4-0.6-0.8-2.7-0.8-2.7c-0.5,0.6-0.2,2.2,0.1,2.7h-1.2
							c-0.1-0.8,0.2-1.7,0.2-1.7c-0.6-0.1-1.3-0.4-1.3-1.1c0.3,0.3,0.4,0.3,0.9,0.3l0.5-0.4c-1.7,0.1-1.7-1.8-0.4-2.6
							c-1.3,0-2.3-0.7-1.8-2.1c-0.9-0.5-1.3-2.1-0.6-2.7c-0.5-0.5-0.6-1.6-0.3-2.3c-0.7,0-1.4-0.3-1.8-0.7c0,0-0.1,0-0.1,0
							c0.8-0.3,1.5-0.9,2-1.5H58.7z M53.7,24.8c-1.4,0.2-2.5,1.9-3.5,3.4l-0.1,0.2h-1l0,0.2c-0.1,1.2-1.2,2.7-3.6,2.7
							c-1.1,0-2-0.3-2.5-0.8c-0.5-0.4-0.8-0.9-1-1.4c-0.1-0.2-0.1-0.4-0.1-0.5l0-0.2h-1l-0.1-0.2c-1-1.5-2.1-3.2-3.5-3.4l3.7-2.1
							l4.5,2.5l4.5-2.5L53.7,24.8z M49.5,21.6l-3.6,1.9v-7.7l4.9-1.7L49.5,21.6z M45.4,14.9l-5.4-2.1c0.5-1.1,2.6-2,5.4-2
							s4.9,0.9,5.4,2L45.4,14.9z"/>
						<path class="st0" d="M57.4,38.1l0-0.6c-1.8,0-2.2-2.2-2.2-2.2C54.7,36.9,56.1,38,57.4,38.1"/>
						<path class="st0" d="M55.1,41.7L55,41.1c-1.5,0.4-2.3-2.1-2.3-2.1C52.1,40.8,53.8,42.1,55.1,41.7"/>
						<path class="st0" d="M56.2,39.4c-1.8,0.3-2.6-1.9-2.6-1.9c-0.2,1.2,0.6,2.4,1.8,2.5c-0.3,1.5,1.1,2.3,2.4,1.8l-0.2-0.5
							C56.5,41.6,55.5,40.6,56.2,39.4"/>
						<path class="st0" d="M55.1,33.3l0-0.6c-2.4-0.5-2.2-2.2-2.2-2.2C52.4,32.1,53.7,33.2,55.1,33.3"/>
						<polygon class="st0" points="39.7,57.8 38.8,59.6 39.4,59.6 40.3,57.8 						"/>
						<polygon class="st0" points="41,57.8 40.1,59.6 40.8,59.6 41.6,57.8 						"/>
						<polygon class="st0" points="46.3,57.8 45.4,59.6 46,59.6 46.9,57.8 						"/>
						<polygon class="st0" points="47.6,57.8 46.7,59.6 47.4,59.6 48.2,57.8 						"/>
						<polygon class="st0" points="44.9,57.8 44.1,59.6 44.7,59.6 45.6,57.8 						"/>
						<polygon class="st0" points="52.6,59.6 53.3,59.6 54.2,57.8 53.5,57.8 						"/>
						<polygon class="st0" points="42.3,57.8 41.4,59.6 42.1,59.6 43,57.8 						"/>
						<polygon class="st0" points="43.6,57.8 42.7,59.6 43.4,59.6 44.3,57.8 						"/>
						<path class="st0" d="M40.6,48.3c-0.1,0-0.2,0.1-0.2,0.3c0,0.1,0.1,0.3,0.2,0.3c0.1,0,0.2-0.1,0.2-0.3
							C40.9,48.4,40.8,48.3,40.6,48.3"/>
						<path class="st0" d="M45.5,8.4c2.7,0,4.9,0.9,6.1,1.9c0,0,0.4-2.1,1.6-4l-2.2,0.2L49.8,4l-2.2,1.1l-2.1-2.1l-2.1,2.1L41.1,4
							L40,6.5l-2.2-0.2c1.2,1.9,1.6,4,1.6,4C40.6,9.3,42.7,8.4,45.5,8.4 M40.4,7.4l1-2.2l1.9,1l2.1-2.1l2.1,2.1l1.9-1l1,2.2l1.3-0.2
							c-0.3,0.6-0.6,1.2-0.8,1.9c-1.4-0.8-3.5-1.4-5.6-1.4c-2.1,0-4.2,0.6-5.6,1.4c-0.2-0.8-0.5-1.3-0.8-1.9L40.4,7.4z"/>
						<path class="st0" d="M47.7,4c0.3,0,0.6-0.2,0.6-0.5c0-0.3-0.4-1.2-0.4-1.2s-0.7,0.7-0.7,1.1C47.1,3.7,47.4,4,47.7,4"/>
						<path class="st0" d="M51.2,5.3c0.3,0.2,0.6,0,0.8-0.2c0.2-0.3,0.1-1.2,0.1-1.2S51.2,4.3,51,4.6C50.9,4.8,51,5.2,51.2,5.3"/>
						<path class="st0" d="M43.2,4c0.3,0,0.6-0.3,0.5-0.6c0-0.3-0.7-1.1-0.7-1.1s-0.5,0.8-0.4,1.2C42.6,3.8,42.9,4.1,43.2,4"/>
						<path class="st0" d="M39.7,5.3c0.3-0.2,0.4-0.5,0.2-0.8c-0.1-0.3-1.1-0.7-1.1-0.7s-0.1,1,0.1,1.2C39,5.4,39.4,5.5,39.7,5.3"/>
						<path class="st0" d="M82.5,25c0.8-0.3,1.3-1,1.6-1.7c-1.9-0.3-7.1-2.4-11.3-0.7c1.6-1.5,3-1.7,3.1-3.9
							c0.7,0.5,1.8,0.7,2.4-0.4c-0.4-1.3-1.5-0.2-1.7-0.6c-0.2-0.5,1.4,0.2,1.7-1.5c-1.2-0.4-1.6,0.6-1.8,0.4
							c-0.2-0.2,0.8-0.7,0.1-2c-1.3,0.8-0.6,1.6-0.9,1.7c-0.3,0.1-0.1-0.9-1.5-0.9C74,17,75.5,17,75.3,17.3
							c-0.3,0.3-0.7-0.9-1.8-0.3c0,1.2,1,1.9,2.1,1.6c-0.2,2.4-2.3,1.9-4,4.6c3.4,1.8,5,4.8,7.1,6.9c0.7-0.5,1.9-2.7,1.9-2.7
							c2.3,1.8,3.9,0,3.9,0C83.7,26.7,83.7,26.1,82.5,25 M79.1,25.4c0.2,0.5,0.7,2.3-0.4,3.7c-1.3-2.5-3-4.7-4.4-5.7
							c-0.3-0.2,0.2-0.6,1-0.7c2.6-0.5,5.7,0.6,7.2,1c-0.7,0.5-1.2,0.7-1.9,0.8c1.1,0.9,1.8,1.7,2.4,2.5
							C82,27.4,81.4,26.7,79.1,25.4"/>
						<path class="st0" d="M44.8,66.9l-1.5-0.1l-0.2,0.6l0.2,0c0.1,0,0.1-0.1,0.1-0.2c0,0,0.3-0.1,0.5,0l0.6,0
							c-0.4,0.8-1.3,1.5-1.3,2c0,0.3,0.3,0.3,0.4,0.3c0.3,0,0.4-0.2,0.5-0.5c0.2-0.8,0.5-1.3,0.8-2.2L44.8,66.9L44.8,66.9z"/>
						<path class="st0" d="M45.8,67.8l0-0.5h1.3l-0.1-0.5c-0.4,0-0.9,0.1-1.3,0.1l-0.1,1c0.6,0,1,0.2,1,0.9c0,0.2-0.2,0.7-0.4,0.7
							c-0.1,0-0.1,0-0.2,0c-0.1-0.1,0-0.2,0-0.4c0-0.2-0.2-0.3-0.4-0.3c-0.2,0-0.3,0.2-0.3,0.3c0,0.4,0.5,0.5,0.8,0.5
							c0.5,0,1.1-0.3,1.1-0.9C47.3,68,46.4,67.8,45.8,67.8"/>
						<path class="st0" d="M48.6,66.8c-0.5,0-0.8,0.3-0.8,0.8c0,0.7,0.8,1,1.4,0.7c0.1,0.6,0,1-0.3,1c-0.2,0-0.2-0.1-0.2-0.3
							c0-0.2-0.2-0.3-0.4-0.2c-0.2,0.1-0.2,0.2-0.2,0.4c0.1,0.3,0.4,0.3,0.6,0.3c0.8-0.1,1.1-0.6,1.1-1.3
							C49.8,67.5,49.4,66.8,48.6,66.8 M48.9,68.2c-0.5,0-0.5-0.7-0.5-1.1c0-0.1,0.1-0.2,0.2-0.2c0.4,0,0.5,1,0.6,1.2
							C49.1,68.2,49,68.2,48.9,68.2"/>
						<path class="st0" d="M42.3,66.6c-0.1,0.1-0.4,0.5-1.1,1l0.1,0.1c0.1,0,0.2-0.1,0.4-0.2l-0.4,1.4c0,0.1-0.1,0.1-0.2,0.1l-0.2,0
							l0,0.2l1.3,0.2l0-0.2L42,69.1c-0.1,0-0.1-0.1-0.1-0.1l0.6-2.3L42.3,66.6z"/>
						<path class="st0" d="M57.2,64.8V62c-2.2,1-5.1,1.9-8.7,2.2l-0.2,1c0.3,0,0.7,0.1,1.2,0.1c-1.4,0.2-3.1,0.3-4.1,0.3
							c-1,0-2.7-0.1-4.1-0.3c0.5,0,0.9-0.1,1.2-0.1l-0.2-1C38.8,63.8,36,63,33.7,62v2.9l-3,1.2c2.2,1.2,4.8,2.1,7.8,2.9l-0.4,1.2
							c1.7,0.5,4.4,1,7.3,1c2.9,0,5.6-0.5,7.3-1L52.4,69c3-0.8,5.6-1.7,7.8-2.9L57.2,64.8z M32.3,66.2l2-0.8V63c1.3,0.5,3,1,5.5,1.5
							l-1.2,3.8C36.2,67.7,34,66.9,32.3,66.2 M45.5,70.5c-2.3,0-4.6-0.3-6.5-0.8l1.2-4c0.8,0.2,2.8,0.4,5.3,0.4s4.4-0.2,5.3-0.4
							l1.2,4C50,70.2,47.7,70.5,45.5,70.5 M52.2,68.3L51,64.5c2.5-0.5,4.2-1,5.5-1.5v2.4l2,0.8C56.9,66.9,54.7,67.7,52.2,68.3"/>
						<path class="st0" d="M10.3,27.5c0,0,1.2,2.2,1.9,2.7c2.1-2.1,3.7-5.2,7.1-6.9c-1.6-2.7-3.8-2.2-3.9-4.6c1,0.3,2-0.4,2.1-1.6
							c-1.1-0.6-1.5,0.6-1.8,0.3c-0.2-0.2,1.2-0.3,1.1-1.8c-1.4,0-1.2,1-1.5,0.9c-0.3-0.1,0.4-1-0.9-1.7c-0.7,1.4,0.3,1.8,0.1,2
							c-0.2,0.2-0.6-0.8-1.8-0.4c0.3,1.7,1.9,1,1.7,1.5c-0.2,0.4-1.3-0.7-1.7,0.6c0.6,1.1,1.7,0.9,2.4,0.4c0.1,2.2,1.6,2.3,3.1,3.9
							c-4.2-1.8-9.4,0.4-11.3,0.7C7.1,24,7.7,24.7,8.4,25c-1.2,1.1-1.2,1.7-2,2.5C6.4,27.5,8,29.2,10.3,27.5 M7.9,27.1
							c0.6-0.8,1.3-1.6,2.4-2.5c-0.7-0.1-1.3-0.3-1.9-0.8c1.5-0.4,4.6-1.5,7.2-1c0.9,0.1,1.4,0.5,1,0.7c-1.4,0.9-3.2,3.1-4.4,5.6
							c-1.1-1.4-0.6-3.2-0.4-3.7C9.5,26.7,8.9,27.4,7.9,27.1"/>
						<path class="st0" d="M43.6,25.9v1.3c0.4-0.5,1.3-0.4,1.3-0.4v1.8c0,0,0,0.9-0.3,1.3h0.9h0.9C46,29.4,46,28.5,46,28.5v-1.8
							c0,0,0.8-0.1,1.3,0.4v-1.3h-1.9H43.6z"/>
					</g>
					<g>
						<g>
							<path class="st1" d="M85.6,26.4c-0.2-0.2-0.4-0.4-0.5-0.7c-0.1-0.1-0.2-0.3-0.3-0.5c0.3-0.4,0.6-0.8,0.8-1.3l0.8-1.9l-2-0.3
								c-0.3-0.1-0.9-0.2-1.5-0.4c-1.2-0.3-2.8-0.7-4.6-0.9c0.6-0.3,1.1-0.7,1.4-1.4l0.3-0.6c0,0-0.1-0.8-0.4-1.1
								c0.1-0.3,0.2-0.5,0.3-0.9l0.3-1.3l-1.3-0.4c-0.2-0.1-0.4-0.1-0.6-0.2c-0.1-0.2-0.2-0.5-0.3-0.8l-0.8-1.4l-1.4,0.8
								c-0.3,0.2-0.6,0.4-0.9,0.7c-0.2,0-0.4-0.1-0.7-0.1c0,0-0.8-0.1-1.7,0.2L71.5,13l-1.3-1.4c-1.2-1.3-2.9-1.7-4.6-1.1
								c-0.6-0.6-1.7-1.2-3.2-1.2c-0.5,0-1,0.1-1.3,0.1c0,0-2.2,0.4-3.4,1.5l-1.5-0.7c-1,1.6-2.7,2.1-2.7,2.1
								c-0.1-0.5-0.3-0.9-0.6-1.3l0.1-0.5c0,0,0.3-1.9,1.3-3.4l1.8-2.7l-2.5,0.3c0-0.2,0-0.5,0-0.9l-0.2-2.1l-2,0.9
								c-0.2,0.1-0.4,0.2-0.6,0.3l-0.4-0.8l-0.9,0.5c-0.1-0.2-0.2-0.5-0.4-0.8l-1-1.9l-1.5,1.6c-0.1,0.2-0.3,0.3-0.4,0.5l-0.9-0.9
								l-0.9,0.9c-0.1-0.1-0.2-0.3-0.4-0.5l-1.5-1.6l-1,1.9c-0.2,0.3-0.3,0.5-0.4,0.8l-0.9-0.5L40,2.8c-0.2-0.1-0.4-0.2-0.6-0.3
								l-2-0.9l-0.2,2.1c0,0.3,0,0.6,0,0.9l-2.5-0.3l1.8,2.7c1,1.6,1.3,3.4,1.3,3.4l0.1,0.5c-0.3,0.4-0.5,0.8-0.6,1.3
								c0,0-1.6-0.7-2.7-2.1L33.2,11c-1.7-1.2-2.8-1.6-4.6-1.7c-1.6,0-2.6,0.5-3.2,1.2c-1.7-0.6-3.4-0.3-4.6,1.1
								c0,0-0.8,0.9-1.3,1.4c-0.5,0.5-1.3,1-1.3,1s-1.1-0.2-2.2,0c-0.2-0.3-0.5-0.5-0.9-0.7l-1.4-0.8l-0.8,1.4
								c-0.1,0.3-0.3,0.5-0.3,0.8c-0.2,0-0.4,0.1-0.6,0.2l-1.3,0.4l0.3,1.3c0.1,0.3,0.2,0.6,0.3,0.9c-0.1,0.1-0.1,0.3-0.2,0.5
								l-0.2,0.6l0.3,0.6c0.3,0.6,0.8,1.1,1.4,1.4c-1.7,0.2-3.3,0.6-4.6,0.9c-0.6,0.2-1.2,0.3-1.5,0.4l-2,0.3l0.5,1l0.4,0.8
								c0.2,0.5,0.5,0.9,0.8,1.3c-0.1,0.2-0.6,1-0.9,1.2l-1,1l1,1.1c0.1,0.1,1.2,1.3,3,1.3c0.5,0,1-0.1,1.4-0.3
								c0.5,0.7,1,1.5,1.6,1.9c-0.9,1.1-2,2.1-3.6,2.8l-1.3,0.6L7,36.3c0.4,0.9,1.1,1.9,2.4,2.2c-0.3,0.9-0.4,1.7-0.6,2.4
								c-0.3,1.7-0.4,2.5-1.9,3l-1.4,0.5l0.4,1.4c0.3,1.1,0.8,1.9,1.3,2.4l-0.9,1c0,0,2.2,1.6,4.3,1.8c0,0,1.8,0.1,2.6-0.9
								c0.3,1.2,0.8,2.3,1.3,3.2c1,2,1.5,3.2,0.8,4.3l-1.4,2.5l2.8-0.1c1.2-0.1,2.4-0.1,3.4-0.4c0,0.1,0,0.1,0,0.2L20,61.9l2.5-0.5
								c0.3-0.1,0.5-0.2,0.7-0.3c1.5,1.8,4.2,3.2,7.7,3.2h0.2L27,65.9l3,1.5c2,1,4.1,1.9,6.6,2.6l-0.3,1.2l1.5,0.4
								c0.9,0.3,4,1.1,7.7,1.1c3.8,0,6.9-0.8,7.7-1.1l1.5-0.4L54.3,70c2.5-0.7,4.6-1.6,6.6-2.6l3-1.5l-4.1-1.7H60
								c3.5,0,6.2-1.4,7.7-3.2c0.2,0.1,0.5,0.2,0.7,0.3l2.5,0.5l-0.2-2.1c0-0.1,0-0.1,0-0.2c1,0.2,2.2,0.3,3.4,0.4l2.8,0.1l-1.4-2.5
								c-0.6-1.1-0.1-2.3,0.8-4.3c0.5-1,1-2.1,1.3-3.2c0.5,0.4,1.1,0.7,1.7,0.8c0,0,0.5,0.1,0.9,0.1c1.3,0,1.9-0.3,2.8-0.9l1.6-1
								l-0.9-1c0.5-0.5,1-1.2,1.3-2.4l0.4-1.4L84,43.9c-1.5-0.5-1.6-1.3-1.9-3c-0.1-0.7-0.3-1.6-0.6-2.4c1.4-0.4,2-1.3,2.4-2.2
								l0.5-1.5l-1.3-0.6c-1.5-0.7-2.6-1.7-3.6-2.8c0.5-0.4,1.1-1.1,1.6-1.9c0.5,0.2,1,0.3,1.4,0.3l0,0c1.8,0,2.9-1.2,3-1.3l1-1.1
								L85.6,26.4z"/>
							<path class="st2" d="M32.9,45.4V33.7c0-1.1-0.3-2.2-0.7-3.2h9.1c0.8,1.2,2.4,1.9,4.1,1.9c1.7,0,3.3-0.8,4.1-1.9h9.1
								c-0.4,1-0.7,2.1-0.7,3.2v11.8H32.9z M45.5,61.5c-1.3-1.3-2.2-1.4-5.6-1.4c-4.1,0-6.9-2.4-6.9-6.3v-7.7H58v7.7
								c0,3.9-2.8,6.3-6.9,6.3C47.6,60.1,46.7,60.3,45.5,61.5"/>
							<path class="st1" d="M34.4,63v2.4l-2,0.8c1.7,0.8,3.9,1.6,6.4,2.1l1.2-3.8C37.4,64,35.7,63.5,34.4,63"/>
							<path class="st1" d="M45.5,66.2c-2.4,0-4.4-0.2-5.3-0.4l-1.2,4c1.9,0.5,4.2,0.8,6.5,0.8c2.3,0,4.5-0.3,6.5-0.8l-1.2-4
								C49.9,65.9,47.9,66.2,45.5,66.2"/>
							<path class="st1" d="M56.5,63c-1.3,0.5-3,1-5.5,1.5l1.2,3.8c2.5-0.6,4.7-1.4,6.4-2.1l-2-0.8V63z"/>
							<path class="st1" d="M30.1,25c3.2-1.7,11-5.5,5.7-9.6c-0.7-0.6-1.5-1.1-2.2-1.7c-0.8,0.6,0.3,2.2,0.6,2.8
								c0,0-1.8,0.2-2.2,0.2c-2.7,0-5.6-1.6-4.1-4.7c-1.1,0.2-1.2,1.3-1.5,2.2c-0.7-0.5-1.9-1.5-2.8-1.3c0.8,2.4,3.9,4.6,6.4,5.1
								c-2.5,1.4-7.1,2.4-9.6-0.6c-1.7,3.3,0.7,4.7,3,6.4c-8.9,4.1-7.6,8.6-13.4,12.2c0.8,0.4,4.1-0.4,4.4-0.4
								c-1.3,1.6-1.9,2.3-2.2,3.1c-0.4,0.8-0.5,1.6-0.9,3.4C11,43.6,10.5,45,8.8,46c0.7,1.2,2.2,0.3,2.8,0.1
								c-0.1,0.1-0.3,1.6-0.9,2.3c3-0.2,1.6-6.5,4.6-5c0.8,0.4,1.1,1.4,0.7,2.2c-2,4.1,2.5,7.6,2.3,11.2c1.1,0,2.2,0,3-1.5
								c0.4,0.7,1,1.8,1.3,2.8l0.9-1.5c0.6,2.5,2.9,4.9,6.1,5.1c-1.5-2.4,0.3-5.7-3.4-9.2c0.5-0.4,1.5-1.1,1.9-1.6
								c-4.5,0.5-9.2-3-7.1-4.7c1.4-1.1,2,1.2,4.2,0.8l-0.8-0.7c0.3-0.3,0.6-0.7,1-1c-0.9-0.1-1.9-0.7-1.9-0.7l0.5-0.9
								c-5.3,0-5.4-4.1-3.3-4.2c1-0.1,2.3,1.8,5.6,1.4c-0.4-0.5-0.6-1.3-0.8-1.8c0.8-0.1,1.7-0.1,2.5-0.4c-1.6-0.2-2-0.7-3.3-1.7
								l1.5-0.6c-2.2-1.1-2.1-3.1-2.2-5.1c1.2,0.7,2.5,1.7,4,1.2c0.3-0.1,0.6-0.3,0.6-0.6C26.4,31,25.1,27.8,30.1,25 M26.3,25.4
								c-2.8,3-1.6,4.8-1,5.3c-1-0.2-2.6-1.6-2.2-2.8c-0.3,0.4-0.7,0.8-1,1.3c-0.7,0.9-1.3,1.8-1.9,2.7c-0.8,2.5,0.7,5.1,3.4,6.3
								c-2.9-0.4-4.3-3.1-4.3-4.7c-1.4,2.7-2.1,5.1-2,7.1c0,0.8,0.1,1.5,0.2,2.1c0.7,1.3,1.8,1.8,3.7,2c-1.8,0.1-2.7,0-3.5-0.8
								c1.2,5.1,6.8,9.6,9.1,13.4c-2.3-3-7-7.4-8.7-10.6c-0.1,1.2,0.2,4.1,1.6,5.9c-2.1-2.1-2.3-5.2-2.1-7.1
								c-0.5-1.3-0.9-2.8-0.9-4.5c0-1.6,0.1-2.9,0.3-4.1c-1.3,1.9-3.3,2.6-4.2,5.5c0.2-3.7,3-3.8,5.1-8.3c0.8-2,2-3.7,3.3-5.6
								c-1.7,0.5-2.9,0.9-4.8,3c1.4-3.2,9.2-6.8,12.8-10.3c-1.1,0.2-5.5,0.3-7.3-0.9c3.3,0.9,10.7-0.1,13.5-2
								c-1.9,2.8-6.1,2.9-11.2,8.4C24.6,26.3,25.5,25.7,26.3,25.4"/>
							<path class="st1" d="M79.6,42.1c-0.4-1.8-0.5-2.7-0.9-3.4c-0.4-0.8-1-1.5-2.2-3.1c0.3,0,3.7,0.8,4.4,0.4
								c-5.8-3.6-4.5-8.1-13.4-12.2c2.3-1.7,4.7-3.1,3-6.4c-2.4,2.9-7.1,1.9-9.6,0.6c2.5-0.5,5.7-2.7,6.4-5.1
								c-0.9-0.1-2.1,0.9-2.8,1.3c-0.3-0.9-0.5-1.9-1.5-2.2c1.4,3.1-1.4,4.7-4.1,4.7c-0.4,0-2.2-0.2-2.2-0.2
								c0.3-0.6,1.4-2.2,0.6-2.8c-0.7,0.6-1.5,1.1-2.2,1.7c-5.3,4.1,2.5,7.9,5.7,9.6c5,2.7,3.7,5.9,1.6,6.8c0,0.4,0.2,0.5,0.6,0.6
								c1.5,0.5,2.8-0.6,4-1.2c-0.1,2,0.1,4-2.2,5.1l1.5,0.6c-1.3,1-1.7,1.5-3.3,1.7c0.7,0.4,1.7,0.4,2.5,0.4
								c-0.2,0.6-0.4,1.3-0.8,1.8c3.3,0.4,4.6-1.5,5.6-1.4c2.1,0.2,2,4.2-3.3,4.2l0.5,0.9c0,0-1,0.6-1.9,0.7c0.4,0.3,0.7,0.7,1,1
								L65.8,47c2.2,0.4,2.8-1.9,4.2-0.8c2.1,1.7-2.6,5.3-7.1,4.7c0.4,0.5,1.4,1.2,1.9,1.6c-3.7,3.5-1.9,6.8-3.4,9.2
								c3.2-0.2,5.5-2.5,6.1-5.1l0.9,1.5c0.3-1,0.9-2,1.3-2.8c0.7,1.5,1.9,1.5,3,1.5c-0.2-3.6,4.2-7.1,2.3-11.2
								c-0.4-0.8-0.1-1.8,0.7-2.2c3-1.5,1.6,4.8,4.6,5c-0.6-0.7-0.8-2.2-0.9-2.3c0.6,0.2,2.2,1.1,2.8-0.1
								C80.4,45,79.9,43.6,79.6,42.1 M74,37c0.2,1.2,0.4,2.6,0.3,4.1c-0.1,1.7-0.4,3.2-0.9,4.5c0.1,1.8,0,5-2.1,7.1
								c1.4-1.8,1.7-4.8,1.6-5.9c-1.7,3.2-6.4,7.6-8.7,10.6c2.3-3.8,7.9-8.3,9.1-13.4c-0.8,0.8-1.7,0.9-3.5,0.8c1.9-0.2,3-0.7,3.7-2
								c0.1-0.7,0.2-1.4,0.2-2.1c0.1-2-0.6-4.5-2-7.1c0,1.7-1.3,4.3-4.3,4.7c2.6-1.2,4.2-3.8,3.4-6.3c-0.5-0.9-1.2-1.8-1.9-2.7
								c-0.3-0.4-0.7-0.9-1-1.3c0.4,1.3-1.2,2.6-2.2,2.8c0.6-0.6,1.8-2.3-1-5.3c0.8,0.4,1.6,0.9,2.3,1.4c-5.1-5.5-9.3-5.6-11.2-8.4
								c2.8,1.9,10.1,2.9,13.5,2c-1.8,1.2-6.2,1.1-7.3,0.9c3.6,3.5,11.4,7.1,12.8,10.3c-1.9-2.1-3.1-2.5-4.8-3
								c1.3,1.9,2.5,3.6,3.3,5.6c2.1,4.5,4.9,4.6,5.1,8.3C77.3,39.6,75.3,38.9,74,37"/>
							<path class="st1" d="M49.5,30.4c-0.8,1.2-2.4,1.9-4.1,1.9c-0.4,0-0.8,0-1.2-0.1c0.1,0.5,0.3,1,0.9,1.4
								c-0.2,1.4,0.4,2.7,1.9,3c0.2,0.7,0.6,1.2,1.3,1.5l-1,1.2c-0.4,0.5-0.9,0.6-1.3,0.5l-4.6-0.5c0.2-0.5-0.3-1.1-1.8-0.8l1.8-5.1
								l-1.1-2.3l-2.1,1.8L38,38.2l-0.9-0.4c-1.2-0.5-1.5,1.6-0.4,1.6l0.4,0c0,0.2,0,0.5,0.2,0.5c-0.2,0.1-0.3,0.5,0,0.6
								c-0.3,0.1-0.3,0.5-0.1,0.7c-0.2,0.4-0.3,1.2,0.5,1.4c0.7,0.2,1.1-0.5,1.2-1l7.2,2.2c1,0.3,1.7,0.1,2.6-0.6l1.9-1.6
								c-0.2,1.1,0.1,2,1,2.3c0,0-0.1,1-0.1,1.4l2.5,0H58V33.7c0-1.1,0.3-2.2,0.7-3.2H54H49.5z"/>
							<path class="st1" d="M38.8,50.3l0.1,0.2c0.2,0.2,0.3,0.2,0.5,0.1l0.3-0.2c0.2-0.2,1.5,0.4,1.6-0.8c0.1,0.8-0.8,2.6-0.2,3.5
								l0.8,1.3l-2.6,0c-0.3,0-0.4,0.2-0.5,0.3l-0.7,1.4c-0.2,0.4-0.2,0.8,0.1,1l0.5,0.5c0,0,0.4-0.3,0.5-0.7L39,56.8
								c-0.2-0.2-0.2-0.3-0.1-0.5l0.4-0.9c0.2-0.3,0.3-0.4,0.7-0.3l2.1,0.5c0.2,0,0.4,0.1,0.6-0.1c0.3-0.5,0.7-0.5,1.2-0.4
								c1.2,0.2,3.8,0.5,4.8-0.7c1.1,1.5,3.3,1.5,3.2,2.3l-0.5,2.6h0.7l0.4-2.6c0-0.3,0.2-0.7-0.1-1c-0.1-0.1-0.2-0.2-0.5-0.7
								c-0.4-0.7-0.4-1.7-0.8-2.6c0.4-0.4,0.8-0.6,1.1-0.5c0.8,0.2,1,1.5,2.1,2.6c-0.1-0.5-0.2-1-0.4-1.5c0,0,0.8,0.6,1,1.3
								c0.1,0.4,0.3,0.7,0.6,0.9c0.3,0.1,0.6,0,0.9-0.4c0,0-0.7-1-1.3-1.7c-0.7-0.9-1.7-1.8-3-1.7c-0.4,0-0.8,0.2-1.2,0.5
								c-1.5-0.8-2.7,0-3.1,0l-2.8-0.2c-0.6,0-1-0.7-1-0.7c-0.1-2.4-2-3.3-2.6-3.3c0,0,0.1-0.4-0.1-0.6l-0.6,0.7L39,47.2l1.3,1
								l-1.4,1.6C38.7,50,38.8,50.2,38.8,50.3"/>
							<path class="st1" d="M37,53.6c-0.4,0.3-0.4,0.7-0.1,1.2l0.2,0.4l0.6-0.5l-0.1-0.3c-0.1-0.2-0.1-0.4,0.1-0.6l0.9-0.7
								c0.2-0.2,0.3-0.2,0.6-0.2l1.9,0.4c0,0-0.3-0.4-0.4-0.8l-1.7-0.2c-0.2,0-0.4,0.1-0.6,0.2L37,53.6z"/>
							<path class="st1" d="M48.9,59.1h0.7l1.1-2.8c0-0.1,0.1-0.1,0.1-0.2c-0.5-0.2-0.8-0.3-1.2-0.6c0.3,0.4,0.5,0.5,0.4,0.9
								L48.9,59.1z"/>
							<path class="st1" d="M49.5,21.6l1.3-7.5l-4.9,1.7v7.7L49.5,21.6z M46.7,16.5l3.3-1.2c0,0-0.6,0.5-1.4,1c-0.7,0.5-1.9,1-1.9,1
								V16.5z M46.7,18.3l3-1.1c0,0-0.4,0.4-1.1,0.9c-0.7,0.5-1.9,1-1.9,1V18.3z M46.7,20.3l2.6-1c0,0,0,0.3-0.8,0.8
								c-0.7,0.5-1.9,1-1.9,1V20.3z"/>
							<path class="st1" d="M40.7,28.2l0.1,0.2h1l0,0.2c0,0.2,0.1,0.3,0.1,0.5c0.2,0.5,0.5,1,1,1.4c0.6,0.5,1.4,0.8,2.5,0.8
								c2.4,0,3.5-1.6,3.6-2.7l0-0.2h1l0.1-0.2c1-1.5,2.1-3.2,3.5-3.4L50,22.6l-4.5,2.5l-4.5-2.5l-3.7,2.1
								C38.6,25,39.7,26.7,40.7,28.2"/>
							<path class="st1" d="M45.1,23.5v-7.7l-4.9-1.7l1.3,7.5L45.1,23.5z M44.2,21.1c0,0-1.2-0.5-1.9-1c-0.8-0.5-0.8-0.8-0.8-0.8
								l2.6,1V21.1z M44.2,16.5v0.8c0,0-1.2-0.5-1.9-1c-0.8-0.5-1.4-1-1.4-1L44.2,16.5z M44.2,18.3v0.8c0,0-1.2-0.5-1.9-1
								c-0.8-0.5-1.1-0.9-1.1-0.9L44.2,18.3z"/>
							<path class="st1" d="M45.4,10.8c-2.8,0-4.9,0.9-5.4,2l5.4,2.1l5.4-2.1C50.4,11.7,48.3,10.8,45.4,10.8"/>
							<path class="st1" d="M45.5,7.7c2.1,0,4.2,0.6,5.5,1.4c0.2-0.8,0.5-1.3,0.8-1.9l-1.3,0.2l-1-2.2l-1.9,1l-2.1-2.1l-2.1,2.1
								l-1.9-1l-1,2.2l-1.3-0.2c0.3,0.6,0.6,1.2,0.8,1.9C41.3,8.3,43.4,7.7,45.5,7.7"/>
							<path class="st1" d="M80.6,24.7c0.7-0.1,1.3-0.3,1.9-0.8c-1.5-0.4-4.6-1.5-7.2-1c-0.9,0.1-1.4,0.5-1,0.7
								c1.4,0.9,3.2,3.1,4.4,5.6c1.1-1.4,0.6-3.2,0.4-3.7c2.2,1.3,2.8,2,3.8,1.7C82.4,26.3,81.7,25.5,80.6,24.7"/>
							<path class="st1" d="M12.2,29.1c1.3-2.5,3-4.7,4.4-5.6c0.3-0.2-0.2-0.6-1-0.7c-2.6-0.5-5.7,0.6-7.2,1
								c0.7,0.5,1.2,0.7,1.9,0.8c-1.1,0.9-1.8,1.6-2.4,2.5c1,0.3,1.6-0.4,3.8-1.7C11.5,25.9,11.1,27.7,12.2,29.1"/>
							<path class="st3" d="M27.6,52.7c1-0.8,1.9-1.2,1.8-3.2c-1.5,0.8-5.9,0.7-7.7-1.8c-0.5-0.7,0-1.1,0.5-0.5
								c1.2,1.4,3.6,0.8,4.4,0.4c-0.1-0.5-0.5-1.1-0.8-1.4c0.3-0.3,1.2-0.8,1.4-1.6c-0.5-0.3-2.3-0.4-2.3-0.4
								c0.3-0.3,0.7-0.7,0.4-1.7c-1.9,0.6-4.2-0.2-4.8-0.9c-0.5-0.7,0-1.3,0.4-0.9c0.9,1,5.6,2.1,7.3,0.4c-0.6-0.2-1.3-0.8-1.5-1.1
								c1.6-0.2,2.9-1.1,3-2.3c-0.9,0-2.6-0.1-3.1-0.5c0.8-0.3,1.3-0.6,1.5-1.4c-2.9-0.2-3.2-2.3-3.2-2.7c1.9,1.1,5.3,0.6,4.4-2.1
								c-1.6-0.1-3.2-2.6,1.2-5c4-2.1,8.5-4.5,8.1-8.3c-0.3-2.4-4.3-4.1-4.8-5.3c-1.7,0.8-2,1.7-1.3,3.3c0,0-3.7,0.4-4-1.9
								c-0.1-1,0.6-2,1.3-2.7c-0.4,0-3.2-0.8-4.1,1.5c-1.6-1.1-2.9-1-4,0.1c1.7,1,2.7,4.4,5.5,5.5c-2,1.1-5.2,0.6-7.1-2.7
								c-1.8,2.7-2.8,5.3,1,8.2c-6.9,3.2-6.9,9.2-12.9,12.1c0.6,1.6,1.9,1.6,3.5,1.4c-2.6,3.4-0.4,6.9-4.5,8.4
								c0.4,1.4,1.2,2.5,2.7,2.1c-0.4,0.7-0.7,0.7-1.4,1.4c2.3,1.4,4.9,0.4,5.5-4.2c0.1-0.8,1.2-0.3,0.8,0.5
								c-2.6,5.3,3.9,9.3,1.6,13.2c2-0.1,3.6-0.2,4.4-0.9c0.4,0.8,0.7,1.6,0.6,2.4c1.1-0.2,1.5-0.9,1.6-1.7c0.7,2.1,3.4,4.4,7.6,4.4
								C28.7,59.5,30.7,56.3,27.6,52.7 M23.4,56.6l-0.9,1.5c-0.3-1-0.9-2-1.3-2.8c-0.7,1.5-1.9,1.5-3,1.5c0.2-3.6-4.2-7.1-2.3-11.2
								c0.4-0.8,0.1-1.8-0.7-2.2c-3-1.5-1.6,4.8-4.6,5c0.6-0.7,0.8-2.2,0.9-2.3C11,46.2,9.4,47.2,8.8,46c1.8-1,2.3-2.4,2.5-3.8
								c0.3-1.8,0.5-2.7,0.9-3.4c0.4-0.8,1-1.5,2.2-3.1c-0.3,0-3.7,0.8-4.4,0.4c5.8-3.6,4.5-8.1,13.4-12.2c-2.3-1.7-4.7-3.1-3-6.4
								c2.4,2.9,7.1,1.9,9.6,0.6c-2.5-0.5-5.7-2.7-6.4-5.1c0.9-0.1,2.1,0.9,2.8,1.3c0.3-0.9,0.5-1.9,1.6-2.2
								c-1.4,3.1,1.4,4.7,4.1,4.7c0.4,0,2.2-0.2,2.2-0.2c-0.3-0.6-1.4-2.2-0.6-2.8c0.7,0.6,1.5,1.1,2.2,1.7c5.3,4.1-2.5,7.9-5.7,9.6
								c-5,2.7-3.7,5.9-1.6,6.8c0,0.4-0.2,0.5-0.6,0.6c-1.5,0.5-2.8-0.6-4-1.2c0.1,2-0.1,4,2.2,5.1l-1.5,0.6c1.3,1,1.7,1.5,3.3,1.7
								C27.1,39,26.2,39,25.4,39c0.2,0.6,0.4,1.3,0.8,1.8c-3.3,0.4-4.6-1.5-5.6-1.4c-2.2,0.2-2,4.2,3.3,4.2l-0.5,0.9
								c0,0,1,0.6,1.9,0.7c-0.4,0.3-0.7,0.7-1,1l0.8,0.7c-2.2,0.4-2.8-1.9-4.2-0.8c-2.1,1.7,2.6,5.3,7.1,4.7
								c-0.4,0.5-1.4,1.2-1.9,1.6c3.7,3.5,1.9,6.8,3.4,9.2C26.3,61.5,24,59.1,23.4,56.6"/>
							<path class="st3" d="M17.6,43.9c0.8,0.8,1.7,0.9,3.5,0.8c-1.9-0.2-3-0.7-3.7-2c-0.1-0.7-0.2-1.4-0.2-2.1
								c-0.1-2,0.6-4.5,2-7.1c0,1.7,1.3,4.3,4.3,4.7c-2.6-1.2-4.2-3.8-3.4-6.3c0.6-0.9,1.2-1.8,1.9-2.7c0.3-0.4,0.7-0.9,1-1.3
								c-0.4,1.3,1.2,2.6,2.2,2.8c-0.6-0.6-1.8-2.3,1-5.3c-0.8,0.4-1.6,0.9-2.3,1.4c5.1-5.5,9.3-5.6,11.2-8.4
								c-2.8,1.9-10.1,2.9-13.5,2c1.8,1.2,6.2,1.1,7.3,0.9c-3.6,3.5-11.4,7.1-12.8,10.3c1.9-2.1,3.1-2.5,4.8-3
								c-1.3,1.9-2.5,3.6-3.3,5.6c-2.1,4.5-4.9,4.6-5.1,8.3c1-2.9,2.9-3.6,4.2-5.5c-0.2,1.2-0.3,2.6-0.3,4.1c0,1.7,0.4,3.2,0.9,4.5
								c-0.1,1.8,0,5,2.1,7.1c-1.4-1.8-1.7-4.8-1.6-5.9c1.7,3.2,6.4,7.6,8.7,10.6C24.4,53.5,18.8,49,17.6,43.9"/>
							<path class="st3" d="M69.9,28.5c1.6,0.5,2.9,0.9,4.8,3c-1.4-3.2-9.2-6.8-12.8-10.3c1.1,0.2,5.5,0.3,7.3-0.9
								c-3.3,0.9-10.7-0.1-13.5-2c1.9,2.8,6.1,2.9,11.2,8.4c-0.7-0.5-1.5-1-2.3-1.4c2.8,3,1.6,4.8,1,5.3c1-0.2,2.6-1.6,2.2-2.8
								c0.3,0.4,0.7,0.8,1,1.3c0.7,0.9,1.3,1.8,1.9,2.7c0.8,2.5-0.7,5.1-3.4,6.3c2.9-0.4,4.3-3.1,4.3-4.7c1.4,2.7,2.1,5.1,2,7.1
								c0,0.8-0.1,1.5-0.2,2.1c-0.7,1.3-1.8,1.8-3.7,2c1.8,0.1,2.7,0,3.5-0.8c-1.2,5.1-6.8,9.6-9.1,13.4c2.3-3,7-7.4,8.7-10.6
								c0.1,1.2-0.2,4.1-1.6,5.9c2.1-2.1,2.3-5.2,2.1-7.1c0.5-1.3,0.9-2.8,0.9-4.5c0.1-1.6-0.1-2.9-0.3-4.1c1.3,1.9,3.3,2.6,4.2,5.5
								c-0.2-3.7-3-3.8-5.1-8.3C72.4,32.2,71.2,30.5,69.9,28.5"/>
							<path class="st3" d="M79,37c1.6,0.3,2.9,0.3,3.5-1.4c-6-2.9-6-8.9-12.9-12.1c3.8-2.8,2.8-5.5,1-8.2c-1.9,3.3-5.1,3.8-7.1,2.7
								c2.8-1,3.8-4.5,5.5-5.5c-1.1-1.1-2.4-1.2-4-0.1C64.2,10.3,61.4,11,61,11c0.7,0.7,1.4,1.7,1.3,2.7c-0.3,2.3-4,1.9-4,1.9
								c0.8-1.5,0.4-2.5-1.3-3.3c-0.5,1.2-4.5,2.9-4.8,5.3c-0.4,3.8,4.1,6.1,8.1,8.3c4.4,2.4,2.8,4.9,1.2,5
								c-0.9,2.7,2.5,3.2,4.4,2.1c0,0.4-0.3,2.5-3.2,2.7c0.2,0.9,0.7,1.1,1.5,1.4c-0.6,0.4-2.2,0.5-3.1,0.5c0.1,1.2,1.4,2.1,3,2.3
								c-0.1,0.4-0.8,0.9-1.5,1.1c1.7,1.7,6.4,0.6,7.3-0.4c0.4-0.5,1,0.2,0.4,0.9c-0.5,0.7-2.9,1.5-4.8,0.9
								c-0.2,1.1,0.1,1.5,0.4,1.7c0,0-1.8,0.2-2.3,0.4c0.2,0.8,1.1,1.3,1.4,1.6c-0.3,0.3-0.7,0.9-0.8,1.4c0.8,0.4,3.2,1,4.4-0.4
								c0.5-0.6,1.1-0.2,0.5,0.5c-1.8,2.5-6.2,2.5-7.7,1.8c0,2,0.8,2.4,1.8,3.2c-3.2,3.6-1.1,6.9-3.3,10c4.2,0,6.8-2.3,7.6-4.4
								c0.1,0.8,0.5,1.4,1.6,1.7c-0.1-0.8,0.2-1.6,0.6-2.4c0.8,0.7,2.4,0.8,4.4,0.9c-2.3-3.9,4.2-7.9,1.6-13.2
								c-0.4-0.8,0.7-1.3,0.8-0.5c0.6,4.6,3.3,5.6,5.5,4.2c-0.7-0.7-1-0.7-1.4-1.4c1.5,0.4,2.3-0.7,2.7-2.1
								C79.3,43.9,81.6,40.4,79,37 M79.3,46.1c0.1,0.1,0.3,1.6,0.9,2.3c-3-0.2-1.6-6.5-4.6-5c-0.8,0.4-1.1,1.4-0.7,2.2
								c2,4.1-2.5,7.6-2.3,11.2c-1.1,0-2.3,0-3-1.5c-0.4,0.7-1,1.8-1.3,2.8l-0.9-1.5c-0.6,2.5-2.9,4.9-6.1,5.1
								c1.5-2.4-0.3-5.7,3.4-9.2c-0.5-0.4-1.5-1.1-1.9-1.6c4.5,0.5,9.2-3,7.1-4.7c-1.4-1.1-2,1.2-4.2,0.8l0.8-0.7
								c-0.3-0.3-0.6-0.7-1-1c0.9-0.1,1.9-0.7,1.9-0.7L67,43.7c5.3,0,5.4-4.1,3.3-4.2c-1-0.1-2.3,1.8-5.6,1.4
								c0.4-0.5,0.6-1.3,0.8-1.8C64.7,39,63.8,39,63,38.6c1.6-0.2,2-0.7,3.3-1.7l-1.5-0.6c2.2-1.1,2.1-3.1,2.2-5.1
								c-1.2,0.7-2.5,1.7-4,1.2c-0.3-0.1-0.6-0.3-0.6-0.6c2.1-0.8,3.4-4.1-1.6-6.8c-3.2-1.7-11-5.5-5.7-9.6c0.7-0.6,1.5-1.1,2.2-1.7
								c0.8,0.6-0.3,2.2-0.6,2.8c0,0,1.8,0.2,2.2,0.2c2.7,0,5.6-1.6,4.1-4.7c1.1,0.2,1.2,1.3,1.5,2.2c0.7-0.5,1.9-1.5,2.8-1.3
								c-0.8,2.4-3.9,4.6-6.4,5.1c2.5,1.4,7.1,2.4,9.6-0.6c1.7,3.3-0.7,4.7-3,6.4c8.9,4.1,7.6,8.6,13.4,12.2
								c-0.8,0.4-4.1-0.4-4.4-0.4c1.3,1.6,1.9,2.3,2.2,3.1c0.4,0.7,0.5,1.6,0.9,3.4c0.3,1.4,0.8,2.9,2.5,3.8
								C81.5,47.2,79.9,46.2,79.3,46.1"/>
							<path class="st3" d="M36.9,56l1.3-1.1L38,54.6c-0.1-0.3-0.1-0.3,0.1-0.4l0.7-0.5c0.2-0.1,0.3-0.1,0.5-0.1l2,0.5h-2.1
								c-0.5,0-0.6,0.2-0.8,0.6L38.2,55l-0.5,1.1c-0.2,0.4-0.3,0.9,0.2,1.5l0.4,0.5l-0.8,1.6h0.7l0.5-1.1c0,0,0.8-0.8,1-1.5
								c-0.2-0.2-0.4-0.3-0.3-0.6l0.2-0.5c0.1-0.2,0.1-0.2,0.3-0.2l2.1,0.5c0.3,0.1,0.6,0.2,0.9-0.2c0.3-0.4,0.3-0.4,1-0.3l1.1,0.1
								c1.5,0.1,2.9-0.2,3.5-0.7c0.2,0.5,0.6,0.8,0.8,1.2c0.1,0.1,0,0.3-0.1,0.5l-1.2,2.9h1.9L51,57c0.1-0.3,0.2-0.5,0.3-0.6
								l-0.6,3.2h1.8l0.5-3.2c0.1-0.7,0-0.9-0.3-1.2c-0.8-0.6-0.7-2-1-2.8c0.1-0.1,0.3-0.1,0.5-0.1c0.4,0,0.7,1,1.2,1.7
								c0.9,1.3,2.2,2.7,3.6,0.7c-0.1-0.2-0.3-0.4-0.5-0.6l-0.4-0.5c-0.2-0.3-1.4-1.5-1.8-2c-1.1-1.1-2.7-0.9-3.3-0.4
								c-1.5-0.8-3,0-3.4,0L45,51.1c-0.1,0-0.3,0-0.4-0.2l0.5-0.2c-0.4-1.8-1.5-3.4-3.5-3.6c0,0-0.1-0.6-0.4-0.7l-0.6,0.7
								c-0.2,0-0.3,0.1-0.5,0.1l-2.5-0.9l1.9,1.9c0,0-1,1.4-1.2,1.6c-0.2,0.3-0.2,0.5,0,0.7l0.4,0.5c0.2,0.2,0.4,0.2,0.7,0.1
								l0.4-0.2c0.2-0.1,0.8,0.1,1-0.1c-0.2,0.5-0.2,1-0.3,1.5L38.9,52c-0.4,0-0.5,0-0.8,0.2l-1.4,1.1c-0.5,0.4-0.6,1-0.3,1.6
								L36.9,56z M50.7,56.3l-1.1,2.8h-0.7l1.1-2.7c0.1-0.3-0.1-0.5-0.4-0.9c0.4,0.2,0.7,0.4,1.2,0.6C50.8,56.2,50.7,56.2,50.7,56.3
								 M39.8,50.3l-0.3,0.2c-0.2,0.1-0.3,0.2-0.5-0.1l-0.1-0.2c-0.1-0.1-0.1-0.3,0.1-0.5l1.4-1.6l-1.3-1l1.6,0.6l0.6-0.7
								c0.2,0.1,0.1,0.6,0.1,0.6c0.7,0,2.6,0.9,2.6,3.3c0,0,0.4,0.6,1,0.7l2.8,0.2c0.5,0,1.6-0.9,3.1,0c0.4-0.2,0.8-0.4,1.2-0.5
								c1.3-0.1,2.3,0.8,3,1.7c0.5,0.7,1.3,1.7,1.3,1.7c-0.3,0.4-0.6,0.5-0.9,0.4c-0.4-0.2-0.5-0.5-0.6-0.9c-0.2-0.7-1-1.3-1-1.3
								c0.3,0.5,0.3,1,0.4,1.5c-1.1-1.1-1.3-2.4-2.1-2.6c-0.3-0.1-0.7,0.1-1.1,0.5c0.4,0.9,0.4,1.9,0.8,2.6c0.3,0.5,0.4,0.6,0.5,0.7
								c0.3,0.2,0.1,0.7,0.1,1l-0.4,2.6h-0.7l0.5-2.6c0.1-0.8-2-0.8-3.2-2.3c-1,1.1-3.6,0.8-4.8,0.7c-0.5-0.1-0.9,0-1.2,0.4
								c-0.2,0.3-0.4,0.2-0.6,0.1L40,55.1c-0.4-0.1-0.5,0-0.7,0.3l-0.4,0.9c-0.1,0.2-0.1,0.4,0.1,0.5l0.2,0.2
								c-0.1,0.4-0.5,0.7-0.5,0.7l-0.5-0.5c-0.2-0.3-0.2-0.6-0.1-1l0.7-1.4c0.1-0.2,0.2-0.3,0.5-0.3l2.6,0l-0.8-1.3
								c-0.6-1,0.4-2.7,0.2-3.5C41.4,50.7,40,50.2,39.8,50.3 M37,53.6l1.2-0.9c0.2-0.2,0.4-0.3,0.6-0.2l1.7,0.2
								c0.1,0.4,0.4,0.8,0.4,0.8l-1.9-0.4c-0.3,0-0.3,0-0.6,0.2l-0.9,0.7c-0.2,0.1-0.2,0.4-0.1,0.6l0.1,0.3l-0.6,0.5l-0.2-0.4
								C36.6,54.3,36.6,53.9,37,53.6"/>
							<path class="st3" d="M42.4,20.1c0.7,0.5,1.9,1,1.9,1v-0.8l-2.6-1C41.6,19.2,41.6,19.6,42.4,20.1"/>
							<path class="st3" d="M44.2,19.1v-0.8l-3-1.1c0,0,0.4,0.4,1.1,0.9C43,18.6,44.2,19.1,44.2,19.1"/>
							<path class="st3" d="M44.2,17.3v-0.8L41,15.3c0,0,0.6,0.5,1.4,1C43,16.8,44.2,17.3,44.2,17.3"/>
							<path class="st3" d="M53.4,28.2h3.4c-0.1-0.5-0.7-1-1.6-1C54.2,27.2,53.7,27.7,53.4,28.2"/>
							<path class="st3" d="M49.9,15.3l-3.3,1.2v0.8c0,0,1.2-0.5,1.9-1C49.3,15.8,49.9,15.3,49.9,15.3"/>
							<path class="st3" d="M49.3,19.2l-2.6,1v0.8c0,0,1.2-0.5,1.9-1C49.3,19.6,49.3,19.2,49.3,19.2"/>
							<path class="st3" d="M49.7,17.3l-3,1.1v0.8c0,0,1.2-0.5,1.9-1C49.3,17.6,49.7,17.3,49.7,17.3"/>
							<path class="st3" d="M35.7,27.2c-1,0-1.5,0.5-1.6,1h3.4C37.2,27.7,36.7,27.2,35.7,27.2"/>
							<path class="st3" d="M52.1,13.2c0-1.9-3.2-3.6-6.7-3.6c-3.5,0-6.7,1.7-6.7,3.6l0.1,0.5l1.4,8l-6.6,3.8
								c-0.7,0.4-1.6,1.5-1.7,2.7h1.2c0.2-1.1,1.1-2.4,2.8-2.3c1.5,0.1,2.4,1,3.3,2.3l0.2,0.3l0.3,0.5h-9.7c0.7,1.4,1.4,3,1.4,4.6
								v20.2c0,5.2,4,7.7,8.3,7.7c3.3,0,3.8-0.2,5.6,1.7c1.8-1.8,2.3-1.7,5.6-1.7c4.3,0,8.3-2.5,8.3-7.7V33.7c0-1.6,0.7-3.2,1.4-4.6
								h-9.7l0.3-0.5l0.2-0.3c0.9-1.3,1.8-2.3,3.3-2.3c1.7-0.1,2.6,1.2,2.8,2.3h1.2c-0.1-1.1-1-2.3-1.7-2.7l-6.6-3.8l1.4-8
								L52.1,13.2z M40.1,14.1l4.9,1.7v7.7l-3.6-1.9L40.1,14.1z M41.3,30.4c0.6,0.9,1.7,1.5,2.9,1.8c0.1,0.5,0.4,1,0.9,1.4
								c-0.2,1.4,0.4,2.7,1.9,3c0.2,0.7,0.6,1.2,1.3,1.5l-1,1.2c-0.4,0.5-0.9,0.6-1.3,0.5l-4.6-0.5c0.2-0.5-0.3-1.1-1.8-0.8l1.8-5.1
								l-1.1-2.3l-2.1,1.8L38,38.2l-0.9-0.4c-1.2-0.5-1.5,1.6-0.4,1.6l0.4,0c0,0.2,0,0.5,0.2,0.5c-0.2,0.1-0.3,0.5,0,0.6
								c-0.3,0.1-0.3,0.5-0.1,0.7c-0.2,0.4-0.3,1.2,0.5,1.4c0.7,0.2,1.1-0.5,1.2-1l7.2,2.2c1,0.3,1.7,0.1,2.6-0.6l1.9-1.6
								c-0.2,1.1,0.1,2,1,2.3c0,0-0.1,1-0.1,1.4H32.9V33.7c0-1.1-0.3-2.2-0.7-3.2H41.3z M49,34.9c-0.4,0.8-0.4,1.6,0.1,2.4l-0.3,0.3
								c-1.3-0.2-1.9-2.2-1.9-2.2c0,0.2,0,0.4,0,0.5c-0.8-0.3-1.3-1-1.2-1.9c0.3,0.2,0.6,0.3,1,0.3l0.1-0.6
								c-0.9-0.2-1.5-0.8-1.7-1.4c0,0-0.1,0-0.1,0c0.2,0,0.3,0,0.5,0c0.6,0,1.1-0.1,1.6-0.2c0.4,0.6,1.1,1,1.8,1
								C48.7,33.6,48.8,34.2,49,34.9 M51,40.2c-0.1,0.2-0.2,0.4-0.3,0.6L50,41.5c0.2-1.1-0.6-2.4-1.3-2.9l0.8-0.8l0.2,0.2
								C49.4,38.7,49.9,40.1,51,40.2 M47.4,39.9l0.6-0.6c0.6,0.5,1.5,1.8,1.2,2.9l-0.7,0.6c-0.1,0.1-0.3,0.2-0.4,0.3
								C48.5,42.1,48,40.5,47.4,39.9 M46.1,40.4L46.1,40.4c0.2,0,0.5,0,0.7-0.1c0.5,0.7,0.8,2.2,0.3,3.2c-0.3,0-0.6-0.1-0.9-0.1
								l-0.2-0.1C46.4,42.5,46.3,41.2,46.1,40.4 M44.5,40.2l0.9,0.1c0.1,0.7,0,2-0.4,2.7l-1-0.3C44.4,42.1,44.6,40.8,44.5,40.2
								 M42.7,40l1.1,0.1c0.1,0.6-0.1,1.8-0.5,2.4l-1.1-0.3C42.6,41.6,42.8,40.6,42.7,40 M38.5,39.7c-0.5,0.2-0.7-0.2-0.7-0.5
								c1-0.4,1.4-0.1,1.7,0.1c0.3,0.2,0.5,0.6,0.8,0.9c-0.1,0.4-0.2,1-0.3,1.3c-1-0.3-1-1.1-0.7-1.6C39.1,39.6,38.9,39.6,38.5,39.7
								 M37.8,41.6c0,0,0.3,0.1,0.7,0.2c0,0.2-0.2,0.4-0.4,0.3C37.8,42.1,37.7,41.8,37.8,41.6 M36.8,38.8c-0.2-0.2-0.1-0.5,0.1-0.5
								c0.3,0,0.7,0.3,1.1,0.5C38,38.8,37,38.9,36.8,38.8 M37.8,40.8C38,41,38.6,41,38.6,41l0,0.1C38.4,41.5,37.6,41.3,37.8,40.8
								 M38.7,40.4c-0.5,0.2-0.9-0.1-0.8-0.4c0.2,0.2,0.8,0.1,0.8,0.1L38.7,40.4z M39.3,35.1l-0.9,3.2l0.3-5.1l1.4-1.2l0.7,1.5
								l-1.7,5l0.5-3.4C39.6,34.9,39.4,34.9,39.3,35.1 M39.4,39c0,0,1,0,1.2,0.1c0.2,0.1,0.1,0.4-0.2,0.4C40.2,39.4,39.4,39,39.4,39
								 M40.9,39.7l1.1,0.1c0.1,0.6-0.1,1.6-0.4,2.1l-1-0.3C40.8,41,40.8,40.4,40.9,39.7 M58,53.8c0,2.5-1.1,4.3-3,5.4l0.7-1.4H55
								l-0.9,1.8c-0.9,0.3-1.9,0.5-3,0.5c-3.4,0-4.4,0.1-5.6,1.4c-1.3-1.3-2.2-1.4-5.6-1.4c-1.1,0-2.1-0.2-3-0.5h0l0.9-1.8H37
								l-0.8,1.5c-0.2-0.1-0.4-0.2-0.5-0.3l0.6-1.3h-0.7l-0.5,0.9c-1.5-1.1-2.3-2.8-2.3-4.9v-7.7H58V53.8z M58.7,30.4
								c-0.4,1-0.7,2.1-0.7,3.2v11.8h-1.4c-0.6-0.6-1.1-2.6-1.1-2.6c-0.3,0.7,0.1,2.2,0.4,2.6h-1.8c-0.4-0.6-0.8-2.7-0.8-2.7
								c-0.5,0.6-0.2,2.2,0.1,2.7h-1.2c-0.1-0.8,0.2-1.7,0.2-1.7c-0.6-0.1-1.3-0.4-1.3-1.1c0.3,0.3,0.4,0.3,0.9,0.3l0.5-0.4
								c-1.7,0.1-1.7-1.8-0.4-2.6c-1.3,0-2.3-0.7-1.8-2.1c-0.9-0.5-1.3-2.1-0.6-2.8c-0.5-0.5-0.6-1.6-0.3-2.3
								c-0.7,0-1.4-0.3-1.8-0.7c0,0-0.1,0-0.1,0c0.8-0.3,1.5-0.9,2-1.5H58.7z M53.7,24.8c-1.4,0.2-2.5,1.9-3.5,3.4l-0.1,0.2h-1
								l0,0.2c-0.1,1.2-1.2,2.7-3.6,2.7c-1.1,0-2-0.3-2.5-0.8c-0.5-0.4-0.8-0.9-1-1.4c-0.1-0.2-0.1-0.4-0.1-0.5l0-0.2h-1l-0.1-0.2
								c-1-1.5-2.1-3.2-3.5-3.4l3.7-2.1l4.5,2.5l4.5-2.5L53.7,24.8z M49.5,21.6l-3.6,1.9v-7.7l4.9-1.7L49.5,21.6z M45.4,14.9
								l-5.4-2.1c0.5-1.1,2.6-2,5.4-2c2.8,0,4.9,0.9,5.4,2L45.4,14.9z"/>
							<path class="st3" d="M57.4,38.1l0-0.6c-1.8,0-2.2-2.2-2.2-2.2C54.7,36.9,56.1,38,57.4,38.1"/>
							<path class="st3" d="M55.1,41.7L55,41.1c-1.5,0.4-2.3-2.1-2.3-2.1C52.1,40.8,53.8,42.1,55.1,41.7"/>
							<path class="st3" d="M56.2,39.4c-1.8,0.3-2.6-1.9-2.6-1.9c-0.2,1.2,0.6,2.4,1.8,2.5c-0.3,1.5,1.1,2.3,2.4,1.8l-0.2-0.5
								C56.5,41.6,55.5,40.6,56.2,39.4"/>
							<path class="st3" d="M55.1,33.3l0-0.6c-2.4-0.5-2.2-2.2-2.2-2.2C52.4,32.1,53.7,33.3,55.1,33.3"/>
							<polygon class="st3" points="39.7,57.8 38.8,59.6 39.4,59.6 40.3,57.8 							"/>
							<polygon class="st3" points="41,57.8 40.1,59.6 40.8,59.6 41.6,57.8 							"/>
							<polygon class="st3" points="46.3,57.8 45.4,59.6 46,59.6 46.9,57.8 							"/>
							<polygon class="st3" points="47.6,57.8 46.7,59.6 47.4,59.6 48.2,57.8 							"/>
							<polygon class="st3" points="44.9,57.8 44.1,59.6 44.7,59.6 45.6,57.8 							"/>
							<polygon class="st3" points="52.6,59.6 53.3,59.6 54.2,57.8 53.5,57.8 							"/>
							<polygon class="st3" points="42.3,57.8 41.4,59.6 42.1,59.6 43,57.8 							"/>
							<polygon class="st3" points="43.6,57.8 42.7,59.6 43.4,59.6 44.3,57.8 							"/>
							<path class="st3" d="M40.6,48.3c-0.1,0-0.2,0.1-0.2,0.3c0,0.1,0.1,0.3,0.2,0.3c0.1,0,0.2-0.1,0.2-0.3
								C40.9,48.4,40.8,48.3,40.6,48.3"/>
							<path class="st3" d="M45.5,8.4c2.7,0,4.9,0.9,6.1,1.9c0,0,0.4-2.1,1.6-4l-2.2,0.2l-1.1-2.4l-2.2,1.1l-2.1-2.1l-2.1,2.1
								l-2.2-1.1L40,6.5l-2.2-0.2c1.2,1.9,1.6,4,1.6,4C40.6,9.3,42.7,8.4,45.5,8.4 M40.4,7.4l1-2.2l1.9,1l2.1-2.1l2.1,2.1l1.9-1
								l1,2.2l1.3-0.2c-0.3,0.6-0.6,1.1-0.8,1.9c-1.4-0.8-3.5-1.4-5.5-1.4c-2.1,0-4.2,0.6-5.6,1.4c-0.2-0.8-0.5-1.3-0.8-1.9
								L40.4,7.4z"/>
							<path class="st3" d="M47.7,4.1c0.3,0,0.6-0.2,0.6-0.5c0-0.3-0.4-1.2-0.4-1.2s-0.7,0.7-0.7,1.1C47.1,3.8,47.4,4,47.7,4.1"/>
							<path class="st3" d="M51.2,5.4c0.3,0.2,0.6,0,0.8-0.2c0.2-0.3,0.1-1.2,0.1-1.2S51.2,4.3,51,4.6C50.9,4.9,51,5.2,51.2,5.4"/>
							<path class="st3" d="M43.2,4.1c0.3,0,0.6-0.3,0.5-0.6c0-0.3-0.7-1.1-0.7-1.1s-0.5,0.8-0.4,1.2C42.6,3.9,42.9,4.1,43.2,4.1"/>
							<path class="st3" d="M39.7,5.4c0.3-0.2,0.4-0.5,0.2-0.8c-0.1-0.3-1.1-0.7-1.1-0.7s-0.1,1,0.1,1.2C39,5.4,39.4,5.5,39.7,5.4"
								/>
							<path class="st3" d="M82.5,25c0.8-0.3,1.3-1,1.6-1.7c-1.9-0.3-7.1-2.4-11.3-0.7c1.6-1.5,3-1.7,3.1-3.9
								c0.7,0.5,1.8,0.7,2.4-0.4c-0.4-1.3-1.5-0.2-1.7-0.6c-0.2-0.5,1.4,0.2,1.7-1.5c-1.2-0.4-1.6,0.6-1.8,0.4
								c-0.2-0.2,0.8-0.7,0.1-2c-1.3,0.8-0.6,1.6-0.9,1.7c-0.3,0.1-0.1-0.9-1.5-0.9c-0.1,1.5,1.3,1.6,1.1,1.8
								c-0.3,0.3-0.7-0.9-1.8-0.3c0,1.2,1,1.9,2.1,1.6c-0.2,2.4-2.3,1.9-4,4.6c3.4,1.8,5,4.8,7.1,6.9c0.7-0.5,1.9-2.7,1.9-2.7
								c2.3,1.8,3.9,0,3.9,0C83.7,26.7,83.7,26.1,82.5,25 M79.1,25.4c0.2,0.5,0.7,2.3-0.4,3.7c-1.3-2.5-3-4.7-4.4-5.6
								c-0.3-0.2,0.2-0.6,1-0.7c2.6-0.5,5.7,0.6,7.2,1c-0.7,0.5-1.2,0.7-1.9,0.8c1.1,0.9,1.8,1.7,2.4,2.5
								C81.9,27.4,81.4,26.7,79.1,25.4"/>
							<path class="st3" d="M44.8,66.9l-1.5-0.1l-0.2,0.6l0.2,0c0.1,0,0.1-0.1,0.1-0.2c0,0,0.3-0.1,0.5,0l0.6,0
								c-0.4,0.8-1.3,1.5-1.3,2c0,0.3,0.3,0.3,0.4,0.3c0.3,0,0.4-0.2,0.5-0.5c0.2-0.7,0.5-1.3,0.8-2.2L44.8,66.9L44.8,66.9z"/>
							<path class="st3" d="M45.8,67.8l0-0.5h1.3l-0.1-0.5c-0.4,0-0.9,0.1-1.3,0.1l-0.1,1c0.6,0,1,0.2,1,0.9c0,0.2-0.2,0.7-0.4,0.7
								c-0.1,0-0.1,0-0.2,0c-0.1-0.1,0-0.2,0-0.4c0-0.2-0.2-0.3-0.4-0.3c-0.2,0-0.3,0.2-0.3,0.3c0,0.4,0.5,0.5,0.8,0.5
								c0.5,0,1.1-0.3,1.1-0.9C47.3,68,46.4,67.8,45.8,67.8"/>
							<path class="st3" d="M48.6,66.8c-0.5,0-0.8,0.3-0.8,0.8c0,0.7,0.8,1,1.4,0.7c0.1,0.6,0,1-0.3,1c-0.2,0-0.2-0.1-0.2-0.3
								c0-0.2-0.2-0.3-0.4-0.2c-0.2,0.1-0.2,0.2-0.2,0.4c0.1,0.3,0.4,0.3,0.6,0.3c0.8-0.1,1.1-0.6,1.1-1.3
								C49.8,67.5,49.4,66.8,48.6,66.8 M48.9,68.2c-0.5,0-0.5-0.7-0.5-1.1c0-0.1,0.1-0.2,0.2-0.2c0.4,0,0.5,1,0.6,1.2
								C49.1,68.2,49,68.2,48.9,68.2"/>
							<path class="st3" d="M42.3,66.6c-0.1,0.1-0.4,0.5-1.1,1l0.1,0.1c0.1,0,0.2-0.1,0.4-0.2l-0.4,1.4c0,0.1-0.1,0.1-0.2,0.1
								l-0.2,0l0,0.2l1.3,0.2l0-0.2l-0.2,0c-0.1,0-0.1-0.1-0.1-0.1l0.6-2.3L42.3,66.6z"/>
							<path class="st3" d="M57.2,64.8V62c-2.2,1-5.1,1.9-8.7,2.2l-0.2,1c0.3,0,0.7,0.1,1.2,0.1c-1.4,0.2-3.1,0.3-4.1,0.3
								c-1,0-2.7-0.1-4.1-0.3c0.5,0,0.9-0.1,1.2-0.1l-0.2-1C38.8,63.8,36,63,33.7,62v2.9l-3,1.2c2.2,1.2,4.8,2.1,7.8,2.9l-0.4,1.2
								c1.7,0.5,4.4,1,7.3,1c2.9,0,5.6-0.5,7.3-1L52.4,69c3-0.8,5.6-1.7,7.8-2.9L57.2,64.8z M32.3,66.2l2-0.8V63
								c1.3,0.5,3,1,5.5,1.5l-1.2,3.8C36.2,67.7,34,66.9,32.3,66.2 M45.5,70.5c-2.3,0-4.6-0.3-6.5-0.8l1.2-4
								c0.8,0.2,2.8,0.4,5.3,0.4c2.4,0,4.4-0.2,5.3-0.4l1.2,4C50,70.2,47.7,70.5,45.5,70.5 M52.2,68.3L51,64.5
								c2.5-0.5,4.2-1,5.5-1.5v2.4l2,0.8C56.9,66.9,54.7,67.7,52.2,68.3"/>
							<path class="st3" d="M10.3,27.5c0,0,1.2,2.2,1.9,2.7c2.1-2.1,3.7-5.2,7.1-6.9c-1.6-2.7-3.8-2.2-3.9-4.6c1,0.3,2-0.4,2.1-1.6
								c-1.1-0.6-1.5,0.6-1.8,0.3c-0.2-0.2,1.2-0.3,1.1-1.8c-1.4,0-1.2,1-1.5,0.9c-0.3-0.1,0.4-1-0.9-1.7c-0.7,1.4,0.3,1.8,0.1,2
								c-0.2,0.2-0.6-0.8-1.8-0.4c0.3,1.7,1.9,1,1.7,1.5c-0.2,0.4-1.3-0.7-1.7,0.6c0.6,1.1,1.7,0.9,2.4,0.4c0.1,2.2,1.6,2.3,3.1,3.9
								c-4.2-1.8-9.4,0.4-11.3,0.7C7.1,24,7.7,24.7,8.4,25c-1.2,1.1-1.2,1.7-2,2.5C6.4,27.5,8,29.2,10.3,27.5 M7.9,27.1
								c0.6-0.8,1.3-1.6,2.4-2.5c-0.7-0.1-1.3-0.3-1.9-0.8c1.5-0.4,4.6-1.5,7.2-1c0.9,0.1,1.4,0.5,1,0.7c-1.4,0.9-3.2,3.1-4.4,5.6
								c-1.1-1.4-0.6-3.2-0.4-3.7C9.5,26.7,9,27.4,7.9,27.1"/>
							<path class="st3" d="M43.6,25.9v1.3c0.4-0.5,1.3-0.4,1.3-0.4v1.8c0,0,0,0.9-0.3,1.3h0.9h0.9C46,29.4,46,28.5,46,28.5v-1.8
								c0,0,0.8-0.1,1.3,0.4v-1.3h-1.9H43.6z"/>
						</g>
					</g>
				</g>
			</g>
		</g>
	</g>
</g>
</svg>
