<?xml version="1.0" encoding="utf-8"?>
<!-- Generator: Adobe Illustrator 22.0.1, SVG Export Plug-In . SVG Version: 6.00 Build 0)  -->
<svg version="1.1" id="Layer_1" xmlns="http://www.w3.org/2000/svg" xmlns:xlink="http://www.w3.org/1999/xlink" x="0px" y="0px"
	 viewBox="0 0 333.1 94.8" style="enable-background:new 0 0 333.1 94.8;" xml:space="preserve">
<style type="text/css">
	.st0{fill-rule:evenodd;clip-rule:evenodd;fill:#00984A;}
	.st1{fill:#00984A;}
</style>
<g>
	<path class="st0" d="M120.8,33.7V11.9h6.5c8.2,0,12,4.7,12,10.6c0,5.3-3.3,11.3-12,11.3H120.8L120.8,33.7z M106.6,0.8v70.3h14.3
		V44.7h9.1c18,0,24.4-12.7,24.4-21.9c0-4.4-1.5-22-27-22H106.6L106.6,0.8z"/>
	<polygon class="st0" points="202,0.8 202,13.3 174.3,13.3 174.3,29.1 199.5,29.1 199.5,40.7 174.3,40.7 174.3,58.7 202,58.7 
		202,71.1 160,71.1 160,0.8 202,0.8 	"/>
	<path class="st0" d="M260.9,68.9c-6.2,2.1-12.6,3-18.2,3c-17.5,0-36.6-9.9-36.6-35.6c0-24.2,17.1-36.4,39.2-36.4
		c5.5,0,10.3,0.7,15.6,2.4l-0.6,12.1c-4.1-1.6-8.6-2.6-14-2.6c-15.8,0-25.1,9.9-25.1,24.3c0,17,11.5,23.9,24.1,23.9
		c6.2,0,11.2-1.5,14.7-3.1L260.9,68.9L260.9,68.9z"/>
	<path class="st0" d="M298.7,10c5.3,0,19.4,2.1,19.4,25.9c0,23.8-14.1,25.9-19.4,25.9s-19.4-2.1-19.4-25.9
		C279.3,12.2,293.3,10,298.7,10L298.7,10z M298.7,0c-17.4,0-34.5,10.5-34.5,36c0,25.5,17.1,36,34.5,36c17.4,0,34.5-10.5,34.5-36
		C333.1,10.5,316,0,298.7,0L298.7,0z"/>
	<polygon class="st0" points="114.6,81.4 114.6,83.8 109.2,83.8 109.2,94.8 106.5,94.8 106.5,81.4 114.6,81.4 	"/>
	<path class="st0" d="M137.7,89.6l1.8-5.5h0l2,5.5H137.7L137.7,89.6z M138.2,81.4l-5.3,13.4h2.9l1.1-3h5.5l1.1,3h3l-5.3-13.4H138.2
		L138.2,81.4z"/>
	<path class="st0" d="M168.6,87.7v-4.2h1.2c1.6,0,2.3,0.9,2.3,2c0,1-0.6,2.1-2.3,2.1H168.6L168.6,87.7z M165.9,81.4v13.4h2.7v-5h1.7
		c3.4,0,4.6-2.4,4.6-4.2c0-0.8-0.3-4.2-5.1-4.2H165.9L165.9,81.4z"/>
	<path class="st0" d="M198.6,89.6l1.8-5.5h0l2,5.5H198.6L198.6,89.6z M199,81.4l-5.3,13.4h2.9l1.1-3h5.5l1.1,3h3l-5.3-13.4H199
		L199,81.4z"/>
	<polygon class="st0" points="229.5,81.4 229.5,86.8 234.9,86.8 234.9,81.4 237.6,81.4 237.6,94.8 234.9,94.8 234.9,89 229.5,89 
		229.5,94.8 226.8,94.8 226.8,81.4 229.5,81.4 	"/>
	<polygon class="st0" points="267.3,81.4 267.3,83.8 263.5,83.8 263.5,94.8 260.8,94.8 260.8,83.8 256.9,83.8 256.9,81.4 
		267.3,81.4 	"/>
	<polygon class="st0" points="289.4,81.4 289.4,88.3 289.3,91.6 289.4,91.6 290.3,89.6 295,81.4 298.2,81.4 298.2,94.8 295.5,94.8 
		295.5,87.9 295.6,84.7 295.5,84.7 294.6,86.7 289.9,94.8 286.7,94.8 286.7,81.4 289.4,81.4 	"/>
	<path class="st0" d="M325.4,87.7h-1.5c-0.3,0-2.5,0-2.5-2.1c0-0.7,0.3-2.1,2.5-2.1h1.5V87.7L325.4,87.7z M328.1,81.4h-4.3
		c-0.9,0-5.3-0.1-5.3,4.1c0,2.5,1.6,3.4,2.6,3.7l-3.2,5.5h3.2l2.6-5h1.6v5h2.7V81.4L328.1,81.4z"/>
	<path class="st1" d="M51.9,47.6v-34c-6.2,1.4-11.4,3.7-15.5,7c-5.3,4.2-9.1,9.9-11.5,17.1l-9.6-3.2c3-9.1,7.9-16.4,14.8-21.8
		c6.8-5.4,15.5-8.8,26.2-10.1L62,2v45.7H51.9L51.9,47.6z"/>
	<path class="st1" d="M45.3,41.9H11.7c1.4,6.2,3.7,11.4,7,15.5c4.2,5.3,9.9,9.1,17.1,11.5l-3.2,9.6c-9.1-3-16.4-7.9-21.8-14.8
		C5.4,56.9,1.9,48.2,0.7,37.4L0,31.8h45.3V41.9L45.3,41.9z"/>
	<path class="st1" d="M39.9,48.6v33.5c6.2-1.4,11.4-3.7,15.5-7c5.3-4.2,9.1-9.9,11.5-17.1l9.6,3.2c-3,9.1-7.9,16.4-14.8,21.8
		c-6.8,5.4-15.5,8.8-26.2,10.1l-5.7,0.7V48.6H39.9L39.9,48.6z"/>
	<path class="st1" d="M46.9,53.8h33.3c-1.4-6.2-3.7-11.4-7-15.5C69,33,63.2,29.2,56.1,26.8l3.2-9.6c9.1,3,16.4,7.9,21.8,14.8
		c5.4,6.8,8.8,15.5,10.1,26.2l0.7,5.7H46.9V53.8L46.9,53.8z"/>
</g>
</svg>
