<?xml version="1.0" encoding="utf-8"?>
<!-- Generator: Adobe Illustrator 19.2.0, SVG Export Plug-In . SVG Version: 6.00 Build 0)  -->
<svg version="1.1" xmlns="http://www.w3.org/2000/svg" xmlns:xlink="http://www.w3.org/1999/xlink" x="0px" y="0px"
	 viewBox="0 0 140 56" style="enable-background:new 0 0 140 56;" xml:space="preserve">
<style type="text/css">
	.st0{clip-path:url(#SVGID_2_);fill:#093071;}
	.st1{fill:#093071;}
	.st2{fill:#9A248A;}
	.st3{fill:#CB1174;}
	.st4{fill:#34358F;}
	.st5{fill:#374476;}
	.st6{fill:#2B2A29;}
	.st7{fill:#BAD405;}
	.st8{fill:#1C6F41;}
	.st9{fill:#2C6C40;}
	.st10{fill:#003A7A;}
	.st11{fill:#C1B600;}
	.st12{fill:#616265;}
	.st13{fill:#002663;}
	.st14{fill:#FFFFFF;}
	.st15{fill:#170D00;}
	.st16{fill:#C2C8CC;}
	.st17{fill:#FFE428;}
	.st18{fill:#CF0A2C;}
	.st19{fill:#FF2D22;}
	.st20{fill:#3FAFE3;}
	.st21{fill:#004792;}
	.st22{fill:#2D338E;}
	.st23{fill:#C4C1BA;}
	.st24{fill:#541753;}
	.st25{fill:#A8B300;}
	.st26{fill:#1D488B;}
	.st27{fill:#1C1C1C;}
	.st28{fill:#777777;}
	.st29{fill:#B568CE;}
	.st30{fill:#808284;}
	.st31{fill:#818285;}
	.st32{fill:#00BCE4;}
	.st33{fill:#006FBA;}
	.st34{fill:#52B9E9;}
	.st35{fill-rule:evenodd;clip-rule:evenodd;fill:#004A8B;}
	.st36{fill-rule:evenodd;clip-rule:evenodd;fill:#FF0F46;}
	.st37{fill:#6DB360;}
	.st38{fill:#48443E;}
	.st39{filter:url(#Adobe_OpacityMaskFilter);}
	.st40{mask:url(#mask-2_2_);fill:#3CB3E7;}
	.st41{fill:#3CB3E7;}
	.st42{filter:url(#Adobe_OpacityMaskFilter_1_);}
	.st43{mask:url(#mask-4_2_);fill:#3CB3E7;}
	.st44{fill:#1D4382;}
	.st45{fill:#009945;}
	.st46{fill:#141C1E;}
	.st47{fill:#D76C43;}
	.st48{fill:#274578;}
</style>
<g id="Layer_1">
</g>
<g id="Layer_2">
</g>
<g id="Layer_3_1_">
</g>
<g id="Layer_4">
</g>
<g id="Layer_5">
</g>
<g id="Layer_6">
</g>
<g id="Layer_7">
</g>
<g id="Layer_8">
</g>
<g id="Layer_9">
</g>
<g id="Layer_10">
</g>
<g id="Layer_11">
</g>
<g id="Layer_12">
</g>
<g id="Layer_13">
</g>
<g id="Layer_14">
</g>
<g id="Layer_15">
</g>
<g id="Layer_16">
</g>
<g id="Layer_20">
</g>
<g id="Layer_19">
</g>
<g id="Layer_17">
</g>
<g id="Layer_18">
	<g id="design">
		<g id="Group-45" transform="translate(-25.000000, -52.000000)">
			<g transform="translate(0.000000, 47.000000)">
				<g id="Group-39-Copy" transform="translate(0.000000, 4.000000)">
					<g id="Group-34" transform="translate(25.000000, 1.000000)">
						<g id="logo">
							<g id="Group-24">
								<g id="Group-4">
									<defs>
										<filter id="Adobe_OpacityMaskFilter" filterUnits="userSpaceOnUse" x="0" y="14" width="20.1" height="27.1">
											<feColorMatrix  type="matrix" values="1 0 0 0 0  0 1 0 0 0  0 0 1 0 0  0 0 0 1 0"/>
										</filter>
									</defs>
									<mask maskUnits="userSpaceOnUse" x="0" y="14" width="20.1" height="27.1" id="mask-2_2_">
										<g class="st39">
											<path id="path-1_2_" class="st14" d="M0,14h139.8v30.2H0V14z"/>
										</g>
									</mask>
									<path id="Fill-2_1_" class="st40" d="M20.1,30.7c-1.2,2.6-3.7,4.3-6.7,4.3c-4,0-7.3-3.3-7.3-7.4c0-4.1,3.3-7.4,7.3-7.4
										c3,0,5.5,1.8,6.7,4.3v-8.7c-2-1.1-4.2-1.8-6.7-1.8C6,14,0,20.1,0,27.6c0,7.5,6,13.5,13.4,13.5c2.4,0,4.7-0.7,6.7-1.8V30.7z
										"/>
								</g>
								<path id="Fill-15" class="st41" d="M107,37c0,1.7,1.2,2.8,2.6,2.8c1.3,0,2.3-0.9,2.8-1.9v-1.9c-0.4-1-1.4-1.9-2.8-1.9
									C108.2,34.2,107,35.3,107,37 M112.5,34.5v-1.3h1.1v7.6h-1.2v-1.1c-0.5,0.6-1.5,1.3-2.9,1.3c-2.1,0-3.7-1.7-3.7-4
									c0-2.3,1.6-4,3.7-4C110.9,33.1,111.8,33.7,112.5,34.5"/>
								<path id="Fill-19" class="st41" d="M88.5,33.3l-2.7,3.7l2.9,3.9h-1.4l-2.2-3l-2.2,3h-1.4l2.9-3.9l-2.8-3.7H83l2,2.8l2-2.8
									H88.5z"/>
								<path id="Fill-21" class="st41" d="M92.7,34.3c-1.5,0-2.7,1-2.7,2.8s1.2,2.8,2.7,2.8c1.5,0,2.7-1,2.7-2.8
									S94.3,34.3,92.7,34.3 M92.7,33.1c2,0,4,1.4,4,4c0,2.6-2,4-4,4c-2,0-4-1.4-4-4C88.7,34.5,90.7,33.1,92.7,33.1"/>
								<path id="Fill-23" class="st41" d="M99.4,39.7h2.8c0.8,0,1.3-0.2,1.3-1.1c0-0.9-0.7-1.1-1.3-1.1h-2.9V39.7z M99.4,36.5h2.7
									c0.7,0,1.2-0.3,1.2-1c0-0.9-0.6-1.1-1.2-1.1h-2.7V36.5z M98.1,40.8v-7.6h4.1c1.3,0,2.3,0.7,2.3,2.1c0,0.8-0.4,1.4-1,1.7
									c0.6,0.2,1.2,0.8,1.2,1.8c0,1.2-0.8,2.1-2.4,2.1H98.1z"/>
								<path id="Fill-25" class="st41" d="M115.5,40.8v-7.6h1.2v3.2h4.3v-3.2h1.2v7.6h-1.2v-3.2h-4.3v3.2H115.5z"/>
								<path id="Fill-27" class="st41" d="M124.1,40.8v-7.6h1.2v5.5l4.6-5.5h1.1v7.6h-1.2v-5.5l-4.6,5.5H124.1z"/>
								<g id="Group-38">
									<g id="Group-35">
										<g id="Group-31">
											<defs>
												<filter id="Adobe_OpacityMaskFilter_1_" filterUnits="userSpaceOnUse" x="132.5" y="33.1" width="7.3" height="7.9">
													<feColorMatrix  type="matrix" values="1 0 0 0 0  0 1 0 0 0  0 0 1 0 0  0 0 0 1 0"/>
												</filter>
											</defs>
											<mask maskUnits="userSpaceOnUse" x="132.5" y="33.1" width="7.3" height="7.9" id="mask-4_2_">
												<g class="st42">
													<path id="path-3_2_" class="st14" d="M0,14h139.8v30.2H0"/>
												</g>
											</mask>
											<path id="Fill-29" class="st43" d="M136.3,34.2c-1.3,0-2.5,0.8-2.6,2.3h4.9C138.7,35.7,138.2,34.2,136.3,34.2
												 M136.2,33.1c2.9,0,4,2.4,3.5,4.5h-6c0.2,1.6,1.6,2.3,3.1,2.3c0.9,0,1.8-0.3,2.5-0.6v1.2c-0.7,0.4-1.7,0.6-2.7,0.6
												c-2.2,0-4.2-1.3-4.2-4C132.5,34.4,134.4,33.1,136.2,33.1"/>
										</g>
									</g>
								</g>
								<path id="Fill-34" class="st44" d="M109.9,25.7v-5.9h-2.5v-1.9h7.2v1.9h-2.5v5.9H109.9z"/>
								<path id="Fill-36" class="st44" d="M102.7,24.1c-1.3,0-2-1.2-2-2.4s0.7-2.4,2-2.4c1.3,0,2,1.2,2,2.4S104,24.1,102.7,24.1
									 M102.7,17.6c-2,0-3.8,1.1-4.2,3.2h-1.2v-3h-2.3v7.9h2.3v-3h1.2c0.4,2.1,2.2,3.2,4.2,3.2c2.3,0,4.3-1.4,4.3-4.2
									C107,19,105,17.6,102.7,17.6"/>
								<path id="Fill-38" class="st44" d="M91,17.8h-1.6h-2.3h0l-0.9,5c-0.1,0.7-0.6,1.1-1.2,1v2c0,0,0.1,0,0.1,0
									c1.8,0.3,3-0.7,3.3-2.5l0.6-3.5H91v5.9h2.3v-5.9v-1.9H91z"/>
							</g>
							<g id="Group-37" transform="translate(40.000000, 0.000000)">
								<path id="Fill-1_1_" class="st44" d="M-19.9,40.7h6.7V13.6h-6.7V40.7z"/>
								<path id="Fill-5" class="st44" d="M-1.6,37.2c0,2.2-1.7,3.9-3.9,3.9c-2.1,0-3.9-1.8-3.9-3.9c0-2.2,1.7-3.9,3.9-3.9
									C-3.3,33.2-1.6,35-1.6,37.2"/>
								<path id="Fill-7" class="st44" d="M40.2,19.5c-1.3,0-2,1.2-2,2.4s0.7,2.4,2,2.4c1.3,0,2-1.2,2-2.4S41.5,19.5,40.2,19.5
									 M40.2,17.7c2.3,0,4.3,1.4,4.3,4.2c0,2.8-2,4.2-4.3,4.2c-2.3,0-4.3-1.4-4.3-4.2C35.9,19.1,37.9,17.7,40.2,17.7"/>
								<path id="Fill-9" class="st41" d="M12,29.2c1.1,0,2.2,0.3,3.1,0.7v1.3c-0.8-0.5-1.8-0.8-2.9-0.8c-2.3,0-4.6,1.4-4.6,4.5
									c0,2.9,2.4,4.4,4.7,4.4c1.1,0,2.1-0.3,2.9-0.8v1.3c-0.9,0.5-2,0.7-3.2,0.7c-2.7,0-5.7-2-5.7-5.6C6.2,31.2,9.1,29.2,12,29.2"
									/>
								<path id="Fill-11" class="st41" d="M17.5,40.8v-6.4h-2.8v-1.2h6.8v1.2h-2.7v6.4H17.5z"/>
								<path id="Fill-13" class="st41" d="M27.3,33.9c-1.3,0-2.3,0.9-2.8,1.9v1.9c0.4,1,1.4,1.9,2.8,1.9c1.5,0,2.6-1.1,2.6-2.8
									C30,35,28.8,33.9,27.3,33.9 M27.5,32.7c2.1,0,3.7,1.7,3.7,4c0,2.3-1.6,4-3.7,4c-1.4,0-2.4-0.7-2.9-1.3V44h-1.2v-11h1.1v1.3
									C25.1,33.4,26,32.7,27.5,32.7"/>
								<path id="Fill-17" class="st41" d="M33.1,36.7c0,1.7,1.2,2.8,2.6,2.8c1.3,0,2.3-0.9,2.8-1.9v-1.9c-0.4-1-1.4-1.9-2.8-1.9
									C34.3,33.9,33.1,35,33.1,36.7 M38.6,34.2v-1.3h1.1v7.6h-1.2v-1.1C38,40,37,40.7,35.6,40.7c-2.1,0-3.7-1.7-3.7-4
									c0-2.3,1.6-4,3.7-4C37,32.7,38,33.4,38.6,34.2"/>
								<path id="Fill-32" class="st44" d="M22.9,24.1c-1.3,0-2-0.9-2-2.1c0-1.1,0.7-2.2,2-2.2c1.3,0,2,1,2,2.2
									C25,23.1,24.3,24.1,22.9,24.1 M23,18.2c-0.8,0-1.5,0.2-2.1,0.6c0.2-0.6,0.7-1.2,1.6-1.5c1.4-0.5,3.7-0.6,4-1.2v-1.9
									c-0.8,0.8-3.7,0.6-5.5,1.8c-1.3,0.9-2.3,2.9-2.2,5.8c0,2.7,1.9,4.1,4.2,4.1c2.2,0,4.2-1.3,4.2-3.8
									C27.2,19.5,25.2,18.2,23,18.2"/>
								<path id="Fill-40" class="st44" d="M11,21.1c0.8-2.2,1.7-4.4,1.7-4.6c0,0.2,0.9,2.4,1.7,4.6H11z M16.1,25.6h2.5L14,14.1
									h-2.6L6.7,25.6h2.5c0,0,0.4-1.1,1-2.6h4.9C15.7,24.5,16.1,25.6,16.1,25.6L16.1,25.6z"/>
								<path id="Fill-42" class="st44" d="M32.7,17.7c0.9,0,1.6,0.2,2.3,0.6v1.9c-0.6-0.4-1.3-0.6-2-0.6c-1.2,0-2.4,0.8-2.4,2.4
									c0,1.5,1.2,2.4,2.4,2.4c0.8,0,1.5-0.2,2.1-0.6v1.9c-0.8,0.3-1.6,0.5-2.5,0.5c-2.1,0-4.3-1.2-4.3-4
									C28.3,18.9,30.6,17.7,32.7,17.7"/>
							</g>
						</g>
					</g>
				</g>
			</g>
		</g>
	</g>
</g>
</svg>
