<?xml version="1.0" encoding="utf-8"?>
<!-- Generator: Adobe Illustrator 22.0.1, SVG Export Plug-In . SVG Version: 6.00 Build 0)  -->
<svg version="1.1" id="layer" xmlns="http://www.w3.org/2000/svg" xmlns:xlink="http://www.w3.org/1999/xlink" x="0px" y="0px"
	 viewBox="0 0 246.1 112.2" style="enable-background:new 0 0 246.1 112.2;" xml:space="preserve">
<style type="text/css">
	.st0{fill:#003B7B;}
	.st1{fill:#C2B600;}
</style>
<g>
	<path class="st0" d="M244.6,19.6c0.6,0.4,0.8,0.8,0.8,1.4c0,16.2-9.3,36.5-11.7,40.9c-2,3.5-4,5.2-7.4,5.2h-3.3
		c-3.5,0-5.5-1.6-7.5-5.2c-2.5-4.4-11.3-24.6-11.3-40.9c0-0.8,0.2-1.1,0.8-1.4c1.7-1,4.5-1.2,9.2-1.2c0.7,0,1.2,0.2,1.2,1
		c0.7,16,6.1,30.4,9.8,38.7c3.4-7.4,9.2-22.1,9.8-38.7c0-0.9,0.6-1,1.2-1C240.3,18.4,243,18.7,244.6,19.6 M179.7,49.7
		c-3.1,0-6.2-0.3-6.2-0.3v16.3c0,0.9-0.5,1.2-1.2,1.2h-8.1c-0.8,0-1.2-0.5-1.2-1.2V21.4c0.1-2.1,0.6-2.5,2.6-2.8
		c1.3-0.2,5-0.5,9.6-0.5h4.6c11,0.1,19.4,4.7,19.4,15.7c0,6.4-3.1,10.9-8,13.4l11,18.3c0.4,0.7,0.1,1.3-0.8,1.3h-9.8
		c-1,0-1.5-0.3-1.9-1l-9-16.3L179.7,49.7z M179.2,41.5c7,0,9.2-3.9,9.2-7.6s-2.5-7.1-9.2-7.1c-2.8,0-5.7,0.3-5.7,0.3v14.1
		C173.6,41.3,176.3,41.5,179.2,41.5 M131.2,38h18.5c0.8,0,1.2,0.5,1.2,1.2v6.4c0,0.9-0.5,1.2-1.2,1.2h-18.5v6.4c0,1.7,0.3,3,1,3.7
		c0.8,0.8,2,1,3.5,1h6.7c7.1,0,11.1-0.5,11.1-0.5c0.7,0,1,0.4,1,1.2c0,3.4-0.3,5.6-0.9,6.9c-0.3,0.6-0.7,0.9-1.4,1
		c-1.4,0.2-4.9,0.4-8.1,0.4h-8.6c-8.4,0-15.4-2-15.4-13.6V31.9c0.1-11.6,7.1-13.6,15.4-13.6h8.6c3.2,0,6.8,0.2,8.1,0.4
		c0.9,0.1,1.2,0.4,1.4,1c0.6,1.2,0.9,3.4,0.9,6.9c0,0.9-0.4,1.2-1,1.2c0,0-4-0.5-11.1-0.5h-6.7c-1.5,0-2.8,0.3-3.5,1
		c-0.8,0.9-1,2-1,3.7V38z"/>
	<path class="st1" d="M63.4,0.1c19.9,5,34.6,22.3,34.6,43S83.4,80.9,63.4,86c-1.7,0.4-2.6-1.7-1.1-2.7C75.8,74.7,84.7,59.8,84.7,43
		S75.9,11.4,62.3,2.7C60.9,1.8,61.7-0.4,63.4,0.1"/>
	<path class="st0" d="M69.4,41.3c0.8,15.9-9.6,30.9-25.7,35.2c-16.1,4.3-32.5-3.4-39.9-17.7c4.8,7.2,20,9.5,36.5,5.1
		C56.8,59.5,68.9,49.9,69.4,41.3"/>
	<path class="st0" d="M0.9,50.8l-0.1-0.5c-1-4.2-1-8.4-0.5-12.4c0,0.2,0.1,0.3,0.1,0.4c1.6,6.1,16.8,7.3,33.8,2.8
		c17-4.6,29.5-13.2,27.9-19.3c0-0.1-0.1-0.3-0.1-0.4c2.5,3.2,4.5,6.9,5.8,11l0.1,0.5c2.6,9.6-10.3,21.4-28.8,26.3
		C20.6,64.2,3.5,60.4,0.9,50.8"/>
	<path class="st0" d="M1.6,34.4c-0.2-0.8-0.2-1.5,0.1-2.3c3.5-10.8,12.2-19.6,24-22.7c11.7-3.1,23.7,0.1,32.2,7.6
		c0.7,0.6,1,1.2,1.2,1.9c1.4,5.3-10.3,13.2-26.2,17.4C17.1,40.6,3,39.8,1.6,34.4"/>
	<g>
		<path class="st0" d="M4.1,108.4V97.2h-4v-1.4h9.6v1.4h-4v11.3H4.1z"/>
		<path class="st0" d="M10.4,110.7c0.2,0.1,0.6,0.2,0.8,0.2c0.6,0,1-0.2,1.4-1l0.6-1.4l-3.8-9.3h1.5l3.1,7.5l3-7.5h1.6l-4.6,11
			c-0.6,1.3-1.5,1.8-2.7,1.9c-0.3,0-0.8-0.1-1-0.1L10.4,110.7z"/>
		<path class="st0" d="M21.4,107.1v4.9H20V99.3h1.4v1.4c0.7-0.9,1.8-1.6,3.1-1.6c2.4,0,4.1,1.8,4.1,4.8c0,3-1.7,4.8-4.1,4.8
			C23.2,108.7,22.1,108.1,21.4,107.1z M27.1,103.8c0-2-1.1-3.5-2.9-3.5c-1.1,0-2.2,0.7-2.7,1.5v4.1c0.5,0.8,1.6,1.5,2.7,1.5
			C26,107.4,27.1,105.9,27.1,103.8z"/>
		<path class="st0" d="M30.8,108.4v-9.2h1.4v7l4.8-7h1.4v9.2h-1.4v-7.1l-4.8,7.1H30.8z"/>
		<path class="st0" d="M40.8,103.8c0-2.7,1.8-4.8,4.6-4.8c1.7,0,2.7,0.7,3.4,1.6l-0.9,0.9c-0.6-0.8-1.4-1.2-2.3-1.2
			c-2,0-3.2,1.5-3.2,3.5c0,2,1.2,3.6,3.2,3.6c0.9,0,1.7-0.4,2.3-1.2l0.9,0.9c-0.7,0.9-1.7,1.6-3.4,1.6
			C42.6,108.7,40.8,106.6,40.8,103.8z"/>
		<path class="st0" d="M52.4,108.4v-7.9h-2.7v-1.3h6.8v1.3h-2.7v7.9H52.4z"/>
		<path class="st0" d="M58.4,108.4v-9.2h1.4v7l4.8-7H66v9.2h-1.4v-7.1l-4.8,7.1H58.4z"/>
		<path class="st0" d="M70.1,99.3v2.6c0,1.7,0.8,2.2,2.3,2.2c1,0,1.9-0.2,2.4-0.5v-4.3h1.4v9.2h-1.4v-3.7c-0.7,0.3-1.7,0.6-2.8,0.6
			c-2.4,0-3.4-0.9-3.4-3v-3H70.1z"/>
		<path class="st0" d="M78.6,103.8c0-2.7,1.9-4.8,4.5-4.8c2.8,0,4.4,2.2,4.4,4.9v0.4h-7.4c0.1,1.7,1.3,3.2,3.3,3.2
			c1,0,2.1-0.4,2.8-1.2l0.7,0.9c-0.9,0.9-2.1,1.4-3.6,1.4C80.6,108.7,78.6,106.7,78.6,103.8z M83.1,100.2c-2,0-2.9,1.7-3,3.1h6
			C86.1,101.9,85.2,100.2,83.1,100.2z"/>
		<path class="st0" d="M89.3,103.8c0-2.7,1.8-4.8,4.6-4.8c1.7,0,2.7,0.7,3.4,1.6l-0.9,0.9c-0.6-0.8-1.4-1.2-2.3-1.2
			c-2,0-3.2,1.5-3.2,3.5c0,2,1.2,3.6,3.2,3.6c0.9,0,1.7-0.4,2.3-1.2l0.9,0.9c-0.7,0.9-1.7,1.6-3.4,1.6
			C91.1,108.7,89.3,106.6,89.3,103.8z"/>
		<path class="st0" d="M105.5,108.4l-3.3-4.1l-1.5,1.5v2.6h-1.4v-9.2h1.4v4.9l4.8-4.9h1.8l-4.1,4.2l4.1,5H105.5z"/>
		<path class="st0" d="M108.4,103.8c0-2.7,1.7-4.8,4.5-4.8s4.5,2.1,4.5,4.8c0,2.7-1.7,4.8-4.5,4.8S108.4,106.5,108.4,103.8z
			 M116,103.8c0-1.9-1.1-3.5-3-3.5c-2,0-3.1,1.7-3.1,3.5c0,1.9,1.1,3.6,3.1,3.6C114.9,107.4,116,105.7,116,103.8z"/>
		<path class="st0" d="M119.3,103.8c0-2.7,1.9-4.8,4.5-4.8c2.8,0,4.4,2.2,4.4,4.9v0.4h-7.4c0.1,1.7,1.3,3.2,3.3,3.2
			c1,0,2.1-0.4,2.8-1.2l0.7,0.9c-0.9,0.9-2.1,1.4-3.6,1.4C121.2,108.7,119.3,106.7,119.3,103.8z M123.8,100.2c-2,0-2.9,1.7-3,3.1h6
			C126.8,101.9,125.9,100.2,123.8,100.2z"/>
		<path class="st0" d="M135,102.1c0-3.9,2.9-6.6,6.5-6.6c2.2,0,3.8,1.1,4.8,2.5l-1.3,0.7c-0.7-1.1-2-1.8-3.5-1.8
			c-2.8,0-4.9,2.1-4.9,5.1c0,3,2.1,5.1,4.9,5.1c1.4,0,2.8-0.8,3.5-1.8l1.3,0.7c-1.1,1.4-2.6,2.5-4.8,2.5
			C137.8,108.7,135,106,135,102.1z"/>
		<path class="st0" d="M149.9,108.4v-7.9h-2.7v-1.3h6.8v1.3h-2.7v7.9H149.9z"/>
		<path class="st0" d="M157.3,107.1v4.9h-1.4V99.3h1.4v1.4c0.7-0.9,1.8-1.6,3.1-1.6c2.4,0,4.1,1.8,4.1,4.8c0,3-1.7,4.8-4.1,4.8
			C159.2,108.7,158.1,108.1,157.3,107.1z M163,103.8c0-2-1.1-3.5-2.9-3.5c-1.1,0-2.2,0.7-2.7,1.5v4.1c0.5,0.8,1.6,1.5,2.7,1.5
			C161.9,107.4,163,105.9,163,103.8z"/>
		<path class="st0" d="M172.5,108.4v-1c-0.8,0.8-1.8,1.3-3,1.3c-1.6,0-3.2-1-3.2-3c0-2.1,1.7-3,3.2-3c1.3,0,2.3,0.4,3,1.3v-1.7
			c0-1.2-1-1.9-2.3-1.9c-1.1,0-2,0.4-2.8,1.3l-0.7-1c1-1,2.2-1.5,3.7-1.5c1.9,0,3.6,0.9,3.6,3.1v6.3H172.5z M172.5,106.5v-1.7
			c-0.6-0.8-1.5-1.1-2.5-1.1c-1.3,0-2.3,0.8-2.3,2c0,1.2,0.9,2,2.3,2C171,107.6,171.9,107.3,172.5,106.5z"/>
		<path class="st0" d="M182.7,108.4l-2.8-3.8l-2.8,3.8h-1.6l3.5-4.7l-3.3-4.5h1.7l2.5,3.5l2.5-3.5h1.7l-3.3,4.5l3.5,4.7H182.7z"/>
		<path class="st0" d="M184.8,103.8c0-2.7,1.7-4.8,4.5-4.8s4.5,2.1,4.5,4.8c0,2.7-1.7,4.8-4.5,4.8S184.8,106.5,184.8,103.8z
			 M192.4,103.8c0-1.9-1.1-3.5-3-3.5c-2,0-3.1,1.7-3.1,3.5c0,1.9,1.1,3.6,3.1,3.6C191.3,107.4,192.4,105.7,192.4,103.8z"/>
		<path class="st0" d="M196.2,108.4v-9.2h5.1c1.6,0,2.6,1,2.6,2.4c0,1.1-0.7,1.8-1.5,2.1c0.9,0.2,1.7,1.2,1.7,2.2
			c0,1.5-1,2.5-2.7,2.5H196.2z M202.3,101.8c0-0.8-0.5-1.3-1.4-1.3h-3.4v2.6h3.4C201.9,103.1,202.3,102.6,202.3,101.8z M202.5,105.8
			c0-0.7-0.5-1.4-1.5-1.4h-3.4v2.8h3.4C201.9,107.2,202.5,106.7,202.5,105.8z"/>
		<path class="st0" d="M212.4,108.4v-1c-0.8,0.8-1.8,1.3-3,1.3c-1.6,0-3.2-1-3.2-3c0-2.1,1.7-3,3.2-3c1.3,0,2.3,0.4,3,1.3v-1.7
			c0-1.2-1-1.9-2.3-1.9c-1.1,0-2,0.4-2.8,1.3l-0.7-1c1-1,2.2-1.5,3.7-1.5c1.9,0,3.6,0.9,3.6,3.1v6.3H212.4z M212.4,106.5v-1.7
			c-0.6-0.8-1.5-1.1-2.5-1.1c-1.3,0-2.3,0.8-2.3,2c0,1.2,0.9,2,2.3,2C210.9,107.6,211.9,107.3,212.4,106.5z"/>
		<path class="st0" d="M216.7,108.4v-9.2h1.4v3.8h4.8v-3.8h1.4v9.2h-1.4v-4.1h-4.8v4.1H216.7z"/>
		<path class="st0" d="M227.2,108.4v-9.2h1.4v7l4.8-7h1.4v9.2h-1.4v-7.1l-4.8,7.1H227.2z"/>
		<path class="st0" d="M237.2,103.8c0-2.7,1.9-4.8,4.5-4.8c2.8,0,4.4,2.2,4.4,4.9v0.4h-7.4c0.1,1.7,1.3,3.2,3.3,3.2
			c1,0,2.1-0.4,2.8-1.2l0.7,0.9c-0.9,0.9-2.1,1.4-3.6,1.4C239.1,108.7,237.2,106.7,237.2,103.8z M241.7,100.2c-2,0-2.9,1.7-3,3.1h6
			C244.7,101.9,243.7,100.2,241.7,100.2z"/>
	</g>
</g>
</svg>
