<?xml version="1.0" encoding="utf-8"?>
<!-- Generator: Adobe Illustrator 16.0.0, SVG Export Plug-In . SVG Version: 6.00 Build 0)  -->
<!DOCTYPE svg PUBLIC "-//W3C//DTD SVG 1.1//EN" "http://www.w3.org/Graphics/SVG/1.1/DTD/svg11.dtd">
<svg version="1.1"  xmlns="http://www.w3.org/2000/svg" xmlns:xlink="http://www.w3.org/1999/xlink" id="Layer_1" x="0px" y="0px"
	 width="749.25px" height="200.463px" viewBox="0 0 749.25 200.463" enable-background="new 0 0 749.25 200.463"
	 xml:space="preserve">
<g>
	<linearGradient id="SVGID_1_" gradientUnits="userSpaceOnUse" x1="507.2432" y1="-13.3589" x2="507.2432" y2="194.5339">
		<stop  offset="0" style="stop-color:#CCCECF"/>
		<stop  offset="1" style="stop-color:#6D6F70"/>
	</linearGradient>
	<path fill-rule="evenodd" clip-rule="evenodd" fill="url(#SVGID_1_)" d="M316.087,147.595h-14.66l-2.511-17.854h-17.832
		l-2.506,17.854h-13.342l14.792-98.417h21.267L316.087,147.595L316.087,147.595z M280.655,189.388
		c-1.576,1.018-3.454,1.519-5.621,1.519c-2.933,0-5.297-1.013-7.099-3.042c-1.794-2.029-2.699-4.66-2.699-7.901
		c0-3.604,0.974-6.501,2.914-8.687c1.938-2.182,4.528-3.275,7.77-3.275c1.809,0,3.396,0.351,4.776,1.067v3.588
		c-1.53-1.138-3.159-1.707-4.9-1.707c-2.096,0-3.823,0.802-5.165,2.405c-1.346,1.599-2.024,3.705-2.024,6.31
		c0,2.567,0.637,4.589,1.901,6.07c1.266,1.481,2.958,2.224,5.089,2.224c1.798,0,3.483-0.632,5.059-1.904V189.388L280.655,189.388z
		 M304.737,171.504h-6.161v18.895h-3.298v-18.895H289.1v-2.995h15.638V171.504L304.737,171.504z M318.263,187.229h-0.083v13.233
		h-3.295v-31.954h3.295v3.846h0.083c1.616-2.902,3.989-4.354,7.109-4.354c2.643,0,4.712,0.976,6.198,2.941
		c1.488,1.956,2.228,4.58,2.228,7.871c0,3.66-0.837,6.592-2.507,8.795c-1.674,2.197-3.961,3.298-6.868,3.298
		C321.758,190.906,319.71,189.682,318.263,187.229L318.263,187.229z M318.18,178.401v3.059c0,1.807,0.55,3.351,1.658,4.611
		c1.105,1.262,2.504,1.887,4.204,1.887c1.995,0,3.555-0.807,4.686-2.436c1.132-1.629,1.701-3.879,1.701-6.777
		c0-2.436-0.528-4.34-1.591-5.727c-1.056-1.381-2.487-2.069-4.29-2.069c-1.919,0-3.454,0.705-4.618,2.123
		C318.764,174.492,318.18,176.27,318.18,178.401L318.18,178.401z M359.43,190.398h-3.298v-3.423h-0.075
		c-1.433,2.623-3.541,3.931-6.323,3.931c-2.051,0-3.652-0.575-4.81-1.729c-1.158-1.15-1.734-2.686-1.734-4.597
		c0-4.081,2.261-6.468,6.781-7.133l6.161-0.919c0-3.72-1.411-5.579-4.234-5.579c-2.473,0-4.709,0.896-6.703,2.692v-3.59
		c2.024-1.371,4.347-2.051,6.986-2.051c4.829,0,7.249,2.725,7.249,8.162V190.398L359.43,190.398z M356.131,179.321l-4.954,0.73
		c-1.527,0.229-2.678,0.628-3.454,1.211c-0.773,0.578-1.165,1.599-1.165,3.066c0,1.063,0.358,1.937,1.078,2.616
		c0.712,0.677,1.662,1.013,2.854,1.013c1.632,0,2.982-0.613,4.045-1.819c1.067-1.218,1.595-2.77,1.595-4.634V179.321
		L356.131,179.321z M386.848,168.509l-6.907,11.078l6.783,10.812h-3.831l-4.037-7.1c-0.252-0.438-0.555-0.992-0.901-1.662h-0.082
		c-0.068,0.12-0.377,0.682-0.946,1.662l-4.113,7.1h-3.797l7.012-10.734l-6.709-11.155h3.838l3.973,7.48
		c0.298,0.563,0.584,1.131,0.863,1.715h0.076l5.142-9.195H386.848L386.848,168.509z M405.124,190.906
		c-3.035,0-5.459-1.021-7.276-3.065c-1.809-2.043-2.721-4.756-2.721-8.129c0-3.678,0.945-6.546,2.83-8.615
		c1.893-2.066,4.441-3.096,7.652-3.096c3.066,0,5.456,1,7.174,3.012c1.724,2.006,2.579,4.796,2.579,8.355
		c0,3.493-0.924,6.286-2.773,8.389C410.73,189.855,408.241,190.906,405.124,190.906L405.124,190.906z M405.365,170.949
		c-2.111,0-3.785,0.765-5.019,2.297c-1.232,1.532-1.85,3.64-1.85,6.341c0,2.588,0.625,4.631,1.872,6.124
		c1.245,1.497,2.911,2.247,4.996,2.247c2.13,0,3.77-0.735,4.912-2.2c1.146-1.467,1.715-3.555,1.715-6.259
		c0-2.736-0.568-4.845-1.715-6.326C409.135,171.685,407.495,170.949,405.365,170.949L405.365,170.949z M426.822,190.398v-21.89
		h8.954c2.023,0,3.622,0.478,4.791,1.434c1.173,0.953,1.754,2.262,1.754,3.91c0,2.838-1.309,4.557-3.933,5.172
		c3.144,0.428,4.717,2.113,4.717,5.068c0,1.78-0.646,3.273-1.934,4.488c-1.298,1.209-2.9,1.817-4.812,1.817H426.822L426.822,190.398
		z M430.117,171.504v6.155h4.943c2.642,0,3.973-1.101,3.973-3.291c0-1.907-1.194-2.864-3.577-2.864H430.117L430.117,171.504z
		 M430.117,180.649v6.754h5.701c2.665,0,3.995-1.145,3.995-3.441c0-2.213-1.496-3.313-4.475-3.313H430.117L430.117,180.649z
		 M469.521,190.398h-3.295v-3.423h-0.075c-1.433,2.623-3.544,3.931-6.326,3.931c-2.047,0-3.653-0.575-4.811-1.729
		c-1.157-1.15-1.733-2.686-1.733-4.597c0-4.081,2.262-6.468,6.784-7.133l6.161-0.919c0-3.72-1.41-5.579-4.234-5.579
		c-2.477,0-4.707,0.896-6.702,2.692v-3.59c2.021-1.371,4.344-2.051,6.982-2.051c4.832,0,7.249,2.725,7.249,8.162V190.398
		L469.521,190.398z M466.226,179.321l-4.953,0.73c-1.527,0.229-2.682,0.628-3.454,1.211c-0.776,0.578-1.164,1.599-1.164,3.066
		c0,1.063,0.354,1.937,1.074,2.616c0.712,0.677,1.666,1.013,2.857,1.013c1.628,0,2.982-0.613,4.041-1.819
		c1.071-1.218,1.599-2.77,1.599-4.634V179.321L466.226,179.321z M495.974,190.398h-3.288v-9.063h-2.755
		c-1.32,0-2.533,1.138-3.612,3.423l-2.672,5.64h-3.813l3.457-6.757c0.8-1.568,1.768-2.598,2.903-3.104
		c-1.602-0.225-2.831-0.851-3.672-1.873c-0.841-1.027-1.263-2.313-1.263-3.854c0-1.928,0.66-3.47,1.975-4.601
		c1.324-1.128,3.174-1.702,5.55-1.702h7.189V190.398L495.974,190.398z M492.686,178.401v-6.897h-3.901
		c-2.764,0-4.15,1.114-4.15,3.354c0,2.363,1.342,3.543,4.033,3.543H492.686L492.686,178.401z M542.99,190.398h-4.617l-9.075-10.516
		h-0.082v10.516h-3.296v-21.89h3.296v10.024h0.082l8.626-10.024h4.321l-9.536,10.557L542.99,190.398L542.99,190.398z
		 M560.317,190.906c-3.032,0-5.458-1.021-7.273-3.065c-1.811-2.043-2.723-4.756-2.723-8.129c0-3.678,0.945-6.546,2.831-8.615
		c1.895-2.066,4.443-3.096,7.654-3.096c3.065,0,5.454,1,7.176,3.012c1.721,2.006,2.576,4.796,2.576,8.355
		c0,3.493-0.922,6.286-2.774,8.389C565.927,189.855,563.436,190.906,560.317,190.906L560.317,190.906z M560.563,170.949
		c-2.111,0-3.785,0.765-5.018,2.297c-1.236,1.528-1.848,3.64-1.848,6.341c0,2.588,0.621,4.631,1.867,6.124
		c1.25,1.497,2.91,2.247,4.998,2.247c2.13,0,3.766-0.735,4.908-2.2c1.147-1.467,1.717-3.555,1.717-6.259
		c0-2.736-0.569-4.845-1.717-6.326C564.328,171.685,562.692,170.949,560.563,170.949L560.563,170.949z M604.229,190.398h-3.254
		v-18.044c-0.296,0.912-0.752,2.256-1.367,4.019l-5.135,14.025h-2.958l-5.294-14.025c-0.287-0.75-0.743-2.093-1.373-4.019v18.044
		h-2.83v-21.89h4.203l5.416,14.277c0.386,1.044,0.885,2.48,1.481,4.321l1.467-4.234l5.262-14.364h4.382V190.398L604.229,190.398z
		 M634.151,190.398h-3.296v-18.895H620.38v18.895h-3.296v-21.89h17.067V190.398L634.151,190.398z M661.729,190.398h-3.296v-3.423
		h-0.075c-1.435,2.623-3.546,3.931-6.324,3.931c-2.05,0-3.653-0.575-4.811-1.729c-1.156-1.15-1.734-2.686-1.734-4.597
		c0-4.081,2.262-6.468,6.784-7.133l6.16-0.919c0-3.72-1.411-5.579-4.231-5.579c-2.474,0-4.712,0.896-6.705,2.692v-3.59
		c2.021-1.371,4.344-2.051,6.982-2.051c4.833,0,7.25,2.725,7.25,8.162V190.398L661.729,190.398z M658.433,179.321l-4.951,0.73
		c-1.528,0.229-2.681,0.628-3.456,1.211c-0.775,0.578-1.166,1.599-1.166,3.066c0,1.063,0.357,1.937,1.076,2.616
		c0.715,0.677,1.665,1.013,2.859,1.013c1.632,0,2.98-0.613,4.043-1.819c1.068-1.218,1.595-2.77,1.595-4.634V179.321L658.433,179.321
		z M691.195,190.398h-3.291v-9.937h-10.48v9.937h-3.297v-21.89h3.297v8.977h10.48v-8.977h3.291V190.398L691.195,190.398z
		 M721.278,190.398h-2.972v-17.468c-0.297,0.616-0.738,1.481-1.345,2.592l-9.493,14.876h-3.414v-21.89h3.014v17.249
		c0.155-0.411,0.508-1.116,1.044-2.116l9.757-15.133h3.409V190.398L721.278,190.398z M748.191,190.398H744.9v-9.063h-2.751
		c-1.321,0-2.529,1.138-3.61,3.423l-2.676,5.64h-3.809l3.451-6.757c0.804-1.568,1.768-2.598,2.906-3.104
		c-1.599-0.225-2.831-0.851-3.668-1.873c-0.846-1.027-1.265-2.313-1.265-3.854c0-1.928,0.658-3.47,1.975-4.601
		c1.321-1.128,3.169-1.702,5.548-1.702h7.189V190.398L748.191,190.398z M744.9,178.401v-6.897h-3.898
		c-2.764,0-4.146,1.114-4.146,3.354c0,2.363,1.34,3.543,4.029,3.543H744.9L744.9,178.401z M282.936,116.382h14.001l-7-49.77
		L282.936,116.382L282.936,116.382z M351.438,49.177c7.309,0,12.746,2.062,16.312,6.185s5.35,10.17,5.35,18.138v12.794
		c0,7.965-1.783,14.012-5.35,18.138c-3.566,4.124-9.003,6.186-16.312,6.186h-6.868v36.978h-14.529V49.177H351.438L351.438,49.177z
		 M344.569,63.233v33.325h6.868c2.292,0,4.052-0.656,5.285-1.968c1.229-1.312,1.847-3.75,1.847-7.314V72.515
		c0-3.562-0.617-5.998-1.847-7.314c-1.233-1.312-2.993-1.968-5.285-1.968H344.569L344.569,63.233z M430.51,111.04v13.076
		c0,7.965-1.828,14.059-5.484,18.275c-3.653,4.219-9.045,6.327-16.177,6.327c-7.133,0-12.527-2.13-16.181-6.397
		c-3.656-4.264-5.481-10.379-5.481-18.349V72.795c0-7.965,1.825-14.083,5.481-18.345c3.653-4.267,9.048-6.401,16.181-6.401
		c7.132,0,12.523,2.134,16.177,6.401c3.656,4.262,5.484,10.379,5.484,18.345v9.559h-13.737V71.814c0-3.562-0.683-6.07-2.047-7.525
		c-1.365-1.451-3.192-2.18-5.481-2.18c-2.292,0-4.116,0.729-5.481,2.18c-1.364,1.455-2.047,3.985-2.047,7.546v53.24
		c0,3.562,0.683,6.068,2.047,7.479c1.365,1.4,3.189,2.106,5.481,2.106c2.289,0,4.116-0.706,5.481-2.106
		c1.364-1.41,2.047-3.891,2.047-7.453V111.04H430.51L430.51,111.04z M459.783,90.652h19.945v14.062h-19.945v28.82h25.095v14.061
		h-39.624V49.177h39.624v14.056h-25.095V90.652L459.783,90.652z M514.814,147.595h-14.528V49.177h14.528v42.181h16.513V49.177
		h14.791v98.417h-14.791v-42.181h-16.513V147.595L514.814,147.595z M611.056,147.595h-14.66l-2.511-17.854h-17.83l-2.511,17.854
		h-13.339l14.792-98.417h21.262L611.056,147.595L611.056,147.595z M577.903,116.382h14.002l-7.001-49.77L577.903,116.382
		L577.903,116.382z M651.295,101.902c0,7.873-0.357,14.69-1.063,20.452c-0.701,5.766-2.021,10.523-3.959,14.273
		c-1.938,3.747-4.599,6.514-7.988,8.294c-3.391,1.784-7.73,2.673-13.011,2.673h-1.589v-14.061h1.739
		c2.666,0,4.819-0.748,6.456-2.248c1.646-1.5,2.925-3.635,3.804-6.396c0.879-2.768,1.477-6.119,1.739-10.055
		c0.264-3.936,0.396-8.342,0.396-13.218v-52.44h40.286v98.417h-14.529V63.233h-12.281V101.902L651.295,101.902z M718.871,89.247
		h8.717c7.307,0,12.747,2.062,16.311,6.186c3.564,4.124,5.352,10.17,5.352,18.137v9.703c0,7.965-1.787,14.012-5.352,18.137
		c-3.563,4.124-9.004,6.186-16.311,6.186h-23.246V63.233h-12.018V49.177h26.547V89.247L718.871,89.247z M727.588,133.534
		c2.29,0,4.053-0.68,5.285-2.036c1.231-1.361,1.848-3.773,1.848-7.241v-11.672c0-3.468-0.616-5.88-1.848-7.241
		c-1.232-1.358-2.995-2.036-5.285-2.036h-8.717v30.227H727.588z"/>
	<path fill-rule="evenodd" clip-rule="evenodd" fill="#B8B9B8" d="M129.686,13.494c-2.598-4.234-6.014-7.466-9.87-9.702
		C115.442,1.25,110.504-0.01,105.569,0c-4.938,0.002-9.873,1.274-14.242,3.799c-3.891,2.248-7.333,5.485-9.934,9.703l17.443,30.212
		l6.699,11.607L129.686,13.494z"/>
	<linearGradient id="SVGID_2_" gradientUnits="userSpaceOnUse" x1="70.063" y1="128.4268" x2="84.6099" y2="154.4764">
		<stop  offset="0" style="stop-color:#A3CE42"/>
		<stop  offset="1" style="stop-color:#7FC349"/>
	</linearGradient>
	<polygon fill-rule="evenodd" clip-rule="evenodd" fill="url(#SVGID_2_)" points="79.798,105.414 103.152,145.86 56.445,145.86 	"/>
	<g>
		<polygon fill-rule="evenodd" clip-rule="evenodd" fill="#A7AAAB" points="4.964,145.86 28.315,105.419 28.315,132.38 		"/>
		<polygon fill-rule="evenodd" clip-rule="evenodd" fill="#8B8E90" points="28.315,105.419 51.668,145.86 28.315,132.38 		"/>
		<polygon fill-rule="evenodd" clip-rule="evenodd" fill="#959798" points="51.668,145.86 4.964,145.86 28.315,132.38 		"/>
	</g>
	<g>
		<polygon fill-rule="evenodd" clip-rule="evenodd" fill="#A7A8AA" points="30.705,104.041 77.405,104.041 54.054,117.524 		"/>
		<polygon fill-rule="evenodd" clip-rule="evenodd" fill="#8A8C8D" points="77.405,104.041 54.054,144.489 54.054,117.524 		"/>
		<polygon fill-rule="evenodd" clip-rule="evenodd" fill="#989A9B" points="54.054,144.489 30.705,104.041 54.054,117.524 		"/>
	</g>
	<g>
		<polygon fill-rule="evenodd" clip-rule="evenodd" fill="#ACAEB0" points="30.705,101.279 54.054,60.833 54.054,87.798 		"/>
		<polygon fill-rule="evenodd" clip-rule="evenodd" fill="#929395" points="54.054,60.833 77.409,101.279 54.054,87.798 		"/>
		<polygon fill-rule="evenodd" clip-rule="evenodd" fill="#9B9D9F" points="77.409,101.279 30.705,101.279 54.054,87.798 		"/>
	</g>
	<g>
		<polygon fill-rule="evenodd" clip-rule="evenodd" fill="#9EA2A3" points="133.674,101.279 157.023,60.833 157.023,87.798 		"/>
		<polygon fill-rule="evenodd" clip-rule="evenodd" fill="#828586" points="157.023,60.833 180.374,101.279 157.023,87.798 		"/>
		<polygon fill-rule="evenodd" clip-rule="evenodd" fill="#8F9091" points="180.374,101.279 133.674,101.279 157.023,87.798 		"/>
	</g>
	<g>
		<polygon fill-rule="evenodd" clip-rule="evenodd" fill="#ACAEAE" points="107.933,56.693 131.283,16.247 131.283,43.208 		"/>
		<polygon fill-rule="evenodd" clip-rule="evenodd" fill="#929395" points="131.283,16.247 154.634,56.693 131.283,43.208 		"/>
		<polygon fill-rule="evenodd" clip-rule="evenodd" fill="#9B9D9F" points="154.634,56.693 107.933,56.693 131.283,43.208 		"/>
	</g>
	<g>
		<polygon fill-rule="evenodd" clip-rule="evenodd" fill="#B2B4B6" points="56.449,56.693 79.798,16.247 79.798,43.208 		"/>
		<polygon fill-rule="evenodd" clip-rule="evenodd" fill="#989A9B" points="79.798,16.247 103.152,56.693 79.798,43.208 		"/>
		<polygon fill-rule="evenodd" clip-rule="evenodd" fill="#A0A3A5" points="103.152,56.693 56.449,56.693 79.798,43.208 		"/>
	</g>
	<g>
		<polygon fill-rule="evenodd" clip-rule="evenodd" fill="#ACAEB0" points="56.449,59.46 103.149,59.46 79.798,72.94 		"/>
		<polygon fill-rule="evenodd" clip-rule="evenodd" fill="#929395" points="103.149,59.46 79.798,99.906 79.798,72.94 		"/>
		<polygon fill-rule="evenodd" clip-rule="evenodd" fill="#9B9FA0" points="79.798,99.906 56.449,59.46 79.798,72.94 		"/>
	</g>
	<g>
		<polygon fill-rule="evenodd" clip-rule="evenodd" fill="#A5A8AA" points="107.93,59.46 154.63,59.46 131.279,72.94 		"/>
		<polygon fill-rule="evenodd" clip-rule="evenodd" fill="#8A8C8D" points="154.63,59.46 131.279,99.906 131.279,72.94 		"/>
		<polygon fill-rule="evenodd" clip-rule="evenodd" fill="#979999" points="131.279,99.906 107.93,59.46 131.279,72.94 		"/>
	</g>
	<g>
		<polygon fill-rule="evenodd" clip-rule="evenodd" fill="#989A9B" points="133.67,104.041 180.371,104.041 157.02,117.524 		"/>
		<polygon fill-rule="evenodd" clip-rule="evenodd" fill="#7D7F81" points="180.371,104.041 157.02,144.489 157.02,117.524 		"/>
		<polygon fill-rule="evenodd" clip-rule="evenodd" fill="#898A8B" points="157.02,144.489 133.67,104.041 157.02,117.524 		"/>
	</g>
	<g>
		<polygon fill-rule="evenodd" clip-rule="evenodd" fill="#959798" points="107.93,148.627 154.63,148.627 131.279,162.11 		"/>
		<polygon fill-rule="evenodd" clip-rule="evenodd" fill="#76787A" points="154.63,148.627 131.279,189.07 131.279,162.11 		"/>
		<polygon fill-rule="evenodd" clip-rule="evenodd" fill="#858889" points="131.279,189.07 107.93,148.627 131.279,162.11 		"/>
	</g>
	<g>
		<polygon fill-rule="evenodd" clip-rule="evenodd" fill="#8B8E90" points="133.67,190.446 157.023,150 157.023,176.966 		"/>
		<polygon fill-rule="evenodd" clip-rule="evenodd" fill="#727476" points="157.023,150 180.374,190.446 157.023,176.966 		"/>
		<polygon fill-rule="evenodd" clip-rule="evenodd" fill="#7B7E7F" points="180.374,190.446 133.67,190.446 157.023,176.966 		"/>
	</g>
	<g>
		<polygon fill-rule="evenodd" clip-rule="evenodd" fill="#919595" points="159.413,145.86 182.768,105.419 182.768,132.38 		"/>
		<polygon fill-rule="evenodd" clip-rule="evenodd" fill="#76787A" points="182.768,105.419 206.115,145.86 182.768,132.38 		"/>
		<polygon fill-rule="evenodd" clip-rule="evenodd" fill="#818284" points="206.115,145.86 159.413,145.86 182.768,132.38 		"/>
	</g>
	<polygon fill-rule="evenodd" clip-rule="evenodd" fill="#A1A4A6" points="3.38,148.627 51.668,148.627 25.514,163.729 	"/>
	<polygon fill-rule="evenodd" clip-rule="evenodd" fill="#858889" points="51.668,148.627 27.526,190.438 25.514,163.729 	"/>
	<polygon fill-rule="evenodd" clip-rule="evenodd" fill="#989A9B" points="129.686,13.494 105.535,55.32 105.535,21.582 	"/>
	<polygon fill-rule="evenodd" clip-rule="evenodd" fill="#A3A6A7" points="105.535,55.32 81.393,13.506 105.535,21.582 	"/>
	<path fill-rule="evenodd" clip-rule="evenodd" fill="#919595" d="M3.38,148.627l22.133,15.103l2.012,26.709
		C6.182,190.507-6.432,166.44,3.38,148.627z"/>
	<polygon fill-rule="evenodd" clip-rule="evenodd" fill="#8B8D8F" points="207.698,148.627 159.41,148.627 185.565,163.729 	"/>
	<polygon fill-rule="evenodd" clip-rule="evenodd" fill="#7B7E7F" points="159.41,148.627 183.551,190.438 185.565,163.729 	"/>
	<path fill-rule="evenodd" clip-rule="evenodd" fill="#6D6F70" d="M207.698,148.627l-22.133,15.103l-2.014,26.709
		C204.897,190.507,217.511,166.44,207.698,148.627z"/>
	<polygon fill-rule="evenodd" clip-rule="evenodd" fill="#A3CE40" points="56.445,145.86 79.794,105.419 79.794,132.38 	"/>
	<polygon fill-rule="evenodd" clip-rule="evenodd" fill="#8FC740" points="79.794,105.419 103.149,145.86 79.794,132.38 	"/>
	<polygon fill-rule="evenodd" clip-rule="evenodd" fill="#7DB13B" points="103.149,145.86 56.445,145.86 79.794,132.38 	"/>
</g>
</svg>
