<?xml version="1.0" encoding="utf-8"?>
<!-- Generator: Adobe Illustrator 22.0.1, SVG Export Plug-In . SVG Version: 6.00 Build 0)  -->
<svg version="1.1"
	 id="Слой_1" inkscape:version="0.92.2 (5c3e80d, 2017-08-06)" sodipodi:docname="logo-header.svg" xmlns:cc="http://creativecommons.org/ns#" xmlns:dc="http://purl.org/dc/elements/1.1/" xmlns:inkscape="http://www.inkscape.org/namespaces/inkscape" xmlns:rdf="http://www.w3.org/1999/02/22-rdf-syntax-ns#" xmlns:sodipodi="http://sodipodi.sourceforge.net/DTD/sodipodi-0.dtd" xmlns:svg="http://www.w3.org/2000/svg"
	 xmlns="http://www.w3.org/2000/svg" xmlns:xlink="http://www.w3.org/1999/xlink" x="0px" y="0px" viewBox="0 0 198.1 43.8"
	 style="enable-background:new 0 0 198.1 43.8;" xml:space="preserve">
<style type="text/css">
	.st0{fill:#EB5F0A;}
	.st1{fill:none;}
</style>
<sodipodi:namedview  bordercolor="#666666" borderopacity="1" gridtolerance="10" guidetolerance="10" id="namedview3795" inkscape:current-layer="Слой_1" inkscape:cx="80.733204" inkscape:cy="23.532075" inkscape:pageopacity="0" inkscape:pageshadow="2" inkscape:window-height="1017" inkscape:window-maximized="1" inkscape:window-width="1920" inkscape:window-x="-8" inkscape:window-y="-8" inkscape:zoom="2.7196922" objecttolerance="10" pagecolor="#ffffff" showgrid="false">
	</sodipodi:namedview>
<g id="g3790" transform="matrix(0.77393546,0,0,0.82656194,-142.59354,-106.56057)">
	<path id="path3752" inkscape:connector-curvature="0" class="st0" d="M335.5,161.4h5.9v-23.2h-17.3v2.8c0,10.1-1.3,13.9-5.3,15.3v5
		c1.5-0.2,10.7-1.7,10.8-16.7v-1.5h6.1v18.3L335.5,161.4z"/>
	<polygon id="polygon3754" class="st0" points="302.5,161.4 308.4,161.4 308.4,143.3 319.1,143.3 319.1,138.2 302.5,138.2 	"/>
	<path id="path3756" inkscape:connector-curvature="0" class="st0" d="M359.3,138h-5.8l-9.7,23.4h6.2l1.8-4.3h9.1l1.8,4.3h6.3
		L359.3,138z M353.5,152.6l2.9-7.3l2.9,7.3H353.5z"/>
	<polygon id="polygon3758" class="st0" points="399.7,138.2 393.8,138.2 393.8,161.4 399.4,161.4 409.7,147.9 409.7,161.4 
		415.5,161.4 415.5,138.2 409.9,138.2 399.7,152 	"/>
	<polygon id="polygon3760" class="st0" points="438.8,152.1 438.8,147.6 426.7,147.6 426.7,143.7 439.9,143.7 439.9,138.2 
		420.9,138.2 420.9,161.4 440.1,161.4 440.1,156.4 426.7,156.4 426.7,152.1 	"/>
	<path id="path3762" inkscape:connector-curvature="0" class="st0" d="M287.2,137.8c-4.1,0-7.7,2-10,5.1l0,0
		c-2.6,3.5-6,13.1-13,13.1c-4.4,0-6.8-3.3-6.5-6.7c0.3-3.5,3.3-6.1,6.7-5.8c1.9,0.1,3.5,1.1,4.6,2.6l3.5-4.8c-2-2-4.6-3.3-7.6-3.5
		c-6.7-0.5-12.4,4.5-12.9,11.2s4.5,12.4,11.2,12.9c0.4,0,0.9,0,1.3,0h0.1c2.8,0,6-1.2,8.1-2.8c1.6-1.2,2.8-2.5,3.8-3.8
		c2,3.9,6.2,6.6,10.9,6.6c6.7,0,12.1-5.4,12.1-12.1C299.3,143.2,293.9,137.8,287.2,137.8 M289,155.8c-0.6,0.2-1.2,0.3-1.9,0.3
		c-2.6,0-4.8-1.6-5.8-3.8c-0.3-0.8-0.5-1.6-0.5-2.4c0-0.9,0.2-1.7,0.5-2.4c1-2.3,3.2-3.8,5.8-3.8c0.6,0,1.3,0.1,1.9,0.3
		c2.6,0.8,4.4,3.1,4.4,6C293.5,152.7,291.6,155,289,155.8"/>
	<path id="path3764" inkscape:connector-curvature="0" class="st0" d="M386.2,154.2l-0.5,0.5l0,0c-1.2,1.1-2.7,1.6-4.3,1.6
		c-3.6,0-6.5-2.9-6.5-6.5s2.9-6.5,6.5-6.5c1.8,0,3.6,0.8,4.8,2.2l0.2-0.2l2.9-4c-2.2-2.2-5.2-3.4-8.2-3.4c-6.6,0-11.9,5.4-11.9,11.9
		c0,6.6,5.4,11.9,11.9,11.9c3.3,0,6.5-1.4,8.8-4L386.2,154.2z"/>
	<path id="path3766" inkscape:connector-curvature="0" class="st0" d="M339.4,178.3c-1.8,0-3.1-1.5-3.1-3.3s1.3-3.3,3-3.3
		c1.1,0,1.9,0.5,2.6,1.2l0.8-0.9c-0.8-0.8-1.8-1.5-3.4-1.5c-2.5,0-4.3,2-4.3,4.4s1.9,4.4,4.3,4.4c1.6,0,2.6-0.7,3.5-1.6l-0.8-0.8
		C341.3,177.7,340.5,178.3,339.4,178.3"/>
	<polygon id="polygon3768" class="st0" points="351.2,170.7 343.9,170.7 343.9,171.9 346.9,171.9 346.9,179.2 348.2,179.2 
		348.2,171.9 351.2,171.9 	"/>
	<path id="path3770" inkscape:connector-curvature="0" class="st0" d="M357.6,170.6c-1.6,0-2.6,0.9-3.2,1.9v-1.7h-1.3v11.1h1.3v-4.2
		c0.7,0.9,1.7,1.8,3.2,1.8c2,0,4-1.6,4-4.4C361.6,172.2,359.6,170.6,357.6,170.6 M357.3,178.2c-1.6,0-3.1-1.3-3.1-3.3
		s1.5-3.3,3.1-3.3s3,1.3,3,3.3C360.3,177,359,178.2,357.3,178.2"/>
	<path id="path3772" inkscape:connector-curvature="0" class="st0" d="M367.4,170.6c-1.2,0-2.1,0.3-3.1,0.7l0.4,1
		c0.8-0.4,1.6-0.6,2.6-0.6c1.6,0,2.5,0.8,2.5,2.3v0.3c-0.8-0.2-1.5-0.4-2.6-0.4c-2.1,0-3.6,0.9-3.6,2.8c0,1.8,1.6,2.7,3.2,2.7
		c1.5,0,2.5-0.7,3-1.4v1.3h1.2V174c0-1.1-0.3-1.9-0.9-2.5S368.6,170.6,367.4,170.6 M369.8,176.1c0,1.3-1.3,2.3-2.8,2.3
		c-1.1,0-2.1-0.6-2.1-1.7c0-1,0.9-1.7,2.5-1.7c1,0,1.8,0.2,2.5,0.4v0.7H369.8z"/>
	<polygon id="polygon3774" class="st0" points="377,174 374.5,170.7 373.1,170.7 376.3,174.9 372.9,179.2 374.4,179.2 377,175.7 
		379.6,179.2 381.1,179.2 377.7,174.9 380.9,170.7 379.5,170.7 	"/>
	<path id="path3776" inkscape:connector-curvature="0" class="st0" d="M386.4,170.6c-2.6,0-4.4,2-4.4,4.4s1.8,4.4,4.4,4.4
		s4.4-2,4.4-4.4S388.9,170.6,386.4,170.6 M386.4,178.3c-1.8,0-3.1-1.5-3.1-3.3s1.3-3.3,3.1-3.3c1.8,0,3.1,1.5,3.1,3.3
		S388.2,178.3,386.4,178.3"/>
	<path id="path3778" inkscape:connector-curvature="0" class="st0" d="M398.5,174.8c0.7-0.3,1.4-0.8,1.4-1.9c0-1.3-1.1-2.1-2.8-2.1
		H393v8.5h4.2c1.9,0,3.1-0.9,3.1-2.3C400.3,175.7,399.5,175.1,398.5,174.8 M394.3,171.8h2.6c1.1,0,1.7,0.5,1.7,1.2
		c0,0.9-0.7,1.4-1.7,1.4h-2.6V171.8z M397.1,178.1h-2.8v-2.7h2.7c1.4,0,2.1,0.5,2.1,1.3C399,177.6,398.3,178.1,397.1,178.1"/>
	<path id="path3780" inkscape:connector-curvature="0" class="st0" d="M405.8,170.6c-1.2,0-2.1,0.3-3.1,0.7l0.4,1
		c0.8-0.4,1.6-0.6,2.6-0.6c1.6,0,2.5,0.8,2.5,2.3v0.3c-0.8-0.2-1.5-0.4-2.6-0.4c-2.1,0-3.6,0.9-3.6,2.8c0,1.8,1.6,2.7,3.2,2.7
		c1.5,0,2.5-0.7,3-1.4v1.3h1.2V174c0-1.1-0.3-1.9-0.9-2.5S407,170.6,405.8,170.6 M408.2,176.1c0,1.3-1.3,2.3-2.8,2.3
		c-1.1,0-2.1-0.6-2.1-1.7c0-1,0.9-1.7,2.5-1.7c1,0,1.8,0.2,2.5,0.4v0.7H408.2z"/>
	<polygon id="polygon3782" class="st0" points="413.3,170.7 412.1,170.7 412.1,179.2 413.3,179.2 413.3,175.5 418.2,175.5 
		418.2,179.2 419.5,179.2 419.5,170.7 418.2,170.7 418.2,174.4 413.3,174.4 	"/>
	<polygon id="polygon3784" class="st0" points="423.5,179.2 428.5,172.5 428.5,179.2 429.8,179.2 429.8,170.7 428.6,170.7 
		423.5,177.4 423.5,170.7 422.3,170.7 422.3,179.2 	"/>
	<path id="path3786" inkscape:connector-curvature="0" class="st0" d="M436.1,170.6c-2.3,0-4.1,2-4.1,4.4c0,2.6,1.9,4.4,4.2,4.4
		c1.6,0,2.6-0.6,3.5-1.6l-0.8-0.7c-0.7,0.7-1.5,1.2-2.7,1.2c-1.5,0-2.8-1-3-2.8h6.7c0-0.2,0-0.3,0-0.4
		C440.1,172.6,438.6,170.6,436.1,170.6 M433.4,174.5c0.2-1.6,1.3-2.8,2.7-2.8c1.7,0,2.6,1.3,2.7,2.8H433.4z"/>
	<path id="path3788" inkscape:connector-curvature="0" class="st0" d="M225.5,129c-3.6,0-7.2,0.9-10.3,2.7
		c-3.1-1.8-6.7-2.8-10.3-2.8c-11.4,0-20.7,9.3-20.7,20.7s9.3,20.7,20.7,20.7c3.6,0,7.2-1,10.3-2.8c3.1,1.8,6.7,2.7,10.3,2.7
		c11.4,0,20.7-9.3,20.7-20.7C246.2,138.2,236.9,129,225.5,129 M198.4,149.6L198.4,149.6c-0.3,0.9-0.4,1.8-0.4,2.7
		c0,4.9,4,8.9,8.9,8.9c3.2,0,6.1-1.7,7.7-4.4l0,0l0.1-0.1c0.1-0.2,0.2-0.4,0.3-0.6l5.4-10.5l0.1-0.2l0,0l0,0c0.6-1.1,1.7-1.8,3-1.8
		c1.8,0,3.3,1.5,3.3,3.3v0.1v0.1l0,0c0,1.4-0.7,4.4-5.2,8.9c-5.7,5.8-11,7.6-11,7.7l0,0c-1.8,0.8-3.8,1.1-5.8,1.1
		c-8.4,0-15.2-6.8-15.2-15.2s6.8-15.2,15.2-15.2c1.6,0,3.1,0.2,4.6,0.7C203.7,139.7,200,144.6,198.4,149.6 M231.9,149.7L231.9,149.7
		c0.3-0.9,0.4-1.8,0.4-2.8c0-4.9-4-8.9-8.9-8.9c-3.1,0-6.1,1.7-7.7,4.4l0,0l-0.1,0.3c-0.1,0.1-0.2,0.3-0.2,0.4l-5.6,10.9
		c-0.6,1.1-1.7,1.7-2.9,1.7c-1.8,0-3.3-1.5-3.3-3.3l0,0v-0.1c0-1.4,0.8-4.4,5.2-9c5.7-5.8,10.9-7.5,11-7.5c1.9-0.8,3.8-1.2,5.9-1.2
		c8.4,0,15.2,6.8,15.2,15.2s-6.8,15.2-15.2,15.2c-1.6,0-3.2-0.2-4.7-0.7C226.7,159.6,230.4,154.8,231.9,149.7"/>
</g>
<rect id="rect3792" x="168.6" y="-217.2" class="st1" width="289.3" height="72.5"/>
</svg>
