<?xml version="1.0" encoding="utf-8"?>
<!-- Generator: Adobe Illustrator 22.0.1, SVG Export Plug-In . SVG Version: 6.00 Build 0)  -->
<svg version="1.1" id="Layer_1" xmlns="http://www.w3.org/2000/svg" xmlns:xlink="http://www.w3.org/1999/xlink" x="0px" y="0px"
	 viewBox="0 0 801.9 279" style="enable-background:new 0 0 801.9 279;" xml:space="preserve">
<style type="text/css">
	.st0{fill-rule:evenodd;clip-rule:evenodd;fill:#009CA5;}
	.st1{fill-rule:evenodd;clip-rule:evenodd;fill:#19194A;}
</style>
<g>
	<path class="st0" d="M92,75h100c4.4,0,3,4.7,3,15c0,6.1-31.9,44.5-38.2,52.8c-2,2.7-3.5,4.7-5.6,7.4l-19.6,25.6
		c-1,2.5-0.7,2.7,2.3,3.2l53.1,0c3.1,4.6,3.4,6.7,5.4,12.6c2.6,7.8,5.6,12.4,0.6,12.4H89c-6.5,0-4.7-15.2-0.6-20.6
		c2-2.6,3.8-4.6,5.8-7.2c2.8-3.7,56.7-72.7,56.6-74.3c-0.3-3.2-18-1.9-23.7-1.9c-9,0-18,0-27,0C98,96.3,92.1,80,92,75L92,75z M9,136
		c0,12.3,0.9,21.5,7,32c4.4,7.6,8.7,11.2,14.7,17.3c13.9,13.9,68.8,71.8,81.6,78.4c17,8.9,39.5,10.6,55.9,0.5
		c14.9-9.1,29.4-26.4,42-39l45.5-44.5c1.7-2,1.5-2.4,3.5-4.5c5.7-6,12.1-19.5,12.7-28.3c0.7-10.2,2-7.7-1-21.9
		c-4.6-22-22.5-34.1-35.2-46.8c-13-13.1-55.6-58.2-67.1-63.9c-28.5-14-51.5-8-73.4,13.9c-13.5,13.5-71.7,69.5-78.9,81.1
		C12.9,116.1,9,127.2,9,136L9,136z"/>
	<path class="st1" d="M558,92l1,9c6.5,1.5,4.3,1,12,1c0,16.6-2.4,67.7,4.8,79.2c8.8,14.1,33.7,12.8,45.6,6.1
		c12.2-6.9,11.5-17.4,2.6-17.4c-1.1,0-19.1,11.1-24.1,0.1c-3.6-7.9-1.9-55.3-1.9-68.1h37v64c0,34.7,45.3,28.9,55,17
		c8-9.8,1.4-13-2-13c-4.3,0-27,17.7-27-13v-55h29c8.2,0,7-6.6,7-13c-2.7-2.3-2.6-2.9-5-3h-31V64c-3.1-2.1-3.2-3-8-3
		c-15.3,0,0.2,25-25,25h-30c0-17.6,2.5-25-8-25c-10.2,0-6.6,10.3-11.6,19.4C573.1,90.1,558,84.7,558,92L558,92z"/>
	<path class="st1" d="M723,161c0-12.7,17.7-19,31-19v25c-7.9,4.2-9.5,7-21,7C726.1,174,723,168,723,161L723,161z M699,110
		c0,24.3,27,14.5,27,5c0-6.4-3-3.8-3-14c9.4-6.3,23.1-8.1,28.4,2.6c3,6.1,2.6,18,2.6,25.4c-16,0-27,0.9-40.3,7.7
		c-5,2.5-8.6,5.1-11.8,9.2c-9.2,11.6-6.7,31.8,1.4,39c12.5,11,32.7,8.3,46.8,1.3c3.2-1.6,3.4-2.3,6-4c8.8,5.9,5.7,10,22,10
		c11.4,0,21-12.3,21-13c0-3.7-1.5-4.8-3-7c-10,0-3.2,0.4-9,2.1c-3.3,0.9-2.1,0.3-6-0.1c-0.1-4.4-1-5.4-1-11
		c0.1-16,1.8-47.2-2.8-60.2c-2.2-6.3-6.2-11.1-11.8-14.2C740.8,74.8,699,86.2,699,110L699,110z"/>
	<path class="st1" d="M513,96c16.9,0,18,14,18,25h-39c1.3-2.6,1.1-6,2-9C496.3,103.3,503.1,96,513,96L513,96z M463,137
		c0,6.7,1.7,17,3.6,22.4c3.7,10.7,8.1,16.8,16.1,22.9c15.1,11.5,44,13.2,60.6,4.1c4.5-2.5,13.7-9.4,13.7-15.3c0-3.3-3.7-4.8-6-6
		c-5.8,2.8-10.6,6.5-18,7c-12.7,0.8-28.2,1.9-35.7-12.3c-4.4-8.4-5.3-14.6-5.3-24.7h57c11.2,0,9.7-6.1,9-15
		c-3.6-44-69.8-53.5-90.3-5.3C465.4,119.9,463,130.1,463,137L463,137z"/>
	<path class="st1" d="M377,87c-0.8,3.6-1.9,12.9-2,17c-0.2,11.7-4.8,15,7,15c6.2,0,4.2-14.9,14.4-18.6C403.1,97.9,419,99,428,99
		l-48.3,73.7c-4.7,8.6-5.7,7.4-5.7,15.3c2,1,2.9,2,6,2h76c3.8,0,0.4,0.3,3-1c1.2-2.5,3-26.8,3-32c-5.7-3-5.6-2.2-11-1
		c-6.6,13.7-1.1,22-30,22c-5.7,0-7.6-1-14-1c1.6-6,21.7-35.5,26.4-42.6c3.2-4.8,26.6-39.9,26.6-42.4c0-3.8-3-6-7-6
		C442.3,86,382.6,84.8,377,87L377,87z"/>
	<path class="st1" d="M278,91h2c2.4-4.2,1-69.8,1-80c0-5.2-4.5-11-10-11h-81c0.1,5.9-0.2,2.3,9.8,12.2l72.5,72.5
		C273.3,85.8,277.4,91,278,91L278,91z"/>
	<path class="st1" d="M0,266c0,6.6,3.5,13,10,13h81c-0.1-6.6-1.3-3.7-9.8-12.2L6.5,191.5C4.4,189,6.6,189,0,189V266L0,266z"/>
	<path class="st1" d="M0,13v75c0,9,9.8-4.3,13.2-7.8c4.1-4.1,7.4-7.4,11.5-11.5L86.4,7.4C89.9,4.8,90.9,5.5,91,0H10
		C3.5,0,0,6.4,0,13L0,13z"/>
	<path class="st1" d="M190,279h81c5.5,0,10-5.8,10-11v-79c-6.9,0-3.3-0.6-7.2,3.8c-1.9,2.1-3.5,3.5-5.5,5.5l-73.5,73.5
		C190.8,275.5,190.1,272.7,190,279L190,279z"/>
	<path class="st1" d="M795,70l-5,2.1L787,70c-1.9-0.5-1.5-0.2-3-1c-0.9-3.8-1.9-7,0.7-10.3c0.9-1.1,2.2-2,3.6-2.4
		c5.7-1.7,5.6,0.7,5.6,0.7l1,1C800,61.3,800,66.7,795,70L795,70z M780,63c0,4.1,0,6.1,3.2,8.8c11.5,9.9,24.8-6.3,15.6-15.6
		C792.3,49.7,780,53.8,780,63L780,63z"/>
	<path class="st1" d="M787,70h8v-3c-11.6,0-7.9-6.2-3.1-6.7c2.4-0.3,1.9,2.3,3.1-2.3l-1-1c-5,0-7.5,0.6-9,4.1
		C783.6,64.4,785.2,67.3,787,70L787,70z"/>
</g>
</svg>
