<?xml version="1.0" encoding="UTF-8"?>
<svg width="120px" height="53px" viewBox="0 0 120 53" version="1.1" xmlns="http://www.w3.org/2000/svg" xmlns:xlink="http://www.w3.org/1999/xlink">
    <!-- Generator: Sketch 52.1 (67048) - http://www.bohemiancoding.com/sketch -->
    <title>Group 27</title>
    <desc>Created with Sketch.</desc>
    <g id="Symbols" stroke="none" stroke-width="1" fill="none" fill-rule="evenodd">
        <g id="Elements/Logo-big">
            <g id="Group-27" transform="translate(0.257496, 0.666667)">
                <path d="M16.0557729,10.1183885 C16.0557729,6.82806987 13.8018128,3.28664587 8.85435843,3.28664587 L0.928371267,3.28664587 C0.415780983,3.28664587 0.000199606809,3.70222725 0.000199606809,4.21521674 L0.000199606809,23.1746699 C0.000199606809,23.6876594 0.415780983,24.1032407 0.928371267,24.1032407 L2.48690123,24.1032407 C2.99949151,24.1032407 3.4154721,23.6876594 3.4154721,23.1746699 L3.4154721,6.44722008 L8.85435843,6.44722008 C9.95938172,6.44722008 10.9051188,6.81329897 11.5889717,7.50753145 C12.2708286,8.19936865 12.6540736,9.16905852 12.6393027,10.1682902 L12.6393027,10.1754761 C12.6393027,12.438618 11.182173,13.7895569 8.74178019,13.7895569 L5.36882433,13.7895569 C4.90932946,13.7895569 4.66181702,14.329693 4.96242487,14.6778072 L12.8947994,23.8708984 C13.0217494,24.0186074 13.2069845,24.1032407 13.4018007,24.1032407 L16.306479,24.1032407 C16.764377,24.1032407 17.0070989,23.5619071 16.7020997,23.219781 L10.8236792,16.6295626 C14.6984466,15.9133734 16.0805241,12.8673735 16.0557729,10.1183885" id="Fill-1" fill="#152B6F"></path>
                <path d="M20.8410667,15.0953048 C21.3592459,13.1168021 23.0291565,11.8684612 25.2304204,11.8684612 C27.646062,11.8684612 29.1586824,13.0365602 29.4505075,15.0953048 L20.8410667,15.0953048 Z M25.3022788,8.82246126 C21.150058,8.77455563 17.6737058,11.8405162 17.449747,15.9871481 C17.180677,20.9661403 20.3991372,24.3586576 25.2867095,24.3586576 C27.5550413,24.3586576 29.7459256,23.5506492 31.1902805,22.2144813 C31.3747172,22.0436178 31.3663337,22.049606 31.3663337,22.049606 C31.7364047,21.6875193 31.7348079,21.0910942 31.3623415,20.7306043 L30.5036331,19.9006391 C30.1443408,19.5533233 29.5738645,19.556517 29.2185644,19.9070266 C29.2185644,19.9070266 29.143113,19.9804819 28.9658622,20.119009 C28.0093464,20.8667361 26.5106985,21.2555702 25.3441963,21.2555702 C23.0099942,21.2555702 21.2530551,19.9681062 20.8163154,17.9999831 L32.4034907,17.9999831 C32.5140728,17.9999831 32.6086865,17.9145514 32.6250542,17.8027716 L32.6561929,17.5724253 C32.9168794,14.8653578 32.3152645,12.6197812 30.9164199,11.0792158 C29.599015,9.62927198 27.6600345,8.84960779 25.3022788,8.82246126 Z" id="Fill-3" fill="#152B6F"></path>
                <path d="M45.4751817,19.9213583 C44.646015,20.8678938 43.4543623,21.3685077 42.0275729,21.3685077 C39.3899685,21.3685077 37.4761384,19.406772 37.4761384,16.7036966 C37.4761384,13.9742731 39.3476519,12.0676288 42.0275729,12.0676288 L42.231571,12.0420792 C45.2488275,12.1299062 46.6245177,14.4952468 46.6245177,16.6953131 C46.6245177,17.9288832 46.2161221,19.0746262 45.4751817,19.9213583 Z M46.6792099,10.7785681 C45.501929,9.58691542 43.7294205,8.91543811 41.8814607,8.90665541 C39.738482,8.90665541 37.7995014,9.66116915 36.4174239,11.0336656 C35.0054053,12.4353046 34.2596743,14.3667001 34.2596743,16.6190633 C34.2596743,21.2263876 37.4070745,24.4436502 41.913797,24.4436502 C43.4060575,24.4436502 45.2867528,23.9138937 46.6376917,22.5070649 L46.6532611,23.2048903 C46.664439,23.7043066 47.0728346,24.1035202 47.57265,24.1035202 L48.9902576,24.1035202 C49.4980573,24.1035202 49.9096465,23.6915317 49.9096465,23.183732 L49.9096465,10.0535961 C49.9096465,9.54579641 49.4980573,9.13420717 48.9902576,9.13420717 L47.6069824,9.13420717 C47.1031748,9.13420717 46.6931824,9.539409 46.6875934,10.0432166 L46.6792099,10.7785681 Z" id="Fill-5" fill="#152B6F"></path>
                <path d="M60.130074,21.1985225 C57.9068534,21.1985225 55.6640713,19.7737291 55.6640713,16.5900005 C55.6640713,13.7955052 57.4106309,11.9886644 60.1153031,11.982277 C62.7293539,11.9886644 64.6248202,13.9124748 64.6248202,16.5620556 C64.6248202,19.2487632 62.7341445,21.1985225 60.130074,21.1985225 Z M64.7098527,10.7259517 C63.3764792,9.38499317 61.4227277,8.8787903 59.9312657,8.8787903 C55.4209502,8.8787903 52.3901204,11.9894628 52.3901204,16.6187439 C52.3901204,21.2484242 55.4321282,24.3586975 59.960009,24.3586975 C61.8730407,24.3586975 63.6000388,23.6361209 64.7976796,22.3774003 L64.8336089,23.1961875 C64.8551664,23.6876194 65.2603682,24.0752559 65.7521994,24.0752559 L67.0644146,24.0752559 C67.5722143,24.0752559 67.9838035,23.6636666 67.9838035,23.1554677 L67.9838035,4.20639412 C67.9838035,3.69819519 67.5722143,3.28660595 67.0644146,3.28660595 L65.6292416,3.28660595 C65.1214419,3.28660595 64.7098527,3.69819519 64.7098527,4.20639412 L64.7098527,10.7259517 Z" id="Fill-7" fill="#152B6F"></path>
                <path d="M82.6004512,9.13400757 C82.0930507,9.13400757 81.6818607,9.54559681 81.6818607,10.0529973 L81.6818607,17.1294579 C81.6818607,19.4792292 80.0638479,21.201836 77.8402281,21.2265873 C75.4700968,21.2265873 74.0552838,19.7694575 74.0552838,17.3282663 L74.0552838,10.0529973 C74.0552838,9.54559681 73.6440937,9.13400757 73.1366932,9.13400757 L71.6999234,9.13400757 C71.1925229,9.13400757 70.7813329,9.54559681 70.7813329,10.0529973 L70.7813329,17.3566104 C70.7813329,21.5930654 73.3622489,24.3300739 77.363567,24.3300739 C79.2163174,24.3033266 80.6782377,23.7647874 81.7952374,22.6909028 L81.7952374,24.0278692 C81.7952374,26.6638767 80.348088,28.237976 77.9256598,28.237976 C76.0413715,28.237976 74.9399411,27.681073 74.4652761,26.4554872 C74.3666704,26.2011881 74.2904206,25.8307179 74.2904206,25.8307179 C74.1990007,25.3452741 73.7255333,25.0147253 73.2380935,25.0961648 L71.9123051,25.3177284 C71.4092959,25.4019625 71.0715612,25.8798212 71.1601866,26.3820319 C71.1601866,26.3820319 71.1729614,26.5988049 71.278753,27.0052044 C72.0061203,29.7981028 74.3746546,31.3702061 77.9540039,31.3702061 C81.3389362,31.3702061 84.9558116,29.4559768 84.9558116,24.0841583 L84.9558116,10.0529973 C84.9558116,9.54559681 84.5446215,9.13400757 84.037221,9.13400757 L82.6004512,9.13400757 Z" id="Fill-9" fill="#152B6F"></path>
                <path d="M108.541552,0.283082376 L96.7212357,17.1805972 C95.875302,18.3898152 95.4213962,19.8305772 95.4213962,21.3060707 C95.4213962,22.8510274 96.6737293,24.1033605 98.218686,24.1033605 C98.4961394,24.1033605 98.6530304,23.9756121 98.9576304,23.5404693 C99.2626296,23.1053265 114.878269,0.818028623 114.878269,0.818028623 C115.119794,0.473507272 114.87308,3.99213617e-05 114.452708,3.99213617e-05 L109.084482,3.99213617e-05 C108.868108,3.99213617e-05 108.665707,0.10583153 108.541552,0.283082376" id="Fill-11" fill="#152B6F"></path>
                <path d="M119.668474,23.284254 L112.517759,13.1310541 C112.147289,12.6052897 111.367625,12.6052897 110.996755,13.1310541 L103.84644,23.284254 C103.603718,23.6283761 103.850033,24.1034403 104.271204,24.1034403 L108.541592,24.1034403 L108.541592,30.1603093 C108.541592,30.6740973 108.957971,31.0904771 109.471759,31.0904771 L114.043154,31.0904771 C114.556942,31.0904771 114.973322,30.6740973 114.973322,30.1603093 L114.973322,24.1034403 L119.24371,24.1034403 C119.664481,24.1034403 119.910796,23.6283761 119.668474,23.284254" id="Fill-13" fill="#F8C10A"></path>
                <g id="Group-6" transform="translate(0.000000, 32.651250)" fill="#F8C10A">
                    <polygon id="Fill-15" points="5.97522982 2.99732833 0.000199606809 2.99732833 0.000199606809 0.373696439 14.8601281 0.373696439 14.8601281 2.99732833 8.91104676 2.99732833 8.91104676 18.5590744 5.97522982 18.5590744"></polygon>
                    <path d="M15.9762495,5.75126355 L16.1582909,7.43993715 C17.0936484,5.80356053 18.5483829,5.46502739 19.9252706,5.46502739 C21.172414,5.46502739 22.3672603,5.90695686 23.0950267,6.55687663 L21.8738323,8.89467157 C21.2243117,8.37529466 20.6007401,8.11540659 19.6134848,8.11540659 C17.7691179,8.11540659 16.1582909,9.25835518 16.1582909,11.6228974 L16.1582909,18.559234 L13.4823621,18.559234 L13.4823621,5.75126355 L15.9762495,5.75126355 Z" id="Fill-17"></path>
                    <path d="M26.1072532,12.1421945 C26.1072532,14.7921745 27.977569,16.4030014 30.2638654,16.4030014 C35.7973653,16.4030014 35.7973653,7.90813488 30.2638654,7.90813488 C27.977569,7.90813488 26.1072532,9.51856262 26.1072532,12.1421945 Z M34.4987234,5.75118371 L37.0964064,5.75118371 L37.0964064,18.5591542 L34.5506212,18.5591542 L34.4208768,16.4808481 C33.5633659,18.1176239 31.5888554,18.8968889 30.0039773,18.8968889 C26.2629465,18.9228378 23.4313243,16.5071962 23.4313243,12.1421945 C23.4313243,7.8558379 26.3671412,5.46494754 30.0562743,5.46494754 C31.8746923,5.46494754 33.6152637,6.32285761 34.4208768,7.77759203 L34.4987234,5.75118371 Z" id="Fill-19"></path>
                    <polygon id="Fill-21" points="52.7091719 5.72555419 47.2790683 18.6113713 44.3436506 18.6113713 38.8879973 5.72555419 41.8497631 5.72555419 43.5639864 9.85621749 45.8243339 15.805698 47.8511414 10.3755944 49.773355 5.72555419"></polygon>
                    <path d="M63.775054,10.8950512 C63.6189615,8.86864285 62.1382782,7.80394013 59.9821255,7.80394013 C58.0335638,7.80394013 56.4227369,8.86864285 56.0071555,10.8950512 L63.775054,10.8950512 Z M55.9552577,13.1553987 C56.1887977,15.1039603 57.7996246,16.3766533 60.1378188,16.3766533 C61.4368599,16.3766533 63.0736357,15.8832253 63.8529007,15.0001648 L65.5938713,16.6892376 C64.2684821,18.1435728 62.0604316,18.87094 60.085921,18.87094 C55.8770118,18.87094 53.1755333,16.1950112 53.1755333,12.090696 C53.1755333,8.19317341 55.9029607,5.4138482 59.9038796,5.4138482 C64.0345429,5.4138482 66.8406154,7.93368455 66.3471874,13.1553987 L55.9552577,13.1553987 Z" id="Fill-23"></path>
                    <polygon id="Fill-25" points="69.0188447 18.5590744 71.6951728 18.5590744 71.6951728 0.399645324 69.0188447 0.399645324"></polygon>
                </g>
            </g>
        </g>
    </g>
</svg>