<?xml version="1.0" encoding="UTF-8"?>
<svg width="139px" height="38px" viewBox="0 0 139 38" version="1.1" xmlns="http://www.w3.org/2000/svg" xmlns:xlink="http://www.w3.org/1999/xlink">
    <!-- Generator: Sketch 52.1 (67048) - http://www.bohemiancoding.com/sketch -->
    <title>Group 5</title>
    <desc>Created with Sketch.</desc>
    <defs>
        <polygon id="path-1" points="0.139535271 0.138795766 16.5500663 0.138795766 16.5500663 25.8826604 0.139535271 25.8826604"></polygon>
        <polygon id="path-3" points="0.0108152545 0.194119953 22.6470936 0.194119953 22.6470936 28.0997414 0.0108152545 28.0997414"></polygon>
    </defs>
    <g id="Symbols" stroke="none" stroke-width="1" fill="none" fill-rule="evenodd">
        <g id="Footer-origin" transform="translate(-2.000000, 0.000000)">
            <g id="Group-10" transform="translate(0.000000, 0.082031)">
                <g id="Group-5" transform="translate(1.627002, 0.117188)">
                    <g id="Group-17-Copy" transform="translate(0.506424, 0.072994)">
                        <path d="M18.5886032,12.1767287 C18.5886032,8.3673557 15.9790764,4.26726498 10.2511512,4.26726498 L1.07482369,4.26726498 C0.481371264,4.26726498 0.000231095182,4.74840515 0.000231095182,5.34185757 L0.000231095182,27.2926645 C0.000231095182,27.8865792 0.481371264,28.3677193 1.07482369,28.3677193 L2.87921487,28.3677193 C3.4726673,28.3677193 3.95426966,27.8865792 3.95426966,27.2926645 L3.95426966,7.9259639 L10.2511512,7.9259639 C11.5304941,7.9259639 12.6254231,8.35025466 13.4171552,9.15354151 C14.2065763,9.9549796 14.6502791,11.0781022 14.633178,12.2345025 L14.633178,12.2423597 C14.633178,14.8629791 12.9461832,16.4270313 10.1208135,16.4270313 L6.21576712,16.4270313 C5.68378601,16.4270313 5.39722798,17.0523748 5.74525732,17.4549426 L14.9289799,28.0987245 C15.0759564,28.269735 15.2904127,28.3677193 15.5159616,28.3677193 L18.8788587,28.3677193 C19.4089911,28.3677193 19.6900028,27.7409892 19.3368894,27.3448921 L12.5311363,19.7150535 C17.0171559,18.885884 18.617259,15.3593715 18.5886032,12.1767287" id="Fill-1" fill="#152B6F"></path>
                        <path d="M24.1287866,17.9389484 C24.7287097,15.6483329 26.662052,14.2030637 29.2105697,14.2030637 C32.0072836,14.2030637 33.7585229,15.5549705 34.096384,17.9389484 L24.1287866,17.9389484 Z M29.293764,10.6765512 C24.486522,10.6210884 20.4617683,14.1707104 20.2024795,18.9714817 C19.8909632,24.7359199 23.6171419,28.6636136 29.2757385,28.6636136 C31.9019042,28.6636136 34.4384049,27.7276781 36.1106096,26.1811892 C36.3241416,25.9833717 36.3144356,25.9898423 36.3144356,25.9898423 C36.7428861,25.5706357 36.7410373,24.8801233 36.3098137,24.4632276 L35.3156422,23.5023338 C34.8996709,23.1002282 34.2392008,23.1034635 33.8278514,23.5092667 C33.8278514,23.5092667 33.7404974,23.5947719 33.5352849,23.7546897 C32.4278768,24.6208345 30.6928142,25.0705457 29.3422939,25.0705457 C26.6398669,25.0705457 24.6057671,23.580444 24.1001308,21.3018455 L37.5152062,21.3018455 C37.6432329,21.3018455 37.752772,21.2029367 37.7717218,21.0735234 L37.8077727,20.8068396 C38.109583,17.6722646 37.4130621,15.0724438 35.793547,13.2893133 C34.2683188,11.6101757 32.0234602,10.7079801 29.293764,10.6765512 Z" id="Fill-3" fill="#152B6F"></path>
                        <path d="M52.6489826,23.5260904 C51.6890132,24.6219437 50.3093749,25.2015305 48.6575066,25.2015305 C45.6038148,25.2015305 43.3880742,22.930327 43.3880742,19.8008361 C43.3880742,16.6408405 45.5548227,14.4334194 48.6575066,14.4334194 L48.8936859,14.403377 C52.3869206,14.5055211 53.9796286,17.243999 53.9796286,19.7911301 C53.9796286,21.2192983 53.5068079,22.5457846 52.6489826,23.5260904 Z M54.0429487,12.9410067 C52.6799493,11.5613684 50.6278241,10.783502 48.4883449,10.7742582 C46.007307,10.7742582 43.7624484,11.6468736 42.1623454,13.2363463 C40.5275781,14.8595589 39.6642065,17.0951737 39.6642065,19.7028517 C39.6642065,25.0369907 43.3081153,28.7617828 48.5257823,28.7617828 C50.2534499,28.7617828 52.4308287,28.1484562 53.9948809,26.5196974 L54.0129063,27.3276061 C54.0258477,27.9058063 54.4986684,28.3679967 55.0773307,28.3679967 L56.7185687,28.3679967 C57.3064749,28.3679967 57.7829931,27.8910162 57.7829931,27.3031101 L57.7829931,12.101669 C57.7829931,11.5137628 57.3064749,11.0372446 56.7185687,11.0372446 L55.1170791,11.0372446 C54.5337949,11.0372446 54.0591254,11.50683 54.0526547,12.089652 L54.0429487,12.9410067 Z" id="Fill-5" fill="#152B6F"></path>
                        <path d="M69.6157135,25.0047298 C67.0417754,25.0047298 64.4451899,23.3551724 64.4451899,19.6692042 C64.4451899,16.4343339 66.4672728,14.3419981 69.5986125,14.3346031 C72.625035,14.3419981 74.8195148,16.5692935 74.8195148,19.6368509 C74.8195148,22.7473921 72.6305813,25.0047298 69.6157135,25.0047298 Z M74.9179614,12.88009 C73.3742456,11.3275925 71.1122859,10.7415352 69.3855427,10.7415352 C64.163716,10.7415352 60.6547667,14.3424603 60.6547667,19.7024819 C60.6547667,25.0625036 64.1766573,28.6634287 69.4188204,28.6634287 C71.6336367,28.6634287 73.6330722,27.8268642 75.0196433,26.369578 L75.0612404,27.3175304 C75.0861987,27.8864867 75.5553219,28.3352736 76.1247404,28.3352736 L77.6439602,28.3352736 C78.2318663,28.3352736 78.7083846,27.8587553 78.7083846,27.270387 L78.7083846,5.33159695 C78.7083846,4.7436908 78.2318663,4.26717254 77.6439602,4.26717254 L75.9823858,4.26717254 C75.3944797,4.26717254 74.9179614,4.7436908 74.9179614,5.33159695 L74.9179614,12.88009 Z" id="Fill-7" fill="#152B6F"></path>
                        <g id="Group-11" transform="translate(81.807694, 10.898449)">
                            <mask id="mask-2" fill="white">
                                <use xlink:href="#path-1"></use>
                            </mask>
                            <g id="Clip-10"></g>
                            <path d="M13.8231432,0.138795766 C13.2356992,0.138795766 12.7596432,0.614851842 12.7596432,1.20229579 L12.7596432,9.39554438 C12.7596432,12.1159969 10.8863856,14.1103483 8.31198529,14.1390041 C5.5679611,14.1390041 3.92995845,12.4515471 3.92995845,9.62571519 L3.92995845,1.20229579 C3.92995845,0.614851842 3.45390237,0.138795766 2.86645842,0.138795766 L1.2030353,0.138795766 C0.615591346,0.138795766 0.139535271,0.614851842 0.139535271,1.20229579 L0.139535271,9.65806851 C0.139535271,14.5628327 3.12759598,17.732072 7.76013,17.732072 C9.90515548,17.7011052 11.5976966,17.0776104 12.8909052,15.8338562 L12.8909052,17.3817317 C12.8909052,20.4340369 11.2154652,22.2564535 8.41089403,22.2564535 C6.22935551,22.2564535 4.9541723,21.6112357 4.40462795,20.1923113 C4.29046693,19.897896 4.20218857,19.4694456 4.20218857,19.4694456 C4.09634698,18.9074221 3.54818921,18.5247285 2.98385477,18.6190153 L1.44892057,18.8755309 C0.866560714,18.9730531 0.475547666,19.526295 0.578153927,20.1077305 C0.578153927,20.1077305 0.592944018,20.3586998 0.715424465,20.8287474 C1.55753531,24.0622312 4.29971074,25.8827991 8.44370955,25.8827991 C12.3626216,25.8827991 16.5500663,23.6665963 16.5500663,17.4473627 L16.5500663,1.20229579 C16.5500663,0.614851842 16.0740103,0.138795766 15.4865663,0.138795766 L13.8231432,0.138795766 Z" id="Fill-9" fill="#152B6F" mask="url(#mask-2)"></path>
                        </g>
                        <g id="Group-14" transform="translate(110.463497, 0.268070)">
                            <mask id="mask-4" fill="white">
                                <use xlink:href="#path-3"></use>
                            </mask>
                            <g id="Clip-13"></g>
                            <path d="M15.2007016,0.521766702 L1.51570708,20.0848983 C0.536325699,21.4848729 0.0108152545,23.1529179 0.0108152545,24.8611735 C0.0108152545,26.6498502 1.46070643,28.0997414 3.24938314,28.0997414 C3.57060544,28.0997414 3.75224625,27.9518404 4.1048975,27.4480529 C4.45801094,26.9442655 22.5370492,1.1406396 22.5370492,1.1406396 C22.8166744,0.742231506 22.5310408,0.194073734 22.0443543,0.194073734 L15.8292805,0.194073734 C15.5787733,0.194073734 15.3444428,0.316554181 15.2007016,0.521766702" id="Fill-12" fill="#152B6F" mask="url(#mask-4)"></path>
                        </g>
                        <path d="M138.546415,27.4194896 L130.267661,15.664602 C129.838748,15.0558973 128.93609,15.0558973 128.506716,15.664602 L120.228424,27.4194896 C119.947412,27.8178977 120.232584,28.3679042 120.720195,28.3679042 L125.664245,28.3679042 L125.664245,35.3802564 C125.664245,35.9750954 126.146309,36.45716 126.741148,36.45716 L132.03369,36.45716 C132.628529,36.45716 133.110594,35.9750954 133.110594,35.3802564 L133.110594,28.3679042 L138.054644,28.3679042 C138.541793,28.3679042 138.826964,27.8178977 138.546415,27.4194896" id="Fill-15" fill="#152B6F"></path>
                    </g>
                </g>
            </g>
        </g>
    </g>
</svg>