<svg xmlns="http://www.w3.org/2000/svg" width="42" height="54" viewBox="0 0 42 54">
    <g fill="none" fill-rule="evenodd">
        <path fill="#152B6F" fill-rule="nonzero" d="M42 37v17L30 42H5a5 5 0 0 1-5-5V5a5 5 0 0 1 5-5h32a5 5 0 0 1 5 5v32z"/>
        <path fill="#FFF" d="M21.128 10.309a.512.512 0 0 1 .42-.219h4.143c.325 0 .515.366.329.632l-12.29 17.54c-.235.336-.356.435-.57.435a2.16 2.16 0 0 1-2.16-2.16c0-1.139.35-2.25 1.003-3.184l9.125-13.044zm8.59 17.755a.401.401 0 0 1-.329.633h-3.296v4.675a.718.718 0 0 1-.718.718h-3.529a.718.718 0 0 1-.718-.718v-4.675h-3.296a.401.401 0 0 1-.328-.633l5.52-7.837a.718.718 0 0 1 1.173 0l5.52 7.837z"/>
    </g>
</svg>
