<?xml version="1.0" encoding="UTF-8"?>
<svg xmlns="http://www.w3.org/2000/svg" xmlns:xlink="http://www.w3.org/1999/xlink" width="84px" height="37px" viewBox="0 0 84 37" version="1.1"><title>Group 21</title> <desc>Created with Sketch.</desc> <defs><polygon id="path-1" points="0 35.724778 82.9169735 35.724778 82.9169735 0 0 0"></polygon></defs> <g id="UI-Kit" stroke="none" stroke-width="1" fill="none" fill-rule="evenodd"><g id="320(Menu-products)" transform="translate(-93.000000, -416.000000)"><g id="Group-21" transform="translate(93.791285, 416.395877)"><path d="M11.1159877,7.00532343 C11.1159877,4.72759416 9.55549023,2.27546287 6.13019005,2.27546287 L0.64274474,2.27546287 C0.287860093,2.27546287 0.000138194956,2.56346115 0.000138194956,2.9183458 L0.000138194956,16.0449319 C0.000138194956,16.3998165 0.287860093,16.6875384 0.64274474,16.6875384 L1.72177096,16.6875384 C2.0766556,16.6875384 2.36465389,16.3998165 2.36465389,16.0449319 L2.36465389,4.4636418 L6.13019005,4.4636418 C6.89523732,4.4636418 7.55000503,4.71736774 8.02346094,5.1977334 C8.49553491,5.67671712 8.76086923,6.34834461 8.7506428,7.03987217 L8.7506428,7.04484718 C8.7506428,8.61170159 7.74181962,9.54700505 6.05224809,9.54700505 L3.71702973,9.54700505 C3.39890494,9.54700505 3.22754319,9.92096061 3.4356648,10.1619726 L8.92753235,16.5269559 C9.01542434,16.6289438 9.14366926,16.6875384 9.27854753,16.6875384 L11.2895605,16.6875384 C11.6065798,16.6875384 11.7746248,16.3127537 11.5634629,16.0761639 L7.49362148,11.5132429 C10.176262,11.0173994 11.1331238,8.90882075 11.1159877,7.00532343" id="Fill-1" fill="#152B6F"></path> <path d="M14.4290183,10.4510212 C14.7877724,9.08150917 15.9439114,8.21696152 17.4679253,8.21696152 C19.1403607,8.21696152 20.1876021,9.0256784 20.3896431,10.4510212 L14.4290183,10.4510212 Z M17.5176755,6.10810649 C14.6429441,6.07493971 12.2361407,8.19761423 12.081086,11.0684762 C11.8947992,14.5156112 14.1230546,16.8643727 17.5068963,16.8643727 C19.0773438,16.8643727 20.5941716,16.3049595 21.5941503,15.3798825 C21.7218425,15.261864 21.7160383,15.2657334 21.7160383,15.2657334 C21.9722517,15.0150478 21.9711462,14.6021213 21.7132744,14.3528176 L21.1187597,13.7779265 C20.8700088,13.5377437 20.4750476,13.5396784 20.2290606,13.7823488 C20.2290606,13.7823488 20.1768229,13.8334809 20.0541057,13.9293882 C19.3918755,14.4467901 18.3543078,14.7159939 17.5466965,14.7159939 C15.9306447,14.7159939 14.7142527,13.8246364 14.4118821,12.4623106 L22.4340993,12.4623106 C22.5106593,12.4623106 22.5761637,12.4028867 22.5874957,12.3254976 L22.6090541,12.1660206 C22.7895367,10.2918206 22.3730171,8.73712734 21.4045469,7.67053867 C20.4924601,6.66669051 19.1500343,6.12690101 17.5176755,6.10810649 Z" id="Fill-3" fill="#152B6F"></path> <path d="M31.4841,13.7922712 C30.9100381,14.4478681 30.0850143,14.7941846 29.0971967,14.7941846 C27.2710886,14.7941846 25.9460753,13.4360046 25.9460753,11.5645685 C25.9460753,9.67489067 27.2417912,8.35485245 29.0971967,8.35485245 L29.238432,8.33716349 C31.3273869,8.39796927 32.2798265,10.0355795 32.2798265,11.5590407 C32.2798265,12.4128091 31.9970797,13.2060482 31.4841,13.7922712 Z M32.317692,7.46266581 C31.5026181,6.63736554 30.2754469,6.1724777 28.996038,6.16667352 C27.512377,6.16667352 26.1699512,6.68877406 25.2130893,7.63900258 C24.2354982,8.60968395 23.7192018,9.94658195 23.7192018,11.5059738 C23.7192018,14.6957898 25.8982599,16.9234925 29.0184256,16.9234925 C30.0515711,16.9234925 31.353644,16.5564467 32.2889474,15.5824486 L32.2997266,16.0655782 C32.3074655,16.411342 32.5902124,16.6877319 32.9362526,16.6877319 L33.9177132,16.6877319 C34.2692811,16.6877319 34.5542391,16.4024975 34.5542391,16.0512059 L34.5542391,6.96046534 C34.5542391,6.60917377 34.2692811,6.32393938 33.9177132,6.32393938 L32.9600221,6.32393938 C32.6112181,6.32393938 32.3273656,6.60447514 32.3234962,6.9535556 L32.317692,7.46266581 Z" id="Fill-5" fill="#152B6F"></path> <path d="M41.6302078,14.6764978 C40.0909924,14.6764978 38.5382339,13.6900622 38.5382339,11.4858526 C38.5382339,9.55139965 39.7474397,8.30045891 41.6199814,8.29576029 C43.4297825,8.30045891 44.7420818,9.63210551 44.7420818,11.4665054 C44.7420818,13.3266095 43.4330992,14.6764978 41.6302078,14.6764978 Z M44.8009529,7.42596123 C43.8778106,6.49756752 42.5251584,6.14710511 41.4925656,6.14710511 C38.3699124,6.14710511 36.2715602,8.3007353 36.2715602,11.5057527 C36.2715602,14.7110465 38.3776513,16.8644003 41.5124657,16.8644003 C42.8369262,16.8644003 44.0325889,16.3641346 44.8617587,15.4929536 L44.8866338,16.0595529 C44.9015588,16.3997889 45.1820946,16.6681635 45.5226069,16.6681635 L46.4311006,16.6681635 C46.7826686,16.6681635 47.0676266,16.3832055 47.0676266,16.0313611 L47.0676266,2.91223758 C47.0676266,2.56039323 46.7826686,2.27543523 46.4311006,2.27543523 L45.4374789,2.27543523 C45.0859109,2.27543523 44.8009529,2.56039323 44.8009529,2.91223758 L44.8009529,7.42596123 Z" id="Fill-7" fill="#152B6F"></path> <path d="M57.1872562,6.32407757 C56.8359647,6.32407757 56.551283,6.60875918 56.551283,6.96005076 L56.551283,11.8596147 C56.551283,13.4861694 55.4310747,14.6790682 53.8915829,14.695928 C52.250656,14.695928 51.2711302,13.6871048 51.2711302,11.9969805 L51.2711302,6.96005076 C51.2711302,6.60875918 50.9864486,6.32407757 50.635157,6.32407757 L49.6404297,6.32407757 C49.2891381,6.32407757 49.0044565,6.60875918 49.0044565,6.96005076 L49.0044565,12.0168806 C49.0044565,14.9496539 50.7913173,16.8445832 53.5615734,16.8445832 C54.8442989,16.826065 55.8564388,16.4534914 56.6297778,15.7097262 L56.6297778,16.635356 C56.6297778,18.4603586 55.6278643,19.5504404 53.9507304,19.5504404 C52.64617,19.5504404 51.8836102,19.1646001 51.5549826,18.3160831 C51.4867143,18.1400227 51.4339238,17.8835329 51.4339238,17.8835329 C51.3706305,17.5474427 51.0428321,17.3185919 50.70536,17.3749754 L49.7874691,17.5283718 C49.4392178,17.5866901 49.205392,17.9175288 49.2667505,18.2652273 C49.2667505,18.2652273 49.275595,18.415307 49.3488383,18.696672 C49.8524207,20.6302958 51.4922421,21.7187193 53.970354,21.7187193 C56.3138641,21.7187193 58.8179567,20.3934296 58.8179567,16.6746034 L58.8179567,6.96005076 C58.8179567,6.60875918 58.5332751,6.32407757 58.1819835,6.32407757 L57.1872562,6.32407757 Z" id="Fill-9" fill="#152B6F"></path> <path d="M75.1472109,0.195988086 L66.963582,11.8947439 C66.3779118,12.7319289 66.0636564,13.7294201 66.0636564,14.7512336 C66.0636564,15.8205862 66.9306916,16.6876213 68.0003206,16.6876213 C68.1924115,16.6876213 68.3010328,16.5991766 68.5119183,16.2979116 C68.7230802,15.9966466 79.534348,0.566350568 79.534348,0.566350568 C79.7015639,0.328102464 79.5307549,2.76389912e-05 79.2397163,2.76389912e-05 L75.5231012,2.76389912e-05 C75.3732978,2.76389912e-05 75.2331682,0.0732709656 75.1472109,0.195988086" id="Fill-11" fill="#152B6F"></path> <path d="M82.8507782,16.1205245 L77.9000821,9.0910999 C77.6435922,8.72709438 77.1038027,8.72709438 76.8470365,9.0910999 L71.8966168,16.1205245 C71.7285717,16.359049 71.8991043,16.6876766 72.1906956,16.6876766 L75.1472385,16.6876766 L75.1472385,20.8810644 C75.1472385,21.2367782 75.4355132,21.5250529 75.791227,21.5250529 L78.9561679,21.5250529 C79.3118817,21.5250529 79.6001564,21.2367782 79.6001564,20.8810644 L79.6001564,16.6876766 L82.5566993,16.6876766 C82.8480143,16.6876766 83.0185468,16.3587726 82.8507782,16.1205245" fill="#ffffff" class="products-hover-color"></path> <mask id="mask-2" fill="white"><use xlink:href="#path-1"></use></mask> <g id="Clip-18"></g></g></g></g></svg>