<svg xmlns="http://www.w3.org/2000/svg" width="120" height="55" viewBox="0 0 120 55">
    <g fill="none" fill-rule="evenodd">
        <path fill="#152B6F" d="M16.313 10.785c0-3.29-2.254-6.832-7.201-6.832H1.186a.928.928 0 0 0-.928.929v18.96c0 .512.415.928.928.928h1.558a.929.929 0 0 0 .929-.929V7.114h5.439c1.105 0 2.05.366 2.734 1.06a3.727 3.727 0 0 1 1.05 2.661v.007c0 2.263-1.456 3.614-3.897 3.614H5.626c-.46 0-.707.54-.406.888l7.932 9.194a.668.668 0 0 0 .507.232h2.905a.53.53 0 0 0 .396-.884l-5.879-6.59c3.875-.716 5.257-3.762 5.232-6.51M21.099 15.762c.518-1.979 2.188-3.227 4.389-3.227 2.416 0 3.928 1.168 4.22 3.227h-8.61zm4.46-6.273c-4.151-.048-7.628 3.018-7.852 7.165-.269 4.979 2.95 8.371 7.837 8.371 2.269 0 4.46-.808 5.904-2.144.184-.17.176-.165.176-.165a.92.92 0 0 0-.004-1.319l-.859-.83a.92.92 0 0 0-1.285.007s-.075.073-.253.212c-.956.747-2.455 1.136-3.621 1.136-2.335 0-4.091-1.287-4.528-3.255H32.66c.11 0 .205-.086.222-.198l.03-.23c.261-2.707-.34-4.953-1.74-6.493-1.316-1.45-3.255-2.23-5.613-2.257zM45.733 20.588c-.83.947-2.021 1.447-3.448 1.447-2.638 0-4.551-1.962-4.551-4.665 0-2.73 1.871-4.636 4.551-4.636l.204-.025c3.017.088 4.393 2.453 4.393 4.653 0 1.234-.408 2.38-1.15 3.226zm1.204-9.143c-1.178-1.191-2.95-1.863-4.798-1.872-2.143 0-4.082.755-5.464 2.127-1.412 1.402-2.158 3.333-2.158 5.586 0 4.607 3.148 7.824 7.654 7.824 1.493 0 3.373-.53 4.724-1.936l.016.698c.01.499.42.898.92.898h1.417a.92.92 0 0 0 .92-.92V10.72a.92.92 0 0 0-.92-.92h-1.384a.92.92 0 0 0-.919.91l-.008.735zM60.388 21.865c-2.224 0-4.466-1.425-4.466-4.608 0-2.795 1.746-4.602 4.45-4.608 2.615.006 4.51 1.93 4.51 4.58 0 2.686-1.89 4.636-4.494 4.636zm4.58-10.472c-1.334-1.341-3.288-1.848-4.78-1.848-4.51 0-7.54 3.111-7.54 7.74 0 4.63 3.042 7.74 7.57 7.74 1.913 0 3.64-.722 4.837-1.98l.036.818a.92.92 0 0 0 .919.879h1.312a.92.92 0 0 0 .92-.92V4.873a.92.92 0 0 0-.92-.92h-1.435a.92.92 0 0 0-.92.92v6.52zM82.858 9.8a.919.919 0 0 0-.919.92v7.076c0 2.35-1.618 4.073-3.841 4.097-2.37 0-3.785-1.457-3.785-3.898V10.72a.919.919 0 0 0-.919-.92h-1.437a.919.919 0 0 0-.918.92v7.303c0 4.237 2.58 6.974 6.582 6.974 1.853-.027 3.315-.566 4.432-1.64v1.338c0 2.636-1.447 4.21-3.87 4.21-1.884 0-2.986-.557-3.46-1.783-.099-.254-.175-.625-.175-.625a.924.924 0 0 0-1.052-.734l-1.326.221a.917.917 0 0 0-.752 1.065s.012.216.118.623c.728 2.793 3.096 4.365 6.675 4.365 3.385 0 7.002-1.914 7.002-7.286V10.72a.919.919 0 0 0-.918-.92h-1.437zM108.799.95l-11.82 16.897a7.198 7.198 0 0 0-1.3 4.126 2.797 2.797 0 0 0 2.797 2.797c.278 0 .435-.128.74-.563l15.92-22.722a.52.52 0 0 0-.426-.818h-5.368a.663.663 0 0 0-.543.283"/>
        <path fill="#F8C10A" d="M119.926 23.95l-7.15-10.152a.93.93 0 0 0-1.522 0l-7.15 10.153a.52.52 0 0 0 .425.82h4.27v6.056c0 .514.416.93.93.93h4.572a.93.93 0 0 0 .93-.93V24.77h4.27a.52.52 0 0 0 .425-.82"/>
        <g fill="#F8C10A">
            <path d="M6.233 36.315H.258v-2.623h14.86v2.623h-5.95v15.562H6.234z"/>
            <path d="M16.234 39.07l.182 1.688c.935-1.637 2.39-1.975 3.767-1.975 1.247 0 2.442.442 3.17 1.092l-1.222 2.338c-.65-.52-1.273-.78-2.26-.78-1.844 0-3.455 1.143-3.455 3.508v6.936H13.74V39.07h2.494zM26.365 45.46c0 2.65 1.87 4.26 4.156 4.26 5.534 0 5.534-8.494 0-8.494-2.286 0-4.156 1.61-4.156 4.234zm8.391-6.39h2.598v12.807h-2.546l-.13-2.078c-.857 1.637-2.832 2.416-4.417 2.416-3.74.026-6.572-2.39-6.572-6.755 0-4.286 2.936-6.677 6.625-6.677 1.818 0 3.559.858 4.364 2.313l.078-2.027zM52.967 39.043l-5.43 12.886H44.6l-5.456-12.886h2.962l1.714 4.131 2.26 5.95 2.028-5.43 1.922-4.65zM64.033 44.213c-.157-2.026-1.637-3.091-3.793-3.091-1.949 0-3.56 1.065-3.975 3.091h7.768zm-7.82 2.26c.233 1.949 1.844 3.222 4.182 3.222 1.3 0 2.936-.494 3.715-1.377l1.741 1.69c-1.325 1.453-3.533 2.18-5.508 2.18-4.208 0-6.91-2.675-6.91-6.78 0-3.897 2.727-6.676 6.728-6.676 4.131 0 6.937 2.52 6.444 7.741H56.213zM69.276 51.877h2.677v-18.16h-2.677z"/>
        </g>
    </g>
</svg>
