<svg width="150" height="71" viewBox="0 0 150 71" fill="none" xmlns="http://www.w3.org/2000/svg">
<path fill-rule="evenodd" clip-rule="evenodd" d="M20.8448 12.5063C20.8448 8.43948 18.0589 4.06226 11.9438 4.06226H2.14723C1.51366 4.06226 1 4.57592 1 5.20997V28.644C1 29.278 1.51366 29.7917 2.14723 29.7917H4.07358C4.70714 29.7917 5.2213 29.278 5.2213 28.644V7.96874H11.9438C13.3096 7.96874 14.4785 8.42122 15.3238 9.2793C16.1666 10.1344 16.6403 11.333 16.622 12.568V12.5769C16.622 15.3742 14.821 17.0439 11.8046 17.0439H7.63565C7.06771 17.0439 6.76179 17.7115 7.13334 18.1418L16.9378 29.5045C17.0947 29.6871 17.3237 29.7917 17.5645 29.7917H21.1547C21.7206 29.7917 22.0206 29.1226 21.6436 28.6997L14.3779 20.5542C19.1671 19.669 20.8754 15.9041 20.8448 12.5063" fill="#152B6F"/>
<path fill-rule="evenodd" clip-rule="evenodd" d="M26.7594 18.6578C27.3999 16.2124 29.4639 14.6694 32.1847 14.6694C35.1704 14.6694 37.04 16.1132 37.4007 18.6578H26.7594ZM32.2735 10.9046C27.1413 10.8453 22.8445 14.6349 22.5677 19.7602C22.2351 25.9142 26.2132 30.1074 32.2542 30.1074C35.0579 30.1074 37.7659 29.1087 39.5511 27.4572C39.7791 27.246 39.7687 27.2534 39.7687 27.2534C40.2261 26.8058 40.2241 26.0687 39.7638 25.6231L38.7024 24.5972C38.2583 24.168 37.5532 24.1719 37.114 24.6052C37.114 24.6052 37.0208 24.6959 36.8017 24.8672C35.6194 25.7914 33.7671 26.272 32.3253 26.272C29.4402 26.272 27.2686 24.6807 26.7288 22.248H41.0506C41.1873 22.248 41.3042 22.1424 41.3245 22.0043L41.363 21.7196C41.6852 18.3736 40.9416 15.5981 39.2126 13.6939C37.5843 11.9018 35.1877 10.9381 32.2735 10.9046Z" fill="#152B6F"/>
<path fill-rule="evenodd" clip-rule="evenodd" d="M57.2074 24.6228C56.1826 25.7928 54.7097 26.4115 52.9461 26.4115C49.686 26.4115 47.3205 23.9868 47.3205 20.6458C47.3205 17.2722 49.6337 14.9156 52.9461 14.9156L53.1983 14.884C56.9276 14.9926 58.628 17.9161 58.628 20.6354C58.628 22.1601 58.1232 23.5763 57.2074 24.6228ZM58.6956 13.3223C57.2405 11.8494 55.0496 11.0195 52.7655 11.0086C50.1168 11.0086 47.7202 11.9412 46.012 13.6376C44.2667 15.37 43.345 17.7573 43.345 20.5412C43.345 26.2359 47.2352 30.2124 52.8055 30.2124C54.65 30.2124 56.9745 29.5576 58.6443 27.8188L58.6635 28.6813C58.6773 29.2986 59.1821 29.792 59.7999 29.792H61.5521C62.1797 29.792 62.6884 29.2828 62.6884 28.6552V12.4262C62.6884 11.7986 62.1797 11.2899 61.5521 11.2899H59.8423C59.2196 11.2899 58.7129 11.7907 58.706 12.4134L58.6956 13.3223Z" fill="#152B6F"/>
<path fill-rule="evenodd" clip-rule="evenodd" d="M75.3209 26.2014C72.573 26.2014 69.8009 24.4404 69.8009 20.5053C69.8009 17.0513 71.9597 14.818 75.3026 14.8101C78.5336 14.818 80.8764 17.1958 80.8764 20.4707C80.8764 23.7915 78.5395 26.2014 75.3209 26.2014V26.2014ZM80.9815 13.2573C79.3335 11.5998 76.9186 10.9742 75.0752 10.9742C69.5004 10.9742 65.7543 14.819 65.7543 20.5408C65.7543 26.2631 69.5142 30.1074 75.1107 30.1074C77.4752 30.1074 79.6098 29.2143 81.0901 27.6585L81.1345 28.6706C81.1611 29.278 81.662 29.7571 82.2699 29.7571H83.8918C84.5194 29.7571 85.0282 29.2484 85.0282 28.6202V5.19906C85.0282 4.57092 84.5194 4.06219 83.8918 4.06219H82.1179C81.4903 4.06219 80.9815 4.57092 80.9815 5.19906V13.2573Z" fill="#152B6F"/>
<path fill-rule="evenodd" clip-rule="evenodd" d="M103.094 11.2896C102.467 11.2896 101.959 11.7983 101.959 12.4255V21.172C101.959 24.0764 99.9592 26.2055 97.2108 26.2361C94.2813 26.2361 92.5326 24.4351 92.5326 21.4178V12.4255C92.5326 11.7983 92.0244 11.2896 91.3972 11.2896H89.6213C88.9942 11.2896 88.486 11.7983 88.486 12.4255V21.4528C88.486 26.6891 91.676 30.072 96.6216 30.072C98.9116 30.039 100.719 29.3733 102.099 28.046V29.6985C102.099 32.9566 100.311 34.9022 97.3164 34.9022C94.9874 34.9022 93.626 34.2139 93.0393 32.6991C92.9175 32.3848 92.8232 31.9268 92.8232 31.9268C92.7102 31.3268 92.125 30.9183 91.5225 31.0189L89.8839 31.2928C89.2621 31.3969 88.8447 31.9875 88.9542 32.6083C88.9542 32.6083 88.97 32.8762 89.1008 33.3785C89.9998 36.8306 92.9273 38.7737 97.3514 38.7737C101.535 38.7737 106.006 36.4077 106.006 29.7681V12.4255C106.006 11.7983 105.497 11.2896 104.87 11.2896H103.094Z" fill="#152B6F"/>
<path fill-rule="evenodd" clip-rule="evenodd" d="M135.158 0.349842L120.548 21.2353C119.502 22.7299 118.941 24.5107 118.941 26.3344C118.941 28.244 120.489 29.7918 122.399 29.7918C122.742 29.7918 122.935 29.634 123.312 29.0961C123.689 28.5583 142.99 1.01104 142.99 1.01104C143.289 0.585208 142.984 0 142.464 0H135.829C135.561 0 135.311 0.130759 135.158 0.349842" fill="#152B6F"/>
<path fill-rule="evenodd" clip-rule="evenodd" d="M148.911 28.7795L140.072 16.2301C139.614 15.5802 138.651 15.5802 138.192 16.2301L129.355 28.7795C129.055 29.2048 129.36 29.792 129.88 29.792H135.158V37.2783C135.158 37.9134 135.672 38.428 136.308 38.428H141.958C142.593 38.428 143.107 37.9134 143.107 37.2783V29.792H148.386C148.906 29.792 149.21 29.2048 148.911 28.7795" fill="#F8C10A"/>
<path d="M18.5222 40.0095V63.3529H21.3424V40.0095H18.5222ZM54.5573 40.0095V63.3529H57.3779V50.8409C58.148 50.2508 58.9531 49.7658 59.7932 49.3858C60.6333 49.0057 61.4384 48.8156 62.2086 48.8156C62.9587 48.8156 63.5688 48.9207 64.0389 49.1307C64.509 49.3307 64.8688 49.6408 65.1188 50.0609C65.3588 50.4409 65.5241 50.9708 65.6141 51.6509C65.7042 52.321 65.7491 53.0415 65.7491 53.8116V63.3529H68.5692V52.4762C68.5692 50.4259 68.0943 48.8558 67.1441 47.7657C66.194 46.6755 64.8136 46.1304 63.0034 46.1304C62.0132 46.1304 61.0485 46.3353 60.1083 46.7454C59.1682 47.1555 58.258 47.7255 57.3779 48.4556V40.0095H54.5573ZM26.8033 40.8644V43.7899H29.9839V40.8644H26.8033ZM1.07422 41.0146V63.3529H4.04497V52.5964H13.7512V49.956H4.04497V43.655H15.3417V41.0146H1.07422ZM74.0602 41.7798V46.5952H72.155V48.9657H74.0602V57.8771C74.0602 59.9074 74.5051 61.3824 75.3952 62.3026C76.2853 63.2227 77.5859 63.6828 79.2961 63.6828C79.7862 63.6828 80.341 63.6379 80.9611 63.5479C81.5911 63.4579 82.1712 63.3427 82.7013 63.2027V60.6677H82.5515C82.3315 60.7577 81.9713 60.8724 81.4712 61.0124C80.9711 61.1424 80.4909 61.2074 80.0309 61.2074C79.2407 61.2074 78.6507 61.1176 78.2606 60.9375C77.8805 60.7475 77.5809 60.4522 77.3609 60.0522C77.1209 59.6221 76.9804 59.1624 76.9404 58.6724C76.9004 58.1723 76.8808 57.4819 76.8808 56.6018V48.9657H82.7013V46.5952H76.8808V41.7798H74.0602ZM41.6705 46.1304C40.7504 46.1304 39.8249 46.3305 38.8948 46.7306C37.9647 47.1207 37.1748 47.6706 36.5247 48.3807C35.8246 49.1408 35.2694 50.0458 34.8594 51.096C34.4593 52.1361 34.2591 53.3765 34.2591 54.8167C34.2591 57.4471 34.8444 59.4873 36.0146 60.9375C37.1948 62.3778 38.7849 63.0978 40.7852 63.0978C41.9854 63.0978 42.9706 62.9329 43.7407 62.6029C44.5208 62.2628 45.336 61.7526 46.1861 61.0725V62.6029C46.1861 63.283 46.1111 63.8979 45.961 64.448C45.811 64.9981 45.5611 65.4683 45.2111 65.8583C44.861 66.2684 44.3708 66.5885 43.7407 66.8185C43.1106 67.0486 42.3156 67.1633 41.3554 67.1633C40.3553 67.1633 39.3552 67.0285 38.3551 66.7585C37.3549 66.4984 36.6248 66.2782 36.1648 66.0981H36.0146V68.9788C36.8347 69.2088 37.6647 69.3837 38.5048 69.5037C39.3549 69.6338 40.225 69.6987 41.1151 69.6987C43.7955 69.6987 45.7808 69.0336 47.071 67.7034C48.3612 66.3732 49.0067 64.2881 49.0067 61.4477V46.5952H46.3663L46.1861 47.3156C45.456 46.9156 44.7608 46.6203 44.1007 46.4303C43.4506 46.2302 42.6407 46.1304 41.6705 46.1304V46.1304ZM26.9831 46.5952V63.3529H29.8037V46.5952H26.9831ZM42.1655 48.6658C42.8056 48.6658 43.4458 48.7408 44.0859 48.8909C44.736 49.0309 45.436 49.2708 46.1861 49.6108V58.7472C45.496 59.2773 44.7358 59.7025 43.9057 60.0226C43.0856 60.3326 42.2656 60.4875 41.4455 60.4875C39.9153 60.4875 38.8202 60.0025 38.1601 59.0323C37.5 58.0622 37.1698 56.6369 37.1698 54.7566C37.1698 52.7763 37.6147 51.266 38.5048 50.2259C39.3949 49.1857 40.6152 48.6658 42.1655 48.6658V48.6658Z" fill="#F8C10A" stroke="#F8C10A" stroke-width="0.768114"/>
</svg>
