<svg xmlns="http://www.w3.org/2000/svg" xmlns:xlink="http://www.w3.org/1999/xlink" width="84" height="37" viewBox="0 0 84 37">
    <defs>
        <path id="a" d="M.006.259h13.459v16.59H.006z"/>
        <path id="c" d="M0 .183h8.602V12.7H0z"/>
    </defs>
    <g fill="none" fill-rule="evenodd">
        <path fill="#152B6F" d="M11.915 7.694c0-2.264-1.551-4.702-4.957-4.702H1.503a.639.639 0 0 0-.64.64v13.05c0 .353.287.639.64.639h1.072a.64.64 0 0 0 .64-.64V5.167h3.743c.761 0 1.412.252 1.883.73.469.477.733 1.144.723 1.832v.005c0 1.558-1.003 2.487-2.683 2.487H4.559a.37.37 0 0 0-.28.612l5.46 6.328a.46.46 0 0 0 .35.16h1.999a.365.365 0 0 0 .272-.608l-4.046-4.537c2.667-.493 3.618-2.59 3.601-4.482M15.21 11.12c.356-1.362 1.505-2.22 3.02-2.22 1.663 0 2.704.803 2.905 2.22H15.21zm3.07-4.318c-2.858-.033-5.251 2.078-5.405 4.932-.185 3.427 2.03 5.762 5.394 5.762 1.562 0 3.07-.556 4.064-1.475.127-.118.121-.114.121-.114a.633.633 0 0 0-.003-.908l-.59-.571a.633.633 0 0 0-.885.004s-.052.05-.174.146c-.659.515-1.69.782-2.493.782-1.607 0-2.816-.886-3.117-2.24h7.976a.157.157 0 0 0 .152-.136l.022-.159c.18-1.863-.235-3.409-1.198-4.47-.906-.997-2.241-1.534-3.864-1.553zM32.166 14.442c-.571.652-1.391.996-2.374.996-1.815 0-3.132-1.35-3.132-3.21 0-1.88 1.288-3.192 3.132-3.192l.14-.017c2.078.06 3.025 1.688 3.025 3.203 0 .849-.281 1.637-.791 2.22zm.828-6.293c-.81-.82-2.03-1.283-3.302-1.289-1.475 0-2.81.52-3.761 1.464-.972.965-1.485 2.295-1.485 3.845 0 3.171 2.166 5.386 5.268 5.386 1.027 0 2.322-.365 3.252-1.333l.01.48a.633.633 0 0 0 .633.619h.976c.35 0 .633-.284.633-.633V7.65a.633.633 0 0 0-.633-.633h-.952a.633.633 0 0 0-.633.626l-.006.506zM42.253 15.321c-1.53 0-3.074-.98-3.074-3.172 0-1.924 1.202-3.167 3.064-3.172 1.8.005 3.104 1.329 3.104 3.153 0 1.85-1.302 3.191-3.094 3.191zm3.152-7.208c-.917-.923-2.262-1.272-3.289-1.272-3.104 0-5.19 2.141-5.19 5.328 0 3.187 2.093 5.327 5.21 5.327 1.317 0 2.505-.497 3.33-1.363l.025.563a.633.633 0 0 0 .632.605h.903c.35 0 .633-.283.633-.633V3.625a.633.633 0 0 0-.633-.633h-.988a.633.633 0 0 0-.633.633v4.488zM57.72 7.017a.632.632 0 0 0-.632.632v4.871c0 1.618-1.114 2.803-2.645 2.82-1.631 0-2.605-1.002-2.605-2.683V7.65a.632.632 0 0 0-.632-.632h-.99a.632.632 0 0 0-.631.632v5.028c0 2.916 1.776 4.8 4.53 4.8 1.276-.019 2.282-.39 3.05-1.129v.92c0 1.815-.995 2.899-2.663 2.899-1.297 0-2.055-.384-2.382-1.227a3.3 3.3 0 0 1-.12-.43.636.636 0 0 0-.724-.506l-.913.153a.631.631 0 0 0-.518.732s.01.15.082.43c.5 1.922 2.131 3.004 4.595 3.004 2.33 0 4.82-1.318 4.82-5.016V7.65a.632.632 0 0 0-.633-.632h-.989z"/>
        <g transform="translate(66.539 .471)">
            <mask id="b" fill="#fff">
                <use xlink:href="#a"/>
            </mask>
            <path fill="#152B6F" d="M9.037.453L.901 12.084a4.955 4.955 0 0 0-.895 2.84c0 1.064.862 1.926 1.926 1.926.19 0 .299-.088.509-.388L13.399.822a.358.358 0 0 0-.293-.563H9.411a.456.456 0 0 0-.374.194" mask="url(#b)"/>
        </g>
        <path fill="#00BBE6" d="M83.235 16.757l-4.922-6.989a.64.64 0 0 0-1.047 0l-4.922 6.989a.358.358 0 0 0 .293.564h2.94v4.169c0 .354.286.64.64.64h3.146a.64.64 0 0 0 .64-.64v-4.17h2.94c.29 0 .459-.326.292-.563"/>
        <g transform="translate(.864 23.279)">
            <mask id="d" fill="#fff">
                <use xlink:href="#c"/>
            </mask>
            <path fill="#00BBE6" d="M2.003.183V10.84h6.599v1.86H0V.183z" mask="url(#d)"/>
        </g>
        <path fill="#00BBE6" d="M10.376 35.98h1.842v-8.853h-1.842v8.852zm2.075-11.41c0 1.52-2.29 1.52-2.29 0 0-1.502 2.29-1.502 2.29 0zM15.405 35.98v-7.082h-1.682V27.27h1.682v-.643c0-2.2 1.377-3.344 3.182-3.344.751 0 1.503.25 2.164.697l-.715 1.377c-.465-.304-.876-.465-1.341-.465-.84 0-1.43.555-1.43 1.735v.643h2.664v1.628h-2.665v7.081h-1.86zM27.886 30.704c-.107-1.395-1.126-2.128-2.61-2.128-1.342 0-2.45.733-2.737 2.128h5.347zm-5.382 1.556c.16 1.341 1.27 2.217 2.879 2.217.894 0 2.02-.34 2.557-.947l1.198 1.162c-.912 1.001-2.432 1.502-3.791 1.502-2.897 0-4.757-1.842-4.757-4.667 0-2.683 1.878-4.596 4.632-4.596 2.843 0 4.774 1.734 4.435 5.329h-7.153z"/>
    </g>
</svg>
