<svg width="121" height="55" viewBox="0 0 121 55" fill="none" xmlns="http://www.w3.org/2000/svg">
<path fill-rule="evenodd" clip-rule="evenodd" d="M16.3133 10.7851C16.3133 7.49476 14.0593 3.95334 9.11185 3.95334H1.18586C0.673272 3.95334 0.25769 4.36892 0.25769 4.88191V23.8414C0.25769 24.3544 0.673272 24.7699 1.18586 24.7699H2.74439C3.25698 24.7699 3.67296 24.3544 3.67296 23.8414V7.11391H9.11185C10.2169 7.11391 11.1626 7.47999 11.8465 8.17422C12.5283 8.86606 12.9116 9.83575 12.8968 10.835V10.8422C12.8968 13.1053 11.4397 14.4562 8.99927 14.4562H5.62632C5.16682 14.4562 4.91931 14.9964 5.21992 15.3445L13.1523 24.5376C13.2792 24.6853 13.4645 24.7699 13.6593 24.7699H16.564C17.0219 24.7699 17.2646 24.2286 16.9596 23.8865L11.0812 17.2963C14.9559 16.5801 16.338 13.5341 16.3133 10.7851Z" fill="white"/>
<path fill-rule="evenodd" clip-rule="evenodd" d="M21.0986 15.762C21.6168 13.7835 23.2867 12.5351 25.4879 12.5351C27.9036 12.5351 29.4162 13.7032 29.708 15.762H21.0986ZM25.5598 9.48914C21.4076 9.44123 17.9312 12.5072 17.7073 16.6538C17.4382 21.6328 20.6567 25.0253 25.5442 25.0253C27.8126 25.0253 30.0034 24.2173 31.4478 22.8812C31.6322 22.7103 31.6239 22.7163 31.6239 22.7163C31.9939 22.3542 31.9923 21.7578 31.6199 21.3973L30.7612 20.5673C30.4019 20.22 29.8314 20.2232 29.4761 20.5737C29.4761 20.5737 29.4006 20.6472 29.2234 20.7857C28.2669 21.5334 26.7682 21.9222 25.6017 21.9222C23.2675 21.9222 21.5106 20.6348 21.0738 18.6667H32.661C32.7716 18.6667 32.8662 18.5812 32.8826 18.4694L32.9137 18.2391C33.1744 15.532 32.5728 13.2865 31.1739 11.7459C29.8565 10.296 27.9176 9.51629 25.5598 9.48914Z" fill="white"/>
<path fill-rule="evenodd" clip-rule="evenodd" d="M45.7327 20.588C44.9035 21.5346 43.7118 22.0352 42.285 22.0352C39.6474 22.0352 37.7336 20.0735 37.7336 17.3704C37.7336 14.641 39.6051 12.7343 42.285 12.7343L42.489 12.7088C45.5063 12.7966 46.882 15.1619 46.882 17.362C46.882 18.5956 46.4736 19.7413 45.7327 20.588ZM46.9367 11.4452C45.7594 10.2536 43.9869 9.58212 42.1389 9.57333C39.996 9.57333 38.057 10.3278 36.6749 11.7003C35.2629 13.102 34.5172 15.0334 34.5172 17.2857C34.5172 21.8931 37.6646 25.1103 42.1713 25.1103C43.6635 25.1103 45.5442 24.5806 46.8952 23.1737L46.9107 23.8716C46.9219 24.371 47.3303 24.7702 47.8301 24.7702H49.2477C49.7555 24.7702 50.1671 24.3582 50.1671 23.8504V10.7203C50.1671 10.2125 49.7555 9.80089 49.2477 9.80089H47.8645C47.3607 9.80089 46.9507 10.2061 46.9451 10.7099L46.9367 11.4452Z" fill="white"/>
<path fill-rule="evenodd" clip-rule="evenodd" d="M60.3875 21.8652C58.1643 21.8652 55.9215 20.4404 55.9215 17.2567C55.9215 14.4622 57.6681 12.6553 60.3728 12.6489C62.9868 12.6553 64.8823 14.5791 64.8823 17.2287C64.8823 19.9154 62.9916 21.8652 60.3875 21.8652ZM64.9673 11.3926C63.6339 10.0517 61.6802 9.54546 60.1887 9.54546C55.6784 9.54546 52.6476 12.6561 52.6476 17.2854C52.6476 21.9151 55.6896 25.0254 60.2175 25.0254C62.1305 25.0254 63.8575 24.3028 65.0551 23.0441L65.0911 23.8629C65.1126 24.3543 65.5178 24.7419 66.0097 24.7419H67.3219C67.8297 24.7419 68.2413 24.3303 68.2413 23.8221V4.87307C68.2413 4.36487 67.8297 3.95328 67.3219 3.95328H65.8867C65.3789 3.95328 64.9673 4.36487 64.9673 4.87307V11.3926Z" fill="white"/>
<path fill-rule="evenodd" clip-rule="evenodd" d="M82.8579 9.80069C82.3505 9.80069 81.9393 10.2123 81.9393 10.7197V17.7961C81.9393 20.1459 80.3213 21.8685 78.0977 21.8933C75.7276 21.8933 74.3128 20.4361 74.3128 17.9949V10.7197C74.3128 10.2123 73.9016 9.80069 73.3942 9.80069H71.9574C71.45 9.80069 71.0388 10.2123 71.0388 10.7197V18.0233C71.0388 22.2597 73.6197 24.9968 77.6211 24.9968C79.4738 24.97 80.9357 24.4315 82.0527 23.3576V24.6946C82.0527 27.3306 80.6056 28.9047 78.1831 28.9047C76.2989 28.9047 75.1974 28.3478 74.7228 27.1222C74.6242 26.8679 74.5479 26.4974 74.5479 26.4974C74.4565 26.012 73.983 25.6814 73.4956 25.7628L72.1698 25.9844C71.6668 26.0686 71.329 26.5465 71.4177 27.0487C71.4177 27.0487 71.4304 27.2655 71.5362 27.6719C72.2636 30.4648 74.6321 32.0369 78.2115 32.0369C81.5964 32.0369 85.2133 30.1227 85.2133 24.7508V10.7197C85.2133 10.2123 84.8021 9.80069 84.2947 9.80069H82.8579Z" fill="white"/>
<path fill-rule="evenodd" clip-rule="evenodd" d="M108.799 0.94976L96.9787 17.8473C96.1328 19.0565 95.6789 20.4973 95.6789 21.9727C95.6789 23.5177 96.9312 24.77 98.4762 24.77C98.7536 24.77 98.9105 24.6423 99.2151 24.2071C99.5201 23.772 115.136 1.48471 115.136 1.48471C115.377 1.14018 115.131 0.666718 114.71 0.666718H109.342C109.126 0.666718 108.923 0.772509 108.799 0.94976Z" fill="white"/>
<path fill-rule="evenodd" clip-rule="evenodd" d="M119.926 23.9509L112.775 13.7977C112.405 13.272 111.625 13.272 111.254 13.7977L104.104 23.9509C103.861 24.2951 104.108 24.7701 104.529 24.7701H108.799V30.827C108.799 31.3408 109.215 31.7572 109.729 31.7572H114.301C114.814 31.7572 115.231 31.3408 115.231 30.827V24.7701H119.501C119.922 24.7701 120.168 24.2951 119.926 23.9509Z" fill="#F8C10A"/>
<path fill-rule="evenodd" clip-rule="evenodd" d="M6.23272 36.3153H0.25769V33.6916H15.1176V36.3153H9.16854V51.877H6.23272V36.3153Z" fill="#F8C10A"/>
<path fill-rule="evenodd" clip-rule="evenodd" d="M16.2338 39.0692L16.4158 40.7579C17.3512 39.1215 18.8059 38.783 20.1828 38.783C21.4299 38.783 22.6248 39.2249 23.3525 39.8748L22.1313 42.2126C21.4818 41.6932 20.8582 41.4333 19.871 41.4333C18.0266 41.4333 16.4158 42.5763 16.4158 44.9408V51.8772H13.7399V39.0692H16.2338Z" fill="#F8C10A"/>
<path fill-rule="evenodd" clip-rule="evenodd" d="M26.3648 45.4601C26.3648 48.1101 28.2351 49.7209 30.5214 49.7209C36.0549 49.7209 36.0549 41.2261 30.5214 41.2261C28.2351 41.2261 26.3648 42.8365 26.3648 45.4601ZM34.7562 39.0691H37.3539V51.8771H34.8081L34.6784 49.7988C33.8209 51.4355 31.8464 52.2148 30.2615 52.2148C26.5205 52.2408 23.6888 49.8251 23.6888 45.4601C23.6888 41.1738 26.6247 38.7829 30.3138 38.7829C32.1322 38.7829 33.8728 39.6408 34.6784 41.0955L34.7562 39.0691Z" fill="#F8C10A"/>
<path fill-rule="evenodd" clip-rule="evenodd" d="M52.9667 39.0435L47.5366 51.9293H44.6012L39.1455 39.0435H42.1073L43.8215 43.1742L46.0818 49.1236L48.1087 43.6935L50.0309 39.0435H52.9667Z" fill="#F8C10A"/>
<path fill-rule="evenodd" clip-rule="evenodd" d="M64.0326 44.213C63.8765 42.1866 62.3958 41.1219 60.2396 41.1219C58.2911 41.1219 56.6802 42.1866 56.2647 44.213H64.0326ZM56.2128 46.4733C56.4463 48.4219 58.0571 49.6946 60.3953 49.6946C61.6944 49.6946 63.3311 49.2012 64.1104 48.3181L65.8514 50.0072C64.526 51.4615 62.3179 52.1889 60.3434 52.1889C56.1345 52.1889 53.433 49.5129 53.433 45.4086C53.433 41.5111 56.1605 38.7318 60.1614 38.7318C64.2921 38.7318 67.0981 41.2516 66.6047 46.4733H56.2128Z" fill="#F8C10A"/>
<path fill-rule="evenodd" clip-rule="evenodd" d="M69.2764 51.877H71.9527V33.7176H69.2764V51.877Z" fill="#F8C10A"/>
</svg>
