<svg xmlns="http://www.w3.org/2000/svg" xmlns:xlink="http://www.w3.org/1999/xlink" width="82" height="36" viewBox="0 0 82 36">
    <defs>
        <path id="a" d="M.006.236h13.282V16.61H.006z"/>
        <path id="c" d="M.212.096h9.283V9.22H.212z"/>
    </defs>
    <g fill="none" fill-rule="evenodd">
        <path fill="#152B6F" d="M11.273 7.6c0-2.236-1.531-4.641-4.892-4.641H.997a.63.63 0 0 0-.63.63v12.879c0 .348.282.63.63.63h1.059a.63.63 0 0 0 .63-.63V5.105h3.695c.75 0 1.393.25 1.858.72.463.47.723 1.13.713 1.808v.005c0 1.537-.99 2.455-2.647 2.455H4.014a.365.365 0 0 0-.276.603l5.388 6.245c.086.1.212.158.344.158h1.973a.36.36 0 0 0 .269-.6l-3.993-4.477c2.632-.486 3.57-2.556 3.554-4.423M14.524 10.98c.352-1.344 1.486-2.192 2.981-2.192 1.641 0 2.668.793 2.867 2.192h-5.848zm3.03-4.261c-2.82-.033-5.182 2.05-5.334 4.867-.183 3.382 2.003 5.686 5.323 5.686 1.541 0 3.03-.549 4.01-1.456.126-.116.12-.113.12-.113a.625.625 0 0 0-.003-.895l-.583-.564a.625.625 0 0 0-.873.004s-.051.05-.171.144c-.65.508-1.668.772-2.46.772-1.586 0-2.78-.874-3.076-2.211h7.87c.076 0 .14-.058.151-.134l.021-.156c.177-1.84-.231-3.365-1.182-4.411-.894-.985-2.211-1.515-3.813-1.533zM31.257 14.258c-.563.643-1.373.983-2.342.983-1.792 0-3.092-1.332-3.092-3.169 0-1.854 1.272-3.149 3.092-3.149l.139-.017c2.05.06 2.984 1.666 2.984 3.16 0 .839-.278 1.617-.781 2.192zm.818-6.21c-.8-.81-2.004-1.266-3.26-1.272-1.455 0-2.772.512-3.71 1.445-.96.952-1.467 2.264-1.467 3.794 0 3.13 2.138 5.315 5.2 5.315 1.013 0 2.29-.36 3.209-1.316l.01.474c.008.34.285.61.625.61h.963c.345 0 .624-.279.624-.624V7.555a.624.624 0 0 0-.624-.624h-.94a.624.624 0 0 0-.625.617l-.005.5zM41.212 15.126c-1.51 0-3.034-.968-3.034-3.13 0-1.9 1.186-3.126 3.024-3.13 1.775.004 3.063 1.31 3.063 3.11 0 1.825-1.284 3.15-3.053 3.15zm3.11-7.114c-.905-.911-2.232-1.255-3.245-1.255-3.064 0-5.123 2.113-5.123 5.258s2.066 5.257 5.142 5.257c1.3 0 2.473-.49 3.286-1.346l.025.557c.014.333.29.597.624.597h.891c.345 0 .624-.28.624-.625V3.583a.625.625 0 0 0-.624-.625h-.975a.625.625 0 0 0-.624.625v4.429zM56.475 6.93a.624.624 0 0 0-.624.625v4.807c0 1.596-1.099 2.766-2.61 2.783-1.61 0-2.57-.99-2.57-2.648V7.555a.624.624 0 0 0-.624-.625h-.976a.624.624 0 0 0-.624.625v4.96c0 2.879 1.753 4.738 4.47 4.738 1.26-.018 2.253-.384 3.011-1.114v.908c0 1.791-.983 2.86-2.628 2.86-1.28 0-2.028-.378-2.35-1.21-.068-.173-.12-.425-.12-.425a.627.627 0 0 0-.714-.499l-.901.15a.623.623 0 0 0-.51.724s.008.147.08.423c.494 1.897 2.103 2.965 4.534 2.965 2.3 0 4.756-1.3 4.756-4.95v-9.53a.624.624 0 0 0-.624-.625h-.976z"/>
        <g transform="translate(65.178 .49)">
            <mask id="b" fill="#fff">
                <use xlink:href="#a"/>
            </mask>
            <path fill="#152B6F" d="M8.919.429L.889 11.907a4.889 4.889 0 0 0-.883 2.802c0 1.05.851 1.9 1.9 1.9.189 0 .296-.087.502-.382L13.223.792a.353.353 0 0 0-.29-.556H9.288A.45.45 0 0 0 8.92.43" mask="url(#b)"/>
        </g>
        <path fill="#47beae" d="M81.655 16.542l-4.858-6.896a.632.632 0 0 0-1.033 0l-4.857 6.896a.353.353 0 0 0 .289.557h2.9v4.114c0 .35.283.632.632.632h3.106a.632.632 0 0 0 .631-.632V17.1h2.901a.353.353 0 0 0 .289-.557M2.343 24.96v4.482h3.759c1.641 0 2.365-1.041 2.365-2.205 0-1.113-.724-2.277-2.347-2.277H2.343zm8.683 10.553H8.714l-3.76-4.27H2.344v4.27H.367v-12.37c1.923 0 3.83.017 5.753.017 2.859 0 4.359 1.959 4.359 4.041 0 1.765-.918 3.494-3.353 3.847l3.688 4.112.212.353zM13.337 31.172c0 1.553 1.006 2.823 2.664 2.823 1.677 0 2.683-1.27 2.683-2.823 0-1.535-1.094-2.86-2.683-2.86-1.658 0-2.664 1.325-2.664 2.86m7.182 0c0 2.576-1.782 4.517-4.518 4.517-2.718 0-4.482-1.94-4.482-4.517 0-2.56 1.782-4.536 4.482-4.536 2.683 0 4.518 1.977 4.518 4.536"/>
        <g transform="translate(21.518 26.523)">
            <mask id="d" fill="#fff">
                <use xlink:href="#c"/>
            </mask>
            <path fill="#47beae" d="M2.03 4.631c0 1.8 1.27 2.895 2.824 2.895 3.758 0 3.758-5.77 0-5.77C3.3 1.755 2.03 2.848 2.03 4.63zm5.7-4.34h1.765v8.7h-1.73l-.088-1.412c-.582 1.112-1.923 1.64-3 1.64C2.136 9.239.212 7.597.212 4.632c0-2.911 1.994-4.535 4.5-4.535 1.235 0 2.418.582 2.965 1.57L7.73.29z" mask="url(#d)"/>
        </g>
        <path fill="#47beae" d="M34.55 31.154c0 1.747 1.218 2.841 2.753 2.841 1.518 0 2.771-1.13 2.771-2.841 0-1.677-1.253-2.824-2.77-2.824-1.536 0-2.754 1.042-2.754 2.824zm7.465-7.976v12.335h-1.712l-.105-1.376c-.689 1.111-1.853 1.553-3.018 1.553-2.523 0-4.447-1.66-4.447-4.536 0-2.965 1.888-4.536 4.412-4.536 1.058 0 2.488.53 3.053 1.554v-4.994h1.817z"/>
    </g>
</svg>
